<svg height="511pt" viewBox="0 -53 511.99918 511" width="511pt" xmlns="http://www.w3.org/2000/svg"><path d="m435.050781 135.625-46.292969-96.480469c-6.355468-13.570312-.503906-29.722656 13.066407-36.078125 13.570312-6.355468 29.722656-.503906 36.074219 13.066406.796874 1.695313 1.425781 3.574219 1.847656 5.324219l23.394531 104.425781c1.878906 8.035157-3.109375 16.078126-11.148437 17.957032-7.003907 1.636718-14.011719-1.949219-16.941407-8.214844zm0 0" fill="#91daff"/><path d="m435.050781 135.625 23.394531 104.421875c3.410157 14.589844 18.007813 23.652344 32.597657 20.238281 14.589843-3.414062 23.648437-18.007812 20.238281-32.597656-.429688-1.820312-1.09375-3.691406-1.847656-5.324219l-46.292969-96.480469c-3.5-7.476562-12.398437-10.699218-19.875-7.199218-6.515625 3.050781-9.792969 10.207031-8.214844 16.941406zm0 0" fill="#91daff"/><path d="m486.648438 174.878906-23.507813-49c-3.5-7.472656-12.398437-10.695312-19.875-7.195312-6.511719 3.050781-9.792969 10.207031-8.214844 16.941406l14.085938 62.875c14.578125-8.601562 27.976562-16.507812 28-16.519531 3.457031-2.0625 6.628906-4.457031 9.511719-7.101563zm0 0" fill="#73bbdf"/><path d="m439.390625 73.164062c-.027344.003907-15.441406 2.09375-32.214844 4.367188l27.875 58.09375c2.933594 6.265625 9.9375 9.851562 16.941407 8.214844 8.039062-1.882813 13.03125-9.921875 11.148437-17.960938l-11.882813-53.050781c-1.410156-.101563-2.828124-.160156-4.257812-.160156-2.53125.003906-5.09375.167969-7.609375.496093zm0 0" fill="#73bbdf"/><path d="m461.289062 155.445312c11.359376-6.78125 16.398438-20.605468 12.0625-33.105468-4.339843-12.5-16.855468-20.238282-29.972656-18.53125l-74.03125 10.039062 27.597656 79.5625zm0 0" fill="#ffe675"/><path d="m471.976562 119.128906c-2.3125 4.683594-5.9375 8.757813-10.6875 11.59375l-64.34375 37.964844-19.40625-55.949219-8.191406 1.109375 27.597656 79.5625 64.34375-37.960937c11.359376-6.785157 16.398438-20.609375 12.0625-33.109375-.386718-1.113282-.859374-2.175782-1.375-3.210938zm0 0" fill="#ffb258"/><path d="m76.734375 385.363281c-.535156 0-1.074219-.027343-1.617187-.085937-7.980469-.882813-13.738282-8.074219-12.855469-16.054688l9.546875-86.273437c.882812-7.984375 8.066406-13.730469 16.054687-12.855469 7.984375.882812 13.738281 8.070312 12.855469 16.050781l-9.546875 86.273438c-.824219 7.441406-7.121094 12.945312-14.4375 12.945312zm0 0" fill="#dadadc"/><path d="m367.417969 369.542969c-6.1875 0-11.925781-3.980469-13.875-10.195313l-33.609375-107.292968c-2.402344-7.664063 1.867187-15.824219 9.53125-18.226563 7.667968-2.394531 15.824218 1.867187 18.226562 9.53125l33.609375 107.289063c2.402344 7.667968-1.867187 15.828124-9.53125 18.226562-1.445312.453125-2.914062.667969-4.351562.667969zm0 0" fill="#dadadc"/><path d="m302.195312 73.867188c48.75-11.160157 100.617188 14.464843 119.28125 62.28125 21.871094 56.039062-10.871093 116.457031-66.035156 135.632812-83.871094 29.15625-173.25 37.570312-261.535156 37.425781-.476562.007813-.949219.019531-1.414062.019531-39.371094.472657-74.625-24.308593-87.519532-61.507812l-3.558594-10.257812c-.957031-2.753907-1.414062-5.582032-1.414062-8.386719 0-8.066407 3.820312-15.859375 10.625-20.777344 4.519531-3.246094 9.765625-4.828125 14.960938-4.828125 7.328124 0 14.582031 3.132812 19.621093 9.132812 2.859375 3.414063 7.992188 3.695313 11.246094.652344 1.03125-.960937 2.097656-1.871094 3.191406-2.753906 17.839844-14.292969 36.503907-28.011719 55.785157-41.03125zm0 0" fill="#ff6881"/><path d="m355.441406 240.878906c-83.871094 29.152344-173.25 37.566406-261.535156 37.421875-.476562.007813-.949219.019531-1.414062.019531-39.371094.476563-74.625-24.304687-87.519532-61.507812l-.675781-1.945312c-2.792969 4.203124-4.296875 9.152343-4.296875 14.207031 0 2.804687.457031 5.632812 1.414062 8.386719l3.558594 10.257812c12.894532 37.199219 48.148438 61.980469 87.519532 61.507812.464843 0 .941406-.011718 1.414062-.019531 88.285156.144531 177.664062-8.269531 261.535156-37.425781 48.429688-16.832031 79.570313-65.453125 71.65625-114.988281-5.984375 37.710937-33.433594 70.796875-71.65625 84.085937zm0 0" fill="#de4b64"/><path d="m302.199219 73.855469c-19.675781-24.070313-49.597657-39.441407-83.113281-39.441407-59.253907 0-107.292969 48.035157-107.292969 107.292969 0 9.601563 1.269531 18.910157 3.636719 27.765625h.007812c.246094.074219 45.984375 14.152344 113.019531-20.984375 66.515625-34.851562 73.59375-73.808593 73.742188-74.621093" fill="#91daff"/><path d="m142.699219 141.707031c0-54.015625 39.917969-98.703125 91.863281-106.183593-5.050781-.730469-10.21875-1.109376-15.476562-1.109376-59.253907 0-107.292969 48.035157-107.292969 107.292969 0 9.601563 1.269531 18.910157 3.636719 27.765625h.007812c.117188.035156 10.84375 3.335938 29.449219 2.785156-1.429688-9.789062-2.1875-23.144531-2.1875-30.550781zm0 0" fill="#73bbdf"/><path d="m259.292969 203.765625-102.1875 17.601563c-11.007813 1.894531-20.121094 9.617187-23.796875 20.167968l-8.03125 23.050782c-7.878906 22.621093.992187 47.6875 21.347656 60.316406 24.351562 15.105468 56.359375 7.273437 70.980469-17.367188l52.375-88.242187c4.515625-7.617188-1.960938-17.03125-10.6875-15.527344zm0 0" fill="#ffe675"/><path d="m177.53125 324.898438c-20.359375-12.628907-29.226562-37.691407-21.347656-60.316407l8.03125-23.046875c1.785156-5.128906 4.859375-14.460937 8.808594-22.910156l-15.917969 2.742188c-11.011719 1.894531-20.125 9.617187-23.796875 20.167968l-8.03125 23.050782c-7.878906 22.621093.988281 47.6875 21.347656 60.316406 13.210938 8.195312 28.679688 9.625 42.398438 5.292968-3.949219-1.257812-7.808594-3.007812-11.492188-5.296874zm0 0" fill="#ffb258"/><path d="m418.480469 355c0 28.199219-22.859375 51.058594-51.058594 51.058594s-51.0625-22.859375-51.0625-51.058594c0-28.203125 22.863281-51.0625 51.0625-51.0625s51.058594 22.859375 51.058594 51.0625zm0 0" fill="#485b73"/><path d="m386.191406 355c0 10.363281-8.402344 18.769531-18.769531 18.769531s-18.769531-8.40625-18.769531-18.769531c0-10.367188 8.402344-18.769531 18.769531-18.769531s18.769531 8.402343 18.769531 18.769531zm0 0" fill="#dadadc"/><path d="m111.957031 370.820312c0 19.460938-15.777343 35.238282-35.238281 35.238282s-35.238281-15.777344-35.238281-35.238282c0-19.460937 15.777343-35.238281 35.238281-35.238281s35.238281 15.777344 35.238281 35.238281zm0 0" fill="#485b73"/><path d="m89.671875 370.820312c0 7.15625-5.800781 12.953126-12.953125 12.953126-7.15625 0-12.953125-5.796876-12.953125-12.953126 0-7.152343 5.796875-12.953124 12.953125-12.953124 7.152344 0 12.953125 5.800781 12.953125 12.953124zm0 0" fill="#dadadc"/></svg>