<svg id="Capa_1" enable-background="new 0 0 512 512" viewBox="0 0 512 512" xmlns="http://www.w3.org/2000/svg"><g><path d="m378.468 31.156c43.166 23.561 78.802 59.196 102.363 102.363 20.326 55.096 17.802 114.756-4.492 166.648-29.571 30.31-66.597 53.317-108.115 66.049-13.507 4.142-14.712 2.783-49.107 9.899-82.578 17.086-95.198 27.45-115.795 26.666-30.603-1.165-72.636-26.705-121.279-136.436-14.808-169.689 142.76-274.151 296.425-235.189z" fill="#ff6e80"/><path d="m476.339 300.167c-51.406 119.658-193.15 169.555-307.788 111.49l-68.221-68.221c-2.4-5.656-14.701-35.965-18.286-77.091 91.422 133.027 281.579 149.361 394.295 33.822z" fill="#f5475e"/><path d="m378.468 31.156c-117.75.74-260.577 132.721-279.498 257.163-53.516-36.333-78.326-102.525-61.875-165.082 72.088-118.646 223.373-156.511 341.373-92.081z" fill="#f8e878"/><path d="m37.095 123.238c.423 60.713 22.244 119.085 61.875 165.082-3.019 19.77-2.637 38.438 1.36 55.117.291.291 1.049 6.951-3.884 10.962-3.894 3.153-9.735 3.266-14.145.093-89.844-6.776-85.987-128.097-54.91-213.792 3.008-5.955 6.243-11.786 9.704-17.462z" fill="#ffcb6b"/><path d="m480.831 133.519c19.605 35.903 30.845 77.019 31.133 120.742-19.345 103.455-105.085 182.955-192.846 121.854 96.912-59.199 161.212-162.969 161.713-242.596z" fill="#f8e878"/><path d="m511.964 254.261c1.607 92.107-50.654 184.853-140.676 230.336-185.12 78.03-232.658-82.847-222.331-88.99 4.005-2.395 17.699 14.19 19.595 16.051 42.218 10.117 97.191-2.926 150.566-35.543 81.709-8.252 152.166-54.979 192.846-121.854z" fill="#ffcb6b"/><path d="m30.945 378.062c36.706-19.708 80.671-9.477 101.658 20.332 16.4 23.296 16.882 55.869 1.323 82.648-43.486-23.633-79.348-59.495-102.981-102.98z" fill="#f5475e"/><path d="m157.497 429.686c58.713 54.603 136.051 69.076 213.791 54.91-74.214 37.515-163.424 36.648-237.363-3.554-7.355-18.049-11.435-37.17-12.146-56.683 12.188-5.714 26.499-3.247 35.718 5.327z" fill="#80daff"/><path d="m27.391 140.7c-14.166 77.74-.567 155.903 54.91 213.791 17.615 4.111 21.532 26.682 5.326 35.718-19.512-.711-38.633-4.791-56.683-12.146-40.198-73.933-41.072-163.143-3.553-237.363z" fill="#80daff"/><ellipse cx="221.378" cy="304.749" fill="#fff" rx="31.873" ry="25.382" transform="matrix(.707 -.707 .707 .707 -150.65 245.797)"/><ellipse cx="343.538" cy="182.589" fill="#fff" rx="31.873" ry="25.382" transform="matrix(.707 -.707 .707 .707 -28.49 296.397)"/><g fill="#495560"><ellipse cx="268.668" cy="229.879" rx="16.919" ry="18.932" transform="matrix(.707 -.707 .707 .707 -83.858 257.303)"/><path d="m233.163 257.091c0 6.822-8.309 10.345-13.19 5.464-4.04-4.039-11.019-1.171-11.019 4.564 0 1.724.672 3.345 1.89 4.564 3.017 3.017 3.017 7.91 0 10.927-3.017 3.018-7.91 3.018-10.927 0-8.541-8.542-8.542-22.44 0-30.982s22.44-8.542 30.982 0c1.51 1.509 2.264 3.486 2.264 5.463z"/><path d="m322.798 167.456c0 6.822-8.309 10.344-13.19 5.464-4.077-4.076-11.019-1.137-11.019 4.564 0 1.724.672 3.345 1.89 4.564 3.017 3.018 3.018 7.911.001 10.927-3.018 3.018-7.91 3.018-10.927.001-4.138-4.138-6.417-9.639-6.417-15.492 0-19.471 23.691-29.198 37.399-15.492 1.509 1.509 2.263 3.487 2.263 5.464z"/></g><path d="m146.298 365.689c19.952 19.952 29.171 47.621 16.453 60.34-14.792 14.787-44.258-.364-60.33-16.463-15.371-15.344-31.651-45.147-16.463-60.33 14.471-14.471 43.794-.094 60.34 16.453z" fill="#7a8ba1"/></g><g/><g/><g/><g/><g/><g/><g/><g/><g/><g/><g/><g/><g/><g/><g/></svg>