<svg id="Capa_1" enable-background="new 0 0 497 497" height="512" viewBox="0 0 497 497" width="512" xmlns="http://www.w3.org/2000/svg"><g><path d="m215.373 118.835h97.495v43.341h-97.495z" fill="#4677d5" transform="matrix(.945 .328 -.328 .945 60.653 -78.818)"/><path d="m222.942 339.753h207.635l37.011 16.268v-16.268-118.932-43.054c0-16.048-10.08-30.211-24.834-34.896l-113.232-35.951c-22.537-7.156-45.311 10.383-45.311 34.896v60.986c0 9.951-8.067 18.019-18.019 18.019h-25.305l-33.299 9.843-8.548 76.111z" fill="#c9aaf2"/><path d="m222.875 337.117v-76.086c0-15.984 6.962-30.337 18.011-40.21h-93.319c-9.952 0-18.019-8.067-18.019-18.019v-26.095c0-15.847-12.847-28.694-28.694-28.694h-42.747c-15.847 0-28.694 12.847-28.694 28.694v44.114 93.545 25.386h193.53c-.043-.873-.068-1.751-.068-2.635z" fill="#b28ae4"/><path d="m246.542 381.751h221.845c15.802 0 28.613-12.81 28.613-28.613v-5.017c0-15.802-12.81-28.613-28.613-28.613h-245.512l-13.863 10.062 7.554 46.54z" fill="#fce3a0"/><path d="m222.875 337.117v-17.609h-194.262c-15.803 0-28.613 12.81-28.613 28.613v5.017c0 15.802 12.81 28.613 28.613 28.613h217.93c-14.283-9.698-23.668-26.069-23.668-44.634z" fill="#ffce71"/><circle cx="128.08" cy="350.629" fill="#155ac8" r="76.137"/><circle cx="368.92" cy="350.629" fill="#4677d5" r="76.137"/><path d="m200.483 176.5-3.806-1.321c-11.987-4.159-18.333-17.249-14.174-29.236l20.91-60.261c4.159-11.987 17.249-18.333 29.236-14.174l3.806 1.321c11.987 4.159 18.333 17.249 14.174 29.236l-20.91 60.261c-4.159 11.988-17.249 18.334-29.236 14.174z" fill="#ff8e9e"/><circle cx="128.08" cy="350.629" fill="#ffce71" r="34.608"/><circle cx="368.919" cy="350.629" fill="#fce3a0" r="34.608"/><ellipse cx="398.736" cy="222.606" fill="#fff" rx="29.816" ry="23.744"/><path d="m235.506 266.632h-27.533c-4.143 0-7.5-3.357-7.5-7.5s3.357-7.5 7.5-7.5h27.533c4.143 0 7.5 3.357 7.5 7.5s-3.358 7.5-7.5 7.5z" fill="#fce3a0"/><path d="m431.786 197.205c-4.143 0-7.5-3.357-7.5-7.5 0-3.454-2.811-6.265-6.266-6.265-3.454 0-6.265 2.811-6.265 6.265 0 4.143-3.357 7.5-7.5 7.5s-7.5-3.357-7.5-7.5c0-11.726 9.539-21.265 21.265-21.265s21.266 9.539 21.266 21.265c0 4.142-3.357 7.5-7.5 7.5z" fill="#3b4456"/></g></svg>