<svg id="Capa_1" enable-background="new 0 0 512 512" viewBox="0 0 512 512" xmlns="http://www.w3.org/2000/svg"><g><path d="m256 11.522c-14.234 0-25.773 11.539-25.773 25.773v86.256h51.546v-86.256c0-14.234-11.539-25.773-25.773-25.773z" fill="#5972a4"/><path d="m281.773 65.251c-8.19-2.353-16.836-3.617-25.773-3.617-8.936 0-17.583 1.263-25.773 3.617v58.3h51.546z" fill="#3b5a9a"/><path d="m256 92.539c-1.588 0-3.157.079-4.716.195-37.381 26.422-31.678 79.029-2.954 102.849l23.664 19.962-.001.001c26.79-7.067 46.547-31.457 46.547-60.467-.001-34.54-28-62.54-62.54-62.54z" fill="#a3e6ff"/><path d="m251.284 92.734c-32.334 2.414-57.823 29.393-57.823 62.344 0 34.54 28 62.539 62.539 62.539 5.529 0 10.888-.725 15.993-2.072v-21.221c-28.724-23.82-33.3-74.244-20.709-101.59z" fill="#59d5ff"/><path d="m74.326 400.701c-4.142 0-7.5-3.357-7.5-7.5v-143.833c0-4.143 3.358-7.5 7.5-7.5s7.5 3.357 7.5 7.5v143.833c0 4.143-3.358 7.5-7.5 7.5z" fill="#5972a4"/><path d="m256 365.639c-4.142 0-7.5-3.357-7.5-7.5v-130.586c0-4.142 3.358-7.5 7.5-7.5s7.5 3.358 7.5 7.5v130.586c0 4.142-3.358 7.5-7.5 7.5z" fill="#5972a4"/><g><path d="m274.728 412.107c0-23.266 10.849-43.993 27.763-57.409 7.913-6.276 4.839-19.097-5.122-20.766-25.661-4.3-53.025 4.058-72.038 25.092-27.082 29.962-27.082 76.203 0 106.165 18.912 20.924 46.089 29.304 71.633 25.159 10.159-1.648 13.583-14.442 5.521-20.839-16.91-13.415-27.757-34.14-27.757-57.402z" fill="#f7e969"/></g><path d="m302.485 469.51c-6.277-4.98-11.714-10.971-16.075-17.722-45.177-22.047-59.205-58.661-44.837-106.523-5.854 3.743-11.328 8.324-16.24 13.759-27.082 29.962-27.082 76.203 0 106.165 18.912 20.924 46.089 29.304 71.633 25.159 10.157-1.648 13.581-14.442 5.519-20.838z" fill="#f5c956"/><path d="m41.519 399.704c-8.097.793-17.22 3.002-25.269 5.66-10.845 3.582-15.126 16.758-8.458 26.03 4.94 6.869 11.01 14.005 17.083 19.403 1.961 1.743 2.87 4.406 2.306 6.968-1.753 7.953-2.473 17.326-2.432 25.814.055 11.421 11.264 19.565 22.142 16.088 8.087-2.585 16.78-6.167 23.803-10.293 2.244-1.318 5.021-1.318 7.264 0 7.023 4.125 15.716 7.708 23.803 10.293 10.879 3.477 22.088-4.667 22.143-16.088.041-8.488-.679-17.861-2.432-25.814-.565-2.562.345-5.225 2.305-6.968 6.073-5.398 12.143-12.534 17.083-19.403 6.669-9.272 2.387-22.449-8.458-26.03-8.049-2.658-17.172-4.867-25.269-5.66-2.602-.255-4.884-1.913-5.93-4.309-3.257-7.456-8.177-15.449-13.192-22.283-6.757-9.207-20.612-9.207-27.37 0-5.015 6.833-9.935 14.827-13.192 22.283-1.046 2.396-3.328 4.054-5.93 4.309z" fill="#f7e969"/><path d="m437.674 400.701c-4.142 0-7.5-3.357-7.5-7.5v-143.833c0-4.143 3.358-7.5 7.5-7.5s7.5 3.357 7.5 7.5v143.833c0 4.143-3.358 7.5-7.5 7.5z" fill="#5972a4"/><path d="m404.867 399.704c-8.097.793-17.22 3.002-25.269 5.66-10.845 3.582-15.126 16.758-8.458 26.03 4.94 6.869 11.01 14.005 17.083 19.403 1.961 1.743 2.87 4.406 2.306 6.968-1.753 7.953-2.473 17.326-2.432 25.814.055 11.421 11.263 19.565 22.142 16.088 8.087-2.585 16.78-6.167 23.803-10.293 2.244-1.318 5.021-1.318 7.264 0 7.023 4.125 15.717 7.708 23.803 10.293 10.879 3.477 22.088-4.667 22.143-16.088.041-8.488-.68-17.861-2.432-25.814-.565-2.562.345-5.225 2.305-6.968 6.073-5.398 12.142-12.534 17.083-19.403 6.669-9.272 2.387-22.449-8.458-26.03-8.049-2.658-17.172-4.867-25.269-5.66-2.602-.255-4.884-1.913-5.93-4.309-3.257-7.456-8.177-15.449-13.192-22.283-6.758-9.207-20.612-9.207-27.37 0-5.015 6.833-9.935 14.827-13.192 22.283-1.047 2.396-3.328 4.054-5.93 4.309z" fill="#f7e969"/><path d="m434.042 489.374c1.183-.695 2.514-1.013 3.837-.975-16.358-26.918-16.811-97.234-11.685-117.711-.789.728-1.539 1.518-2.204 2.424-5.015 6.833-9.935 14.828-13.192 22.283-1.047 2.396-3.328 4.053-5.93 4.308-8.097.794-17.22 3.002-25.269 5.661-10.845 3.582-15.126 16.758-8.458 26.03 4.94 6.869 11.009 14.005 17.083 19.403 1.961 1.743 2.87 4.406 2.306 6.968-1.753 7.953-2.473 17.326-2.432 25.814.055 11.421 11.263 19.565 22.142 16.088 8.085-2.585 16.779-6.167 23.802-10.293z" fill="#f5c956"/><path d="m479.417 209.168c-51.814-11.555-145.194-23.253-223.417-23.253-18.748 0-38.366.673-58.074 1.854-36.128 13.221-37.182 68.231 7.963 82.96 17.087-.98 34.012-1.538 50.112-1.538 71.433 0 159.084 10.953 205.289 21.257 22.446 5.005 44.697-9.131 49.703-31.577 5.005-22.444-9.132-44.697-31.576-49.703z" fill="#b998da"/><path d="m70.694 489.374c1.183-.695 2.514-1.013 3.837-.975-16.358-26.918-16.811-97.234-11.685-117.711-.789.728-1.539 1.518-2.204 2.424-5.015 6.833-9.935 14.828-13.192 22.283-1.047 2.396-3.328 4.053-5.93 4.308-8.097.794-17.22 3.002-25.269 5.661-10.845 3.582-15.126 16.758-8.458 26.03 4.94 6.869 11.01 14.005 17.083 19.403 1.961 1.743 2.87 4.406 2.306 6.968-1.753 7.953-2.473 17.326-2.432 25.814.055 11.421 11.264 19.565 22.142 16.088 8.086-2.585 16.779-6.167 23.802-10.293z" fill="#f5c956"/><path d="m197.926 187.769c-62.522 3.746-125.947 12.614-165.342 21.4-22.444 5.006-36.582 27.259-31.576 49.703 5.006 22.446 27.259 36.585 49.703 31.577 35.792-7.982 96.451-16.351 155.178-19.719-21.191-21.77-20.38-67.758-7.963-82.961z" fill="#8e88d5"/></g><g/><g/><g/><g/><g/><g/><g/><g/><g/><g/><g/><g/><g/><g/><g/></svg>