<svg id="Layer_1" enable-background="new 0 0 512 512" viewBox="0 0 512 512" xmlns="http://www.w3.org/2000/svg"><g><path d="m155.151 192.871c-4.268 0-7.727-3.46-7.727-7.727v-155.152c0-4.268 3.459-7.727 7.727-7.727s7.727 3.46 7.727 7.727v155.152c0 4.268-3.459 7.727-7.727 7.727z" fill="#5972a5"/><path d="m54.303 386.811c-4.268 0-7.727-3.46-7.727-7.727v-356.849c0-4.268 3.459-7.727 7.727-7.727s7.727 3.46 7.727 7.727v356.849c0 4.267-3.459 7.727-7.727 7.727z" fill="#5972a5"/><path d="m204.547 213.297-6.872 6.697c-3.812 3.709-5.553 9.067-4.647 14.321l1.618 9.448c2.266 13.219-11.601 23.305-23.481 17.062l-8.49-4.461c-1.834-.968-3.812-1.566-5.821-1.772-3.143-.33-6.357.258-9.231 1.772l-8.49 4.461c-11.879 6.244-25.747-3.843-23.48-17.062l1.617-9.448c.907-5.255-.835-10.612-4.647-14.321l-6.872-6.697c-9.602-9.365-4.306-25.675 8.964-27.602l9.499-1.381c5.265-.762 9.819-4.08 12.179-8.85l4.245-8.603c1.597-3.235 4.008-5.605 6.8-7.078l5.317 2.998 10.117-2.998c.248.124.495.268.731.412 2.473 1.494 4.606 3.719 6.059 6.666l4.244 8.603c2.359 4.77 6.914 8.088 12.179 8.85l9.499 1.381c13.27 1.927 18.565 18.236 8.963 27.602z" fill="#fbf198"/><path d="m156.857 254.591c-3.142-.33-6.357.258-9.231 1.772l-8.49 4.461c-11.879 6.244-25.747-3.843-23.48-17.062l1.617-9.448c.907-5.255-.835-10.612-4.646-14.321l-6.873-6.697c-9.602-9.365-4.306-25.675 8.964-27.602l9.5-1.381c5.265-.762 9.819-4.08 12.178-8.85l4.245-8.603c4.482-9.077 15.351-11.302 22.965-6.666-15.512 18.334-30.243 58.494-6.749 94.397z" fill="#fad989"/><path d="m103.701 364.721-6.873 6.697c-3.812 3.709-5.553 9.067-4.646 14.321l1.617 9.448c2.267 13.219-11.601 23.305-23.48 17.062l-8.49-4.461c-1.834-.968-3.812-1.566-5.821-1.772-3.143-.33-6.357.258-9.231 1.772l-8.49 4.461c-11.879 6.244-25.747-3.843-23.481-17.062l1.617-9.448c.907-5.255-.834-10.612-4.646-14.321l-6.872-6.697c-9.603-9.365-4.307-25.675 8.964-27.602l9.499-1.381c5.265-.762 9.819-4.08 12.179-8.85l4.244-8.603c1.597-3.235 4.008-5.605 6.8-7.089l6.965 2.277 8.459-2.267c.248.124.495.268.742.412 2.473 1.494 4.606 3.719 6.058 6.666l4.245 8.603c2.359 4.77 6.913 8.088 12.178 8.85l9.5 1.381c13.269 1.928 18.565 18.237 8.963 27.603z" fill="#fbf198"/><path d="m56.008 406.012c-3.142-.33-6.357.258-9.231 1.772l-8.49 4.461c-11.879 6.244-25.747-3.843-23.48-17.062l1.617-9.448c.907-5.255-.835-10.612-4.646-14.321l-6.873-6.697c-9.602-9.365-4.306-25.675 8.964-27.602l9.5-1.381c5.265-.762 9.819-4.08 12.178-8.85l4.245-8.603c4.482-9.077 15.351-11.302 22.965-6.666-15.511 18.334-30.242 58.494-6.749 94.397z" fill="#fad989"/><g fill="#7888af"><path d="m356.849 192.871c-4.268 0-7.727-3.46-7.727-7.727v-155.152c0-4.268 3.459-7.727 7.727-7.727s7.727 3.46 7.727 7.727v155.152c0 4.268-3.459 7.727-7.727 7.727z"/><path d="m457.697 390.54c-4.268 0-7.727-3.46-7.727-7.727v-356.849c0-4.268 3.459-7.727 7.727-7.727s7.727 3.46 7.727 7.727v356.849c0 4.268-3.459 7.727-7.727 7.727z"/><path d="m256 355.781c-4.268 0-7.727-3.46-7.727-7.727v-310.304c0-4.268 3.459-7.727 7.727-7.727s7.727 3.46 7.727 7.727v310.304c0 4.267-3.459 7.727-7.727 7.727z"/></g><path d="m511.999 16.447c0 7.789-5.821 14.352-13.558 15.29-33.464 4.059-125.81 13.775-242.441 13.775-8.459 0-16.794-.052-24.985-.155-24.037-.289-46.858-.958-68.134-1.865h-.011l-9.046-5.656-6.398 4.935c-33.217-1.659-62.158-3.853-85.392-5.965l-6.677-5.378-8.778 3.915c-13.982-1.381-25.14-2.648-33.022-3.606-7.737-.938-13.558-7.501-13.558-15.29 0-8.613 6.995-15.413 15.372-15.413.608 0 1.215.041 1.834.113 33.456 3.956 112.902 11.993 213.728 13.188 8.222.093 16.577.144 25.067.144 112.633 0 202.609-9.056 238.794-13.332 9.159-1.082 17.205 6.068 17.205 15.3z" fill="#ffbed8"/><path d="m231.015 45.357c-104.73-1.226-186.423-9.86-217.456-13.621-7.737-.938-13.558-7.501-13.558-15.29 0-8.613 6.995-15.413 15.372-15.413.608 0 1.215.041 1.834.113 33.454 3.957 112.9 11.994 213.726 13.189-4.709 6.532-9.593 18.03.082 31.022z" fill="#ff97c1"/><path d="m322.537 499.866c-.021.01-.031.021-.051.031-.011 0-.011 0-.011 0-16.372 8.799-35.515 12.807-55.358 10.365-51.062-6.275-87.586-53.37-80.971-104.38 4.719-36.39 29.838-64.992 62.127-76.119l6.676 3.41 8.768-7.274c2.678-.433 5.378-.742 8.108-.938 3.245-.227 5.832 1.401 7.223 3.73 1.751 2.916 1.628 6.903-1.391 9.664-14.537 13.26-24.583 31.568-27.169 52.628-5.635 45.962 26.201 86.752 69.731 94.448 7.253 1.278 8.799 10.942 2.318 14.435z" fill="#fbf198"/><path d="m322.475 499.897c-16.372 8.799-35.515 12.807-55.358 10.365-51.062-6.275-87.586-53.37-80.971-104.38 5.811-44.859 42.634-77.891 85.68-80.92 3.245-.227 5.832 1.401 7.223 3.73-90.449 40.378-91.724 158.595 43.426 171.205z" fill="#fad989"/><path d="m507.095 368.45-6.872 6.697c-3.812 3.709-5.553 9.067-4.646 14.321l1.617 9.448c2.266 13.219-11.602 23.305-23.481 17.062l-8.49-4.461c-1.834-.969-3.812-1.566-5.821-1.772-3.142-.33-6.357.258-9.232 1.772l-8.49 4.461c-11.879 6.244-25.747-3.843-23.48-17.062l1.617-9.448c.907-5.255-.835-10.612-4.646-14.321l-6.873-6.697c-9.602-9.365-4.306-25.675 8.964-27.602l9.5-1.381c5.265-.762 9.819-4.08 12.178-8.85l4.245-8.603c1.597-3.235 4.008-5.605 6.8-7.078l7.078 1.958 8.356-1.958c.247.124.495.268.731.412 2.473 1.494 4.606 3.719 6.059 6.666l4.244 8.603c2.359 4.77 6.914 8.088 12.179 8.85l9.499 1.381c13.271 1.927 18.567 18.237 8.964 27.602z" fill="#fbf198"/><path d="m459.403 409.745c-3.142-.33-6.357.258-9.232 1.772l-8.49 4.461c-11.879 6.244-25.747-3.843-23.48-17.062l1.617-9.448c.907-5.255-.835-10.612-4.646-14.321l-6.873-6.697c-9.602-9.365-4.306-25.675 8.964-27.602l9.5-1.381c5.265-.762 9.819-4.08 12.178-8.85l4.245-8.603c4.482-9.077 15.351-11.302 22.965-6.666-15.511 18.334-30.242 58.494-6.748 94.397z" fill="#fad989"/><path d="m406.249 213.297-6.872 6.697c-3.812 3.709-5.553 9.067-4.647 14.321l1.617 9.448c2.267 13.219-11.601 23.305-23.48 17.062l-8.49-4.461c-1.834-.968-3.812-1.566-5.821-1.772-3.142-.33-6.357.258-9.231 1.772l-8.49 4.461c-11.879 6.244-25.747-3.843-23.481-17.062l1.618-9.448c.907-5.255-.835-10.612-4.647-14.321l-6.872-6.697c-9.602-9.365-4.307-25.675 8.964-27.602l9.499-1.381c5.265-.762 9.819-4.08 12.179-8.85l4.244-8.603c1.597-3.235 4.019-5.605 6.811-7.089l15.413.01h.01c.248.124.495.268.731.412 2.473 1.494 4.606 3.719 6.058 6.666l4.245 8.603c2.359 4.77 6.913 8.088 12.179 8.85l9.499 1.381c13.271 1.928 18.567 18.237 8.964 27.603z" fill="#fbf198"/><path d="m358.554 254.591c-3.142-.33-6.357.258-9.232 1.772l-8.49 4.461c-11.879 6.244-25.747-3.843-23.48-17.062l1.617-9.448c.907-5.255-.835-10.612-4.646-14.321l-6.873-6.697c-9.602-9.365-4.306-25.675 8.964-27.602l9.5-1.381c5.265-.762 9.819-4.08 12.178-8.85l4.245-8.603c4.482-9.077 15.351-11.302 22.965-6.666-15.51 18.334-30.242 58.494-6.748 94.397z" fill="#fad989"/><path d="m480.967 250.934c0 11.169-7.862 20.503-18.36 22.749l-8.655-2.782-3.987 1.988c-9.046-3.184-15.537-11.807-15.537-21.956 0-10.138 6.491-18.772 15.537-21.956l3.792 3.05 8.314-3.946c10.767 2.041 18.896 11.499 18.896 22.853z" fill="#c7aee4"/><path d="m462.607 273.683c-1.577.35-3.225.525-4.915.525-12.848 0-23.264-10.416-23.264-23.275 0-12.848 10.416-23.275 23.264-23.275 1.494 0 2.957.144 4.379.422-4.44 6.503-14.362 25.172.536 45.603z" fill="#b18cd9"/><path d="m480.967 95.78c0 11.745-8.696 21.451-19.998 23.038l-6.821-2.38-4.162 1.309h-.011c-9.046-3.184-15.547-11.807-15.547-21.966 0-10.138 6.491-18.772 15.537-21.956l4.668 2.236 6.336-3.318c11.302 1.586 19.998 11.302 19.998 23.037z" fill="#fbf198"/><path d="m460.969 118.818c-1.072.155-2.164.237-3.277.237-12.848 0-23.264-10.416-23.264-23.275 0-12.848 10.416-23.275 23.264-23.275 1.113 0 2.205.082 3.277.237-4.482 6.698-13.919 25.109 0 46.076z" fill="#fad989"/><path d="m473.209 173.362c0 7.377-5.152 13.549-12.054 15.115l-7.923-2.741-3.256 1.072h-.011c-4.646-2.679-7.779-7.696-7.779-13.445 0-5.759 3.132-10.777 7.779-13.456l5.173 2.421 5.842-4.132c6.995 1.504 12.229 7.717 12.229 15.166z" fill="#ffbed8"/><path d="m461.154 188.477c-1.113.258-2.267.392-3.462.392-8.561 0-15.506-6.944-15.506-15.506 0-8.572 6.944-15.516 15.506-15.516 1.123 0 2.226.124 3.287.35-3.132 4.687-8.922 16.494.175 30.28z" fill="#ff97c1"/><path d="m77.572 250.934c0 11.169-7.861 20.503-18.36 22.749l-9.737-2.607-2.895 1.813c-9.056-3.184-15.548-11.807-15.548-21.956 0-10.138 6.491-18.772 15.548-21.956l4.481 3.163 7.614-4.059c10.768 2.041 18.897 11.499 18.897 22.853z" fill="#c7aee4"/><path d="m59.216 273.683c-1.577.35-3.225.525-4.915.525-12.848 0-23.264-10.416-23.264-23.275 0-12.848 10.416-23.275 23.264-23.275 1.494 0 2.957.144 4.379.422-4.441 6.503-14.363 25.172.536 45.603z" fill="#b18cd9"/><path d="m77.572 95.78c0 11.745-8.696 21.451-19.998 23.038l-7.48-2.679-3.513 1.597c-9.056-3.184-15.548-11.807-15.548-21.956 0-10.138 6.491-18.772 15.548-21.956l2.637 3.555 8.356-4.636c11.302 1.586 19.998 11.302 19.998 23.037z" fill="#fbf198"/><path d="m57.577 118.818c-1.072.155-2.164.237-3.277.237-12.848 0-23.264-10.416-23.264-23.275 0-12.848 10.416-23.275 23.264-23.275 1.113 0 2.205.082 3.277.237-4.482 6.698-13.919 25.109 0 46.076z" fill="#fad989"/><path d="m69.814 173.362c0 7.377-5.152 13.549-12.055 15.115l-8.016-3.338-3.163 1.669c-4.658-2.668-7.789-7.696-7.789-13.445 0-5.759 3.132-10.787 7.789-13.456l4.296 2.442 6.707-4.152c6.997 1.503 12.231 7.716 12.231 15.165z" fill="#ffbed8"/><path d="m57.763 188.477c-1.113.258-2.267.392-3.462.392-8.561 0-15.506-6.944-15.506-15.506 0-8.572 6.944-15.516 15.506-15.516 1.123 0 2.226.124 3.287.35-3.132 4.687-8.923 16.494.175 30.28z" fill="#ff97c1"/><path d="m279.274 169.633c0 11.848-8.86 21.626-20.328 23.069l-7.263-2.689-3.39 1.566h-.011c-9.066-3.173-15.557-11.797-15.557-21.945 0-10.149 6.491-18.782 15.557-21.956l4.06 2.174 6.243-3.348c11.644 1.286 20.689 11.146 20.689 23.129z" fill="#c7aee4"/><path d="m258.947 192.701c-.958.134-1.947.196-2.947.196-12.858 0-23.274-10.416-23.274-23.264 0-12.858 10.416-23.275 23.274-23.275.876 0 1.741.052 2.586.144-4.317 7.336-12.776 26.314.361 46.199z" fill="#b18cd9"/><path d="m271.516 92.051c0 7.253-4.966 13.342-11.694 15.042l-7.789-2.926-3.761 1.339c-4.657-2.679-7.789-7.696-7.789-13.456 0-5.749 3.132-10.777 7.789-13.456l6.388 1.061 5.254-2.627c6.678 1.742 11.602 7.81 11.602 15.023z" fill="#fbf198"/><path d="m259.822 107.093c-1.215.309-2.503.474-3.822.474-8.572 0-15.516-6.944-15.516-15.516 0-8.562 6.945-15.516 15.516-15.516 1.35 0 2.668.175 3.915.495-3.369 5.016-9.922 17.72-.093 30.063z" fill="#fad989"/><path d="m287.033 262.721c0 15.166-10.891 27.798-25.274 30.487l-8.788-2.71-4.698 2.287c-13.394-3.431-23.306-15.599-23.306-30.064s9.912-26.633 23.306-30.064l6.172 3.472 6.758-3.998c14.662 2.473 25.83 15.228 25.83 30.59z" fill="#ffbed8"/><path d="m261.759 293.207c-1.864.361-3.791.546-5.759.546-17.134 0-31.033-13.899-31.033-31.033s13.899-31.033 31.033-31.033c1.772 0 3.513.144 5.203.443-5.801 10.438-17.01 36.824.556 61.077z" fill="#ff97c1"/><path d="m372.363 99.809c0 7.47-5.275 13.703-12.302 15.176l-10.931-1.721h-.011c-4.657-2.679-7.789-7.696-7.789-13.456 0-5.749 3.132-10.777 7.789-13.456l4.41 1.793 6.604-3.503c6.996 1.505 12.23 7.728 12.23 15.167z" fill="#ffbed8"/><path d="m360.061 114.985c-1.04.227-2.112.34-3.215.34-8.562 0-15.516-6.944-15.516-15.516 0-8.562 6.955-15.516 15.516-15.516 1.123 0 2.226.124 3.287.35-3.009 5.151-8.51 17.721-.072 30.342z" fill="#ff97c1"/><path d="m170.67 99.809c0 7.367-5.131 13.528-12.003 15.115l-5.914-2.648-5.327.989c-4.657-2.679-7.789-7.696-7.789-13.456 0-5.749 3.132-10.777 7.789-13.456l4.142 2.112 7.099-3.771c6.872 1.597 12.003 7.758 12.003 15.115z" fill="#ffbed8"/><path d="m158.667 114.923c-1.123.268-2.308.402-3.514.402-8.572 0-15.516-6.944-15.516-15.516 0-8.562 6.944-15.516 15.516-15.516 1.205 0 2.39.134 3.514.402-2.977 5.347-7.995 17.7 0 30.228z" fill="#ff97c1"/></g><g/><g/><g/><g/><g/><g/><g/><g/><g/><g/><g/><g/><g/><g/><g/></svg>