<svg id="Capa_1" enable-background="new 0 0 512 512" height="512" viewBox="0 0 512 512" width="512" xmlns="http://www.w3.org/2000/svg"><g><g><path d="m477.701 257.673c-9.499-6.165-72.606-47.121-82.066-53.261-26.558-7.449-80.315 51.223-68.639 68.628 10.3 6.592 84.085 53.819 102.267 65.456 17.849 6.59 64.181-68.644 48.438-80.823z" fill="#fbe95e"/><path d="m381.875 218.172 13.76-13.759-26.612-17.271h-.01c-22.548-2.789-75.837 52.381-68.773 68.773l26.757 17.126 54.869-54.869z" fill="#ffc94b"/><path d="m217.289 338.86c-3.028-3.031-3.027-7.942.004-10.971 3.03-3.03 7.942-3.027 10.971.003 12.328 12.337 32.282 12.34 44.623-.001 3.029-3.03 7.941-3.029 10.971-.001 3.03 3.03 3.03 7.941 0 10.971-18.397 18.399-48.168 18.411-66.569-.001z" fill="#ff455f"/><path d="m258.644 395.731c-3.03-3.03-3.03-7.941 0-10.972l45.273-45.274c6.961-6.96 6.973-18.212.003-25.175l-31.033-31.033c-3.03-3.03-3.03-7.941 0-10.972 3.029-3.028 7.941-3.028 10.971 0l31.03 31.03c13.031 13.017 13.032 34.09 0 47.121l-45.273 45.274c-3.03 3.03-7.941 3.029-10.971.001z" fill="#ff6e81"/><path d="m226.283 496.648c9.837 13.529 29.427 15.06 41.25 3.237l23.045-23.055c12.185-12.174 13.684-31.392 3.558-45.325-2.082-2.863-52.719-72.494-52.884-72.721-31.022-3.231-71.103 35.815-66.714 66.714z" fill="#fbe95e"/><path d="m156.062 400.092 18.477 25.406 66.714-66.714-18.476-25.407c-36.595-6.962-71.763 27.865-66.715 66.715z" fill="#ffc94b"/><path d="m134.868 472.361c.01.47-.143-6.94-.145-7.044-3.017-24.173-18.324-47.633-30.427-59.521-48.396-47.536-69.431-38.561-70.191-39.309-.003-.003-.015-.015-.041-.041l.003.003c-.005-.005-.012-.011-.016-.015l-22.538 22.538c-15.35 15.36-15.35 40.246 0 55.596l57.344 56.31c9.334 9.175 22.639 13.032 35.53 10.219 18.859-4.269 30.867-20.806 30.481-38.736z" fill="#00d5ff"/><path d="m134.765 467.096h-.01c-113.84-113.792-99.461-99.419-100.704-100.662l21.938-21.938c41.067 0 77.614 38.726 77.834 77.834.096 4.553-.347-16.539.942 44.766z" fill="#00c4fd"/><path d="m260.117 107.021c.572 20.643-15.536 37.922-36.169 38.795l-2.753.117-14.874-29.748c-4.396-8.792-2.669-19.415 4.282-26.365 8.853-8.874 23.351-8.972 32.303 0z" fill="#00d5ff"/><path d="m396.319 93.119-25.786 25.797c-19.718 18.649-50.748-4.386-42.036-24.68l34.464-34.464c18.961-12.223 45.726 16.545 33.358 33.347z" fill="#00d5ff"/><path d="m378.983 123.881-8.379-4.923c-85.125-16.043-168.642 55.015-218.327 158.833-21.478 44.877-28.931 99.742-20.336 142.657l1.882 1.882c5.029-5.03 63.258-63.259 120.723-120.723l39.724-54.66s47.814-32.878 60.478-45.542c6.86-6.86 11.816-11.816 14.264-14.264h.01l16.012-16.012c13.923-13.932 10.944-37.277-6.051-47.248z" fill="#ff6e81"/><path d="m370.604 118.958c-75.507-44.331-29.145-17.112-54.447-31.972-13.364-7.84-30.337-5.668-41.291 5.285-.045.045-29.424 29.421-62.565 62.56l-10.427 26.794-22.932 6.562c-7.795 7.794-15.322 15.321-22.239 22.238l-10.703 25.408-22.655 7.948c-2.239 2.239-3.376 3.376-3.165 3.165-10.616 10.616-18.144 23.971-21.763 38.447-3.641 14.553-11.161 27.845-21.773 38.447l-20.656 20.656 75.952 75.952c3.403-41.442 15.634-86.948 37.111-131.825 49.687-103.818 133.023-171.242 201.553-169.665z" fill="#ff455f"/><path d="m157.469 346.078c0 10.869-8.815 19.658-19.667 19.658-10.883 0-19.659-8.828-19.659-19.658 0-10.859 8.811-19.663 19.663-19.663 10.836 0 19.663 8.79 19.663 19.663z" fill="#fbe95e"/><path d="m450.001 32.279-26.2-26.19c-8.12-8.12-21.277-8.12-29.396 0l-1.547 1.546c-15.479 15.479-12.822 25.916-4.671 34.067l26.189 26.19c8.115 8.115 18.916 10.49 34.187-4.781l1.529-1.528c8.023-8.127 7.996-21.217-.091-29.304z" fill="#00d5ff"/><path d="m419.159 63.112-26.19-26.189c-8.134-8.134-8.071-21.201-.11-29.286l-26.753 26.743c-8.068 8.068-8.179 21.227 0 29.406l26.19 26.189c8.115 8.116 21.276 8.13 29.406 0 9.299-9.299 27.12-27.103 28.392-28.392l-1.529 1.528c-8.115 8.116-21.276 8.131-29.406.001z" fill="#00c4fd"/><path d="m354.625 201.529c-8.757 8.757-89.433 89.433-100.073 100.073l-10.933-10.933c-9.309-9.309-9.309-24.411 0-33.73l66.343-66.343c9.309-9.309 24.41-9.309 33.73 0z" fill="#ff455f"/><path d="m232.914 185.755c6.113 9.175 4.913 21.39-2.886 29.189-10.299 10.299-27.481 8.645-35.602-3.527l-15.484-23.231 33.358-33.358z" fill="#fbe95e"/><path d="m177.318 241.351c6.123 9.175 4.913 21.39-2.886 29.179-10.272 10.272-27.469 8.674-35.602-3.517l-15.484-23.231 33.357-33.358z" fill="#fbe95e"/><path d="m429.263 338.507v-.01c.445-1.252 1.014-2.482 1.727-3.662 46.466-77.202 44.367-74.551 46.711-77.162 6.154-6.899 16.529-8.678 24.752-3.744 9.342 5.599 12.311 17.707 6.744 26.965l-44.497 74.162c-5.585 9.309-17.656 12.329-26.965 6.744-8.036-4.815-11.48-14.569-8.472-23.293z" fill="#ffc94b"/></g></g></svg>