<svg id="Capa_1" enable-background="new 0 0 512 512" viewBox="0 0 512 512" xmlns="http://www.w3.org/2000/svg"><g><g><path d="m199.934 196.061-9.895-104.867-159.561-64.589c-14.251 14.251-23.206 33.799-23.675 55.452l-2.912 134.655c-.371 17.137 4.67 33.392 13.744 46.885z" fill="#ffa1ac"/></g><g><path d="m142.967 217.166-2.516-.737c-35.098-10.275-58.937-42.821-58.147-79.384l1.918-88.685-53.73-21.75c-14.256 14.249-23.22 33.79-23.689 55.447l-2.912 134.655c-.371 17.137 4.67 33.392 13.744 46.885z" fill="#ff6e80"/></g><g><g><path d="m85.203 2.965c-21.362.651-40.635 9.55-54.725 23.641l53.067 53.067z" fill="#99b2e9"/></g><g><path d="m334.962 273.373-81.607-23.891 83.123 83.123c14.447-14.447 23.531-34.248 23.78-55.901-8.217.226-16.714-.818-25.296-3.331z" fill="#99b2e9"/></g></g><g><path d="m267.47 13.763c-13.493-9.074-29.748-14.115-46.885-13.744l-134.656 2.912c-21.653.468-41.2 9.423-55.451 23.674l112.075 112.075 87.544-33.411z" fill="#9bc5ff"/></g><g><path d="m85.203 2.965c-21.362.651-40.635 9.55-54.725 23.641l53.067 53.067z" fill="#69a8ff"/></g><g><path d="m336.478 332.606-106.381-227.337-87.544 33.411-124.918 124.917c10.286 15.294 25.755 27.04 44.403 32.499l194.512 56.944c30.68 8.982 60.262-.768 79.928-20.434z" fill="#ace094"/></g><g><path d="m304.601 264.485-164.151-48.056c-18.344-5.37-33.601-16.831-43.885-31.762l-78.93 78.93c10.286 15.294 25.755 27.04 44.403 32.499l194.512 56.944c30.683 8.983 60.262-.773 79.925-20.444z" fill="#8dd470"/></g><g><path d="m356.913 252.677-56.944-194.511c-5.459-18.648-17.205-34.117-32.499-44.403l-124.917 124.917 193.925 193.925c19.666-19.666 29.417-49.247 20.435-79.928z" fill="#fce3a0"/></g><g><path d="m334.962 273.373-81.607-23.891 83.123 83.123c14.447-14.447 23.531-34.248 23.78-55.901-8.217.226-16.714-.818-25.296-3.331z" fill="#f9d171"/></g><g><path d="m318.905 364.011c14.845 40.539 24.48 83.151 28.402 126.848 1.448 16.46 18.946 26.884 32.722 17.737 5.511-3.765 10.982-7.637 16.41-11.615 6.052-4.438 13.728-5.132 20.374-1.437 5.942 3.31 11.855 6.738 17.737 10.284 14.48 9.025 31.507-4.535 29.688-25.472-5.268-58.686-18.88-115.789-40.031-169.739z" fill="#ffa1ac"/></g><g><g><path d="m398.702 476.803c-3.922-43.696-13.557-86.309-28.402-126.848l57.749-29.281c-1.252-3.364-2.531-6.717-3.841-10.057l-105.303 53.393c14.845 40.539 24.48 83.151 28.402 126.848 1.448 16.46 18.946 26.884 32.722 17.737 5.511-3.765 10.982-7.637 16.41-11.615 3.298-2.419 7.08-3.716 10.914-3.806-4.698-3.784-8.052-9.557-8.651-16.371z" fill="#ff6e80"/></g></g><g><path d="m376.741 349.002c13.329-2.858 26.64-5.734 39.829-8.733 15.512-3.527 31.134-7.091 45.687-13.513s28.138-15.964 36.843-29.277c8.706-13.314 11.936-30.742 6.02-45.508-5.279-13.178-14.764-19.45-25.863-21.626-13.506-2.649-24.048-13.191-26.697-26.697-2.177-11.099-8.449-20.584-21.627-25.863-14.766-5.916-32.194-2.686-45.508 6.02-13.313 8.705-22.855 22.29-29.277 36.843-6.423 14.553-9.986 30.176-13.513 45.687-2.999 13.188-5.875 26.499-8.732 39.829z" fill="#d3dcfb"/></g><g><path d="m310.037 330.031c-13.33 2.858-26.641 5.734-39.829 8.732-15.511 3.527-31.134 7.091-45.687 13.513s-28.138 15.964-36.842 29.277c-8.706 13.314-11.936 30.742-6.02 45.508 5.279 13.178 14.764 19.45 25.863 21.626 13.506 2.649 24.048 13.191 26.697 26.697 2.177 11.099 8.448 20.584 21.627 25.863 14.766 5.916 32.194 2.686 45.507-6.02 13.313-8.705 22.855-22.29 29.277-36.843s9.986-30.175 13.513-45.687c2.999-13.188 5.875-26.499 8.732-39.829z" fill="#d3dcfb"/></g><g><path d="m301.351 495.227c13.313-8.705 22.855-22.29 29.277-36.843s9.986-30.175 13.513-45.687c2.999-13.189 5.875-26.499 8.732-39.829l-42.837-42.838c-13.33 2.858-26.641 5.734-39.829 8.732-15.511 3.527-31.134 7.091-45.687 13.513s-28.138 15.964-36.842 29.277c0 0 54.609-4.322 86.308 27.377s27.365 86.298 27.365 86.298z" fill="#bec8f7"/></g><g><path d="m385.426 183.805c-13.313 8.705-22.855 22.29-29.277 36.843s-9.986 30.175-13.513 45.687c-2.999 13.189-5.875 26.499-8.732 39.829l42.837 42.838c13.33-2.858 26.641-5.734 39.829-8.732 15.511-3.527 31.134-7.091 45.687-13.513s28.138-15.964 36.842-29.277c0 0-54.609 4.322-86.308-27.377s-27.365-86.298-27.365-86.298z" fill="#bec8f7"/></g><g><circle cx="343.389" cy="339.516" fill="#e9efff" r="61.547"/></g><g><path d="m343.389 339.516c-16.106-16.106-21.402-38.913-15.923-59.443-10.108 2.697-19.667 7.994-27.597 15.923-24.035 24.036-24.035 63.004 0 87.04 24.035 24.035 63.004 24.036 87.04 0 7.93-7.93 13.226-17.489 15.923-27.597-20.53 5.479-43.338.183-59.443-15.923z" fill="#d3dcfb"/></g></g><g/><g/><g/><g/><g/><g/><g/><g/><g/><g/><g/><g/><g/><g/><g/></svg>