<?xml version="1.0" encoding="iso-8859-1"?>
<!-- Generator: Adobe Illustrator 19.0.0, SVG Export Plug-In . SVG Version: 6.00 Build 0)  -->
<svg version="1.1" id="Capa_1" xmlns="http://www.w3.org/2000/svg" xmlns:xlink="http://www.w3.org/1999/xlink" x="0px" y="0px"
	 viewBox="0 0 512.001 512.001" style="enable-background:new 0 0 512.001 512.001;" xml:space="preserve">
<path style="fill:#F26666;" d="M270.843,253.798l-121.271-35.22c-26.323-7.645-41.465-35.182-33.82-61.505l35.22-121.271
	c7.645-26.323,35.182-41.465,61.505-33.82l121.271,35.22c26.323,7.645,41.465,35.182,33.82,61.505l-35.22,121.271
	C324.703,246.301,297.166,261.443,270.843,253.798z"/>
<path style="fill:#DD5B5B;" d="M333.747,37.202L289.562,24.37c22.235,10.053,34.28,35.173,27.277,59.287L281.47,205.438
	c-7.062,24.317-31.029,39.116-55.4,35.357l44.773,13.003c26.323,7.645,53.86-7.497,61.505-33.82l35.22-121.271
	C375.213,72.384,360.071,44.847,333.747,37.202z"/>
<path style="fill:#73E7E6;" d="M209.226,491.191L84.564,511.356c-27.059,4.377-52.543-14.011-56.92-41.07L7.479,345.624
	c-4.377-27.059,14.011-52.543,41.07-56.92l124.661-20.165c27.059-4.377,52.543,14.011,56.92,41.07l20.165,124.661
	C254.673,461.33,236.285,486.814,209.226,491.191z"/>
<path style="fill:#65D1CB;" d="M250.296,434.271L230.131,309.61c-4.377-27.059-29.861-45.447-56.92-41.07l-46.577,7.534
	c24.914-0.899,47.182,16.863,51.266,42.11l20.379,125.99c3.647,22.543-8.348,43.993-27.991,53.315l38.937-6.298
	C236.285,486.814,254.673,461.33,250.296,434.271z"/>
<path style="fill:#FF9F40;" d="M455.533,498.384H329.251c-27.411,0-49.632-22.221-49.632-49.632V322.47
	c0-27.411,22.221-49.632,49.632-49.632h126.282c27.411,0,49.632,22.221,49.632,49.632v126.282
	C505.165,476.163,482.944,498.384,455.533,498.384z"/>
<path style="fill:#F49138;" d="M455.533,272.838h-40.439c22.129,5.253,38.595,25.129,38.595,48.865v127.816
	c0,23.735-16.466,43.612-38.595,48.865h40.439c27.411,0,49.632-22.221,49.632-49.632V322.47
	C505.165,295.059,482.944,272.838,455.533,272.838z"/>
<g>
	<path style="fill:#FFFFFF;" d="M236.701,181.264c-1.139,0-2.35-0.177-3.502-0.512c-3.965-1.152-7.708-4.197-6.556-8.163
		l21.25-73.167l-4.173,2.955l-0.051,0.028c-0.879,0.484-1.909,0.75-2.899,0.75c-0.46,0-0.906-0.058-1.288-0.169
		c-1.649-0.479-2.95-1.72-3.663-3.494c-0.638-1.586-0.73-3.441-0.251-5.089c0.71-2.445,2.744-4.617,5.078-5.432l18.116-9.503
		c0.973-0.536,1.948-0.802,2.961-0.802c0.62,0,1.252,0.096,1.931,0.293c3.565,1.035,6.772,4.36,5.737,7.925l-26.28,90.487
		C242.401,179.808,240.005,181.264,236.701,181.264z"/>
	<path style="fill:#FFFFFF;" d="M107.93,446.972c-3.16,0-6.791-1.682-7.295-4.801l-2.205-13.63
		c-1.947-12.041,8.733-22.852,19.063-33.306c10.031-10.153,19.505-19.742,17.861-29.908c-0.942-5.821-5.453-11.695-13.406-11.695
		c-0.956,0-1.956,0.083-2.975,0.248c-3.841,0.621-6.907,2.222-8.866,4.63c-2.161,2.656-2.908,6.154-2.222,10.395
		c0.527,3.262-2.25,7.174-7.812,8.074c-0.603,0.097-1.183,0.147-1.727,0.147c-4.123,0-6.659-2.758-7.54-8.198
		c-2.387-14.757,8.633-27.959,25.634-30.71c1.935-0.313,3.892-0.471,5.817-0.471c15.554,0,27.592,9.814,29.955,24.421
		c2.907,17.977-11.077,31.593-22.315,42.533c-8.122,7.908-15.137,14.737-14.119,21.034l0.7,4.323l40.293-6.518
		c0.232-0.038,0.467-0.056,0.703-0.056c3.015,0,5.844,2.888,6.441,6.576c0.656,4.062-1.573,8.218-4.679,8.721l-50.021,8.091
		C108.808,446.938,108.375,446.971,107.93,446.972z"/>
	<path style="fill:#FFFFFF;" d="M391.894,439.091c-10.312,0-18.876-2.972-24.766-8.594c-4.906-4.683-7.72-11.057-7.72-17.487
		c0-5.419,2.17-7.435,8.004-7.435c6.374,0,8.858,1.885,8.858,6.723c0,5.652,4.875,11.354,15.766,11.354
		c11.351,0,16.194-4.97,16.194-16.62v-2.704c0-9.747-5.343-14.485-16.335-14.485c-3.62,0-5.869-2.685-5.869-7.007
		c0-4.41,2.249-7.15,5.869-7.15c8.267,0,13.773-2.488,13.773-14.628c0-9.427-4.072-13.631-13.204-13.631
		c-11.384,0-13.773,5.787-13.773,10.642c0,4.744-2.741,7.15-8.146,7.15c-6.954,0-8.858-1.721-8.858-8.004
		c0-9.317,6.512-25.084,30.919-25.084c19.667,0,29.639,8.871,29.639,26.365c0,10.851-3.738,19.497-10.103,23.646
		c8.669,4.119,13.234,11.747,13.234,22.185v2.704C425.375,419.005,421.026,439.091,391.894,439.091z"/>
</g>
<g>
</g>
<g>
</g>
<g>
</g>
<g>
</g>
<g>
</g>
<g>
</g>
<g>
</g>
<g>
</g>
<g>
</g>
<g>
</g>
<g>
</g>
<g>
</g>
<g>
</g>
<g>
</g>
<g>
</g>
</svg>
