<svg height="512pt" viewBox="0 0 512.001 512" width="512pt" xmlns="http://www.w3.org/2000/svg"><path d="m98.402344 254.023438h32.625v-25.492188c0-58.972656-47.800782-106.773438-106.769532-106.773438-4.507812 0-7.234374 4.980469-4.808593 8.777344zm0 0" fill="#af7954"/><path d="m100.289062 254.023438-48.425781 180.726562c-1.472656 5.496094 1.789063 11.144531 7.285157 12.617188l29.851562 8c5.496094 1.472656 11.144531-1.789063 12.617188-7.285157l51.996093-194.058593zm0 0" fill="#ce926a"/><path d="m68.363281 449.835938 52.527344-195.8125h-20.605469l-48.421875 180.726562c-1.472656 5.496094 1.789063 11.144531 7.285157 12.617188zm0 0" fill="#af7954"/><path d="m416.433594 254.023438h-53.324219l51.996094 194.058593c1.472656 5.496094 7.121093 8.753907 12.617187 7.28125l29.851563-7.996093c5.496093-1.476563 8.757812-7.121094 7.285156-12.617188zm0 0" fill="#ce926a"/><path d="m435.710938 448.082031-52-194.058593h-20.601563l51.996094 194.058593c1.472656 5.496094 7.121093 8.753907 12.617187 7.28125l10.507813-2.816406c-1.167969-1.210937-2.054688-2.726563-2.519531-4.464844zm0 0" fill="#af7954"/><path d="m423.410156 137.765625c0-4.230469 4.945313-6.527344 8.175782-3.800781l13.988281 11.800781c16.542969 13.960937 39.945312 16.371094 58.988281 6.078125 6.46875-3.496094 9.191406-11.359375 6.265625-18.109375l-53.042969-122.359375c-2.996094-6.90625-9.804687-11.375-17.328125-11.375-83.015625 0-150.3125 67.296875-150.3125 150.3125v103.710938h133.265625zm0 0" fill="#ce926a"/><path d="m450.902344 3.15625c-3.035156-2.015625-6.648438-3.15625-10.445313-3.15625-83.015625 0-150.3125 67.296875-150.3125 150.3125v103.710938h41.207031v-103.710938c0-72.472656 51.289063-132.960938 119.550782-147.15625zm0 0" fill="#af7954"/><path d="m454.910156 279.777344h-393.097656c-5.691406 0-10.304688-4.613282-10.304688-10.300782v-30.90625c0-5.691406 4.613282-10.300781 10.304688-10.300781h393.097656c5.691406 0 10.304688 4.609375 10.304688 10.300781v30.90625c0 5.6875-4.613282 10.300782-10.304688 10.300782zm0 0" fill="#e2a77f"/><path d="m92.714844 269.476562v-30.90625c0-5.691406 4.613281-10.300781 10.304687-10.300781h-41.207031c-5.691406 0-10.304688 4.609375-10.304688 10.300781v30.90625c0 5.6875 4.613282 10.300782 10.304688 10.300782h41.207031c-5.691406 0-10.304687-4.613282-10.304687-10.300782zm0 0" fill="#ce926a"/><path d="m498.777344 467.265625c-157.464844 59.648437-328.09375 59.644531-485.558594 0-7.976562-3.023437-13.21875-10.710937-13.21875-19.238281v-22.363282c0-7.179687 7.175781-12.191406 13.890625-9.65625 157.050781 59.308594 327.164063 59.3125 484.21875 0 6.714844-2.535156 13.890625 2.476563 13.890625 9.65625v22.363282c0 8.527344-5.242188 16.214844-13.222656 19.238281zm0 0" fill="#e2a77f"/><path d="m498.777344 446.660156c-157.464844 59.648438-328.09375 59.648438-485.558594 0-7.976562-3.019531-13.21875-10.707031-13.21875-19.238281v20.605469c0 8.53125 5.242188 16.214844 13.222656 19.238281 157.460938 59.648437 328.09375 59.648437 485.558594 0 7.976562-3.023437 13.21875-10.707031 13.21875-19.238281v-20.605469c0 8.53125-5.242188 16.21875-13.222656 19.238281zm0 0" fill="#ce926a"/><path d="m445.054688 80.367188c-4.144532 0-7.5-3.355469-7.5-7.5v-11.695313c0-4.144531 3.355468-7.5 7.5-7.5 4.140624 0 7.5 3.355469 7.5 7.5v11.695313c0 4.144531-3.359376 7.5-7.5 7.5zm0 0" fill="#1d1d1f"/><path d="m450.902344 102.480469h-11.699219c-4.140625 0-7.5-3.355469-7.5-7.5 0-4.140625 3.359375-7.5 7.5-7.5h11.699219c4.140625 0 7.5 3.359375 7.5 7.5 0 4.144531-3.359375 7.5-7.5 7.5zm0 0" fill="#fefefe"/></svg>