<svg id="Capa_1" enable-background="new 0 0 512 512" height="512" viewBox="0 0 512 512" width="512" xmlns="http://www.w3.org/2000/svg"><path d="m429.042 228.853c-9.283-87.368-83.21-155.432-173.042-155.432s-163.759 68.064-173.043 155.432c-48.363 17.362-82.957 63.615-82.957 117.953 0 17.592 14.261 31.853 31.853 31.853h448.295c17.591 0 31.853-14.261 31.853-31.853-.001-54.338-34.595-100.591-82.959-117.953z" fill="#e8899e"/><path d="m201.788 82.043c-63.902 20.933-111.503 77.854-118.83 146.81-48.364 17.362-82.958 63.615-82.958 117.953 0 17.592 14.261 31.853 31.853 31.853h230.578c-84.9-74.879-84.763-230.701-60.643-296.616z" fill="#de5c6e"/><path d="m281.675 221.513h85.748c5.882 0 10.107-5.702 8.362-11.319-13.195-42.466-48.348-75.26-92.182-85.106-5.464-1.227-10.668 2.895-10.668 8.495v79.191c0 4.826 3.913 8.739 8.74 8.739z" fill="#a3defe"/><path d="m228.397 125.087c-43.834 9.846-78.987 42.64-92.182 85.106-1.745 5.618 2.48 11.319 8.362 11.319h85.748c4.827 0 8.74-3.913 8.74-8.74v-79.191c0-5.599-5.205-9.721-10.668-8.494z" fill="#a3defe"/><path d="m144.577 221.513h45.961c-3.335-28.144-3.346-55.837-.977-80.436-25.172 15.755-44.357 40.187-53.346 69.116-1.745 5.618 2.48 11.32 8.362 11.32z" fill="#7acefa"/><path d="m493.647 313.571h13.888c2.905 10.585 4.465 21.728 4.465 33.236 0 17.592-14.261 31.853-31.853 31.853h-25.061v-26.527c.001-21.298 17.265-38.562 38.561-38.562z" fill="#f7ef87"/><path d="m291.311 378.659c0-45.226 36.662-81.888 81.888-81.888 45.225 0 81.888 36.662 81.888 81.888z" fill="#de5c6e"/><circle cx="373.199" cy="378.659" fill="#4e5660" r="59.921"/><ellipse cx="373.199" cy="378.659" fill="#fcf2d0" rx="27.312" ry="27.312" transform="matrix(.707 -.707 .707 .707 -158.445 374.798)"/><circle cx="138.801" cy="378.659" fill="#4e5660" r="59.921"/><ellipse cx="138.801" cy="378.659" fill="#fcf2d0" rx="27.312" ry="27.312" transform="matrix(.23 -.973 .973 .23 -261.618 426.749)"/><path d="m300.387 263.114h-16.257c-4.143 0-7.5-3.358-7.5-7.5s3.357-7.5 7.5-7.5h16.257c4.143 0 7.5 3.358 7.5 7.5s-3.358 7.5-7.5 7.5z" fill="#de5c6e"/><path d="m160.402 263.114h-16.257c-4.143 0-7.5-3.358-7.5-7.5s3.357-7.5 7.5-7.5h16.257c4.143 0 7.5 3.358 7.5 7.5s-3.357 7.5-7.5 7.5z" fill="#e8899e"/><path d="m30.791 333.31h-30.051c-.476 4.436-.74 8.935-.74 13.496 0 17.592 14.261 31.853 31.853 31.853h25.061v-19.226c-.001-14.427-11.696-26.123-26.123-26.123z" fill="#f7ef87"/></svg>