<svg id="Capa_1" enable-background="new 0 0 512 512" viewBox="0 0 512 512" xmlns="http://www.w3.org/2000/svg"><g><g><path d="m267.964 512h-25.42c-9.612 0-17.405-7.792-17.405-17.405v-293.398h60.229v293.399c0 9.612-7.792 17.404-17.404 17.404z" fill="#5972a5"/><g><g><path d="m256 214.547-199.092 7.365 103.234-103.223 70.981 15.033z" fill="#ff758f"/><path d="m256 214.547-24.877 73.961-70.984 21.894-77.631 77.627c-15.247 15.257-41.32 4.265-41.042-17.307l1.453-115.627c.165-12.465 5.182-24.364 13.99-33.182 54.557-54.548 199.091-7.366 199.091-7.366z" fill="#ff5f7f"/></g><g><path d="m256 214.547-7.376-199.092 103.234 103.234v76.911z" fill="#5ad6ff"/><path d="m267.971 166.334c-78.492 0-111.517-129.433-64.685-165.024l12.166.154c12.455.155 24.364 5.172 33.172 13.99 34.192 34.192 28.423 103.739 19.347 150.88z" fill="#00c5fd"/><path d="m267.971 166.334c-5.398 28.083-11.971 48.213-11.971 48.213l-173.492-173.492c-15.247-15.257-4.265-41.321 17.307-41.053l103.471 1.308c-27.084 53.611 3.472 138.58 64.685 165.024z" fill="#00b4fd"/></g><g><path d="m455.092 207.171-103.234 103.234-69.328-28.11-26.53-67.748z" fill="#60daa8"/><path d="m470.534 58.361-1.453 115.627c-.165 12.465-5.182 24.364-13.99 33.182-54.557 54.549-199.091 7.377-199.091 7.377l173.492-173.492c15.247-15.257 41.321-4.265 41.042 17.306z" fill="#00ce8e"/></g><g><path d="m263.376 413.639-103.234-103.234 95.858-95.858z" fill="#ff9a5c"/><path d="m412.185 429.081-37.715-.474c-85.084-10.915-129.102-109.509-87.946-183.536l142.968 142.957c15.247 15.257 4.265 41.321-17.307 41.053z" fill="#ff9a5c"/><path d="m374.47 428.607-77.923-.989c-12.455-.154-24.364-5.171-33.172-13.979-54.557-54.558-7.375-199.092-7.375-199.092l30.524 30.524c-17.873 83.444 23.941 158.204 87.946 183.536z" fill="#ff7e27"/></g><path d="m341.721 213.795c0 20.913-7.417 40.084-19.769 55.032-110.193 21.789-120.642-110.984-77.284-140.867 3.472-.422 7.005-.639 10.59-.639 47.749 0 86.463 38.715 86.463 86.474z" fill="#fbf198"/><path d="m321.952 268.827c-15.865 19.202-39.847 31.441-66.694 31.441-47.759 0-86.473-38.714-86.473-86.473 0-44.174 33.12-80.611 75.883-85.834-26.661 36.921-15.401 137.569 77.284 140.866z" fill="#fad989"/></g></g><g><g><path d="m204.544 223.267c-4.142 0-7.5-3.357-7.5-7.5v-9.744c0-4.143 3.358-7.5 7.5-7.5s7.5 3.357 7.5 7.5v9.744c0 4.142-3.357 7.5-7.5 7.5z" fill="#495560"/></g><g><path d="m305.962 223.267c-4.142 0-7.5-3.357-7.5-7.5v-9.744c0-4.143 3.358-7.5 7.5-7.5s7.5 3.357 7.5 7.5v9.744c0 4.142-3.358 7.5-7.5 7.5z" fill="#495560"/></g><g><path d="m255.253 229.067c-7.292 0-14.226-3.158-19.024-8.664-2.721-3.123-2.395-7.86.728-10.581 3.124-2.721 7.86-2.396 10.582.728 1.948 2.235 4.76 3.518 7.714 3.518s5.767-1.282 7.715-3.519c2.721-3.122 7.459-3.447 10.582-.727 3.123 2.722 3.448 7.459.727 10.582-4.798 5.506-11.732 8.663-19.024 8.663z" fill="#495560"/></g></g></g><g/><g/><g/><g/><g/><g/><g/><g/><g/><g/><g/><g/><g/><g/><g/></svg>