<?xml version="1.0" encoding="UTF-8"?>
<svg id="Layer_2" xmlns="http://www.w3.org/2000/svg" viewBox="0 0 74.39 96.72">
  <defs>
    <style>
      .cls-1 {
        fill: #af3f4b;
      }

      .cls-2 {
        fill: #9b4711;
      }

      .cls-3 {
        fill: #e9917a;
      }

      .cls-4 {
        fill: #ff9b8b;
      }

      .cls-5 {
        fill: #fff;
      }

      .cls-6 {
        opacity: .5;
      }

      .cls-7 {
        fill: #fcc6a0;
      }

      .cls-8 {
        fill: #f06385;
      }
    </style>
  </defs>
  <g id="OBJECTS">
    <g>
      <path class="cls-8" d="M71.22,34.37c-4.05-13.42-12.22-26.96-25.73-32.41-13.33-5.38-29.29.9-37.63,11.99C2.97,20.45.72,28.03.16,36.07c-.28,4.06-.12,8.15-.05,12.22.08,4.78-.17,9.56-.08,14.35.27,13.96,8.75,26.42,21.78,31.58,16.03,6.35,32.15.07,43.11-12.47,11.69-13.38,10.96-31.28,6.3-47.38Z"/>
      <path class="cls-4" d="M64.94,36.95c-3.3-10.94-9.97-21.98-20.98-26.43-10.87-4.38-23.88.73-30.68,9.78-3.98,5.3-5.82,11.48-6.27,18.03-.23,3.31-.1,6.65-.04,9.96.07,3.9-.14,7.8-.07,11.7.22,11.39,7.14,21.54,17.76,25.75,13.07,5.18,26.21.06,35.15-10.16,9.53-10.91,8.94-25.5,5.14-38.63Z"/>
      <path class="cls-1" d="M61.9,38.2c-2.94-9.74-8.87-19.57-18.68-23.53-9.68-3.9-21.26.65-27.32,8.71-3.55,4.72-5.18,10.22-5.59,16.06-.21,2.95-.09,5.92-.04,8.87.06,3.47-.12,6.94-.06,10.41.19,10.14,6.35,19.18,15.81,22.93,11.64,4.61,23.34.05,31.29-9.05,8.49-9.71,7.96-22.7,4.57-34.39Z"/>
      <path class="cls-4" d="M22.27,50.98c-4.59.21-8.51-1.93-12.43-4.06-1.3-.71-2.47.7-2.11,1.77-.05.2-.06.41-.02.65.68,3.84.36,7.74.34,11.62,0,1.34,1.55,1.82,2.48,1.03,3.91-3.36,8.86-5.15,12.77-8.52.96-.82.19-2.53-1.03-2.48Z"/>
      <path class="cls-4" d="M40.57,49.49c-9.4.34-18.97,2.7-28.19-.32-3.06-1-4.38,3.82-1.33,4.82,4.67,1.53,9.85,1.84,14.74,1.7s9.84-1.02,14.78-1.2c3.21-.12,3.22-5.12,0-5h0Z"/>
      <g>
        <path class="cls-7" d="M55.68,33.2c-1.15-7.96-10.6-13.91-18.3-12.96-6.03.74-9.44,6.76-10.02,12.47-.75,7.26,2.62,14.06,10.67,13.74,6.15-.25,18.73-5.84,17.66-13.25Z"/>
        <path class="cls-7" d="M54.61,33.5c-.57-1.03-1.41-1.64-2.31-1.87-1.17-.3-1.02-1.88-3.17-1.69-.84.07-3.56,1.97-4.18,2.54-2.89,2.69-3.53,5.81-3.38,9.1-1.5-.83-3.89-.09-4.01,1.89-.15,2.51-.6,5.03-.75,7.57-.26,4.2.04,10.45-3.66,13.52-1.22,1.01-5.68,1.44-5.67,3.47.01,2.45,5.89,2.65,7.43,2.53,17.6-1.35,28.31-21.46,19.71-37.05Z"/>
        <g class="cls-6">
          <path class="cls-5" d="M40.59,26.24c2.19.83,3.73,2.35,5.24,4.09,1.54,1.78,2.83,4.52,5.23,5.04,1.39.3,2.47-.85,2.77-2.07.64-2.62-2.46-5.17-4.14-6.81-1.94-1.89-4.96-3.2-7.53-3.92-2.4-.68-4.03,2.73-1.57,3.67h0Z"/>
        </g>
        <path class="cls-2" d="M36.92,37.29c.22,0,.42-.04.61-.14.2-.06.37-.17.51-.33.16-.14.26-.31.33-.51.1-.19.15-.39.14-.61l-.06-.42c-.08-.27-.21-.5-.41-.7l-.32-.25c-.25-.14-.52-.22-.8-.22-.22,0-.42.04-.61.14-.2.06-.37.17-.51.33-.16.14-.26.31-.33.51-.1.19-.15.39-.14.61l.06.42c.08.27.21.5.41.7l.32.25c.25.14.52.22.8.22h0Z"/>
        <path class="cls-7" d="M39.06,54.66c-2.9-1.23-6.98-1.33-9.87-.03-2.81,1.26-2.71,4.83-.33,6.43,2.96,2,6.96,1.59,10.34,1.52.37,0,.42-.55.16-.71l.55-.9c.31.16.73.17,1.05-.04,2.94-1.96.36-5.31-1.9-6.27Z"/>
        <path class="cls-3" d="M29.47,61.14c3.07,2.14,7.1,2.45,10.71,1.93,2.71-.39,7.51-1.6,7.87-4.9.04-.38-.44-.58-.73-.42-2.62,1.49-4.47,3.12-7.6,3.66s-7.02.62-9.86-.95c-.45-.25-.81.39-.4.68h0Z"/>
        <path class="cls-3" d="M46.11,44.33c-1.55.43-3.04,1.27-4.4,2.11-1.49.92-3.21,2.05-4.09,3.62-.34.61-.53,1.34-.29,2.02.29.82,1.04,1.34,1.81,1.67s1.66.15,2.42-.17c1.01-.41,1.93-1.01,2.81-1.65,1.83-1.33,3.45-2.91,5.23-4.31.63-.5-.26-1.38-.88-.88-1.36,1.08-2.62,2.29-3.98,3.37-.8.64-1.63,1.24-2.51,1.76-.62.36-1.42.79-2.08.82-.3.01-.49-.05-.83-.24-.24-.13-.54-.36-.64-.51-.27-.37-.23-.71-.02-1.13.69-1.34,2.16-2.32,3.41-3.11,1.37-.87,2.86-1.74,4.39-2.16.77-.22.44-1.42-.33-1.21h0Z"/>
      </g>
    </g>
  </g>
</svg>