<?xml version="1.0" encoding="UTF-8"?>
<svg id="Layer_2" xmlns="http://www.w3.org/2000/svg" viewBox="0 0 82.72 107.42">
  <defs>
    <style>
      .cls-1 {
        fill: #af3f4b;
      }

      .cls-2 {
        fill: #9b4711;
      }

      .cls-3 {
        fill: #e9917a;
      }

      .cls-4 {
        fill: #ff9b8b;
      }

      .cls-5 {
        fill: #fff;
      }

      .cls-6 {
        opacity: .5;
      }

      .cls-7 {
        fill: #fcc6a0;
      }

      .cls-8 {
        fill: #f06385;
      }
    </style>
  </defs>
  <g id="OBJECTS">
    <g>
      <path class="cls-8" d="M79.51,38.73c-4.29-14.97-13.16-30.13-28.08-36.39-14.73-6.18-32.54.55-41.98,12.74C3.91,22.22,1.3,30.61.55,39.53c-.38,4.5-.26,9.05-.24,13.57.02,5.31-.34,10.62-.31,15.93.08,15.51,9.32,29.48,23.71,35.41,17.71,7.3,35.71.57,48.07-13.19,13.19-14.68,12.65-34.57,7.73-52.53Z"/>
      <path class="cls-4" d="M72.49,41.5c-3.5-12.21-10.73-24.57-22.9-29.67-12-5.04-26.53.45-34.23,10.39-4.51,5.82-6.64,12.67-7.24,19.93-.31,3.67-.21,7.38-.2,11.06.01,4.33-.27,8.66-.25,12.99.07,12.65,7.6,24.03,19.33,28.87,14.43,5.95,29.11.47,39.19-10.75,10.75-11.97,10.32-28.18,6.3-42.82Z"/>
      <path class="cls-1" d="M69.09,42.84c-3.11-10.87-9.55-21.87-20.39-26.42-10.69-4.48-23.62.4-30.48,9.25-4.01,5.19-5.91,11.28-6.45,17.75-.27,3.27-.19,6.57-.18,9.85.01,3.86-.25,7.71-.23,11.57.06,11.26,6.76,21.4,17.21,25.71,12.85,5.3,25.92.42,34.89-9.57,9.58-10.66,9.19-25.09,5.61-38.13Z"/>
      <path class="cls-4" d="M23.16,60.37c-4.09.19-7.58-1.71-11.06-3.61-1.15-.63-2.2.62-1.88,1.57-.04.18-.05.37-.02.58.6,3.42.32,6.89.3,10.34,0,1.19,1.38,1.62,2.21.91,3.48-2.99,7.88-4.58,11.37-7.58.85-.73.17-2.25-.91-2.21Z"/>
      <path class="cls-4" d="M20.55,63.76c1.06-.22,9.22-3.41,9.61-2.18.17.53-3.06,3.26-3.51,4.14-1.12,2.17-.71,4.1,1.19,5.63,2.96,2.37,15.95,5.26,18.17.86.31-.61-.08-1.2-.73-1.27-1.41-.15-3.12.66-4.55.78-2,.16-4.07.06-6.05-.25-1.6-.25-4.97-.7-6-2.22-1.57-2.31,1.55-4.08,2.9-5.65,1.22-1.41,2.47-3.27.37-4.49-3.1-1.8-9.68,1.5-12.12,3.42-.63.5.07,1.37.72,1.23h0Z"/>
      <g>
        <g>
          <path class="cls-7" d="M61.65,41.29c-1.44-9.98-13.29-17.43-22.94-16.25-7.56.93-11.83,8.47-12.57,15.63-.93,9.1,3.29,17.63,13.38,17.23,7.71-.31,23.48-7.32,22.13-16.61Z"/>
          <path class="cls-2" d="M36.95,45.68c1.56,1.06,3.53,1.68,5.32.77s2.49-2.73,2.16-4.59c-.07-.39-.64-.42-.82-.11-1.34,2.36-3.1,4.31-5.93,2.69-.81-.47-1.49.73-.73,1.24h0Z"/>
          <g class="cls-6">
            <path class="cls-5" d="M43.62,32.77c1.14.39,2.71,1.23,3.24,1.69,0,0,.78.84.39.33.22.28.39.6.58.9.18.3.39.9.56,1.68.99,4.52,8.02,2.6,6.93-1.91-1.27-5.31-5.62-8.23-10.92-8.37-3.4-.09-3.75,4.66-.77,5.68h0Z"/>
          </g>
          <path class="cls-7" d="M57.66,45.94c-1.56-1.66-3.77-.39-4.16,1.33-1.55-.12-3.27,1.13-2.77,3.1,1.39,5.4-2.25,9.39-5.02,13.62-1.81,2.76-3.42,6.56-.93,9.42,1.34,1.54,6.69,2.41,4.67,5.36-.95,1.37-7.62,1.83-4.64,4.3,2.39,1.98,8.25-.53,10.36-1.89,5.4-3.49,9.06-8.49,9.23-15.08.18-7.08-1.75-14.84-6.74-20.16Z"/>
          <path class="cls-7" d="M49.05,68.69c-4-1.79-10.21-1.98-12.21,2.43-1.46,3.24-3.45,5.25-6.95,6.36-1.14.36-1.2,1.71-.31,2.36,1.92,1.41,4.63,3.32,7.15,2.99,3.68-.47,2.94-4.71,5.42-6.47,2.26-1.6,5.35.88,7.98-.43,3.5-1.73,3.28-4.66.2-6.57-.39-.24-.82-.47-1.28-.68Z"/>
          <path class="cls-7" d="M36.25,63.98c6.51,1.8,16.87-3.35,19.18-9.79.89-2.48-2.64-3.55-3.99-1.68-3.57,4.98-9.23,8.33-15.19,9.73-.88.21-.84,1.51,0,1.74h0Z"/>
        </g>
        <path class="cls-3" d="M46.55,62.84c3.41-.92,6.56-2.59,9.03-5.13.1-.11-.04-.31-.17-.22-1.34.99-2.69,2-4.14,2.84-1.53.89-3.15,1.57-4.86,2.05-.29.08-.17.54.13.46h0Z"/>
        <path class="cls-3" d="M44.68,68.99c1.49.41,2.99.84,4.37,1.53,1.48.73,2.71,1.65,3.87,2.82.41.42,1-.2.63-.63-2.1-2.5-5.62-3.94-8.82-4.16-.26-.02-.3.38-.06.45h0Z"/>
      </g>
    </g>
  </g>
</svg>