<?xml version="1.0" encoding="UTF-8"?>
<svg id="Layer_2" xmlns="http://www.w3.org/2000/svg" viewBox="0 0 88.95 115.66">
  <defs>
    <style>
      .cls-1 {
        fill: #af3f4b;
      }

      .cls-2 {
        fill: #9b4711;
      }

      .cls-3 {
        fill: #e9917a;
      }

      .cls-4 {
        fill: #ff9b8b;
      }

      .cls-5 {
        fill: #fff;
      }

      .cls-6 {
        opacity: .5;
      }

      .cls-7 {
        fill: #fcc6a0;
      }

      .cls-8 {
        fill: #f06385;
      }
    </style>
  </defs>
  <g id="OBJECTS">
    <g>
      <g>
        <path class="cls-8" d="M85.17,41.1c-4.84-16.05-14.62-32.24-30.77-38.76-15.94-6.43-35.02,1.08-45,14.34C3.55,24.45.86,33.52.19,43.13c-.34,4.85-.14,9.75-.06,14.61.1,5.72-.21,11.44-.1,17.15.32,16.7,10.47,31.59,26.05,37.77,19.17,7.6,38.44.09,51.55-14.91,13.98-16,13.11-37.4,7.54-56.65Z"/>
        <path class="cls-4" d="M77.65,44.19c-3.95-13.09-11.91-26.29-25.09-31.6-13-5.24-28.56.88-36.69,11.69-4.76,6.34-6.96,13.73-7.5,21.57-.28,3.96-.12,7.95-.05,11.91.08,4.66-.17,9.32-.08,13.99.26,13.61,8.53,25.76,21.24,30.79,15.63,6.19,31.34.07,42.03-12.15,11.4-13.05,10.68-30.49,6.14-46.19Z"/>
        <path class="cls-1" d="M74.01,45.68c-3.51-11.65-10.61-23.4-22.34-28.14-11.57-4.67-25.42.78-32.67,10.41-4.24,5.64-6.19,12.23-6.68,19.2-.25,3.52-.1,7.08-.04,10.6.07,4.15-.15,8.3-.07,12.45.23,12.12,7.6,22.93,18.91,27.42,13.92,5.52,27.91.06,37.42-10.82,10.15-11.61,9.52-27.15,5.47-41.13Z"/>
      </g>
      <path class="cls-4" d="M24.74,64.96c-4.4.2-8.16-1.85-11.91-3.89-1.24-.68-2.37.67-2.03,1.69-.05.19-.06.4-.02.62.65,3.68.35,7.42.32,11.13,0,1.29,1.49,1.75,2.37.98,3.75-3.22,8.49-4.93,12.24-8.16.92-.79.19-2.43-.98-2.38Z"/>
      <path class="cls-4" d="M18.28,70.64c1.31-.56,2.46-1.42,3.73-2.07.82-.42,1.61-.83,2.48-1.14,2.33-.83,2.46-1.05,4.06,1.22,1.98,2.82.15,3.82-1.89,5.71-1,.93-2.06,1.83-2.84,2.97-1.51,2.22-2.29,7.41,1.73,7.15,1.73-.11,3.37-1.67,4.63-2.71.74-.61,1.87-2.13,2.77-2.43,2.36-.77,3.33,1.46,4.83,2.45,2.05,1.35,4.01.53,5.95-.67,3.44-2.12,7.14-3.92,10.48-6.17,1.2-.8.07-2.75-1.14-1.94-1.93,1.3-4,2.18-6.04,3.26-1.53.81-2.89,2.21-4.44,2.91-4.59,2.06-4.67-2.89-8.49-2.75-1.87.07-3.21,1.72-4.52,2.83-.93.79-5.16,4.93-4.35.15.22-1.3,2.55-2.92,3.42-3.75,2.71-2.59,5.9-7.65,1.25-10.34-3.78-2.19-10.02,1.66-12.32,4.65-.34.44.29.84.67.67h0Z"/>
      <g>
        <g>
          <path class="cls-7" d="M66.99,43.06c-1.72-10.43-10.67-20.3-21.83-19.06-7.99.89-19.23,6.57-18.25,16.36.4,4.03,1.53,7.51,1.55,11.62.09,16.67,23.03,9.39,31.89,5.53,4.75-2.07,6.72-4.8,6.92-10.09.05-1.45-.04-2.91-.28-4.37Z"/>
          <g>
            <g>
              <path class="cls-2" d="M39.61,49.1c1.66,1.12,3.75,1.78,5.65.81s2.62-2.89,2.33-4.87c-.06-.39-.65-.42-.82-.11-1.4,2.62-3.37,4.7-6.44,2.92-.81-.47-1.49.73-.73,1.24h0Z"/>
              <g class="cls-6">
                <path class="cls-5" d="M48.4,32.09c1.23.42,2.92,1.32,3.49,1.82.01,0,.83.9.42.36.23.3.42.64.62.97.19.32.42.97.6,1.81,1.07,4.86,8.63,2.8,7.46-2.06-1.37-5.72-6.05-8.86-11.76-9.01-3.66-.1-4.04,5.01-.83,6.11h0Z"/>
              </g>
              <path class="cls-7" d="M66.42,60.49c-.92-3.31-2.42-9.3-6.92-7.73-1.9.66-2.69,2.24-4.22,3.32-1.46,1.03-2.65,1.09-3.31,2.97-1.11,3.14.41,6.67-.59,9.86-1.12,3.56-5.9,4.14-6.56,8.15-1.28,7.78,9.88,12.01,15.61,8.12,7.86-5.34,8.29-16.38,5.99-24.67Z"/>
              <path class="cls-7" d="M52.07,77.13c-4.25-1.91-10.86-2.1-12.98,2.59-1.55,3.44-3.67,5.59-7.39,6.76-1.21.38-1.28,1.82-.33,2.51,2.04,1.5,4.93,3.53,7.6,3.18,3.91-.5,3.13-5.01,5.76-6.88,2.4-1.7,5.68.93,8.49-.45,3.72-1.84,3.48-4.95.22-6.99-.42-.26-.87-.5-1.36-.72Z"/>
              <path class="cls-7" d="M37.83,73.42c3.91.24,8.2-2.14,11.46-4.05,3.74-2.19,6.93-4.97,9.46-8.49,1.96-2.72-2.59-5.38-4.51-2.63-2.28,3.25-5.52,5.71-8.9,7.73-2.8,1.67-6.08,2.75-8.59,4.84-1.09.91-.12,2.53,1.08,2.6h0Z"/>
            </g>
            <path class="cls-3" d="M56.52,44.97c1.2-1.5,3.08-1.68,3.96.2.29.62.42,1.41.13,2.06-.42.94-1.41,1-2.19,1.48-.51.31-.45,1.17.17,1.31,1.48.36,3.09-.75,3.62-2.11.44-1.15.22-2.48-.37-3.54s-1.56-1.88-2.76-1.98c-1.5-.13-2.44.93-3.17,2.1-.23.37.34.84.62.48h0Z"/>
            <path class="cls-3" d="M30.03,58.2c1.08.72,2.34,1.37,3.67,1.08,1.22-.27,2.4-1.26,2.35-2.59-.01-.31-.31-.46-.58-.33-.79.37-1.32,1.18-2.18,1.41-.95.25-1.86-.1-2.66-.58-.65-.4-1.22.6-.59,1.02h0Z"/>
          </g>
        </g>
        <path class="cls-3" d="M51.91,67.81c.8-.06,1.59-.5,2.23-.96.68-.49,1.28-1.07,1.8-1.72.14-.17.16-.4,0-.57-.14-.14-.43-.17-.57,0-.49.61-1.03,1.18-1.65,1.65-.29.22-.59.42-.9.61-.33.21-.69.37-1.02.59-.16.1-.11.4.1.39h0Z"/>
        <path class="cls-3" d="M45.91,75.95c.78-.02,1.57.24,2.29.51.91.33,1.78.79,2.6,1.3s1.56,1.07,2.24,1.71c.3.28.59.58.84.9.22.28.38.62.63.88.29.3.69-.02.64-.37-.06-.37-.34-.72-.57-1.01-.27-.35-.57-.67-.89-.98-.75-.71-1.59-1.32-2.48-1.84-1.56-.92-3.44-1.79-5.3-1.54-.27.04-.29.44,0,.43h0Z"/>
      </g>
    </g>
  </g>
</svg>