<?xml version="1.0" encoding="UTF-8"?>
<svg id="Layer_2" xmlns="http://www.w3.org/2000/svg" xmlns:xlink="http://www.w3.org/1999/xlink" viewBox="0 0 94.43 122.79">
  <defs>
    <style>
      .cls-1 {
        fill: none;
      }

      .cls-2 {
        fill: #af3f4b;
      }

      .cls-3 {
        fill: #9b4711;
      }

      .cls-4 {
        fill: #e9917a;
      }

      .cls-5 {
        fill: #ff9b8b;
      }

      .cls-6 {
        fill: #fff;
      }

      .cls-7 {
        opacity: .5;
      }

      .cls-8 {
        fill: #fcc6a0;
      }

      .cls-9 {
        fill: #f06385;
      }

      .cls-10 {
        clip-path: url(#clippath);
      }
    </style>
    <clipPath id="clippath">
      <path class="cls-1" d="M56.9,23.49c-7.29-2.38-15.53-.9-21.48,4.09-7.86,6.58-9.43,14.54-3.79,23.03,3.99,6-.21,15.57,9.07,17.22,7.78,1.39,24.64.54,29.38-7.37,5.11-8.53,2.05-26.02-5.49-32.6-2.31-2.02-4.93-3.47-7.69-4.37Z"/>
    </clipPath>
  </defs>
  <g id="OBJECTS">
    <g>
      <g>
        <g>
          <path class="cls-9" d="M90.41,43.63c-5.14-17.04-15.52-34.23-32.67-41.15-16.93-6.83-37.18,1.14-47.77,15.23C3.77,25.96.91,35.59.2,45.79c-.36,5.15-.15,10.35-.06,15.51.1,6.07-.22,12.14-.1,18.21.34,17.73,11.11,33.54,27.65,40.09,20.35,8.07,40.81.09,54.72-15.83,14.85-16.99,13.92-39.7,8-60.15Z"/>
          <path class="cls-5" d="M82.44,46.91c-4.19-13.89-12.65-27.91-26.63-33.55-13.8-5.57-30.32.93-38.95,12.41-5.06,6.73-7.39,14.58-7.96,22.89-.29,4.2-.12,8.44-.05,12.64.09,4.95-.18,9.9-.08,14.85.27,14.45,9.06,27.34,22.55,32.69,16.59,6.58,33.28.08,44.62-12.9,12.1-13.85,11.34-32.37,6.52-49.04Z"/>
          <path class="cls-2" d="M78.57,48.5c-3.73-12.37-11.26-24.85-23.71-29.87-12.29-4.96-26.99.83-34.68,11.05-4.5,5.99-6.57,12.98-7.09,20.39-.26,3.74-.11,7.51-.05,11.26.08,4.41-.16,8.81-.08,13.22.25,12.87,8.07,24.35,20.07,29.1,14.77,5.86,29.63.07,39.73-11.49,10.78-12.33,10.1-28.82,5.81-43.66Z"/>
        </g>
        <path class="cls-5" d="M26.14,68.71c-.6,0-1.21.08-1.62.05-1.34-.09-2.66-.38-3.94-.79-2.49-.81-4.8-2.07-7.09-3.32-1.32-.72-2.52.71-2.15,1.8-.05.2-.06.42-.02.66.69,3.91.37,7.87.34,11.82,0,1.36,1.58,1.85,2.52,1.04,3.18-2.74,7.06-4.45,10.51-6.79,1.03-.7,3.4-1.87,3.33-3.37-.05-.96-.95-1.11-1.89-1.1Z"/>
        <path class="cls-5" d="M50.18,80.32c-3.1-1.56-6.71-1.5-9.81.03-1.54.76-2.9,1.83-4.04,3.11-.48.54-2.4,2.83-3.28,1.63-.37-.5.83-1.51,1.05-2.08.47-1.24.77-2.59-.04-3.78-.91-1.34-1.9.08-3.06-.39-1.84-.73,2.96-4.97,3.54-5.72,1.53-1.99,3.02-4.85.88-6.98-.99-.99-2.65-1.49-4.01-1.23-.46.09-.87.3-1.26.55l.03-.05s-.02.01-.02.02c-1.32,1-2.17,2.49-3.32,3.68-.33.34-1.06.77-1.27,1.17-.2.37-.15.18.05.56.84,1.54,2.54-.26,3.2-1.04.98-1.16,2-2.99,3.81-2.31,1.76.66.95,3.89-.11,4.82-.46.55-.93,1.08-1.43,1.6-1.46,1.57-5.45,5.56-1.25,6.72.49.14,1.03-.01,1.52-.09,1.72-.27-1.32,4.59-1.36,4.8-.32,1.81-.15,2.98,1.5,3.91,1.4.79,3.2-.32,4.26-1.12,1.03-.78,1.68-2.28,2.47-3.23,2.55-3.05,7.12-4.07,10.65-2.37,1.49.72,2.8-1.48,1.3-2.23Z"/>
        <g>
          <g>
            <g>
              <g>
                <g>
                  <path class="cls-8" d="M56.9,23.49c-7.29-2.38-15.53-.9-21.48,4.09-7.86,6.58-9.43,14.54-3.79,23.03,3.99,6-.21,15.57,9.07,17.22,7.78,1.39,24.64.54,29.38-7.37,5.11-8.53,2.05-26.02-5.49-32.6-2.31-2.02-4.93-3.47-7.69-4.37Z"/>
                  <path class="cls-3" d="M43.77,52.38c1.77,1.19,3.95,1.88,5.99.91s2.95-3.04,2.7-5.17c-.05-.39-.62-.67-.84-.23-1.48,2.98-3.73,5.22-7.13,3.24-.81-.47-1.49.73-.73,1.24h0Z"/>
                </g>
                <g class="cls-7">
                  <path class="cls-6" d="M52.7,32.15c1.35.46,3.2,1.45,3.82,1.99.01,0,.91.98.46.39.26.33.46.7.68,1.06.21.35.46,1.06.66,1.99,1.17,5.33,9.46,3.07,8.18-2.25-1.5-6.27-6.63-9.71-12.89-9.87-4.01-.11-4.43,5.49-.91,6.7h0Z"/>
                </g>
                <path class="cls-8" d="M73.11,64.92c-1.01-3.63-2.66-10.19-7.58-8.47-2.08.73-2.95,2.46-4.62,3.64-1.6,1.13-2.91,1.19-3.63,3.25-1.21,3.45.45,7.31-.65,10.8-1.23,3.9-6.46,4.54-7.18,8.93-1.4,8.53,10.82,13.16,17.11,8.89,8.62-5.85,9.08-17.95,6.56-27.04Z"/>
                <path class="cls-8" d="M57.39,83.16c-4.66-2.09-11.9-2.31-14.23,2.84-1.7,3.77-4.02,6.12-8.1,7.41-1.33.42-1.4,1.99-.36,2.75,2.24,1.64,5.4,3.87,8.33,3.49,4.28-.55,3.43-5.49,6.31-7.54,2.63-1.87,6.23,1.02,9.3-.5,4.08-2.02,3.82-5.43.24-7.66-.46-.28-.96-.55-1.5-.79Z"/>
                <path class="cls-8" d="M42.23,77.78c4.28.11,8.85-2.39,12.44-4.5,4.05-2.38,7.52-5.41,10.27-9.23,1.96-2.72-2.59-5.38-4.51-2.63-2.53,3.6-6.1,6.32-9.85,8.55-3.07,1.82-6.6,3.02-9.43,5.2-1.11.86-.11,2.57,1.08,2.6h0Z"/>
              </g>
              <path class="cls-4" d="M62.24,47.89c.6-.76,1.59-1.58,2.64-1.38.82.15,1.45.87,1.79,1.59s.48,1.59.15,2.33c-.46,1.05-1.55,1.15-2.45,1.65-.51.29-.44,1.19.17,1.31,1.59.32,3.29-.79,3.86-2.27.48-1.24.25-2.67-.39-3.82s-1.67-2.03-2.96-2.15c-1.62-.14-2.64,1-3.44,2.25-.24.37.34.84.62.48h0Z"/>
              <g class="cls-10">
                <path class="cls-4" d="M33.26,62.36c1.16.77,2.54,1.47,3.97,1.16,1.33-.29,2.53-1.35,2.55-2.76,0-.3-.33-.47-.58-.33-.85.45-1.43,1.34-2.39,1.58-1.06.27-2.07-.12-2.96-.66-.65-.4-1.22.6-.59,1.02h0Z"/>
              </g>
            </g>
            <path class="cls-8" d="M44.51,73.56c-2.05-1.1-5.71-.56-7.24.74-1.96,1.67-1.15,5.31,1.54,5.24,2.21-.06,9.98-3.69,5.7-5.99Z"/>
          </g>
          <g>
            <path class="cls-4" d="M57.46,72.11c1.07-.6,2.08-1.31,3.08-2.02.5-.35.98-.72,1.45-1.11.24-.2.48-.4.71-.61s.49-.41.6-.71c.08-.2-.16-.43-.36-.36-.28.11-.48.34-.7.54s-.44.39-.67.58c-.49.4-.99.79-1.5,1.16-.97.71-1.99,1.37-2.88,2.18-.18.17.05.45.26.34h0Z"/>
            <path class="cls-4" d="M50.95,82.49c2.02.58,4.06,1.3,5.91,2.3.91.5,1.8,1.05,2.63,1.68s1.57,1.41,2.33,2.15c.48.46,1.11-.22.71-.71-1.34-1.69-3.38-3.01-5.29-3.96s-4.04-1.65-6.24-1.92c-.27-.03-.3.38-.06.45h0Z"/>
          </g>
        </g>
      </g>
      <path class="cls-8" d="M41.67,72.6c.25.23.5.48.78.66.25.16.49.32.73.5l-.2-.16c.16.13.33.24.49.37l-.2-.16c.22.17.43.36.6.59l-.16-.21c.2.26.32.56.62.73s.7.18,1.01,0,.47-.51.5-.87c.02-.3-.14-.59-.31-.82-.13-.18-.26-.35-.42-.51-.25-.25-.55-.49-.86-.67s-.67-.32-1-.46c-.27-.11-.58-.14-.87-.2-.3-.06-.66.04-.81.33-.14.27-.13.65.11.87h0Z"/>
    </g>
  </g>
</svg>