<?xml version="1.0" encoding="UTF-8"?>
<svg id="Layer_2" xmlns="http://www.w3.org/2000/svg" xmlns:xlink="http://www.w3.org/1999/xlink" viewBox="0 0 102.86 133.75">
  <defs>
    <style>
      .cls-1 {
        fill: none;
      }

      .cls-2 {
        fill: #af3f4b;
      }

      .cls-3 {
        fill: #9b4711;
      }

      .cls-4 {
        fill: #e9917a;
      }

      .cls-5 {
        fill: #ff9b8b;
      }

      .cls-6 {
        fill: #fff;
      }

      .cls-7 {
        opacity: .5;
      }

      .cls-8 {
        fill: #fcc6a0;
      }

      .cls-9 {
        fill: #f06385;
      }

      .cls-10 {
        clip-path: url(#clippath);
      }
    </style>
    <clipPath id="clippath">
      <path class="cls-1" d="M60.8,24.48c-6.26-1.68-13.85.38-19.3,3.58-5.77,3.4-10.37,10.45-9.2,17.31.74,4.35,5.25,6.49,5.68,10.95.18,1.82.02,2.79-.76,4.44-.33.69-1.34,1.84-1.06,2.7.43,1.32,1.9.73,2.78,1.34,1.55,1.08,2.06,3.29,3.51,4.59,1.15,1.03,2.91,2.33,4.31,3.04,4,2.05,9.62,1.43,13.47-.68,5.02-2.75,10.42-3.69,14.26-8.22,5.39-6.35,3.23-15.2.93-22.6-2.24-7.19-6.95-14.41-14.62-16.46Z"/>
    </clipPath>
  </defs>
  <g id="OBJECTS">
    <g>
      <g>
        <g>
          <path class="cls-9" d="M98.49,47.52c-5.6-18.56-16.9-37.28-35.58-44.82C44.46-4.73,22.4,3.95,10.86,19.29,4.1,28.27,1,38.76.22,49.88c-.39,5.61-.17,11.27-.07,16.89.11,6.61-.24,13.22-.11,19.84.37,19.31,12.11,36.53,30.12,43.67,22.17,8.79,44.46.1,59.61-17.24,16.17-18.5,15.16-43.25,8.72-65.52Z"/>
          <path class="cls-5" d="M89.8,51.1c-4.56-15.13-13.78-30.4-29.01-36.54-15.03-6.06-33.02,1.01-42.43,13.52-5.51,7.33-8.04,15.88-8.68,24.94-.32,4.58-.14,9.19-.06,13.77.09,5.39-.19,10.78-.09,16.17.3,15.74,9.87,29.78,24.56,35.61,18.07,7.16,36.25.08,48.6-14.06,13.18-15.08,12.35-35.26,7.1-53.42Z"/>
          <path class="cls-2" d="M85.59,52.83c-4.06-13.47-12.27-27.06-25.83-32.54-13.38-5.4-29.4.9-37.78,12.04-4.91,6.52-7.16,14.14-7.72,22.21-.28,4.08-.12,8.18-.05,12.26.08,4.8-.17,9.6-.08,14.4.27,14.02,8.79,26.52,21.87,31.7,16.09,6.38,32.27.07,43.27-12.52,11.74-13.43,11-31.39,6.32-47.56Z"/>
        </g>
        <path class="cls-5" d="M24.28,75.5c-.48,0-.96.06-1.29.04-1.07-.07-2.12-.3-3.14-.63-1.99-.64-3.83-1.65-5.66-2.65-1.05-.57-2.01.57-1.71,1.43-.04.16-.05.34-.02.53.55,3.12.29,6.28.27,9.43,0,1.09,1.26,1.48,2.01.83,2.54-2.18,5.63-3.55,8.39-5.41.82-.56,2.71-1.49,2.66-2.69-.04-.77-.76-.89-1.51-.88Z"/>
        <path class="cls-5" d="M21.54,79.56c3.08-1.68,6.06-4.6,9.48-5.55,1.08-.3,4.43-.95,4.58,1.09.06.78-1.73,2.19-2.26,2.72-2.29,2.29-5.27,3.89-7.43,6.27-2.93,3.23-8.2,12.77-1.44,14.82,3.29,1,5.4-1.16,7.17-3.64,1.14-1.6,2-3.42,3.22-4.95,2.78-3.49,1.71.78,2.1,2.81.67,3.55,3.46,4.51,6.58,3.23,5.62-2.31,7.28-8.95,14.12-8.67,1.87.08,1.86-2.83,0-2.9-5.27-.21-7.74,2.35-11.19,5.9-.8.82-2.05,2.38-3.14,2.61-4.85,1.03-3.45-2.07-3.79-4.16-.18-1.12-.42-2.32-1.53-2.91-2.43-1.3-4.46,1.48-5.64,3.17-1.29,1.86-2.25,4.19-3.86,5.82-1.51,1.52-3.98,2.37-4.83-.52-.35-1.2.63-3.15,1.1-4.19,1.47-3.23,3.39-5.31,6.1-7.47,2.28-1.82,6.39-4.47,7.04-7.59.49-2.36-1.17-3.41-3.29-3.79-5.42-.97-9.85,3.8-13.8,6.67-.73.53-.1,1.68.72,1.23h0Z"/>
        <g>
          <g>
            <g>
              <g>
                <path class="cls-8" d="M60.8,24.48c-6.26-1.68-13.85.38-19.3,3.58-5.77,3.4-10.37,10.45-9.2,17.31.74,4.35,5.25,6.49,5.68,10.95.18,1.82.02,2.79-.76,4.44-.33.69-1.34,1.84-1.06,2.7.43,1.32,1.9.73,2.78,1.34,1.55,1.08,2.06,3.29,3.51,4.59,1.15,1.03,2.91,2.33,4.31,3.04,4,2.05,9.62,1.43,13.47-.68,5.02-2.75,10.42-3.69,14.26-8.22,5.39-6.35,3.23-15.2.93-22.6-2.24-7.19-6.95-14.41-14.62-16.46Z"/>
                <path class="cls-3" d="M46.62,55.09c1.93,1.28,4.29,2.02,6.5.97s3.17-3.28,2.96-5.58c-.04-.39-.63-.67-.84-.23-1.56,3.37-4.13,5.79-7.89,3.59-.81-.47-1.49.73-.73,1.24h0Z"/>
              </g>
              <g class="cls-7">
                <path class="cls-6" d="M56.47,33.15c1.16.4,2.74,1.24,3.28,1.71.01,0,.78.84.39.33.22.28.4.6.58.91.18.3.39.91.56,1.7,1,4.57,8.11,2.64,7.01-1.93-1.29-5.38-5.68-8.32-11.05-8.47-3.44-.09-3.8,4.71-.78,5.74h0Z"/>
              </g>
            </g>
            <path class="cls-4" d="M65.41,51.77c1.1-1.22,3.72-3.26,5.46-2.11.98.64,1.26,2.23.91,3.27-.48,1.47-1.6,1.54-2.81,2.12-.65.31-.4,1.23.19,1.43,1.64.57,3.26-.89,3.88-2.31.69-1.57.46-3.63-.64-4.96-2.22-2.67-5.95-.04-7.61,1.94-.36.43.24,1.05.62.62h0Z"/>
            <path class="cls-8" d="M77.14,62.51c-2.41-3.28-5.85-4.5-10.33-.45-6.06,5.48-2.4,14.87-9.1,20.68-3.07,2.66-6.96,5.56-8.18,9.65-2.9,9.71,9.39,15.05,17.18,12.28,10.59-3.76,14.25-16.82,14.59-26.92.14-4.26-1.24-11.26-4.16-15.24Z"/>
            <path class="cls-8" d="M59.43,94.06c-.01.18-.04.36-.1.53-1.11,3.59-9.44,3.05-11.65,6.87-1.28,2.22-1.96,6.43-3.85,8.02-1.96,1.65-6.18.92-8.24-.16-1.65-.87-6.3-4.5-2.52-5.77,1.54-.51,3.25.32,4.84.06.27-.05.53-.09.78-.14.09-3.31.82-7.05,1.26-8.41,1.49-4.59,6.03-9.24,11.26-8.51,2.6.37,8.44,4.35,8.22,7.51Z"/>
          </g>
          <g class="cls-10">
            <path class="cls-4" d="M40,69.52c1.35.19,2.78.18,4.03-.44,1.02-.51,2.22-1.71,1.78-2.95-.11-.31-.46-.4-.71-.19-.72.62-1.04,1.46-1.93,1.92-.94.49-1.98.63-3.03.58-.6-.03-.76.98-.14,1.07h0Z"/>
          </g>
          <path class="cls-8" d="M42.68,82.99c5.51,2.09,13.2-1.54,17.74-4.73,2.78-1.95,10.06-7.53,7-11.56-.8-1.06-2.19-1.42-3.24-.42-1.18,1.12-1.48,2.73-2.46,4.03-1.37,1.8-3.25,3.31-5.12,4.56-4.31,2.88-9.09,4.3-13.92,5.97-1.08.37-1.03,1.76,0,2.15h0Z"/>
          <path class="cls-8" d="M46.31,82.7l-1.19-1.94c.26-.21.39-.62.13-.96-.76-.97-3.93-3.04-4.73-.98-.26.66.03,1.15.53,1.5-.81.23-1.51.63-1.95,1.6-.14.32-.09.66.22.86.19.12.39.21.58.29-.37.46-.46,1,.09,1.57.71.73,1.64.69,2.51.34-.05.56.13,1.09.75,1.43,1.86,1.03,3.29-1.59,3.94-2.85.31-.61-.42-1.15-.87-.86Z"/>
        </g>
      </g>
      <g>
        <path class="cls-4" d="M61.37,78.14c1.88-.74,3.6-1.82,5.14-3.13.8-.68,1.55-1.41,2.25-2.2.61-.69,1.29-1.46,1.56-2.35.05-.18-.18-.3-.3-.18-.64.61-1.13,1.39-1.72,2.07-.66.75-1.37,1.46-2.12,2.11-1.47,1.28-3.12,2.46-4.93,3.22-.27.12-.16.57.13.46h0Z"/>
        <path class="cls-4" d="M53.36,87.43c2.39,1.19,4.46,2.76,6.34,4.66.93.94,1.8,1.94,2.66,2.93.44.5.87,1.01,1.31,1.52.4.46.8.96,1.34,1.26.18.1.48-.07.39-.3-.22-.58-.65-1.05-1.04-1.52-.45-.54-.9-1.07-1.35-1.59-.9-1.05-1.84-2.06-2.83-3.03-1.88-1.83-4.07-3.6-6.64-4.33-.23-.07-.4.29-.17.4h0Z"/>
      </g>
    </g>
  </g>
</svg>