<?xml version="1.0" encoding="UTF-8"?>
<svg id="Layer_2" xmlns="http://www.w3.org/2000/svg" viewBox="0 0 109.98 143">
  <defs>
    <style>
      .cls-1 {
        fill: #af3f4b;
      }

      .cls-2 {
        fill: #9b4711;
      }

      .cls-3 {
        fill: #e9917a;
      }

      .cls-4 {
        fill: #ff9b8b;
      }

      .cls-5 {
        fill: #fff;
      }

      .cls-6 {
        opacity: .5;
      }

      .cls-7 {
        fill: #fcc6a0;
      }

      .cls-8 {
        fill: #f06385;
      }
    </style>
  </defs>
  <g id="OBJECTS">
    <g>
      <g>
        <path class="cls-8" d="M105.3,50.81c-5.99-19.84-18.07-39.86-38.04-47.92-19.71-7.95-43.3,1.33-55.64,17.73C4.39,30.23,1.06,41.44.24,53.32c-.42,6-.18,12.05-.08,18.06.12,7.07-.25,14.14-.12,21.21.39,20.65,12.94,39.06,32.2,46.69,23.7,9.39,47.53.11,63.73-18.43,17.29-19.78,16.21-46.24,9.32-70.05Z"/>
        <path class="cls-4" d="M96.01,54.63c-4.88-16.18-14.73-32.5-31.02-39.07-16.07-6.48-35.31,1.08-45.37,14.46-5.89,7.83-8.6,16.98-9.27,26.66-.34,4.9-.15,9.83-.06,14.73.1,5.77-.21,11.53-.1,17.29.32,16.83,10.55,31.84,26.26,38.07,19.32,7.66,38.75.09,51.96-15.03,14.09-16.13,13.21-37.7,7.6-57.11Z"/>
        <path class="cls-1" d="M91.51,56.48c-4.34-14.41-13.12-28.94-27.62-34.79-14.31-5.77-31.43.96-40.39,12.87-5.25,6.97-7.66,15.12-8.26,23.74-.3,4.36-.13,8.75-.05,13.11.09,5.13-.19,10.26-.09,15.4.29,14.99,9.39,28.35,23.38,33.9,17.21,6.82,34.51.08,46.27-13.38,12.55-14.36,11.76-33.56,6.76-50.85Z"/>
      </g>
      <g>
        <path class="cls-4" d="M25.95,80.72c-.51,0-1.03.07-1.38.04-1.14-.08-2.27-.32-3.36-.67-2.13-.69-4.09-1.77-6.05-2.83-1.13-.61-2.15.61-1.83,1.53-.04.17-.05.36-.02.56.59,3.33.32,6.72.29,10.08,0,1.16,1.35,1.58,2.15.89,2.71-2.33,6.02-3.8,8.97-5.79.88-.59,2.9-1.6,2.84-2.87-.04-.82-.81-.95-1.61-.94Z"/>
        <g>
          <path class="cls-3" d="M37.82,90.61c.77-.73.71-1.97,0-2.71-2.93-3.05-9.21-.77-10.73,2.82-1.39,3.29-1.42,7.11-.89,10.55-.83.04-1.65.17-2.51.36-2.03.45-2.4,3.47-.58,4.42,2.9,1.53,7.24,3.35,10.16.73,2.74-2.46,2.22-7.95,2.3-11.22.03-1.16.08-2.36.04-3.53.78-.49,1.52-.78,2.21-1.43Z"/>
          <g>
            <path class="cls-7" d="M75.14,88.3c.21-8.5-1.49-18.45-6.31-25.62-2.52-3.75-5.3-3.83-9.65-2.74-6.71,1.69-9.49,7.65-12.54,13.33-2.55,4.75-4.8,6.58-8.96,9.48-10.24,7.14-1.06,19.83,5.57,24.8.68.51,1.41.96,2.16,1.36,6.01,3.25,14.3,4.54,20.33,1.39,8.17-4.28,9.2-13.78,9.4-22ZM57.97,90.91c.48.72.21.43,0,0h0Z"/>
            <g>
              <path class="cls-7" d="M85.1,57.28c-1.67-3.11-4.83-4.67-8.29-3.99-2.98.59-5.63,2.88-7.19,5.43-.02.03-.04.07-.05.1-.21.3-.25.7.04,1.07-.25-.32,0,0,.05.1.15.28.29.55.44.83.44.83.88,1.66,1.32,2.49.31.58.61,1.15.92,1.73-.35.93-.18,1.99.9,2.64,3.21,1.95,7.02,2.25,10.05-.25,2.97-2.45,3.6-6.82,1.82-10.15Z"/>
              <path class="cls-7" d="M77.25,59.13c.33-2.04.51-4.08.63-5.94.18-2.71.39-5.43.31-8.14-.65-22.02-42.69-26.85-45.71-4.93-1.12,8.14-8,16.22-4.23,24.57,2.45,5.41,7.91,8.55,13.12,10.34,5.14,1.76,10.83,2.65,16.26,1.81,4.66-.72,11.12-3.42,14.74-6.78,2.88-2.67,4.21-6.81,4.88-10.93Z"/>
            </g>
            <path class="cls-2" d="M64.1,55.28c-1.32,2.06-3.4,2.54-5.52,1.37-1.53-.85-2.5-2.32-3.9-3.3-.32-.22-.77.08-.77.44.04,2.6,2.78,4.8,5.11,5.4,2.84.72,4.97-.76,6.36-3.15.48-.84-.77-1.56-1.29-.75h0Z"/>
            <path class="cls-2" d="M38,50.24c-1,.81-2.53.95-3.66.29-1.33-.78-.64-2.03-1.26-3.14-.08-.14-.3-.26-.47-.19-2.17.89-.99,4.25.54,5.15,1.95,1.14,4.37.43,5.92-1.03.73-.69-.33-1.69-1.08-1.08h0Z"/>
            <path class="cls-3" d="M81.83,59.21c-1.77-.27-6.94-.51-7.08,2.17,0,.16.1.38.26.45,1,.44,2.04-.17,3.06-.37,1.25-.25,2.52-.27,3.77-.45.89-.13.89-1.66,0-1.8h0Z"/>
            <path class="cls-3" d="M42.31,52.76c-1.44-.24-2.9-.01-3.5,1.51-.53,1.34-.04,3.03,1.09,3.91.47.37,1.45.73,1.79,0s-.62-1.32-1-1.83c-.94-1.27-.04-2.74,1.5-2.7.49.01.63-.8.12-.88h0Z"/>
            <g class="cls-6">
              <path class="cls-5" d="M65.61,39.29c.94.78,2.12,2.14,2.45,2.77,0,.01.43,1.07.25.45.11.34.16.71.22,1.06.06.35.04.99-.08,1.79-.7,4.62,6.63,5.36,7.24.7.72-5.48-2.33-9.81-7.3-11.86-3.18-1.31-5.23,3.04-2.78,5.09h0Z"/>
            </g>
            <path class="cls-7" d="M29.5,75.9c2.78,2.15,5.68,3.73,9.12,4.55,2.73.65,7.04,1.86,9.1-.61.6-.72.64-1.62,0-2.34-1.75-1.98-4.53-1.31-6.94-1.53-3.2-.3-6.33-1.25-9.07-2.94-1.72-1.06-3.88,1.58-2.22,2.87h0Z"/>
            <path class="cls-3" d="M71.4,79.22c.48,5.33-5.91,7.77-10.07,7.82-3.8.05-7.12-1.38-10.79-1.94-.28-.04-.58.3-.31.53,5.71,4.84,23.85,4.38,21.96-6.52-.08-.44-.84-.35-.79.11h0Z"/>
            <path class="cls-3" d="M65.8,74.56c.89,8.9-10.34,7.75-15.75,5.52-.7-.29-1.01.85-.31,1.14,6.44,2.63,17.97,2.98,16.6-6.72-.04-.3-.57-.23-.54.07h0Z"/>
            <path class="cls-3" d="M49.57,63.37c-.92.92-2.14,1.31-3.44,1.22-1.04-.07-1.87-.91-2.87-.9-.26,0-.5.22-.49.49.06,1.53,2.12,2.02,3.36,2,1.63-.02,3.11-.9,4.16-2.1.43-.49-.25-1.19-.72-.72h0Z"/>
          </g>
          <g>
            <path class="cls-7" d="M60.33,101.42c.77-.73.71-1.97,0-2.71-2.93-3.05-9.21-.77-10.73,2.82-1.39,3.29-1.42,7.11-.89,10.55-.83.04-1.65.17-2.51.36-2.03.45-2.4,3.47-.58,4.42,2.9,1.53,7.24,3.35,10.16.73,2.74-2.46,2.22-7.95,2.29-11.22.03-1.16.08-2.36.04-3.53.78-.49,1.52-.78,2.21-1.43Z"/>
            <path class="cls-3" d="M57.01,94.99c-6.76-.81-10.14,6.51-9.12,12.34.21,1.18,2.02.68,1.8-.5-.86-4.63,1.77-11.57,7.32-11.3.36.02.34-.5,0-.54h0Z"/>
            <path class="cls-3" d="M58.6,105.1c-.3.7-.47,1.43-.53,2.19-.05.69-.29,1.67.07,2.29.08.15.31.23.46.12.55-.41.54-1.05.56-1.7.03-.87-.1-1.76.17-2.6.13-.42-.54-.72-.72-.3h0Z"/>
          </g>
          <path class="cls-4" d="M24.93,83.47c1.95-.45,4.21-1.01,6.18-.39,2.3.73,2.87,3.29,2.83,5.46-.1,5.43-4.15,9.96-3.99,15.47.11,3.81,3.16,10.95,8.09,7.9,3.62-2.24,3.9-6.98,3.27-10.72-.29-1.73-.63-3.52-.5-5.28.15-1.97.94-2.14,2.72-1.39,1.48.62,2.13-1.8.66-2.41-1.63-.69-3.6-.89-4.85.6-1.09,1.3-1.12,3.26-1.02,4.87.23,3.68,1.85,7.15-.16,10.61-.73,1.26-2.16,2.62-3.55,1.41-1.98-1.72-2.43-5.15-2.03-7.59.89-5.5,4.72-10.11,3.65-15.94-.48-2.59-2.06-4.78-4.68-5.47-2.38-.62-4.94-.1-7.28.45-1.57.36-.9,2.78.66,2.41h0Z"/>
        </g>
        <path class="cls-7" d="M32.33,71.7c-.13-.36-.56-.61-.92-.37-.2.13-.36.28-.5.43-.48-.79-1.09-1.48-2.02-1.66-.43-.08-.94.28-.77.77.21.6.48,1.17.73,1.75-.47-.21-.96-.37-1.46-.52-.64-.19-.99.59-.61,1.04.25.29.51.57.79.83-.47.08-.92.22-1.33.52-.33.24-.42.67-.13.98,1.1,1.19,2.89,1.06,4.27.49.42-.17.49-.63.34-.94.16-.09.27-.22.3-.39.35-.03.7-.32.63-.77-.02-.1-.03-.2-.04-.29,0-.02.01-.04.02-.06.19.64,1.26.61,1.21-.14-.04-.61-.32-1.1-.52-1.67Z"/>
        <path class="cls-3" d="M50.47,80.62c.06-.94-.68-1.86-1.5-2.24-.63-.29-1.6-.49-2.18,0-1.13.97.23,2.61,1.12,3.15l.24-.89c-.94-.08-2.58.13-2.63,1.38s1.62,1.54,2.55,1.53l-.13-.99c-.94.28-2.92,1.15-2.62,2.42.31,1.36,2.29,1.24,3.21.63.6-.39.05-1.35-.56-.97-.87.54-2.21,2.4-.92,3.2,1.51.94,2.97-1.05,3.87-1.97.53-.54-.3-1.38-.83-.83-.39.4-.75.82-1.15,1.2-.33.31-.7.7-1.18.64-.03,0-.15-.04-.1-.03.06.01.02.06.03.04.03-.04.05-.27.1-.39.16-.35.43-.7.74-.91l-.56-.97c-.29.2-.65.29-.99.3-.15,0-.59,0-.61-.21-.02-.24.61-.59.78-.7.34-.2.69-.39,1.07-.5.53-.16.45-1-.13-.99-.42,0-.88,0-1.27-.2-.11-.06-.19-.12-.27-.21-.02-.02-.03-.07-.03-.07,0-.05.02-.09.07-.14.08-.08.19-.15.3-.19.39-.17.86-.15,1.27-.12.49.04.63-.66.24-.89s-.73-.55-.93-.96c-.1-.2-.2-.54-.08-.65.26-.24.9-.03,1.18.07.69.26,1.05.86,1.28,1.53.12.34.61.28.63-.08h0Z"/>
      </g>
    </g>
  </g>
</svg>