<?xml version="1.0" encoding="UTF-8"?>
<svg id="Layer_2" xmlns="http://www.w3.org/2000/svg" viewBox="0 0 119.73 155.68">
  <defs>
    <style>
      .cls-1 {
        fill: #af3f4b;
      }

      .cls-2 {
        fill: #9b4711;
      }

      .cls-3 {
        fill: #e9917a;
      }

      .cls-4 {
        fill: #ff9b8b;
      }

      .cls-5 {
        fill: #fff;
      }

      .cls-6 {
        opacity: .5;
      }

      .cls-7 {
        fill: #fcc6a0;
      }

      .cls-8 {
        fill: #f06385;
      }
    </style>
  </defs>
  <g id="OBJECTS">
    <g>
      <g>
        <path class="cls-8" d="M114.64,55.32c-6.52-21.61-19.67-43.4-41.42-52.17C51.76-5.51,26.08,4.6,12.65,22.45,4.78,32.91,1.16,45.12.26,58.05c-.46,6.53-.19,13.12-.08,19.66.13,7.7-.28,15.39-.13,23.09.43,22.48,14.09,42.52,35.06,50.83,25.8,10.23,51.75.12,69.38-20.07,18.82-21.54,17.64-50.34,10.14-76.26Z"/>
        <path class="cls-4" d="M104.52,59.48c-5.31-17.62-16.04-35.38-33.77-42.53-17.5-7.06-38.44,1.18-49.39,15.74-6.41,8.53-9.36,18.48-10.1,29.03-.37,5.33-.16,10.7-.07,16.03.11,6.28-.22,12.55-.11,18.83.35,18.33,11.49,34.67,28.59,41.45,21.04,8.34,42.19.1,56.57-16.36,15.34-17.56,14.38-41.04,8.27-62.18Z"/>
        <path class="cls-1" d="M99.63,61.49c-4.73-15.68-14.28-31.5-30.07-37.87-15.58-6.29-34.22,1.05-43.97,14.01-5.71,7.59-8.34,16.46-8.99,25.85-.33,4.74-.14,9.52-.06,14.27.1,5.59-.2,11.18-.1,16.76.31,16.32,10.23,30.87,25.45,36.9,18.73,7.42,37.57.09,50.37-14.57,13.66-15.63,12.81-36.54,7.36-55.36Z"/>
      </g>
      <path class="cls-4" d="M28.26,87.88c-.56,0-1.12.08-1.5.05-1.25-.09-2.47-.35-3.66-.73-2.31-.75-4.46-1.92-6.59-3.08-1.22-.67-2.34.66-2,1.67-.05.18-.06.39-.02.61.64,3.63.34,7.31.32,10.97,0,1.27,1.47,1.72,2.34.97,2.96-2.54,6.55-4.13,9.76-6.3.96-.65,3.16-1.74,3.09-3.13-.04-.89-.89-1.03-1.75-1.03Z"/>
      <g>
        <g>
          <g>
            <path class="cls-3" d="M42.33,101.05c.36,1.53.35,3.51.12,4.51-.74,3.13-2.01,5.96-2.65,9.13-.65,3.24-2.59,5.19-5.72,6.23-2.15.72-11.24-1.7-7.24-4.84,1.34-1.05,3.33-.83,4.8-1.65.25-.14.49-.28.72-.42-1.08-3.31-1.68-7.26-1.73-8.76-.12-3.99,1.66-5.45,5.32-6.41,1.6-.42,4.33-.91,5.62.49.34.38.59,1,.76,1.72Z"/>
            <path class="cls-7" d="M48.05,105.39c-.71-2.02-2.1-3.05-4.21-3.26-.03,0-.06,0-.09,0-1.51-.16-2.86.94-3.63,2.1-.02.03-.05.07-.07.1-.03.04-.04.08-.07.12-.23.28-.39.62-.46,1.03,0,.01,0,.01,0,.02-.17.27-.32.58-.37.86-.09.57-.17,1.13-.16,1.71,0,1.59.75,3.04,1.92,4.09,1.68,1.5,4.23,1.7,5.9,0,1.77-1.79,2.06-4.47,1.25-6.78Z"/>
          </g>
          <g>
            <path class="cls-7" d="M61.15,73.06c-4.52-2.7-9.49-3.51-12.6.93-3.19,4.55-6.43,10.33-8.4,15.61-2.11,5.68-4.97,13.26-2.08,19.16,2.37,4.85,7.91,7.17,12.72,8.89,1.94.69,4,1.07,6.06,1.16,4.42.21,9.98,1.58,14.27,0,3.74-1.37,4.83-6.2,4.93-9.73.07-2.51-.73-4.65-1.04-7.08-.38-3-.59-5.82-1.4-8.79-.92-3.37-1.23-6.9-2.73-10.11-1.46-3.13-5.39-7.47-9.72-10.06Z"/>
            <g>
              <path class="cls-7" d="M93.01,63.95c-1.57-3.36-4.8-5.18-8.48-4.66-3.17.45-6.08,2.71-7.87,5.29-.02.04-.04.07-.06.11-.24.3-.31.72-.02,1.13-.25-.35-.01,0,.04.11.14.3.28.59.41.89.42.9.83,1.79,1.25,2.69.29.62.58,1.25.87,1.87-.42.96-.3,2.08.79,2.82,3.26,2.23,7.24,2.77,10.57.31,3.26-2.4,4.18-6.96,2.49-10.56Z"/>
              <path class="cls-7" d="M86.41,66.02c.5-2.28.82-4.55,1.07-6.63.37-3.03.77-6.07.85-9.13.63-24.78-46.31-32.78-51.04-8.35-1.76,9.08-9.98,17.72-6.26,27.33,2.41,6.23,8.36,10.1,14.1,12.41,4.02,1.63,8.28,2.76,12.61,3.08,7.26.55,18.73,1.07,23.76-5.64,2.5-3.33,4.04-9.15,4.91-13.09Z"/>
            </g>
            <path class="cls-3" d="M89.47,65.78c-1.84-.39-7.29-.94-7.57,1.88-.02.17.09.41.25.49.96.5,2.02,0,3.02-.18,1.39-.26,2.8-.16,4.2-.29.95-.09,1.04-1.7.1-1.9h0Z"/>
            <path class="cls-7" d="M25.68,48.81c1.93-3.16,5.34-4.63,8.94-3.71,3.1.79,5.75,3.35,7.24,6.12.02.04.03.08.05.11.2.33.23.75-.11,1.12.29-.32,0,0-.05.11-.17.28-.34.56-.51.84-.51.85-1.02,1.69-1.53,2.53-.35.59-.71,1.17-1.07,1.76.31,1,.07,2.1-1.09,2.72-3.48,1.86-7.5,1.96-10.54-.84-2.98-2.74-3.39-7.38-1.33-10.77Z"/>
            <path class="cls-3" d="M28.99,51.02c1.87-.18,7.35-.14,7.32,2.7,0,.18-.13.39-.3.46-1.01.39-2-.21-2.98-.51-1.35-.41-2.77-.46-4.14-.74-.94-.19-.85-1.8.1-1.9h0Z"/>
            <g class="cls-6">
              <path class="cls-5" d="M73.58,43.92c.94.88,2.1,2.37,2.41,3.05,0,.01.39,1.15.23.49.09.37.12.75.17,1.12.04.37-.02,1.04-.19,1.88-1,4.82,6.66,6.01,7.57,1.15,1.07-5.72-1.89-10.44-6.98-12.88-3.26-1.56-5.67,2.9-3.21,5.18h0Z"/>
            </g>
            <path class="cls-2" d="M40.08,51.09c-1.02,3.01.8,5.26,3.57,6.38,1.59.65,7.01,1.68,7.39-1.13.04-.26-.06-.61-.37-.66-.77-.13-1.55.25-2.33.35-1.02.12-2.04.02-3.04-.24-1.91-.5-4.6-2-4.06-4.39.17-.76-.92-1.06-1.17-.32h0Z"/>
            <path class="cls-2" d="M66.71,60.27c.81,3.03,3.57,4.75,6.61,4.95,2.48.16,6.54-1.14,6.43-4.22-.01-.29-.35-.55-.62-.36-1.78,1.29-2.93,2.62-5.31,2.67s-4.89-1.12-5.82-3.4c-.32-.77-1.52-.5-1.29.36h0Z"/>
            <path class="cls-3" d="M54.47,60.76c-1.37.66-2.46,2.03-2.52,3.59-.06,1.66,1.37,2.83,2.97,2.41.24-.06.49-.28.54-.54.23-1.23-1.46-.77-1.66-1.68s.73-2.05,1.42-2.48c.84-.52.11-1.73-.76-1.31h0Z"/>
            <path class="cls-3" d="M55.8,72.72c-.3-.07-.61-.03-.91.15-1.75,1.05.26,5.16,2.01,4.77,2.03-.45.65-4.52-1.09-4.93Z"/>
          </g>
          <path class="cls-4" d="M20,91.49c1.82-1.34,4.54-1.47,6.69-1.22,3.3.39,4.33,1.93,3.66,5.27-.74,3.72-3.12,6.98-2.85,10.92.19,2.69,1.12,6.66,3.87,7.78,1.75.71,3.72-.19,4.9,1.7.78,1.25.5,3.49.87,4.91,1.28,4.93,7.7,7.15,11,2.48,1.64-2.31,1.36-5.48.89-8.12-.95-5.31-5.57-15.81,4.12-14.7,1.45.17,1.81-2.36.35-2.57-3.26-.47-6.66.57-8.54,3.47-2.35,3.62-.43,7.96.33,11.76.4,2,.95,4.26.56,6.3-.84,4.39-4.58,2.9-5.68-.38-.86-2.58-.25-5.98-3.14-7.4-2.36-1.16-4.62-.18-5.85-3.35-.95-2.45-.13-4.89.66-7.24,1-2.99,3.18-7.15,1.77-10.36-2.12-4.83-11.97-4.1-14.74-.38-.48.65.47,1.59,1.12,1.12h0Z"/>
          <path class="cls-7" d="M43.98,84.53c-2.59.61-5.36.61-8.01.75-.16,0-.33.02-.5.03,1.74-1.56,3.67-2.94,5.34-4.15,1.27-.92,2.48-2.88,1.87-4.52-.79-2.14-1.91-.33-3.21-1.6-.77-.76.12-2.15-.94-2.77-.84-.49-2.68.58-3.3,1.05-4.69,3.6-10.6,8.34-12.65,14.11-1.71,4.8,2.22,6.92,6.5,7.2,5.87.38,9.48-1.86,14.08-5.06.81-.57,3.28-1.82,3.3-3.03.02-.86-1.59-2.22-2.49-2.01Z"/>
          <path class="cls-7" d="M68.62,87.47c2.24,1.43,4.86,2.34,7.32,3.34.15.06.3.13.46.2-1.14-2.05-2.5-3.99-3.68-5.68-.9-1.29-1.4-3.53-.28-4.89,1.45-1.77,1.91.32,3.55-.46.98-.47.6-2.07,1.8-2.31.96-.19,2.35,1.43,2.77,2.08,3.25,4.94,7.27,11.36,7.31,17.48.04,5.09-4.37,5.81-8.51,4.67-5.67-1.57-8.34-4.87-11.64-9.4-.58-.8-2.5-2.8-2.13-3.94.26-.82,2.23-1.58,3.01-1.08Z"/>
          <g>
            <path class="cls-7" d="M64.39,106.02c1.18,1.04,2.33,2.65,2.72,3.6,1.22,2.97,1.83,6.02,3.15,8.97,1.35,3.01.9,5.73-1.04,8.4-1.33,1.83-10.14,5.15-8.71.27.48-1.63,2.23-2.61,2.95-4.13.12-.26.24-.51.34-.76-2.8-2.06-5.59-4.93-6.5-6.13-2.41-3.17-1.82-5.39.61-8.31,1.06-1.28,3-3.26,4.86-2.87.5.11,1.06.47,1.62.96Z"/>
            <path class="cls-3" d="M60.42,107.96c.02-.06.04-.12.06-.18l-.05.13c.06-.13.13-.26.22-.37l-.09.12c.08-.1.16-.19.24-.29l-.1.12c.12-.15.26-.29.41-.4l-.12.09c.1-.08.21-.15.32-.21.27-.15.54-.45.43-.78v.24c.02-.1.04-.19,0-.29s-.12-.15-.2-.21l.16.16c-.09-.18-.31-.29-.5-.29-.08,0-.19.02-.28.04-.13.03-.26.12-.37.19-.2.13-.4.28-.56.45-.09.1-.19.21-.26.32s-.12.24-.17.37c-.09.21-.13.43-.14.65,0,.12.06.29.15.37s.18.13.3.14c.26.03.5-.12.57-.37h0Z"/>
            <path class="cls-7" d="M71.56,106.23c-1.75-1.23-3.48-1.26-5.32-.21-.03.02-.05.03-.08.05-1.32.75-1.78,2.42-1.73,3.83,0,.04,0,.08,0,.12,0,.05.01.09.02.14-.02.36.04.73.23,1.11,0,0,0,.01,0,.02.03.32.07.65.2.91.26.52.52,1.02.86,1.48.93,1.29,2.37,2.04,3.94,2.21,2.24.24,4.43-1.08,4.81-3.42.4-2.49-.92-4.84-2.93-6.25Z"/>
            <path class="cls-3" d="M56.58,114.46c-1.35-2.76-1.29-5.94.66-8.4,1.69-2.13,4.35-3.35,7.05-2.77,1.81.39,3.01,1.47,4.23,2.79.58.63,1.71-.21,1.2-.93-2.07-2.95-5.81-4.02-9.16-2.86-3,1.04-5.41,3.7-5.92,6.86-.33,2.03.11,4.01,1.19,5.75.29.47.98.06.74-.43h0Z"/>
          </g>
        </g>
        <g>
          <path class="cls-3" d="M35.05,74.87c.25-.64.48-1.29.82-1.9s.8-1.34,1.46-1.69c.25-.13.49-.18.76-.06.23.1.39.28.44.47s.06.19.06.37c0,.2-.01.35-.04.49-.07.36-.19.75-.33,1.06-.33.75-.73,1.31-1.23,1.88-.32.37.09.99.55.71.35-.21.59-.54.81-.87.25-.36.46-.74.63-1.13.35-.79.67-1.74.42-2.61s-1.12-1.39-1.99-1.18-1.49,1.03-1.92,1.74c-.27.45-.5.94-.68,1.44-.14.38-.29.82-.26,1.23.02.29.39.33.49.07h0Z"/>
          <path class="cls-3" d="M37.95,75.78c.22-.26.43-.53.67-.78.29-.29.6-.56.93-.81s.68-.48,1.06-.64c.04-.02.1-.04.17-.07.08-.03.17-.05.26-.07.04,0,.08-.02.12-.02.05,0-.02,0-.02,0,.02,0,.03,0,.05,0,.1,0,.19,0,.29.01.05,0,.02,0,0,0,.03,0,.06,0,.09.01.04,0,.08.01.12.02.09.02.17.04.26.07.02,0,.13.05.08.03s.04.02.05.02c.03.02.06.03.09.05.02.01.1.07.05.03s.02.02.03.03c.02.02.03.04.05.05.05.05-.04-.07-.01-.01,0,.02.03.06.04.08.04.05-.02-.08-.01-.02,0,.02.01.05.02.07.02.08,0-.05,0-.03,0,.03,0,.06,0,.09,0,.02,0,.05,0,.07,0,.1.02-.08,0-.01-.02.06-.03.11-.04.17,0,.02-.02.05-.03.07-.02.07.04-.09,0,0-.03.06-.06.12-.09.18s-.07.11-.1.16c-.02.03-.04.05-.05.08,0,.01-.02.02-.03.04-.03.05.07-.09,0,0-.09.11-.18.21-.28.31-.06.06-.13.12-.19.18-.03.03-.06.05-.09.08-.02.01-.12.1-.07.06s-.04.03-.06.04c-.04.03-.07.05-.11.08-.07.05-.13.09-.2.13s-.14.08-.21.11c-.03.02-.06.03-.1.05-.02,0-.04.02-.05.02-.06.03.09-.03.04-.02-.13.04-.27.07-.4.12-.23.09-.39.28-.35.54.04.23.23.43.48.43.34,0,.7-.2.98-.36.31-.18.59-.4.85-.65.48-.46.92-1.06.99-1.74.07-.73-.52-1.23-1.18-1.38-.44-.1-.89-.13-1.32,0s-.83.37-1.19.63c-.44.32-.85.69-1.2,1.11-.28.34-.62.74-.72,1.18-.04.18.2.35.33.19h0Z"/>
          <path class="cls-3" d="M40.26,76.65c.23.06.5,0,.74,0,.32-.02.64-.04.96-.05.34-.02.69-.02,1.03,0,.08,0,.15.01.22.02.13.01-.08-.01.05,0,.04,0,.07.01.11.02.06.01.12.02.17.04.03,0,.06.02.1.03.02,0,.15.06.05.02.04.02.09.04.13.07.03.02.07.07,0,0,.02.02.05.03.06.05.04.08-.06-.08,0,0,.03.04.01.08,0-.02,0,.04.03.2.02.08,0,.06,0,.12,0,.18,0-.14-.01,0-.02.05-.02.09.05-.08,0,0-.01.02-.03.05-.04.07-.04.08.07-.06,0,0-.02.02-.04.05-.07.07-.02.02-.04.03-.05.05-.07.07.08-.05,0,0-.05.03-.1.07-.16.1-.05.03-.1.05-.15.07.12-.05-.11.04-.15.05-.27.09-.55.14-.83.18.14-.02.01,0-.01,0-.05,0-.1.01-.14.02-.07,0-.14.01-.21.02-.14.01-.28.02-.42.03-.25.01-.61-.04-.82.12-.3.23-.31.61,0,.83.21.16.54.1.79.08.32-.02.64-.06.96-.12.63-.11,1.32-.3,1.79-.75s.59-1.27.08-1.72-1.37-.43-2.01-.38c-.44.03-.87.1-1.3.19-.29.06-.67.11-.92.29-.12.09-.12.3.04.34h0Z"/>
          <path class="cls-3" d="M41.15,78.77c.17,0,.3.03.46.07.19.04.39.1.57.16.05.02.1.04.15.06.06.02-.08-.04,0,0,.03.01.05.02.08.04.09.05.19.09.28.15.04.02.08.05.12.07.02.02.04.03.07.05,0,0-.07-.06-.02-.01.05.05.17.12.19.19-.03-.08-.03-.05,0,0,0,.02.02.03.03.05,0,0,.02.05.03.05-.04-.02-.03-.09,0-.02,0,.01,0,.03.01.04.03.09-.03-.02,0-.03,0,0,.02.13,0,.14s.03-.12,0-.03c0,.02-.01.04-.02.06-.01.04,0,.09,0,0,0,.01-.02.04-.03.05,0,.01-.05.07-.05.08,0-.06.07-.07.03-.04-.02.01-.03.03-.05.05-.05.06.08-.05.02-.01-.04.02-.08.04-.12.07-.05.03.11-.04.02-.01-.03,0-.05.02-.08.03-.1.03-.2.06-.31.07-.02,0-.04,0-.06,0-.11.02.11-.01,0,0-.05,0-.1.01-.16.02-.12.01-.24.02-.36.02-.25,0-.5,0-.75-.03-.06,0-.12-.01-.18-.02-.07,0,.15.02.05,0-.03,0-.05,0-.08-.01-.12-.02-.24-.03-.36-.04-.25-.02-.47.21-.5.45-.04.26.12.48.37.56.21.08.45.08.68.09.25,0,.5,0,.75-.01.52-.04,1.09-.12,1.52-.43.47-.34.63-.98.35-1.49-.24-.44-.75-.69-1.22-.82-.27-.07-.55-.11-.83-.11-.26,0-.48.05-.71.15-.18.08-.08.36.1.35h0Z"/>
        </g>
        <g>
          <path class="cls-3" d="M80.3,80.2c.15-.34.17-.71.19-1.07.02-.47-.02-.94-.09-1.41-.13-.87-.38-1.89-1.06-2.5s-1.68-.61-2.31.04-.72,1.64-.69,2.48c.02.51.09,1.03.21,1.52.11.44.24.87.52,1.22s.91-.03.75-.44c-.02-.06-.04-.12-.06-.17s-.05-.12-.07-.18c-.05-.11.04.1,0-.02-.06-.15-.11-.31-.16-.47-.1-.34-.19-.78-.22-1.06-.04-.38-.06-.77-.02-1.16.01-.13,0-.1.02-.21.02-.09.03-.18.05-.27.02-.07.04-.14.06-.21.01-.04.03-.08.04-.12-.03.08.03-.07.04-.08.13-.26.28-.4.51-.47.26-.07.47-.05.72.13.22.15.42.47.56.78.17.37.28.77.36,1.16.16.79.15,1.57.18,2.38,0,.23.36.37.46.13h0Z"/>
          <path class="cls-3" d="M77.18,79.84c.04-.41-.12-.88-.25-1.26-.18-.5-.41-.96-.7-1.4-.26-.4-.56-.78-.93-1.08s-.82-.44-1.31-.5c-.68-.08-1.35.18-1.56.88-.19.63.04,1.33.3,1.9.16.35.37.68.62.98.1.13.21.25.33.36.17.16.4.36.65.35.38-.01.59-.4.42-.73-.06-.11-.16-.18-.26-.24-.02-.02-.05-.03-.07-.05-.06-.04.09.07,0,0-.1-.09-.2-.17-.29-.27-.04-.05-.09-.1-.13-.15-.02-.02-.04-.05-.06-.07.07.08.01.01-.02-.03-.08-.11-.16-.23-.23-.36s-.14-.25-.2-.38c0-.01-.06-.13-.03-.06.03.06-.01-.04-.02-.06-.03-.07-.05-.13-.07-.2-.04-.12-.07-.25-.09-.38-.02-.1,0,.08,0,0,0-.03,0-.05,0-.08,0-.06,0-.12,0-.18,0-.03,0-.06,0-.08,0-.01-.02.11,0,.01.01-.05.03-.1.04-.15.01-.07-.05.08-.01.03.01-.02.02-.04.04-.07,0-.02.05-.08,0-.02s.01-.01.03-.03c.02-.02.04-.03.06-.05-.03.04-.08.05-.02.02.02-.01.06-.02.07-.04.02-.02-.04.02-.05.02.02,0,.03-.01.05-.02.06-.02.11-.03.17-.04s-.09,0-.03,0c.02,0,.03,0,.05,0,.04,0,.08,0,.13,0,.08,0,.15,0,.23.01.05,0,0,0-.02,0,.02,0,.04,0,.06,0,.06,0,.11.02.17.03.09.02.19.04.28.07.07.02-.03-.02.03.02.04.02.09.05.13.07.17.1.25.17.4.31.16.15.31.32.44.49.3.39.56.83.79,1.27.2.38.33.78.49,1.18.08.21.37.17.39-.05h0Z"/>
          <path class="cls-3" d="M74.51,79.69c-.15-.22-.41-.37-.63-.51-.31-.2-.61-.38-.94-.54-.6-.3-1.33-.64-2.02-.58-.34.03-.63.17-.82.47s-.25.64-.17.98c.16.65.78,1.12,1.31,1.46.29.19.59.35.91.49.16.07.32.14.49.21.17.07.31.09.51.06.39-.06.43-.57.22-.82-.16-.19-.44-.25-.66-.34-.03-.01-.06-.02-.09-.04.13.05.05.02.02,0-.06-.03-.12-.05-.17-.08-.14-.06-.27-.12-.4-.19-.25-.13-.5-.26-.73-.43-.03-.02-.06-.04-.09-.07-.1-.07.07.07-.02-.02-.04-.04-.09-.08-.13-.12-.05-.05-.1-.1-.14-.15-.01-.02-.03-.03-.04-.05.08.09,0-.01-.02-.04s-.09-.17-.06-.11-.02-.09-.03-.11c-.03-.08,0,.1,0,0,0-.02,0-.04,0-.06,0-.04.03-.11,0,0,.01-.04.02-.08.03-.12.02-.1-.03.05,0,0,.01-.02.03-.05.04-.07.02-.04.02-.09-.01,0,0-.02.04-.04.05-.05-.08.07,0,.01.04-.01-.1.06.03,0,.08-.01.09-.03-.09,0,0,0,.03,0,.06,0,.09,0,.06,0,.11,0,.17,0,.01,0,.13.01.03,0,.04,0,.07.01.11.02.08.01.16.03.23.05.32.08.64.19.95.31s.63.26.95.4c.25.11.52.27.8.3.14.02.24-.17.16-.28h0Z"/>
          <path class="cls-3" d="M72.99,81.35c-.06-.05-.12-.1-.18-.15-.02-.02-.04-.03-.07-.05.01,0,.05.03,0,0-.03-.02-.05-.03-.08-.04-.06-.03-.13-.06-.19-.08-.2-.08-.41-.14-.63-.18-.5-.08-1.04-.08-1.49.17s-.71.82-.55,1.34.7.88,1.17,1.12c.3.15.61.27.92.38.24.08.51.17.77.16s.47-.18.5-.44-.12-.48-.37-.56c-.16-.05-.33-.08-.5-.12-.23-.06-.45-.12-.68-.2-.05-.02-.1-.04-.15-.05-.03-.01-.06-.02-.09-.03-.1-.04.1.05,0,0-.11-.05-.22-.1-.33-.16-.1-.05-.19-.11-.29-.18-.08-.05.08.07,0,0-.01-.01-.03-.02-.04-.03-.02-.02-.04-.03-.05-.05-.01-.01-.02-.02-.03-.03-.03-.04-.02-.02.03.04,0,0-.06-.1-.07-.11-.04-.06.02.09.02.04,0-.02-.01-.04-.02-.05-.03-.1-.01,0,0,.01,0,0,0-.06,0-.07,0-.02,0-.05,0-.07,0-.11-.02.07,0,0,0-.01.03-.09.03-.1.02.04-.05.1-.01.03.01-.02.02-.03.03-.05.04-.07.02.01-.02.02,0,0,.03-.04.04-.04.01-.01.03-.02.04-.03.06-.07-.08.05-.01,0,.05-.03.16-.13.23-.12-.02,0-.09.03-.03.02.02,0,.04-.02.07-.02.05-.02.11-.03.16-.04.05-.01.1-.02.15-.03.02,0,.03,0,.05,0-.11,0-.03,0,0,0,.11-.01.22-.02.34-.03.22,0,.44,0,.65.03-.08,0,0,0,.02,0,.03,0,.06.01.09.02.06.01.12.02.18.03,0,0,.08.01.01,0,.03,0,.05,0,.08.01.04,0,.08.02.12.04.18.07.32-.19.19-.32h0Z"/>
        </g>
      </g>
    </g>
  </g>
</svg>