<?xml version="1.0" encoding="UTF-8"?>
<svg id="Layer_2" xmlns="http://www.w3.org/2000/svg" viewBox="0 0 129.2 167.99">
  <defs>
    <style>
      .cls-1 {
        fill: #af3f4b;
      }

      .cls-2 {
        fill: #9b4711;
      }

      .cls-3 {
        fill: #e9917a;
      }

      .cls-4 {
        fill: #ff9b8b;
      }

      .cls-5 {
        fill: #fff;
      }

      .cls-6 {
        opacity: .5;
      }

      .cls-7 {
        fill: #fcc6a0;
      }

      .cls-8 {
        fill: #f06385;
      }
    </style>
  </defs>
  <g id="OBJECTS">
    <g>
      <g>
        <path class="cls-8" d="M123.7,59.69c-7.03-23.31-21.23-46.83-44.69-56.3C55.85-5.95,28.14,4.96,13.65,24.23,5.15,35.51,1.25,48.69.28,62.65c-.49,7.05-.21,14.16-.09,21.22.14,8.31-.3,16.61-.14,24.92.46,24.25,15.2,45.88,37.83,54.85,27.84,11.04,55.84.13,74.87-21.65,20.31-23.24,19.04-54.32,10.95-82.29Z"/>
        <path class="cls-4" d="M112.79,64.18c-5.73-19.01-17.31-38.18-36.44-45.9-18.88-7.62-41.48,1.27-53.29,16.98-6.92,9.2-10.1,19.94-10.89,31.32-.4,5.75-.17,11.54-.07,17.3.12,6.77-.24,13.54-.11,20.32.38,19.78,12.39,37.41,30.85,44.72,22.7,9,45.53.1,61.05-17.65,16.55-18.95,15.52-44.29,8.92-67.09Z"/>
        <path class="cls-1" d="M107.5,66.35c-5.1-16.92-15.41-33.99-32.44-40.87-16.81-6.78-36.93,1.13-47.45,15.12-6.16,8.19-9,17.76-9.7,27.89-.36,5.12-.15,10.28-.06,15.4.1,6.03-.22,12.06-.1,18.09.34,17.61,11.04,33.31,27.47,39.82,20.21,8.01,40.54.09,54.35-15.72,14.74-16.87,13.82-39.43,7.94-59.74Z"/>
      </g>
      <path class="cls-4" d="M30.49,94.83c-.6,0-1.21.08-1.62.05-1.34-.09-2.67-.38-3.95-.79-2.5-.81-4.81-2.08-7.11-3.33-1.32-.72-2.52.71-2.15,1.8-.05.2-.06.42-.02.66.69,3.91.37,7.89.34,11.84,0,1.37,1.59,1.86,2.53,1.05,3.19-2.74,7.07-4.46,10.54-6.8,1.03-.7,3.41-1.88,3.34-3.37-.05-.96-.96-1.12-1.89-1.11Z"/>
      <g>
        <g>
          <path class="cls-3" d="M69.39,101.81c.03-1.01.31-2.03.89-3.06,1.57-2.79,10.31-2.41,13.36-2.01,3.88.52,10.88.37,10.66,5.49-.22,5.25-7.05,8.05-11.27,9.21-5.36,1.47-13.84-3.65-13.64-9.63Z"/>
          <g>
            <path class="cls-3" d="M89.28,98.43c3.67-2.27,8.6,3.28,10.54,5.8,1.25,1.63,4.28,5.08,3.21,7.42-1.83,4.04-6.95.97-9.42-.44-3.25-1.84-9.23-9.18-4.6-12.6.09-.07.19-.13.28-.19Z"/>
            <path class="cls-3" d="M101.25,109.86s0-.02,0-.03c.73-2.53,3.5-4.13,5.86-4.91,3.2-1.04.91,2.68-.07,3.62-1.17,1.13-2.41,2.2-3.61,3.3-.56.51-1.27,1.53-2.04.86-.58-.5-.35-2.2-.15-2.84Z"/>
          </g>
        </g>
        <path class="cls-7" d="M53.66,128.78c7.42,3.89,17.62,2.3,25.02-1.71.92-.5,1.82-1.05,2.66-1.67,8.17-6.12,19.45-21.74,6.86-30.52-5.12-3.58-7.9-5.82-11.03-11.67-3.75-6.98-7.17-14.32-15.43-16.4-5.35-1.35-8.78-1.24-11.88,3.37-5.93,8.83-8.02,21.07-7.76,31.53.25,10.11,1.52,21.8,11.57,27.07Z"/>
        <g>
          <path class="cls-7" d="M20.57,65.62c2.05-3.82,5.94-5.75,10.2-4.91,3.67.72,6.93,3.55,8.85,6.68.03.04.04.09.06.13.26.37.31.86-.05,1.32.31-.39.01,0-.06.13-.18.34-.36.68-.54,1.02-.54,1.02-1.09,2.04-1.63,3.06-.38.71-.75,1.42-1.13,2.12.43,1.14.22,2.44-1.1,3.25-3.95,2.4-8.63,2.77-12.36-.31-3.65-3.01-4.44-8.4-2.24-12.49Z"/>
          <path class="cls-7" d="M36.24,81.34c4.45,4.14,12.41,7.46,18.14,8.34,6.67,1.03,13.68-.06,20-2.23,6.4-2.19,13.13-6.06,16.14-12.72,4.64-10.27-3.82-20.21-5.2-30.23-3.71-26.97-55.45-21.04-56.25,6.06-.1,3.34.16,6.69.38,10.02.15,2.28.37,4.79.78,7.3.83,5.07,2.47,10.16,6.01,13.45Z"/>
        </g>
        <path class="cls-2" d="M46.41,70.96c1.66,2.85,4.23,4.61,7.61,3.73,2.88-.75,5.9-3.32,6.24-6.4.05-.48-.57-.61-.87-.36-1.66,1.41-2.88,3.24-4.88,4.24-2.67,1.34-5.21.57-6.81-1.96-.51-.81-1.78-.08-1.29.75h0Z"/>
        <path class="cls-2" d="M78.76,65.12c1.83,1.7,4.63,2.5,6.93,1.24,1.91-1.05,3.2-4.62.98-6.05-.23-.15-.53,0-.61.25-.51,1.56.21,3.06-1.58,4-1.48.78-3.37.53-4.64-.51-.75-.61-1.82.4-1.08,1.08h0Z"/>
        <path class="cls-3" d="M24.89,70.03c1.47.17,2.94.18,4.4.48,1.17.24,2.31.88,3.51.66.27-.05.44-.39.36-.64-.83-2.81-6.02-2.64-8.27-2.36-1.19.15-1.2,1.72,0,1.86h0Z"/>
        <path class="cls-3" d="M74.8,67.99c1.28-.05,2.58.73,2.54,2.14s-1.63,1.9-1.84,3.15c-.05.3.08.54.37.65,1.02.39,2.02-.66,2.51-1.44.53-.85.76-1.9.59-2.89-.39-2.2-2.32-2.79-4.28-2.49-.5.08-.38.9.12.88h0Z"/>
        <g class="cls-6">
          <path class="cls-5" d="M44.55,43.48c-1.15.96-2.61,2.63-3.01,3.4,0,.02-.53,1.31-.3.56-.13.42-.19.87-.27,1.3-.08.43-.05,1.22.1,2.21.86,5.69-8.16,6.6-8.91.86-.88-6.75,2.87-12.07,8.98-14.59,3.91-1.62,6.43,3.74,3.42,6.26h0Z"/>
        </g>
        <g>
          <path class="cls-3" d="M65.28,80.52c2.05,2.37,6.03,2.85,8.21.56l-8.21-.56Z"/>
          <path class="cls-3" d="M64.92,80.88c1.23,1.38,2.95,2.41,4.83,2.48,1.57.06,3.74-.45,4.24-2.14.12-.42-.38-.83-.76-.58.22-.14-.22-.08-.38-.09-.34-.03-.68-.05-1.02-.07l-2.76-.2c-1.26-.09-2.52-.18-3.78-.27-.65-.04-.65.97,0,1.02,1.26.09,2.52.17,3.78.25l2.63.17c.35.02.72.07,1.07.07.33,0,.69.2.37-.08l.23-.86c-1.28.31-2.21,1.15-3.6,1.19-1.57.05-3.01-.5-4.11-1.61-.46-.47-1.15.23-.72.72Z"/>
        </g>
        <g>
          <path class="cls-7" d="M47.38,118.35c.35-.94.94-1.83,1.82-2.62,2.38-2.15,10.54,1,13.3,2.36,3.51,1.73,10.19,3.82,8.36,8.61-2.27,5.91-10.5,4.98-15.24,3.22-4.48-1.67-10.29-6.08-8.24-11.57Z"/>
          <g>
            <path class="cls-7" d="M67.31,121.49c4.2-.97,7.1,5.85,8.13,8.86.66,1.94,2.43,6.18.68,8.05-3.03,3.24-6.9-1.3-8.79-3.42-2.49-2.78-5.81-11.64-.34-13.41.11-.03.22-.06.32-.09Z"/>
            <path class="cls-7" d="M75,136.14s.01-.02.02-.03c1.5-2.17,4.63-2.8,7.12-2.78,3.37.03,0,2.83-1.22,3.41-1.47.69-2.98,1.32-4.48,1.97-.69.3-1.69,1.05-2.21.16-.39-.66.37-2.2.77-2.74Z"/>
          </g>
        </g>
        <path class="cls-3" d="M66.55,122.65c1.1.22,1.93.9,2.97,1.25.24.08.57,0,.73-.19.04-.05.09-.1.12-.15.15-.31.12-.66-.12-.91-.88-.92-2.29-1.24-3.51-1.39-.79-.1-.97,1.24-.19,1.4h0Z"/>
        <path class="cls-3" d="M72.72,122.29c.04,1.27.41,2.49.74,3.71.18.68.51,2.49,1.64,2.08,1.05-.38.23-2.09.04-2.74-.35-1.23-.63-2.47-1.53-3.41-.31-.32-.9-.08-.89.37h0Z"/>
        <path class="cls-3" d="M52.58,120.42c2.61-1.87,5.65-3.31,8.9-3.09.57.04.97-.82.49-1.19-2.79-2.18-7.81,1.97-9.8,3.74-.29.25.1.77.42.54h0Z"/>
        <path class="cls-4" d="M27.11,97.18c4.22-1.26,11.93.15,7.83,6.06-1.41,2.03-3.73,3.28-5.04,5.43-1.88,3.09-2.18,6.11,1.25,7.76,1.21.58,2.64.78,3.91,1.2.5.17,1.64-.25,1.94-.03,2.83,2.09.13,8.65.16,11.52.03,3.38,2.24,8.99,6.39,8.58,5.82-.57,8.36-10.4,12.85-1.34,1.53,3.08,4.71,4.24,7.76,2.15,7.19-4.93.47-23.27,10.52-24.81,2.09-.32,1.18-3.44-.87-3.15-10.75,1.48-6.76,15.99-10.03,22.69-1.06,2.17-3.01,2.59-4.73.62-.52-.59-.78-1.59-1.28-2.26-1.01-1.36-2.48-2.78-4.22-3.02-2.03-.28-3.85,1-5.44,2.09-.93.64-1.66,1.3-2.53,1.98-.59.56-1.23,1.07-1.91,1.51-2.24-.73-3.29-2.41-3.16-5.04-.26-4.05,3.57-11.75-1.41-14.44-1.59-.86-3.51-.14-5.22-.84-4.55-1.86.33-5.41,2.33-7.63,6.84-7.62-1.77-14.23-9.67-10.4-.77.37-.23,1.61.58,1.37h0Z"/>
        <path class="cls-7" d="M86.42,95.6c3.69,7.03-6.9,17.44-12.92,19.64l-.25.5c.14.88.15,3.8-.9,4.23-1.49.61-2.27-1.46-2.11-2.51-.54,4.25-3.76,1.47-2.49-1.52-1.8,5.23-5.01,1.46-1.23-2.76-.39.44-2.25.25-2.78.08-.57-.18-1.06-.5-1.23-1.1-.61-2.13,2.91-1.55,3.96-2.23l-.67.12c5.28-3.7,16.33-9.11,16.15-17.11l4.48,2.66Z"/>
        <g>
          <path class="cls-3" d="M66.97,98.09c-3.5,6.6-11.11,14.45-19.13,11.97-1.13-.35-1.74,1.26-.79,1.86,7.75,4.87,18.66-6.93,20.65-13.52.13-.43-.52-.72-.74-.31h0Z"/>
          <g>
            <path class="cls-3" d="M61.86,90.41c-1.66,3.03-4.37,5.65-7.28,7.48-1.47.92-3.04,1.69-4.68,2.27-.78.28-1.58.52-2.39.73-.74.19-1.71.21-2.38.57-.6.32-.07,1.24.54.92.13-.07.23-.18.31-.31.06-.09.06-.22,0-.3-.08-.13-.18-.23-.31-.31-.6-.32-1.14.6-.54.92s1.71-.15,2.32-.31c.93-.24,1.84-.54,2.74-.88,1.71-.65,3.36-1.46,4.89-2.45,3.17-2.05,5.54-4.7,7.25-8.05.16-.31-.3-.58-.47-.27h0Z"/>
            <path class="cls-3" d="M62.24,90.34c-.06-.26-.01-.48.01-.74s.09-.55.17-.82c.16-.56.41-1.08.82-1.46.05-.05.13-.1.25-.17.01,0,.12-.05.03-.02.02,0,.04-.02.07-.02.03,0,.07-.02.1-.03.03,0,.11-.02.03,0,.07,0,.13,0,.2,0,.02,0,.1.01.02,0,.04,0,.08.01.12.02.17.04.23.07.39.17.21.13.33.33.4.57.02.07.04.15.05.23,0,0,.02.16.01.06,0,.04,0,.08.01.12.01.19.01.37,0,.56,0,.1-.01.21-.03.31,0,.04,0,.09-.01.13,0,.06,0,.07,0,.02,0,.03,0,.05-.01.08-.03.21-.07.41-.11.61-.07.35-.15.71-.2,1.06-.05.32.1.63.45.68s.59-.21.61-.53c0-.08.01-.15.02-.23,0-.04.01-.08.02-.12-.02.14,0-.01,0-.03.03-.2.06-.4.09-.6.07-.44.13-.89.14-1.33.03-.84-.14-1.77-.9-2.26-.63-.4-1.42-.51-2.06-.07-.6.41-.96,1.09-1.18,1.76-.23.72-.29,1.48-.08,2.21.1.34.61.2.53-.15h0Z"/>
            <path class="cls-3" d="M65.07,91.48c.05-.13.16-.27.24-.39.11-.15.22-.3.34-.44.26-.28.56-.55.87-.76.34-.23.7-.43,1.09-.55.32-.1.69-.15.96-.1.09.02.18.04.27.07s.04.01.02,0c.05.02.1.04.14.07.08.04.15.08.23.12.03.02.06.04.09.06.04.03.04.03,0,0,.02.02.04.03.05.05.03.03.13.16.06.05.02.03.09.17.06.09s0,0,0,.02c.02.05,0,.12,0-.03,0,.05,0,.1,0,.15,0-.17-.02-.01-.02.05,0,.03-.05.09.02-.04-.01.03-.02.05-.04.08-.02.05-.05.09-.08.13-.02.03-.04.05-.05.08-.05.07.07-.08-.02.03-.18.2-.37.39-.57.56-.23.2-.47.38-.7.57s-.5.37-.61.66c-.18.46.41.81.78.6.11-.06.2-.18.3-.27s.19-.16.28-.24c.24-.2.47-.39.7-.59.46-.42.97-.94,1.02-1.59.06-.81-.79-1.3-1.47-1.46-.9-.22-1.87.13-2.62.62-.45.29-.87.64-1.21,1.06-.15.19-.3.39-.41.61s-.14.42-.19.64c-.07.3.35.41.45.12h0Z"/>
            <path class="cls-3" d="M68.03,92.5c.27-.09.5-.2.77-.29.15-.05.31-.09.46-.13.07-.02.15-.04.22-.05.04,0,.09-.02.14-.02,0,0,.13-.02.07-.01.17-.02.33-.03.5-.03.08,0,.16,0,.25.01.02,0,.11.02.04,0,.06,0,.11.02.17.03.3.08.45.16.66.38.08.09-.03-.07.03.04.02.04.04.07.06.11.01.02.02.05.04.07.06.11-.02-.09,0,.02.02.06.04.13.05.19.01.04,0,.11,0-.02,0,.04,0,.08,0,.13,0,.02,0,.05,0,.08,0,.07.03-.13,0-.03-.01.05-.03.11-.04.16-.02.08.02.02.02-.03,0,.02-.03.06-.04.08-.03.05-.06.1-.1.15.09-.14-.03.02-.06.06-.04.04-.08.07-.12.11-.08.08.1-.07,0,0-.02.01-.04.03-.05.04-.07.04-.13.09-.2.12-.05.03-.1.06-.15.08-.03.02-.06.03-.1.04-.11.05.09-.03.01,0-.13.04-.26.1-.39.13-.15.04-.3.07-.45.1-.02,0-.05,0-.07.01.18-.01.02,0-.02,0-.07,0-.13.01-.2.01-.13,0-.26,0-.4,0-.03,0-.06,0-.08,0-.11-.01.04-.02.05,0-.01-.02-.33-.05-.3-.05-.28-.03-.53.25-.57.5-.04.31.14.52.41.63.25.1.57.09.83.07.33-.03.66-.08.98-.18.61-.18,1.25-.47,1.66-.98.48-.59.51-1.34.11-1.99-.46-.74-1.37-1-2.2-.92-.47.05-.92.16-1.35.36-.34.15-.7.36-.89.69-.09.16.06.38.25.32h0Z"/>
            <path class="cls-3" d="M69.35,95.03c.58.03,1.23.01,1.74.27.06.03.13.07.19.11.08.05.06.03.11.09.1.1.16.17.2.27s.05.16.04.32c0,.04,0,.08-.01.13.01-.09,0-.02,0,0-.02.07-.04.15-.06.22s.05-.1,0,.01c-.01.02-.02.05-.04.07-.01.03-.13.18-.06.09-.03.04-.07.08-.11.12-.03.03-.16.14-.13.12.04-.03-.09.06-.12.08-.06.04-.12.07-.19.1-.05.03-.11.05-.16.08.09-.04,0,0-.02,0-.05.02-.1.04-.15.05-.29.1-.58.16-.88.21-.06.01-.13.02-.19.03.12-.02-.12.01-.14.02-.16.02-.31.03-.47.03-.29.01-.59.02-.88.01-.34,0-.7-.07-.98.17-.22.19-.22.61,0,.8.28.24.64.19.98.17.3-.01.6-.03.9-.06.09,0,.17-.02.26-.03.06,0,.13-.02.19-.03-.16.02.09-.01.14-.02.17-.02.35-.05.52-.09.37-.08.73-.18,1.07-.33.63-.27,1.18-.72,1.39-1.39.24-.78-.05-1.62-.78-2.01s-1.78-.48-2.48-.07c-.21.12-.11.42.12.44h0Z"/>
          </g>
        </g>
        <g>
          <path class="cls-3" d="M74.81,116.08c6.78-1.46,19.41-11.37,15.14-19.51-.56-1.06-2.1-.3-1.86.79,1.75,8.08-6.68,15.08-13.49,17.95-.47.2-.31.89.21.78h0Z"/>
          <g>
            <path class="cls-3" d="M67.49,110.09c1.71-.7,3.29-1.47,4.76-2.61s2.75-2.46,3.88-3.91,2.11-3.06,2.91-4.74c.38-.81.73-1.63,1.03-2.47.25-.67.84-1.77.54-2.47-.23-.55-1.2-.15-.97.41.07.16.14.28.27.39.11.09.24.12.37.05.14-.08.24-.17.33-.31l-.92-.54c-.39.62-.5,1.58-.74,2.28-.29.83-.61,1.64-.98,2.44-.73,1.56-1.61,3.05-2.65,4.42-2.06,2.73-4.9,5.19-8.04,6.58-.28.12-.08.61.21.49h0Z"/>
            <path class="cls-3" d="M67.38,109.43c-.63-.24-1.3-.27-1.96-.15s-1.41.39-1.91.88c-.55.54-.67,1.31-.37,2.01.17.4.41.72.78.94s.81.31,1.24.36c.88.1,1.75-.07,2.63-.06.7,0,.69-1.13,0-1.08s-1.37.17-2.06.18c-.41,0-.69,0-1.03-.09-.07-.02-.14-.04-.21-.06,0,0-.14-.06-.05-.02-.04-.02-.08-.04-.11-.06-.14-.08-.17-.09-.29-.24.05.07-.03-.04-.03-.05-.02-.04-.05-.08-.07-.12-.05-.09-.03-.06-.06-.15-.02-.07-.04-.14-.06-.22,0-.02-.01-.11,0-.02,0-.05,0-.1,0-.15,0-.03,0-.06,0-.09,0-.07-.02.1,0-.01.01-.06.03-.12.05-.18s-.04.09,0-.01c.02-.03.03-.06.05-.09s.04-.06.05-.09c0-.02.07-.1.02-.03.08-.1.18-.2.29-.28-.05.04.08-.05.11-.07.08-.05.16-.1.24-.14.25-.13.5-.22.8-.3.35-.09.62-.13.97-.15.31-.01.58-.04.85.05.34.11.47-.41.15-.53h0Z"/>
            <path class="cls-3" d="M68,112.42c-.18.03-.36.04-.53.1-.21.07-.41.18-.6.3-.4.25-.75.55-1.06.9-.6.69-1.13,1.6-1.11,2.54.01.7.35,1.69,1.13,1.88.66.16,1.29-.31,1.75-.72.26-.22.49-.47.73-.71.1-.11.21-.21.32-.32.04-.04.08-.08.13-.12.02-.01.06-.04.07-.06,0,0-.1.08-.07.05.04-.03.09-.07.13-.1.45-.42-.13-1.14-.65-.84-.2.11-.37.31-.52.47-.18.19-.36.39-.55.58-.09.09-.18.18-.28.27-.05.05-.1.09-.16.14-.03.02-.2.16-.08.07-.1.08-.2.15-.32.21-.04.02-.09.04-.13.06.15-.08-.04,0-.08.02-.11.04.04,0,.04,0,0,0-.06,0-.07,0-.02,0-.04,0-.06,0-.05.01.13.04.05,0-.01,0-.05-.02-.07-.02-.08,0,.09.07.03.01-.01-.01-.05-.03-.07-.04-.06-.02.07.08,0-.01-.02-.02-.12-.16-.05-.05-.04-.06-.08-.12-.12-.19-.08-.15-.11-.24-.17-.44-.01-.04-.02-.09-.03-.13-.03-.14,0,.08,0-.06,0-.09,0-.18,0-.27,0-.16.04-.31.1-.5.12-.37.32-.73.56-1.05.26-.36.58-.67.92-.95.15-.13.31-.23.48-.33.15-.09.33-.21.5-.26.3-.08.16-.49-.12-.45h0Z"/>
            <path class="cls-3" d="M68.56,115.64c-.31.14-.52.45-.69.73-.21.34-.36.72-.46,1.11-.2.81-.15,1.71.42,2.35.5.57,1.35.75,2.02.41.57-.28.96-.86,1.21-1.42.29-.66.51-1.4.38-2.12-.06-.3-.43-.5-.71-.41-.33.11-.46.39-.41.71.02.1-.01-.16,0-.06,0,.02,0,.04,0,.07,0,.05,0,.1,0,.15,0,.11,0,.23-.02.34-.01.16.02-.12,0,.05-.01.06-.02.12-.03.17-.03.13-.06.26-.1.39-.02.07-.04.13-.07.19-.01.03-.02.06-.03.09.05-.14,0-.02,0,0-.06.12-.12.24-.19.36-.03.05-.06.1-.1.15-.02.03-.04.06-.06.09,0-.01.08-.09.02-.03-.08.09-.17.18-.26.26-.08.08.1-.06,0,0-.02.01-.04.03-.07.04-.03.02-.11.08-.15.08,0,0,.13-.04.04-.02-.03,0-.06.02-.09.03-.02,0-.04,0-.06.01-.14.04.07,0-.01,0-.05,0-.11,0-.16,0-.11,0,.11.04,0,0-.02,0-.05-.01-.07-.02-.04-.01-.2-.07-.09-.02-.07-.03-.14-.07-.21-.11-.04-.02-.08-.05-.11-.07.07.05,0-.01-.02-.03-.02-.03-.05-.05-.08-.08-.09-.1.04.07-.03-.04-.04-.06-.07-.12-.11-.19-.04-.08-.01-.03,0,0-.02-.05-.04-.11-.05-.17-.05-.17-.05-.2-.06-.37s0-.34.02-.51c.04-.28.16-.69.28-1.01.1-.27.27-.55.39-.83.09-.2-.09-.4-.3-.3h0Z"/>
            <path class="cls-3" d="M70.84,117.29c-.41.58-.42,1.48-.24,2.14.22.81.86,1.34,1.71,1.31,1.53-.06,2.15-1.73,2.43-3,.14-.64.25-1.3.29-1.95.02-.31-.28-.58-.58-.58-.34,0-.55.27-.58.58-.04.45-.06.91-.12,1.36.02-.15-.01.09-.02.12-.01.07-.02.14-.03.2-.03.16-.06.32-.1.48-.07.28-.15.56-.26.83.04-.1-.04.09-.06.12-.03.06-.06.12-.09.17s-.06.11-.1.16c-.02.03-.04.06-.06.08-.06.09,0,0-.02.03-.08.09-.17.18-.26.26.09-.08-.04.03-.07.04-.03.02-.22.1-.1.06-.06.02-.12.04-.19.06-.03,0-.05.01-.08.02.1-.02.03,0,0,0-.2.01-.26.01-.41-.03-.02,0-.11-.05-.03-.01-.03-.01-.05-.03-.08-.04-.03-.02-.06-.04-.09-.06-.06-.04.07.07-.02-.02-.11-.12-.13-.14-.22-.3-.12-.24-.19-.61-.2-.92-.02-.33.02-.66.03-.99,0-.25-.31-.3-.44-.12h0Z"/>
          </g>
        </g>
      </g>
    </g>
  </g>
</svg>