<?xml version="1.0" encoding="UTF-8"?>
<svg id="Layer_2" xmlns="http://www.w3.org/2000/svg" xmlns:xlink="http://www.w3.org/1999/xlink" viewBox="0 0 129.2 167.99">
  <defs>
    <style>
      .cls-1 {
        fill: none;
      }

      .cls-2 {
        fill: #cc715e;
      }

      .cls-3 {
        fill: #af3f4b;
      }

      .cls-4 {
        fill: #9b4711;
      }

      .cls-5 {
        fill: #e9917a;
      }

      .cls-6 {
        fill: #f09cab;
      }

      .cls-7 {
        fill: #ff9b8b;
      }

      .cls-8 {
        fill: #fff;
      }

      .cls-9 {
        opacity: .5;
      }

      .cls-10 {
        fill: #fcc6a0;
      }

      .cls-11 {
        fill: #f06385;
      }

      .cls-12 {
        clip-path: url(#clippath);
      }
    </style>
    <clipPath id="clippath">
      <path class="cls-1" d="M123.7,59.69c-7.03-23.31-21.23-46.83-44.69-56.3C55.85-5.95,28.14,4.96,13.65,24.23,5.15,35.51,1.25,48.69.28,62.65c-.49,7.05-.21,14.16-.09,21.22.14,8.31-.3,16.61-.14,24.92.46,24.25,15.2,45.88,37.83,54.85,27.84,11.04,55.84.13,74.87-21.65,20.31-23.24,19.04-54.32,10.95-82.29Z"/>
    </clipPath>
  </defs>
  <g id="OBJECTS">
    <g>
      <path class="cls-11" d="M123.7,59.69c-7.03-23.31-21.23-46.83-44.69-56.3C55.85-5.95,28.14,4.96,13.65,24.23,5.15,35.51,1.25,48.69.28,62.65c-.49,7.05-.21,14.16-.09,21.22.14,8.31-.3,16.61-.14,24.92.46,24.25,15.2,45.88,37.83,54.85,27.84,11.04,55.84.13,74.87-21.65,20.31-23.24,19.04-54.32,10.95-82.29Z"/>
      <g class="cls-12">
        <path class="cls-6" d="M82.38,145.39c3.13,5.88,7.31,11.49,8.75,18.07.29,1.32,1.82,2.09,3.08,1.75,1.36-.37,2.03-1.75,1.75-3.08-1.53-7.02-5.93-13.02-9.25-19.26-.63-1.19-2.29-1.56-3.42-.9-1.21.71-1.53,2.22-.9,3.42h0Z"/>
      </g>
      <path class="cls-7" d="M112.79,64.18c-5.73-19.01-17.31-38.18-36.44-45.9-18.88-7.62-41.48,1.27-53.29,16.98-6.92,9.2-10.1,19.94-10.89,31.32-.4,5.75-.17,11.54-.07,17.3.12,6.77-.24,13.54-.11,20.32.38,19.78,12.39,37.41,30.85,44.72,22.7,9,45.53.1,61.05-17.65,16.55-18.95,15.52-44.29,8.92-67.09Z"/>
      <path class="cls-3" d="M107.5,66.35c-5.1-16.92-15.41-33.99-32.44-40.87-16.81-6.78-36.93,1.13-47.45,15.12-6.16,8.19-8.99,17.76-9.7,27.89-.36,5.12-.15,10.28-.06,15.4.1,6.03-.22,12.06-.1,18.09.34,17.61,11.04,33.31,27.46,39.82,20.21,8.01,40.54.09,54.35-15.72,14.74-16.87,13.82-39.43,7.94-59.74Z"/>
      <path class="cls-7" d="M93.05,67.22c.62-.09,1.25-.26,1.68-.29,1.41-.1,2.84,0,4.23.25,2.72.48,5.31,1.46,7.89,2.43,1.48.56,2.53-1.1,1.99-2.18.02-.21,0-.45-.08-.69-1.29-3.97-1.53-8.14-2.07-12.25-.19-1.42-1.92-1.7-2.79-.72-2.92,3.31-6.72,5.66-9.99,8.59-.98.87-3.28,2.44-2.99,3.99.19.99,1.16,1.02,2.13.88Z"/>
      <g>
        <path class="cls-10" d="M63.9,37.74c-16.2-4.28-36.98,7.06-36.96,23.21,0,10.12,4.57,20.27,10.62,28.07,5.41,6.97,11.34,15.95,22.32,16.35,6.63.23,10.79-.64,14.12-6.23,6.38-10.7,7.78-24.17,6.49-35.23-1.24-10.69-3.87-22.82-16.58-26.17Z"/>
        <path class="cls-10" d="M89.02,82.06c-5.24-3.65-14.01-5.95-20.12-6.05-7.1-.11-14.25,2.04-20.53,5.21-6.35,3.2-12.8,8.19-14.98,15.54-2.28,7.73,2.73,17.18,5.62,24.32,2.83,7,6.82,14.52,13.75,18.25,17.74,9.54,50.66-3.57,48.17-26.34-.38-3.48-1.13-6.92-1.85-10.36-.49-2.35-1.08-4.92-1.87-7.47-1.6-5.15-4.04-10.2-8.21-13.1Z"/>
        <g>
          <path class="cls-10" d="M27.83,110.27c.24,1.63.87,3.11,2.26,3.89,3.43,1.94,5.87-1.44,7.34-4.02,2.11-3.67,3.74-8.3,1.96-12.42-1.44-3.32-4.16-3.5-6.68-1.22-2.51,2.28-4.47,5.99-4.86,9.37-.15,1.3-.25,2.91-.03,4.39Z"/>
          <path class="cls-5" d="M30.39,110.08c.61-1.33,1.34-2.59,1.89-3.96.51-1.24.51-2.73,1.42-3.75.2-.22.58-.18.77.02,2.07,2.28-.92,6.84-2.41,8.7-.79.99-2.2.14-1.67-1.02h0Z"/>
        </g>
        <g>
          <path class="cls-10" d="M103.01,86.8c.96,1.34,1.54,2.84,1.09,4.36-1.11,3.77-5.22,3.03-8.08,2.2-4.07-1.18-8.48-3.37-10.07-7.57-1.28-3.38.55-5.4,3.95-5.5,3.4-.1,7.39,1.21,10.03,3.37,1.01.83,2.21,1.92,3.08,3.14Z"/>
          <path class="cls-5" d="M101.04,88.43c-1.37-.53-2.77-.94-4.12-1.54-1.23-.54-2.27-1.61-3.64-1.71-.29-.02-.54.27-.54.55.1,3.07,5.43,4.27,7.8,4.59,1.26.16,1.68-1.43.49-1.89h0Z"/>
        </g>
        <path class="cls-5" d="M61.76,95.47c-1.37.24-2.86-.48-2.95-1.99s1.38-2.18,1.49-3.51c.02-.21-.18-.47-.39-.51-2.25-.39-3.14,3.15-2.67,4.78.64,2.24,2.76,2.68,4.76,2.09.56-.17.32-.96-.24-.86h0Z"/>
        <g class="cls-9">
          <path class="cls-8" d="M85.84,122.59c1.06-1.17,2.33-3.11,2.65-3.97,0-.02.36-1.44.23-.62.07-.46.07-.93.09-1.39.02-.46-.13-1.28-.42-2.28-1.72-5.79,7.55-8.03,9.16-2.18,1.9,6.88-1.25,12.95-7.24,16.45-3.84,2.25-7.25-2.96-4.47-6.01h0Z"/>
        </g>
        <path class="cls-5" d="M66.37,86.41c-.68-.97-1.66-1.58-2.83-1.81-.96-.19-2.56-.23-3.18.72s.59,1.22,1.3,1.2c1.22-.04,2.65-.14,3.67.69.53.44,1.5-.14,1.04-.8h0Z"/>
        <g>
          <path class="cls-4" d="M87.39,91.74c-2.13-2.68-5.03-4.05-8.35-2.68-2.86,1.17-5.59,4.22-5.59,7.43,0,.42.57.71.87.36,1.52-1.79,2.59-3.9,4.6-5.25,2.65-1.79,5.39-1.18,7.41,1.2.63.74,1.64-.32,1.06-1.06h0Z"/>
          <path class="cls-4" d="M40.83,105.4c.64-2.99,2.73-4.77,5.83-4.5,2.51.22,4.41,1.7,6.69,2.53.46.17.75-.38.58-.75-1.38-2.91-5.57-4.28-8.57-3.94-3.5.39-5.38,2.96-5.97,6.26-.17.93,1.24,1.35,1.44.4h0Z"/>
        </g>
        <path class="cls-2" d="M73.6,127.45c-3.47.87-11.22.09-12.37-4.18-.48-1.77,1.54-3.06,2.92-3.78.6-.31,1.48-.27.62-.52-.26-.2-.51-.4-.76-.6.22.33.22.35,0,.07.29.66.66,1.05,1.1,1.68.82,1.19,2.74,1.36,3.83.45,4.38-3.65.57-8.91-4.27-8.62-4.06.24-7.95,4.08-8.5,7.98-1.38,9.76,10.84,13.87,18.1,9.92,1.15-.63.8-2.76-.67-2.39h0Z"/>
        <g>
          <g>
            <path class="cls-10" d="M67.42,38.25c.95,1.07,1.84,2.53,1.44,3.75-.44,1.34-3.15,2.11-4.39,2.68-3.73,1.74-9.85,5.83-12.56,1.18-1.97-3.37-.48-9.13,3.18-10.91,3.28-1.6,8.78.12,11.33,2.32.3.26.65.6.99.98Z"/>
            <g>
              <path class="cls-10" d="M56.81,47.72c-4.24,1.62-8.25-5.05-9.76-8.03-.97-1.92-3.43-6.07-1.88-8.27,2.69-3.8,7.38.36,9.66,2.29,3,2.53,7.75,11.25,2.3,13.87-.11.05-.22.1-.32.14Z"/>
              <path class="cls-10" d="M46.66,33.62s-.01.02-.02.03c-1.25,2.47-4.42,3.58-7.02,3.92-3.51.45-.42-2.94.78-3.72,1.43-.93,2.92-1.8,4.38-2.7.68-.41,1.61-1.33,2.28-.49.5.63-.07,2.34-.4,2.95Z"/>
            </g>
          </g>
          <path class="cls-5" d="M62.13,45.61c-2.69.82-6.17,2.43-8.78.78-2.61-1.65-2.63-5.44-4.83-7.27-.22-.18-.5,0-.55.23-.63,2.8,2.81,7.19,5.09,8.55,3.09,1.86,6.55-.53,9.25-1.9.24-.12.09-.46-.16-.38h0Z"/>
          <path class="cls-5" d="M55.81,44.8c-.33-.35-1.16-1.37-1.73-.92-.63.5.52,1.35.8,1.65.52.55,1.45-.17.93-.73h0Z"/>
        </g>
        <g>
          <g>
            <path class="cls-10" d="M33.26,61.35c.89,1.12,2.17,2.25,3.45,2.08,1.4-.19,2.64-2.72,3.42-3.83,2.38-3.35,7.5-8.63,3.39-12.11-2.98-2.53-8.93-2.09-11.34,1.19-2.16,2.93-1.43,8.63.29,11.53.2.34.47.74.79,1.15Z"/>
            <g>
              <path class="cls-10" d="M44.49,52.62c2.35-3.87-3.53-8.99-6.21-11-1.72-1.29-5.39-4.44-7.83-3.3-4.23,1.96-.95,7.3.55,9.88,1.97,3.39,9.75,9.59,13.3,4.71.07-.1.13-.2.19-.29Z"/>
              <path class="cls-10" d="M32.35,40.17s.02,0,.03-.01c2.66-.79,4.32-3.71,5.11-6.19,1.07-3.36-2.83-.93-3.81.1-1.17,1.24-2.3,2.54-3.44,3.82-.53.59-1.6,1.35-.88,2.15.54.6,2.32.34,2.99.13Z"/>
            </g>
          </g>
          <path class="cls-5" d="M41.47,57.46c1.29-2.5,3.49-5.62,2.32-8.48-1.17-2.84-4.9-3.54-6.33-6.03-.14-.25.08-.49.33-.5,2.87-.12,6.6,4.03,7.55,6.5,1.29,3.36-1.68,6.33-3.52,8.73-.16.22-.46,0-.34-.23h0Z"/>
          <path class="cls-5" d="M41.78,51.12c-.29-.39-1.14-1.38-.6-1.86.6-.53,1.24.75,1.48,1.07.45.6-.43,1.4-.89.78h0Z"/>
        </g>
        <path class="cls-7" d="M96.27,60.28c-1.32,2.02-4.5,5.58-7.54,5.25-2.21-.24-3.68-3.17-3.09-5.08,1.07-3.46,4.72-5.91,6.58-8.95,1.51-2.48,2.06-5.29-.28-7.47-1.72-1.6-3.17-1.28-5.24-1.47s-3.61.89-4.69-2.11c-.36-.99-.21-2.39-.38-3.44-.61-3.68-3.6-7.04-7.67-5.31s-4.32,12-9.38,9.8c-4.06-1.77-8.17-4.28-11.61.29-2.51,3.33-3.5,9.91-2.08,13.84l1.51-1.98-.31.03c-1.21.1-1.88,1.48-1,2.42l.21.22c.71.75,1.94.51,2.45-.32,1.21-1.94.29-5.09.67-7.34.71-4.22,2.76-7.17,7.26-4.83,3.9,2.02,6.35,2.84,9.5-1.32,1.21-1.61,3.12-9.76,6.55-6.92,1.3,1.08.7,5.02,1.22,6.56.59,1.76,1.89,3.47,3.7,4.07,1.96.64,6.53-1.48,7.48.7,1.14,2.62-3.94,6.94-5.3,8.77-1.69,2.28-3.34,5.05-2.19,7.95,3.12,7.86,13.85,3.88,14.76-3.05.08-.63-.82-.75-1.11-.3h0Z"/>
        <g>
          <g>
            <path class="cls-5" d="M35.98,76.97c-.76-4.48,1.07-7.47,5.99-7.15,3.39.22,6.64,1.35,9.96,1.98.88.17,1.24-1.2.37-1.34-4.33-.7-10.42-3.18-14.66-.97-2.92,1.52-2.96,4.81-2.22,7.63.1.37.62.21.56-.15h0Z"/>
            <path class="cls-5" d="M52.25,71.18s.04-.02.06-.03c.03-.02.05-.04.08-.06-.05.04-.02.01,0,0,.07-.05.14-.08.2-.13.17-.12.34-.23.53-.33.44-.25.89-.44,1.38-.58.25-.07.48-.12.68-.13.1,0,.21-.01.31,0,.02,0,.18.02.08,0,.06,0,.12.02.18.04.03,0,.16.06.06.01.05.02.1.05.14.08s.08.06.1.07c.02.02.05.05.07.07.03.04-.02-.04.02.03.01.03.03.05.04.08-.04-.08,0-.02,0,0,0,.03.01.05.02.08-.02-.1,0-.04,0-.01,0,.04-.02.18,0,.07-.02.07-.04.14-.06.21,0,0-.03.08,0,.02.03-.07-.02.05-.03.06-.04.07-.08.14-.12.21-.02.03-.04.05-.06.08.05-.06,0,0-.02.03-.05.06-.1.11-.15.17-.06.06-.12.12-.18.17-.03.02-.17.13-.08.07-.13.09-.26.18-.39.26-.27.16-.37.52-.21.79s.51.35.79.21c.62-.32,1.15-.95,1.41-1.59.28-.71.03-1.44-.62-1.83-.52-.31-1.15-.28-1.72-.15-.61.14-1.2.39-1.75.69-.27.15-.52.32-.76.51-.18.15-.35.37-.36.61,0,.2.22.31.38.22h0Z"/>
            <path class="cls-5" d="M55.47,72.64c.26.07.52.09.78.17.15.05.2.07.31.12.12.06.24.13.35.21.06.04-.08-.07.01.01.02.02.04.03.06.05.05.04.09.09.13.13.01.02.09.12.02.02.01.02.03.04.04.06.04.06.07.13.11.19.05.1-.01-.07,0,0,0,.03.02.06.03.09.01.04.05.14.04.18.02-.07,0-.09,0-.03,0,.04,0,.08,0,.12,0,.03,0,.05,0,.08,0,.11.03-.11,0,.03-.02.06-.03.12-.05.18-.02.07-.06.05.01-.02-.02.02-.03.05-.04.08-.02.04-.05.08-.08.13-.06.1.1-.1.02-.02-.02.02-.04.05-.06.07-.01.01-.11.09-.11.1,0-.04.13-.09.04-.03-.02.01-.04.03-.06.04-.04.03-.09.05-.13.07-.02.01-.12.05,0,0,.12-.05-.01,0-.04.01-.09.03-.19.06-.28.08-.05.01-.1.02-.15.03-.03,0-.05,0-.08.01-.12.02.17-.02.06,0-.21.02-.41.03-.62.04-.16,0-.32,0-.48.02-.35.03-.65.19-.77.55-.08.24.01.51.19.69.27.26.57.2.89.18.25-.02.49-.05.73-.09.45-.07.93-.21,1.31-.48.52-.37.84-.94.85-1.58.02-.74-.42-1.38-1.06-1.73-.28-.16-.6-.27-.92-.32s-.69-.09-1,.04c-.23.1-.28.45,0,.53h0Z"/>
            <path class="cls-5" d="M51.01,77.07c-.16.56-.25,1.09-.11,1.66.12.47.39.92.76,1.24.73.64,1.82.74,2.43-.12.41-.59.43-1.37.37-2.06l-.88.36c.8.7,2.14,1.41,3.19.84.59-.32.9-1.04.91-1.69s-.33-1.17-.81-1.54c-.41-.32-.9-.5-1.38-.67-.19-.07-.47,0-.59.16-.11.13-.17.26-.18.43,0,.28.2.5.45.59.08.03.16.06.24.09.04.02.08.03.12.05.16.06-.02-.01.07.03.21.09.41.2.59.34-.1-.08.03.03.04.04.04.04.09.09.13.13.03.03.02.03-.01-.02.02.03.04.06.06.09,0,.02.07.16.03.05,0,.02.05.19.04.14,0-.05,0,.13,0,.16,0,.07-.03.22-.09.36-.02.06-.1.17-.12.19-.1.1.05-.03-.05.04-.03.02-.06.04-.09.05.06-.02.06-.03,0,0-.16.04-.36.04-.54,0-.51-.11-.94-.34-1.38-.66-.3-.21-.82.07-.77.44.04.33.06.75,0,1.02-.02.13-.06.27-.11.39.04-.09-.04.07-.05.08-.01.02-.11.16-.04.07-.03.04-.07.07-.1.11-.05.05.07-.02-.04.03-.04.02-.08.04-.12.06.12-.05-.02,0-.05,0-.13.04.03,0-.05,0-.05,0-.09,0-.14,0-.12,0,.01.01-.06,0-.05-.01-.1-.02-.14-.04-.12-.04-.08-.02-.22-.1-.11-.06-.15-.09-.22-.15-.18-.16-.3-.31-.42-.51-.27-.46-.42-1.06-.3-1.58.06-.25-.32-.36-.39-.11h0Z"/>
            <path class="cls-5" d="M51.14,76.96c-.73-.52-1.22-1.3-2.03-1.72-.66-.34-1.4-.51-2.12-.61-1.42-.21-3.21-.26-4.42.66-2.2,1.68-1.82,5.13-1.16,7.46.38,1.33.93,2.69,1.84,3.76.45.53,1.22-.24.77-.77-.66-.77-1.1-1.78-1.43-2.73-.41-1.17-.69-2.41-.7-3.66-.01-1.09.17-2.3.95-3.12.93-.97,2.51-.96,3.75-.84.76.07,1.59.22,2.27.59.75.42,1.33,1.01,2.14,1.32.22.08.31-.23.15-.35h0Z"/>
          </g>
          <g>
            <path class="cls-5" d="M74.41,56.64c-.66-2.95-2.28-5.83-5.67-5.73-4.69.15-8.75,4.9-12.25,7.49-.8.59.05,1.71.84,1.09,4.82-3.78,13.23-12.9,16.53-2.7.11.35.64.21.56-.15h0Z"/>
            <path class="cls-5" d="M56.98,58.72c-.23-.41-.9-.44-1.31-.46-.62-.04-1.26,0-1.88.13-.53.11-1.13.32-1.49.75-.5.6-.55,1.39-.02,1.99.5.57,1.41.91,2.16.9.31,0,.58-.27.58-.58,0-.33-.27-.56-.58-.58-.06,0-.12-.01-.18-.02-.04,0-.21-.02-.08,0-.15-.02-.29-.05-.43-.09-.06-.02-.13-.04-.19-.06-.03-.01-.06-.02-.09-.04.02,0,.09.04,0,0-.12-.06-.24-.12-.35-.2-.07-.04.06.05,0,0-.02-.02-.04-.04-.07-.06-.04-.04-.08-.08-.12-.12-.05-.06.04.07,0,0-.01-.02-.03-.05-.04-.07,0-.01-.04-.09-.02-.03.03.07,0-.04-.01-.05-.03-.08,0-.02,0,0,0-.03,0-.06,0-.08,0-.09,0-.03,0,0,0-.03.01-.06.02-.09.02-.08.02-.07.05-.13.02-.03.04-.07.06-.1.06-.09-.06.07.01-.02.03-.03.06-.07.1-.1.02-.02.13-.1.05-.05.09-.07.19-.12.29-.17.17-.08.38-.16.63-.22.49-.13.96-.17,1.48-.17.13,0,.27,0,.4.01.06,0,.12,0,.17.01.02,0,.05,0,.07,0,.12.01-.07-.01.04,0,.07.01.14.02.2.03.02,0,.04,0,.06,0,.03,0,.02,0-.02,0h.09c.06.02,0,0,0,0,.02,0,.04,0,.07.01.05,0,.1,0,.15,0,.2,0,.31-.22.22-.38h0Z"/>
            <path class="cls-5" d="M54.38,61.4c-.56.05-1.09.46-1.44.88-.41.49-.64,1.09-.54,1.74.1.58.53,1.14,1.06,1.38s1.11.23,1.68.1c.38-.09.73-.25,1.09-.38.17-.06.32-.12.45-.25.26-.27.29-.7.03-.98-.33-.34-.73-.22-1.09-.06-.17.08-.33.15-.5.23-.05.02-.1.04-.14.07-.14.06.16-.06-.02,0-.1.04-.21.08-.31.11-.1.03-.2.04-.3.07-.08.02.15-.01.06,0-.02,0-.05,0-.07,0-.06,0-.12,0-.18,0-.03,0-.06,0-.09,0-.07,0-.04-.04.06,0-.04-.02-.1-.02-.14-.03-.02,0-.05-.02-.07-.02-.1-.03.03,0,.04.02-.02-.03-.14-.07-.17-.09,0,0-.11-.08-.04-.02s-.02-.02-.04-.03c-.02-.02-.04-.04-.06-.06-.03-.03-.09-.1-.03-.03-.05-.06-.09-.13-.12-.2-.05-.09,0-.01,0,0-.02-.04-.03-.08-.04-.12,0-.03-.02-.06-.02-.08,0-.03-.01-.15,0-.03,0-.07,0-.14,0-.21,0-.03,0-.06,0-.08-.01.12,0-.02.01-.04.02-.07.04-.14.06-.21,0-.03.02-.05.03-.08-.03.08.03-.05.03-.05.03-.07.07-.13.11-.2.08-.13.13-.19.25-.31.2-.22.45-.37.67-.57.17-.15.04-.49-.19-.47h0Z"/>
            <path class="cls-5" d="M60.26,64.05c.35.41.49,1.01.46,1.54-.01.22-.05.44-.15.66-.05.12-.17.3-.27.4-.04.04-.07.07-.11.1.08-.07-.04.03-.06.04-.04.02-.07.04-.11.06-.03.01-.02.01.03-.01-.02,0-.04.02-.07.02-.03,0-.18.03-.05.02-.05,0-.09,0-.14,0-.13,0,.02.02-.05,0-.05-.01-.1-.03-.14-.04.13.05-.19-.13-.11-.07-.11-.08-.2-.18-.28-.29-.16-.21-.35-.56-.46-.86-.14-.38-.72-.55-.94-.12-.25.48-.53.91-.96,1.24.06-.05-.08.06-.08.05-.05.03-.1.06-.15.09-.06.03-.07.03-.02.01-.03.01-.05.02-.08.03-.03,0-.21.05-.08.03-.19.02-.29,0-.44-.16-.11-.1-.17-.18-.24-.31-.02-.04-.06-.16-.06-.19,0-.06,0-.11,0-.17,0,.13.02-.09.03-.11.02-.05.03-.11.06-.16-.05.11.03-.05.03-.06.06-.12.13-.23.21-.33,0-.01.12-.15.03-.05.03-.04.06-.08.1-.12.16-.18.43-.4.47-.64.07-.43-.26-.85-.73-.73-.25.07-.41.28-.57.47-.17.2-.34.41-.48.63-.31.5-.47,1.13-.28,1.71.2.61.76,1.22,1.41,1.35s1.22-.14,1.69-.57.83-1.02,1.07-1.62h-.99c.39.94,1.23,2.31,2.47,1.87.94-.34,1.34-1.46,1.2-2.39-.1-.66-.45-1.14-.89-1.61-.18-.19-.45.09-.29.29h0Z"/>
            <path class="cls-5" d="M60.69,63.96c.53-.59.79-1.28,1.18-1.96.36-.62.94-1.12,1.52-1.53,1.08-.76,2.62-1.66,3.99-1.23,2.18.68,3.02,3.62,3.35,5.6.19,1.11.28,2.33.02,3.43-.16.68.89.97,1.05.29.27-1.16.19-2.37,0-3.53-.21-1.36-.61-2.71-1.25-3.93-.57-1.08-1.41-2.11-2.56-2.58-1.47-.61-3.02,0-4.3.78-.74.45-1.47,1-2.03,1.66-.7.83-.79,1.84-1.27,2.77-.09.18.15.4.3.23h0Z"/>
          </g>
        </g>
      </g>
    </g>
  </g>
</svg>