<?xml version="1.0" encoding="UTF-8"?>
<svg xmlns="http://www.w3.org/2000/svg" xmlns:xlink="http://www.w3.org/1999/xlink" viewBox="0 0 2183.21 907.12">
  <defs>
    <style>
      .cls-1 {
        fill: none;
      }

      .cls-2 {
        mask: url(#mask);
      }

      .cls-3 {
        fill: url(#linear-gradient-8);
      }

      .cls-4 {
        fill: url(#linear-gradient-7);
      }

      .cls-5 {
        fill: url(#linear-gradient-6);
      }

      .cls-6 {
        fill: url(#linear-gradient-2);
      }

      .cls-7 {
        fill: url(#linear-gradient);
      }

      .cls-8 {
        isolation: isolate;
      }

      .cls-9 {
        fill: url(#linear-gradient-4);
      }

      .cls-9, .cls-10 {
        mix-blend-mode: color-dodge;
      }

      .cls-10 {
        fill: url(#linear-gradient-5);
      }

      .cls-11 {
        clip-path: url(#clippath-1);
      }

      .cls-12 {
        fill: url(#linear-gradient-3);
        opacity: .33;
      }

      .cls-13 {
        fill: #fff;
      }

      .cls-14 {
        fill: url(#linear-gradient-12);
      }

      .cls-15 {
        fill: url(#linear-gradient-15);
      }

      .cls-16 {
        fill: url(#linear-gradient-9);
      }

      .cls-16, .cls-17, .cls-18, .cls-19, .cls-20, .cls-21, .cls-22 {
        mix-blend-mode: soft-light;
      }

      .cls-17 {
        fill: url(#linear-gradient-10);
      }

      .cls-18 {
        fill: url(#linear-gradient-13);
      }

      .cls-19 {
        fill: url(#linear-gradient-11);
      }

      .cls-20 {
        fill: url(#linear-gradient-14);
      }

      .cls-21 {
        fill: url(#linear-gradient-17);
      }

      .cls-22 {
        fill: url(#linear-gradient-16);
      }

      .cls-23 {
        clip-path: url(#clippath);
      }
    </style>
    <linearGradient id="linear-gradient" x1="1172.4" y1="639.1" x2="1177.46" y2="451.89" gradientUnits="userSpaceOnUse">
      <stop offset="0" stop-color="#000" stop-opacity="0"/>
      <stop offset=".54" stop-color="#878787" stop-opacity=".53"/>
      <stop offset=".99" stop-color="#fff"/>
    </linearGradient>
    <mask id="mask" x="0" y="390.82" width="2029.09" height="545.91" maskUnits="userSpaceOnUse">
      <rect class="cls-7" x="314.06" y="402.32" width="1715.03" height="534.42"/>
    </mask>
    <clipPath id="clippath">
      <rect class="cls-1" x="210.67" y="390.82" width="1818.42" height="437.76" transform="translate(2239.76 1219.41) rotate(180)"/>
    </clipPath>
    <linearGradient id="linear-gradient-2" x1="-578.69" y1="-343.34" x2="-546.32" y2="-954.1" gradientTransform="translate(986.94 -136.85) rotate(-180)" gradientUnits="userSpaceOnUse">
      <stop offset="0" stop-color="#001c1e"/>
      <stop offset=".99" stop-color="#004543"/>
    </linearGradient>
    <linearGradient id="linear-gradient-3" x1="1003.4" y1="-408.97" x2="1003.4" y2="-791.51" gradientTransform="translate(0 -136.85) scale(1 -1)" xlink:href="#linear-gradient-2"/>
    <linearGradient id="linear-gradient-4" x1="857.76" y1="511.55" x2="503.37" y2="756.53" gradientUnits="userSpaceOnUse">
      <stop offset="0" stop-color="#fff" stop-opacity="0"/>
      <stop offset="1" stop-color="#fff"/>
    </linearGradient>
    <linearGradient id="linear-gradient-5" x1="1296.57" y1="522.24" x2="942.18" y2="767.22" xlink:href="#linear-gradient-4"/>
    <linearGradient id="linear-gradient-6" x1="3039.13" y1="-61.36" x2="3275.87" y2="-61.36" gradientTransform="translate(-2232.54 -5.25) rotate(1.32)" xlink:href="#linear-gradient-4"/>
    <linearGradient id="linear-gradient-7" x1="1305.08" y1="11.67" x2="1541.82" y2="11.67" gradientTransform="translate(3118.93 -5.25) rotate(178.68) scale(1 -1)" xlink:href="#linear-gradient-4"/>
    <linearGradient id="linear-gradient-8" x1="1129.48" y1="259.62" x2="1260.86" y2="637.06" gradientUnits="userSpaceOnUse">
      <stop offset="0" stop-color="#ffffc9"/>
      <stop offset=".07" stop-color="#fff5bf"/>
      <stop offset=".19" stop-color="#ffdba4"/>
      <stop offset=".34" stop-color="#ffb278"/>
      <stop offset=".5" stop-color="#ff8145"/>
      <stop offset=".6" stop-color="#d76048"/>
      <stop offset=".79" stop-color="#992c4e"/>
      <stop offset=".93" stop-color="#710c52"/>
      <stop offset="1" stop-color="#630054"/>
    </linearGradient>
    <linearGradient id="linear-gradient-9" x1="988.31" y1="540.82" x2="660.43" y2="767.48" gradientUnits="userSpaceOnUse">
      <stop offset="0" stop-color="#ffffc9"/>
      <stop offset=".09" stop-color="#fff5bf"/>
      <stop offset=".23" stop-color="#ffdba4"/>
      <stop offset=".42" stop-color="#ffb278"/>
      <stop offset=".61" stop-color="#ff8145"/>
      <stop offset=".62" stop-color="#ff7e45"/>
      <stop offset=".87" stop-color="#ff5747"/>
      <stop offset="1" stop-color="#ff4949"/>
    </linearGradient>
    <linearGradient id="linear-gradient-10" x1="1352.68" y1="477.15" x2="1169.52" y2="644.55" xlink:href="#linear-gradient-9"/>
    <linearGradient id="linear-gradient-11" x1="1797.44" y1="419.83" x2="1383.91" y2="812.6" xlink:href="#linear-gradient-9"/>
    <clipPath id="clippath-1">
      <rect class="cls-1" x="200.75" y="40.34" width="1927.92" height="656.06"/>
    </clipPath>
    <linearGradient id="linear-gradient-12" x1="1430.77" y1="85.89" x2="1383" y2="581.96" gradientTransform="translate(3490.89 515.56) rotate(-163.23) scale(1 -1)" xlink:href="#linear-gradient-8"/>
    <linearGradient id="linear-gradient-13" x1="1332.51" y1="227.22" x2="1336.47" y2="774.57" gradientTransform="translate(3490.89 515.56) rotate(-163.23) scale(1 -1)" xlink:href="#linear-gradient-9"/>
    <linearGradient id="linear-gradient-14" x1="1467.53" y1="226.25" x2="1471.48" y2="773.59" gradientTransform="translate(3490.89 515.56) rotate(-163.23) scale(1 -1)" xlink:href="#linear-gradient-9"/>
    <linearGradient id="linear-gradient-15" x1="492.6" y1="-72.4" x2="397.45" y2="609.96" xlink:href="#linear-gradient-8"/>
    <linearGradient id="linear-gradient-16" x1="492.75" y1="87.19" x2="725.58" y2="1447.72" gradientTransform="translate(-8.21 -19.11) rotate(2.8)" xlink:href="#linear-gradient-9"/>
    <linearGradient id="linear-gradient-17" x1="255.34" y1="116.3" x2="489.81" y2="1486.4" gradientTransform="translate(-8.21 -19.11) rotate(2.8)" xlink:href="#linear-gradient-9"/>
  </defs>
  <g class="cls-8">
    <g id="Layer_2">
      <g id="rocks">
        <g class="cls-2">
          <g id="reflection">
            <g class="cls-23">
              <path class="cls-6" d="M1544.63,648.54c.38-29.92.77-59.84,1.15-89.76-4.03,29.76-4.46,59.92-1.15,89.76Z"/>
              <path class="cls-12" d="M19.46,448.9l-19.46-8.8c29.19,22,38.92,151.77,38.92,151.77,0,0,3.12-41.55,11.11-81.62,20.29,41.28,27.4,136.07,27.4,136.07,0,0,5.12-68.29,19.08-114.19,15.82,33.4,33.69,108.27,33.69,108.27l-19.46-8.8c29.19,22,38.92,151.77,38.92,151.77,0,0,9.73-129.78,38.92-151.77l-19.46,8.8s26.76-112.18,43.78-123.18l-31.62,8.8,19.46-56.57c13.61,36.75,26.56,91,26.56,91l-19.46-8.8c29.19,22,38.92,151.77,38.92,151.77,0,0,8.92-118.97,35.31-148.39,11.34,44.82,15.61,101.65,15.61,101.65,0,0,7.4-98.71,28.66-138.54,12.26,35.86,23.09,81.22,23.09,81.22l-19.46-8.8c29.19,22,38.92,151.77,38.92,151.77,0,0,9.73-129.78,38.92-151.77l-19.46,8.8s12.17-51.01,25.32-87.61c24.26,34.26,32.56,144.93,32.56,144.93,0,0,6.74-89.81,25.81-132.66,14.42,36.48,28.88,97.06,28.88,97.06l-19.46-8.8c9.15,6.89,16.38,24.37,22.01,45.12.7,17,1.93,33.99,3.8,50.92.14-11.14.29-22.28.43-33.42,9.16,42.21,12.68,89.15,12.68,89.15,0,0,9.73-129.78,38.92-151.77l-19.46,8.8s10.03-42,21.71-77.13c1.28,3.29,2.56,6.74,3.83,10.32-4.62,50.16-4.32,100.69,1.23,150.78.61-47.31,1.22-94.62,1.82-141.94,13.25,39.46,24.73,87.58,24.73,87.58l-21.69-9.8c32.53,24.51,43.37,169.14,43.37,169.14,0,0,10.84-144.63,43.38-169.14l-21.69,9.8s14.48-60.71,29.68-101.66c6.13,21.95,10.34,39.58,10.34,39.58l-19.46-8.8c29.19,22,38.92,151.77,38.92,151.77,0,0,7.2-96.01,27.79-136.86,22.68,37.39,30.51,141.78,30.51,141.78,0,0,8.12-108.17,31.75-143.73,5.02,31.63,7.06,58.86,7.06,58.86,0,0,5.56-74.13,20.88-119.83.33.58.65,1.18.97,1.79-.41,20.26.46,40.54,2.69,60.7.23-17.85.46-35.7.69-53.54,18.52,43.46,25.09,131.02,25.09,131.02,0,0,6.04-80.46,22.86-125.41,29.12,22.19,38.83,151.7,38.83,151.7,0,0,8.51-113.47,33.48-146.18-2.49,30.05-2.16,60.29,1.17,90.27.4-31.02.8-62.04,1.2-93.06,1-1.06,2.03-2.01,3.08-2.8l-3.06,1.38c.05-4.25.11-8.49.16-12.74,13.45,36.72,26.13,89.84,26.13,89.84l-19.46-8.8c29.19,22,38.92,151.77,38.92,151.77,0,0,9.73-129.78,38.92-151.77l-19.46,8.8s15.88-66.55,30.96-102.15c9.51,32.73,16.53,61.86,17.05,64.05v.12s-24.88-11.24-24.88-11.24c8.77,6.61,16.17,20.82,22.36,38.69-1.68,26.88-1.12,53.87,1.85,80.67.31-24.04.62-48.08.93-72.12,18.07,58.78,24.7,147.1,24.7,147.1,0,0,12.46-166.17,49.84-194.34l-24.92,11.27s7.46-31.25,17.62-66.03c13.14,36.59,25.3,87.54,25.3,87.54l-19.46-8.8c29.19,22,38.92,151.77,38.92,151.77,0,0,9.73-129.78,38.92-151.77l-19.46,8.8s17.38-72.85,33.04-106.88c-4.16,35.39-4.4,71.16-.48,106.58.46-36.17.93-72.35,1.39-108.53,1.38-2.87,2.73-5.39,4.06-7.54l28.19,81.94-31.62-8.8c17.03,11,43.78,123.18,43.78,123.18l-19.46-8.8c29.19,22,38.92,151.77,38.92,151.77,0,0,9.73-129.78,38.92-151.77l-19.46,8.8s26.76-112.18,43.78-123.18l-31.62,8.8,25.01-72.71c14.89,43.52,28.05,98.69,28.05,98.69l-23.6-10.67c35.4,26.68,47.21,184.09,47.21,184.09,0,0,11.8-157.41,47.21-184.09l-23.6,10.67s7.41-31.06,17.4-64.95c16.96,21.71,40.36,119.81,40.36,119.81l-19.46-8.8c29.19,22,38.92,151.77,38.92,151.77,0,0,9.73-129.78,38.92-151.77l-19.46,8.8s5.47-22.91,13.03-49.04c29.14,22.14,38.85,151.72,38.85,151.72,0,0,9.73-129.78,38.92-151.77l-19.46,8.8s26.76-112.18,43.78-123.18l-23.74-2.22,14.63-45.39c12.89,36.44,24.65,85.73,24.65,85.73l-19.46-8.8c29.19,22,38.92,151.77,38.92,151.77,0,0,8.41-112.05,33.02-145.55-.1,10.13-.16,20.65-.16,31.45,0,9.5.04,18.79.12,27.78l-4.48-1.25c1.44.93,2.95,2.64,4.51,4.88.65,65.62,3.31,114.75,6.5,114.75.19,0,.37-.21.55-.54.05.42.07.84.12,1.26,0-.5.01-1.01.02-1.51,2.43-5.53,4.47-39.76,5.41-86.99,13.66,36.75,26.68,91.32,26.68,91.32l-19.46-8.8c29.19,22,38.92,151.77,38.92,151.77,0,0,9.73-129.78,38.92-151.77l-19.46,8.8s19.04-79.82,35.22-111.4c16.72,26.62,38.2,116.67,38.2,116.67l-19.46-8.8c29.19,22,38.92,151.77,38.92,151.77,0,0,9.73-129.78,38.92-151.77l-19.46,8.8s7.44-31.19,16.97-62.29c21.39,39.62,28.83,138.87,28.83,138.87,0,0,9.73-129.78,38.92-151.77l-19.46,8.8s26.76-112.18,43.78-123.18l-31.62,8.8,43.35-126.01H8.32c6.57,23.26,11.14,42.43,11.14,42.43ZM1905.26,643.64c1.17-3.68,2.37-7.32,3.58-10.88,2.21,8.62,3.52,14.09,3.52,14.09l-7.09-3.21ZM1898.17,598.87l.79-2.3c.19.64.37,1.29.56,1.93l-1.35.38ZM1785.83,593.6l23.64-68.71,25.45,73.98-23.65-6.58c2.15-3.59,4.23-6.23,6.18-7.48l-31.62,8.8ZM1708.47,589.67c.1-10.12.16-20.62.16-31.41,0-1.76,0-3.51,0-5.26l13.97,40.6-14.12-3.93ZM1681.92,529.39s3.14-13.16,7.95-30.89l5.75,16.71c-.04,2.65-.07,5.33-.1,8.04l-13.59,6.15ZM1525.37,605.68c2.86-9.88,6.01-20.21,9.29-29.94,6,21.54,10.1,38.71,10.1,38.71l-19.39-8.77ZM1433.72,532.7c3.75-12.64,7.85-25.58,12.04-37.38l15.5,45.04-27.54-7.66ZM1430.41,461.15l1.8-5.22,1.48,4.31-3.28.91ZM1199.85,493.45c1.6-6.17,3.57-13.51,5.77-21.42l5.74-16.67,10.95,31.84-22.46,6.25ZM1018.36,510.39l7.9-22.95c2.08,6.24,4.12,12.64,6.09,19.06l-13.99,3.89ZM937.76,505.56c2.3-7.95,4.8-16.17,7.39-24.14l9.97,28.97-17.36-4.83ZM924.59,555.08s3.9-16.35,9.67-37.16c2.08,4.52,4.18,9.71,6.27,15.33-.63,5.11-1.17,10.23-1.63,15.35l-14.31,6.47ZM866.31,546.33c3.38-9.03,7.2-16.62,11.49-21.84,4.76,17.58,7.87,30.59,7.87,30.59l-19.36-8.75ZM862.9,528.8s3.02-12.64,7.66-29.83c2.42,8.12,4.66,16.08,6.65,23.36l-14.31,6.47ZM818.54,526.33c.03-2.23.06-4.46.09-6.69.65-1.5,1.32-2.93,2.01-4.31,2.11,8.25,3.35,13.46,3.35,13.46l-5.45-2.46ZM812.58,508.67s1.13-4.73,3.05-12.26c.4,1.47.79,2.91,1.17,4.32-.19,2.1-.4,4.2-.56,6.3l-3.65,1.65ZM773.77,593.54s2.84-11.91,7.25-28.31c1.61,7.68,3.05,15.47,4.31,23.08l-11.56,5.23ZM726.54,589.78c1.76-2.9,3.6-5.39,5.54-7.4,1.75,6.9,2.77,11.16,2.77,11.16l-8.31-3.76ZM719.72,586.7l-3.4-1.54c1.36-5.53,4.3-17.23,8.16-31.31,2.98,10.67,5.5,20.28,7.31,27.39l-12.07,5.46ZM715.47,588.62s.28-1.16.77-3.18c.69.58,1.37,1.21,2.04,1.9l-2.81,1.27ZM468.81,501.16c1.94-7.6,4.67-18,7.9-29.46l12.04,35-4.32-1.2c.24-.2.48-.41.72-.59l-1.08.49-15.25-4.24ZM465.69,513.72s.23-.97.66-2.7c.32.65.64,1.29.96,1.97l-1.62.73ZM414.91,508.36c2.16-5.83,4.34-11.22,6.48-15.88,3.32,12.64,5.37,21.24,5.37,21.24l-11.86-5.36ZM400.51,484.99l10.35-30.08c2.63,8.72,5.07,17.33,7.22,25.19l-17.57,4.89ZM325.4,481.69c1.47-5.41,3.09-11.21,4.82-17.18l7.05,20.48-11.87-3.3ZM317.14,513.72s1.13-4.74,3.06-12.29c1.18,2.96,2.36,6.07,3.54,9.31l-6.6,2.98ZM266.22,560.45s3.14-13.16,7.95-30.9c2.78,7.16,5.27,15.3,7.5,23.91l-15.45,6.98ZM209.35,444.46l2.62-7.62,3.18,9.23-5.8-1.61ZM100.23,521.07c2.84-7.62,5.99-14.23,9.48-19.26l8.33,24.22-17.81-4.96ZM96.89,503.35s2.17-9.09,5.66-22.34l5.89,17.12-11.55,5.22ZM52.05,500.67c.81-3.65,1.67-7.26,2.57-10.8,2.11,8.26,3.36,13.47,3.36,13.47l-5.92-2.68Z"/>
            </g>
          </g>
        </g>
        <g id="waves">
          <path class="cls-9" d="M908.16,573.59c0-.83-62.75-1.51-140.16-1.51s-140.16.68-140.16,1.51,62.75,1.51,140.16,1.51,140.16-.68,140.16-1.51Z"/>
          <ellipse class="cls-10" cx="1206.82" cy="584.28" rx="140.16" ry="1.51"/>
        </g>
        <path id="cloud" class="cls-5" d="M985.73,2.88c-5.72-1.53-11.63-3.52-17.43-2.33-3.91.8-7.38,2.98-11.05,4.55-9.35,3.98-19.87,3.91-30.03,3.68-13.26-.3-26.52-.76-39.77-1.37-7.58-.35-15.3-.78-22.41-3.44-3.45-1.29-6.75-3.11-10.39-3.72-7.02-1.18-13.87,2.28-20.6,4.6-8.66,2.99-17.95,4.17-27.08,3.46,15.8,4.79,32.71-.5,49.23-.62,10.64-.07,21.17,2.02,31.74,3.29,17.82,2.14,35.83,1.91,53.77,1.69,25.38-.32,50.77-.64,76.15-.96,8.49-.11,17.62.25,25.87-1.84-6.13-8.17-16.59-3.32-25.42-3.11-10.97.26-21.99-1.03-32.59-3.86Z"/>
        <path id="cloud-2" data-name="cloud" class="cls-4" d="M1635.88,36c5.72-1.53,11.63-3.52,17.43-2.33,3.91.8,7.38,2.98,11.05,4.55,9.35,3.98,19.87,3.91,30.03,3.68,13.26-.3,26.52-.76,39.77-1.37,7.58-.35,15.3-.78,22.41-3.44,3.45-1.29,6.75-3.11,10.39-3.72,7.02-1.18,13.87,2.28,20.6,4.6,8.66,2.99,17.95,4.17,27.08,3.46-15.8,4.79-32.71-.5-49.23-.62-10.64-.07-21.17,2.02-31.74,3.29-17.82,2.14-35.83,1.91-53.77,1.69-25.38-.32-50.77-.64-76.15-.96-8.49-.11-17.62.25-25.87-1.84,6.13-8.17,16.59-3.32,25.42-3.11,10.97.26,21.98-1.03,32.59-3.86Z"/>
        <path id="bird" class="cls-13" d="M371.34,25.76s-12.05,2.11-17.75,11.6c0,0-8.11-9.29-16.65-10.33,0,0,12.81,8.56,16.73,17.76,0,0,5.81-12.86,17.67-19.03Z"/>
        <path id="bird-2" data-name="bird" class="cls-13" d="M1931.28,14.11s-7.75,1.36-11.42,7.46c0,0-5.22-5.98-10.71-6.64,0,0,8.24,5.5,10.76,11.42,0,0,3.74-8.27,11.37-12.24Z"/>
        <g id="mountain">
          <polygon class="cls-3" points="1888.31 561.75 1888.31 696.41 627.85 696.41 627.85 654.7 855.78 542.81 960.55 585.85 1009.7 580.68 1035.21 598.66 1035.28 598.7 1035.37 598.76 1039.39 596.87 1276.93 485.05 1364.56 527.33 1365.24 527.02 1552.68 439.54 1876.54 557.46 1888.31 561.75"/>
          <polygon class="cls-16" points="1035.28 598.7 934.21 643.86 905.27 618.4 866.66 643.86 775.26 597.74 855.79 542.81 960.54 585.85 1009.7 580.69 1035.21 598.66 1035.28 598.7"/>
          <polygon class="cls-17" points="1365.24 527.02 1267.58 574.81 1276.92 485.05 1364.56 527.33 1365.24 527.02"/>
          <polygon class="cls-19" points="1876.55 557.47 1876.55 557.47 1624.7 553.56 1593.53 506.07 1534.03 529.93 1552.68 439.53 1876.55 557.47"/>
        </g>
        <g id="rocks-2" data-name="rocks">
          <g class="cls-11">
            <g>
              <path class="cls-14" d="M1852.42,495.53l-40.21,212.57,122.71,63.92,61.72,32.16,23.54,12.27,104.96,54.67,58.07-210.2s-35.44-272.56-34.86-291.73c.32-10.93-22.7-29.15-43.73-42.44-5.73-3.6-11.29-6.85-16.21-9.48-8.73-4.68-15.4-7.44-17.17-6.89-2.33.73-11.53.98-22.33.99-19.06.03-43.09-.62-43.09-.62l-24.28,31.89-.87.05-12.77.66-15.45.8-42.41,29.7-57.63,121.69Z"/>
              <polygon class="cls-18" points="1996.64 804.19 2020.18 816.46 2096.28 546.33 2043.53 641.61 1996.64 804.19"/>
              <path class="cls-20" d="M1852.42,495.53l-40.21,212.57,122.71,63.92,91.33-280.06-27.32,173.09,29.93-26.65,75.77-311.65c-5.73-3.6-11.29-6.85-16.21-9.48l-42.55,95.34,3.05-101.24c-19.06.03-43.09-.62-43.09-.62l-24.28,31.89-.87.05c-1.07,33.31-3.03,95.48-2.92,97.23.13,2.4-42.49,83.26-42.49,83.26l32.64-179.83-15.45.8-42.41,29.7-57.63,121.69Z"/>
            </g>
            <g>
              <polygon class="cls-15" points="653.46 907.12 674.43 700.24 575.59 594.15 567.44 179.29 525.6 183.89 434.56 193.9 380.7 246.61 380.53 246.77 375.95 245.6 350.25 239.05 144.8 558.24 86.98 703.37 168.16 907.12 653.46 907.12"/>
              <polygon class="cls-22" points="506.47 591.29 607.18 907.12 654.72 907.12 674.43 700.24 575.59 594.15 568.59 177.38 526.75 181.98 526.61 416.98 545.86 458.97 522.24 517.56 381.84 244.69 381.67 244.85 377.1 243.69 468.39 568.17 506.47 591.29"/>
              <polygon class="cls-21" points="464.4 907.12 296.57 471.29 308.28 831.93 259.56 635.08 201.16 687.42 211.32 907.12 464.4 907.12"/>
            </g>
          </g>
        </g>
      </g>
    </g>
  </g>
</svg>