<?xml version="1.0" encoding="UTF-8"?>
<svg id="Layer_2" xmlns="http://www.w3.org/2000/svg" xmlns:xlink="http://www.w3.org/1999/xlink" viewBox="0 0 1963.17 282.37">
  <defs>
    <style>
      .cls-1 {
        fill: none;
      }

      .cls-2 {
        fill: url(#linear-gradient-4);
      }

      .cls-3 {
        fill: url(#linear-gradient-3);
      }

      .cls-4 {
        fill: url(#linear-gradient-2);
      }

      .cls-5 {
        fill: url(#linear-gradient);
      }

      .cls-6 {
        clip-path: url(#clippath-1);
      }

      .cls-7 {
        clip-path: url(#clippath);
      }
    </style>
    <clipPath id="clippath">
      <rect class="cls-1" x="28.37" width="963.2" height="282.37" transform="translate(1019.94 282.37) rotate(180)"/>
    </clipPath>
    <linearGradient id="linear-gradient" x1="-84.23" y1="296.88" x2="-71.29" y2="52.77" gradientTransform="translate(622.35) rotate(-180) scale(1 -1)" gradientUnits="userSpaceOnUse">
      <stop offset="0" stop-color="#001c1e"/>
      <stop offset=".99" stop-color="#004543"/>
    </linearGradient>
    <linearGradient id="linear-gradient-2" x1="503.89" y1="276.87" x2="503.89" y2="124" gradientTransform="matrix(1,0,0,1,0,0)" xlink:href="#linear-gradient"/>
    <clipPath id="clippath-1">
      <rect class="cls-1" x="983.75" width="963.2" height="282.37" transform="translate(2930.7 282.37) rotate(180)"/>
    </clipPath>
    <linearGradient id="linear-gradient-3" x1="-1039.61" y1="296.88" x2="-1026.67" y2="52.77" xlink:href="#linear-gradient"/>
    <linearGradient id="linear-gradient-4" x1="1459.27" y1="276.87" x2="1459.27" y2="124" gradientTransform="matrix(1,0,0,1,0,0)" xlink:href="#linear-gradient"/>
  </defs>
  <g id="trees">
    <g id="trees-2" data-name="trees">
      <g class="cls-7">
        <path class="cls-5" d="M698.27,120.19c.19,11.96.39,23.91.58,35.87-2.02-11.89-2.24-23.95-.58-35.87Z"/>
        <path class="cls-4" d="M612.15,185.23c-7.86-13.6-16.59-42.71-16.59-42.71l9.77,3.52c-14.66-8.79-19.55-60.65-19.55-60.65,0,0-4.89,51.86-19.54,60.65l9.77-3.52s-6.11,20.36-12.7,34.98c-5.11-13.9-8.85-26.39-8.85-26.39l12.51,4.5c-18.77-11.26-25.03-77.66-25.03-77.66,0,0-3.33,35.29-12.4,58.78-.16-9.61-.31-19.21-.47-28.82-1.49,10.71-1.77,21.49-.93,32.24-3.11,7.14-6.82,12.82-11.23,15.46l12.49-4.49v.05c-.26.87-3.78,12.52-8.56,25.6-7.57-14.23-15.55-40.82-15.55-40.82l9.77,3.52c-14.66-8.79-19.55-60.65-19.55-60.65,0,0-4.89,51.86-19.54,60.65l9.77-3.52s-6.36,21.23-13.12,35.9c-.03-1.7-.05-3.39-.08-5.09l1.54.55c-.53-.32-1.04-.7-1.55-1.12-.2-12.4-.4-24.79-.6-37.19-1.67,11.98-1.83,24.07-.59,36.07-12.54-13.07-16.81-58.42-16.81-58.42,0,0-4.88,51.75-19.5,60.62-8.45-17.96-11.48-50.12-11.48-50.12,0,0-3.3,34.99-12.6,52.36-.12-7.13-.23-14.26-.35-21.4-1.12,8.06-1.56,16.16-1.35,24.26-.16.24-.32.48-.49.71-7.69-18.26-10.49-47.89-10.49-47.89,0,0-1.03,10.88-3.55,23.52-11.87-14.21-15.94-57.44-15.94-57.44,0,0-3.93,41.72-15.32,56.66-10.34-16.33-13.96-54.69-13.96-54.69,0,0-4.89,51.86-19.54,60.65l9.77-3.52s-2.11,7.05-5.19,15.82c-7.63-16.37-14.91-40.63-14.91-40.63l10.89,3.92c-16.34-9.8-21.78-67.59-21.78-67.59,0,0-5.45,57.8-21.78,67.59l10.89-3.92s-5.76,19.23-12.42,35c-.31-18.91-.61-37.81-.92-56.72-2.79,20.02-2.94,40.21-.62,60.25-.64,1.43-1.28,2.81-1.93,4.12-5.87-14.04-10.9-30.82-10.9-30.82l9.77,3.52c-14.66-8.79-19.55-60.65-19.55-60.65,0,0-1.77,18.76-6.37,35.63-.07-4.45-.14-8.9-.22-13.36-.94,6.77-1.56,13.55-1.91,20.35-2.82,8.29-6.46,15.28-11.05,18.03l9.77-3.52s-7.26,24.21-14.5,38.79c-9.58-17.13-12.96-53.01-12.96-53.01,0,0-4.17,44.22-16.35,57.92-6.6-14.63-12.72-35.01-12.72-35.01l9.77,3.52c-14.66-8.79-19.55-60.65-19.55-60.65,0,0-4.89,51.86-19.54,60.65l9.77-3.52s-5.44,18.13-11.59,32.46c-10.68-15.92-14.39-55.36-14.39-55.36,0,0-2.14,22.71-7.84,40.62-13.25-11.76-17.73-59.3-17.73-59.3,0,0-4.89,51.86-19.54,60.65l9.77-3.52s-6.5,21.68-13.34,36.37l-9.77-22.61,15.88,3.52c-8.55-4.39-21.99-49.22-21.99-49.22l9.77,3.52c-14.66-8.79-19.55-60.65-19.55-60.65,0,0-4.89,51.86-19.54,60.65l9.77-3.52s-8.97,29.92-16.92,43.27c-7.01-18.34-9.58-45.63-9.58-45.63,0,0-3.57,37.88-13.76,54.38-4.01-16.01-5.58-32.62-5.58-32.62,0,0-4.89,51.86-19.54,60.65l9.77-3.52s-2.3,7.66-5.6,16.96h1003.61l-21.77-50.35,15.88,3.52c-8.55-4.39-21.99-49.22-21.99-49.22l9.77,3.52c-14.66-8.79-19.55-60.65-19.55-60.65,0,0-3.74,39.66-14.48,55.5-4.79-12.43-8.52-24.89-8.52-24.89l9.77,3.52c-14.66-8.79-19.55-60.65-19.55-60.65,0,0-4.89,51.86-19.54,60.65l9.77-3.52s-10.79,35.98-19.19,46.62c-8.12-12.62-17.69-44.52-17.69-44.52l9.77,3.52c-14.66-8.79-19.55-60.65-19.55-60.65,0,0-4.89,51.86-19.54,60.65l9.77-3.52s-6.54,21.81-13.4,36.49c-.47-18.87-1.5-32.55-2.71-34.76,0-.2,0-.4,0-.6-.02.17-.04.34-.06.51-.09-.13-.18-.22-.28-.22-1.6,0-2.93,19.63-3.26,45.86-.78.9-1.54,1.58-2.27,1.95l2.25-.5c-.04,3.6-.06,7.31-.06,11.1,0,4.32.03,8.52.08,12.57-12.36-13.39-16.58-58.17-16.58-58.17,0,0-4.89,51.86-19.54,60.65l9.77-3.52s-5.91,19.7-12.38,34.26l-7.34-18.14,11.92-.89c-8.55-4.39-21.99-49.22-21.99-49.22l9.77,3.52c-14.66-8.79-19.55-60.65-19.55-60.65,0,0-4.88,51.78-19.51,60.63-3.8-10.44-6.54-19.6-6.54-19.6l9.77,3.52c-14.66-8.79-19.55-60.65-19.55-60.65,0,0-4.89,51.86-19.54,60.65l9.77-3.52s-11.75,39.2-20.27,47.88c-5.02-13.54-8.74-25.96-8.74-25.96l11.85,4.26c-17.78-10.66-23.71-73.56-23.71-73.56,0,0-5.93,62.9-23.71,73.56l11.85-4.26s-6.61,22.05-14.09,39.44l-12.56-29.05,15.88,3.52c-8.55-4.39-21.99-49.22-21.99-49.22l9.77,3.52c-14.66-8.79-19.55-60.65-19.55-60.65,0,0-4.89,51.86-19.54,60.65l9.77-3.52s-13.44,44.83-21.99,49.22l15.88-3.52-14.16,32.75c-.67-.86-1.35-1.87-2.04-3.01M960.36,127.12s-.65,2.18-1.77,5.63c-.61-1.42-1.21-2.88-1.8-4.35l3.56-1.28ZM953.92,146.44c-.09.26-.19.51-.28.77l-.4-.92.68.15ZM912.7,151.91c-.98-.5-2.02-1.56-3.1-2.99l11.88-2.63-12.78,29.56-11.87-27.46,15.88,3.52ZM865.06,148.4l-7.01,16.22c0-.7,0-1.4,0-2.1,0-4.31-.03-8.51-.08-12.55l7.09-1.57ZM851.47,176.51c.02,1.08.03,2.16.05,3.21l-2.89,6.68c-2.42-7.09-3.99-12.35-3.99-12.35l6.83,2.46ZM775.76,140.07s-2.06,6.86-5.07,15.47c-1.65-3.89-3.23-8.02-4.67-11.97l9.74-3.5ZM733.83,169.67l-7.78,18c-2.1-4.72-4.16-9.89-6.05-14.94l13.83-3.06ZM719.98,201.69l-.74,1.72-.9-2.09,1.65.36ZM613.83,190.92l-5.5,12.72-2.88-6.66c-1.11-3.16-2.09-6.09-2.9-8.56l11.28,2.5ZM518.43,183.2c-.99,2.56-2.01,5.12-3.06,7.62l-3.97-9.17,7.02,1.56ZM479.65,181.65l-5.01,11.58c-1.3-3.18-2.55-6.47-3.71-9.65l8.72-1.93ZM471.51,166.38c.23,2.05.5,4.09.82,6.13-1.05,2.25-2.11,4.32-3.15,6.13-2.89-8.32-4.85-14.85-4.85-14.85l7.19,2.59ZM444.77,163.79s-1.56,5.2-3.95,12.23c-2.16-2.08-4.07-5.12-5.77-8.73l9.72-3.5ZM440.53,176.88c-1,2.91-2.13,6.09-3.34,9.33-2.33-6.87-3.85-11.92-3.85-11.92l7.19,2.59ZM413.8,174.29s-.62,2.08-1.68,5.38c-.34-.55-.68-1.12-1.01-1.72-.01-.89-.03-1.78-.04-2.67l2.74-.98ZM409.9,183c.08.84.19,1.68.28,2.52-.19.56-.38,1.14-.59,1.72-.96-3.01-1.53-4.9-1.53-4.9l1.83.66ZM394.38,150.51c-.63,3.04-1.35,6.16-2.16,9.23-2.21-6.56-3.64-11.31-3.64-11.31l5.81,2.09ZM369.03,148.42s-.51,1.7-1.39,4.46c-.97-.8-1.9-1.8-2.78-2.96l4.17-1.5ZM367.5,153.34c-.91,2.84-2.18,6.68-3.67,10.95-1.94-5.63-3.42-10.3-4.1-12.51l1.71-.62,6.06,2.18ZM360.72,150.9c-.34.28-.68.53-1.02.76-.25-.81-.39-1.27-.39-1.27l1.41.51ZM243.09,183.64l.54.2c-.12-.07-.24-.16-.36-.24l2.17-.48-6.05,13.99c-1.62-4.58-2.99-8.73-3.97-11.77l7.66-1.7ZM234.68,180.61c-.16.27-.32.53-.48.79-.21-.69-.33-1.08-.33-1.08l.81.29ZM214.32,180.32s-1.03,3.44-2.7,8.49c-1.08-1.86-2.17-4.02-3.26-6.35l5.95-2.14ZM209.96,193.75c-1.08,3.14-2.31,6.58-3.63,10.07l-5.2-12.02,8.82,1.95ZM169.37,191.8l-3.54,8.18c-.87-2.39-1.68-4.7-2.42-6.87l5.96-1.32ZM162.58,181.51c-.59,1.3-1.18,2.54-1.78,3.72-.97-3.02-1.54-4.91-1.54-4.91l3.31,1.19ZM141.45,164.44c-1.12,3.44-2.37,6.7-3.77,9.56-2.42-7.09-3.99-12.35-3.99-12.35l7.76,2.79ZM108.04,207.35l-1.59,3.69-1.32-3.04,2.91-.64ZM59.28,175.4l-4.18,9.68c-1.75-2.01-3.33-4.65-4.76-7.7l8.94-1.98ZM54.46,186.55l-2.96,6.84c-1.75-5.29-2.84-8.93-2.84-8.93l5.8,2.09ZM29.11,184.46s-.62,2.08-1.69,5.38c-.45-1.41-.88-2.85-1.29-4.31l2.98-1.07Z"/>
      </g>
    </g>
    <g id="trees-3" data-name="trees">
      <g class="cls-6">
        <path class="cls-3" d="M1653.65,120.19c.19,11.96.39,23.91.58,35.87-2.02-11.89-2.24-23.95-.58-35.87Z"/>
        <path class="cls-2" d="M1567.53,185.23c-7.86-13.6-16.59-42.71-16.59-42.71l9.77,3.52c-14.66-8.79-19.55-60.65-19.55-60.65,0,0-4.89,51.86-19.54,60.65l9.77-3.52s-6.11,20.36-12.7,34.98c-5.11-13.9-8.85-26.39-8.85-26.39l12.51,4.5c-18.77-11.26-25.03-77.66-25.03-77.66,0,0-3.33,35.29-12.4,58.78-.16-9.61-.31-19.21-.47-28.82-1.49,10.71-1.77,21.49-.93,32.24-3.11,7.14-6.82,12.82-11.23,15.46l12.49-4.49v.05c-.26.87-3.78,12.52-8.56,25.6-7.57-14.23-15.55-40.82-15.55-40.82l9.77,3.52c-14.66-8.79-19.55-60.65-19.55-60.65,0,0-4.89,51.86-19.54,60.65l9.77-3.52s-6.36,21.23-13.12,35.9c-.03-1.7-.05-3.39-.08-5.09l1.54.55c-.53-.32-1.04-.7-1.55-1.12-.2-12.4-.4-24.79-.6-37.19-1.67,11.98-1.83,24.07-.59,36.07-12.54-13.07-16.81-58.42-16.81-58.42,0,0-4.88,51.75-19.5,60.62-8.45-17.96-11.48-50.12-11.48-50.12,0,0-3.3,34.99-12.6,52.36-.12-7.13-.23-14.26-.35-21.4-1.12,8.06-1.56,16.16-1.35,24.26-.16.24-.32.48-.49.71-7.69-18.26-10.49-47.89-10.49-47.89,0,0-1.03,10.88-3.55,23.52-11.87-14.21-15.94-57.44-15.94-57.44,0,0-3.93,41.72-15.32,56.66-10.34-16.33-13.96-54.69-13.96-54.69,0,0-4.89,51.86-19.54,60.65l9.77-3.52s-2.11,7.05-5.19,15.82c-7.63-16.37-14.91-40.63-14.91-40.63l10.89,3.92c-16.34-9.8-21.78-67.59-21.78-67.59,0,0-5.45,57.8-21.78,67.59l10.89-3.92s-5.76,19.23-12.42,35c-.31-18.91-.61-37.81-.92-56.72-2.79,20.02-2.94,40.21-.62,60.25-.64,1.43-1.28,2.81-1.93,4.12-5.87-14.04-10.9-30.82-10.9-30.82l9.77,3.52c-14.66-8.79-19.55-60.65-19.55-60.65,0,0-1.77,18.76-6.37,35.63-.07-4.45-.14-8.9-.22-13.36-.94,6.77-1.56,13.55-1.91,20.35-2.82,8.29-6.46,15.28-11.05,18.03l9.77-3.52s-7.26,24.21-14.5,38.79c-9.58-17.13-12.96-53.01-12.96-53.01,0,0-4.17,44.22-16.35,57.92-6.6-14.63-12.72-35.01-12.72-35.01l9.77,3.52c-14.66-8.79-19.55-60.65-19.55-60.65,0,0-4.89,51.86-19.54,60.65l9.77-3.52s-5.44,18.13-11.59,32.46c-10.68-15.92-14.39-55.36-14.39-55.36,0,0-2.14,22.71-7.84,40.62-13.25-11.76-17.73-59.3-17.73-59.3,0,0-4.89,51.86-19.54,60.65l9.77-3.52s-6.5,21.68-13.34,36.37l-9.77-22.61,15.88,3.52c-8.55-4.39-21.99-49.22-21.99-49.22l9.77,3.52c-14.66-8.79-19.55-60.65-19.55-60.65,0,0-4.89,51.86-19.54,60.65l9.77-3.52s-8.97,29.92-16.92,43.27c-7.01-18.34-9.58-45.63-9.58-45.63,0,0-3.57,37.88-13.76,54.38-4.01-16.01-5.58-32.62-5.58-32.62,0,0-4.89,51.86-19.54,60.65l9.77-3.52s-2.3,7.66-5.6,16.96h1003.61l-21.77-50.35,15.88,3.52c-8.55-4.39-21.99-49.22-21.99-49.22l9.77,3.52c-14.66-8.79-19.55-60.65-19.55-60.65,0,0-3.74,39.66-14.48,55.5-4.79-12.43-8.52-24.89-8.52-24.89l9.77,3.52c-14.66-8.79-19.55-60.65-19.55-60.65,0,0-4.89,51.86-19.54,60.65l9.77-3.52s-10.79,35.98-19.19,46.62c-8.12-12.62-17.69-44.52-17.69-44.52l9.77,3.52c-14.66-8.79-19.55-60.65-19.55-60.65,0,0-4.89,51.86-19.54,60.65l9.77-3.52s-6.54,21.81-13.4,36.49c-.47-18.87-1.5-32.55-2.71-34.76,0-.2,0-.4,0-.6-.02.17-.04.34-.06.51-.09-.13-.18-.22-.28-.22-1.6,0-2.93,19.63-3.26,45.86-.78.9-1.54,1.58-2.27,1.95l2.25-.5c-.04,3.6-.06,7.31-.06,11.1,0,4.32.03,8.52.08,12.57-12.36-13.39-16.58-58.17-16.58-58.17,0,0-4.89,51.86-19.54,60.65l9.77-3.52s-5.91,19.7-12.38,34.26l-7.34-18.14,11.92-.89c-8.55-4.39-21.99-49.22-21.99-49.22l9.77,3.52c-14.66-8.79-19.55-60.65-19.55-60.65,0,0-4.88,51.78-19.51,60.63-3.8-10.44-6.54-19.6-6.54-19.6l9.77,3.52c-14.66-8.79-19.55-60.65-19.55-60.65,0,0-4.89,51.86-19.54,60.65l9.77-3.52s-11.75,39.2-20.27,47.88c-5.02-13.54-8.74-25.96-8.74-25.96l11.85,4.26c-17.78-10.66-23.71-73.56-23.71-73.56,0,0-5.93,62.9-23.71,73.56l11.85-4.26s-6.61,22.05-14.09,39.44l-12.56-29.05,15.88,3.52c-8.55-4.39-21.99-49.22-21.99-49.22l9.77,3.52c-14.66-8.79-19.55-60.65-19.55-60.65,0,0-4.89,51.86-19.54,60.65l9.77-3.52s-13.44,44.83-21.99,49.22l15.88-3.52-14.16,32.75c-.67-.86-1.35-1.87-2.04-3.01M1915.74,127.12s-.65,2.18-1.77,5.63c-.61-1.42-1.21-2.88-1.8-4.35l3.56-1.28ZM1909.3,146.44c-.09.26-.19.51-.28.77l-.4-.92.68.15ZM1868.08,151.91c-.98-.5-2.02-1.56-3.1-2.99l11.88-2.63-12.78,29.56-11.87-27.46,15.88,3.52ZM1820.44,148.4l-7.01,16.22c0-.7,0-1.4,0-2.1,0-4.31-.03-8.51-.08-12.55l7.09-1.57ZM1806.85,176.51c.02,1.08.03,2.16.05,3.21l-2.89,6.68c-2.42-7.09-3.99-12.35-3.99-12.35l6.83,2.46ZM1731.14,140.07s-2.06,6.86-5.07,15.47c-1.65-3.89-3.23-8.02-4.67-11.97l9.74-3.5ZM1689.2,169.67l-7.78,18c-2.1-4.72-4.16-9.89-6.05-14.94l13.83-3.06ZM1675.36,201.69l-.74,1.72-.9-2.09,1.65.36ZM1569.21,190.92l-5.5,12.72-2.88-6.66c-1.11-3.16-2.09-6.09-2.9-8.56l11.28,2.5ZM1473.81,183.2c-.99,2.56-2.01,5.12-3.06,7.62l-3.97-9.17,7.02,1.56ZM1435.03,181.65l-5.01,11.58c-1.3-3.18-2.55-6.47-3.71-9.65l8.72-1.93ZM1426.88,166.38c.23,2.05.5,4.09.82,6.13-1.05,2.25-2.11,4.32-3.15,6.13-2.89-8.32-4.85-14.85-4.85-14.85l7.19,2.59ZM1400.15,163.79s-1.56,5.2-3.95,12.23c-2.16-2.08-4.07-5.12-5.77-8.73l9.72-3.5ZM1395.9,176.88c-1,2.91-2.13,6.09-3.34,9.33-2.33-6.87-3.85-11.92-3.85-11.92l7.19,2.59ZM1369.17,174.29s-.62,2.08-1.68,5.38c-.34-.55-.68-1.12-1.01-1.72-.01-.89-.03-1.78-.04-2.67l2.74-.98ZM1365.28,183c.08.84.19,1.68.28,2.52-.19.56-.38,1.14-.59,1.72-.96-3.01-1.53-4.9-1.53-4.9l1.83.66ZM1349.76,150.51c-.63,3.04-1.35,6.16-2.16,9.23-2.21-6.56-3.64-11.31-3.64-11.31l5.81,2.09ZM1324.41,148.42s-.51,1.7-1.39,4.46c-.97-.8-1.9-1.8-2.78-2.96l4.17-1.5ZM1322.88,153.34c-.91,2.84-2.18,6.68-3.67,10.95-1.94-5.63-3.42-10.3-4.1-12.51l1.71-.62,6.06,2.18ZM1316.09,150.9c-.34.28-.68.53-1.02.76-.25-.81-.39-1.27-.39-1.27l1.41.51ZM1198.47,183.64l.54.2c-.12-.07-.24-.16-.36-.24l2.17-.48-6.05,13.99c-1.62-4.58-2.99-8.73-3.97-11.77l7.66-1.7ZM1190.06,180.61c-.16.27-.32.53-.48.79-.21-.69-.33-1.08-.33-1.08l.81.29ZM1169.7,180.32s-1.03,3.44-2.7,8.49c-1.08-1.86-2.17-4.02-3.26-6.35l5.95-2.14ZM1165.33,193.75c-1.08,3.14-2.31,6.58-3.63,10.07l-5.2-12.02,8.82,1.95ZM1124.75,191.8l-3.54,8.18c-.87-2.39-1.68-4.7-2.42-6.87l5.96-1.32ZM1117.95,181.51c-.59,1.3-1.18,2.54-1.78,3.72-.97-3.02-1.54-4.91-1.54-4.91l3.31,1.19ZM1096.83,164.44c-1.12,3.44-2.37,6.7-3.77,9.56-2.42-7.09-3.99-12.35-3.99-12.35l7.76,2.79ZM1063.42,207.35l-1.59,3.69-1.32-3.04,2.91-.64ZM1014.65,175.4l-4.18,9.68c-1.75-2.01-3.33-4.65-4.76-7.7l8.94-1.98ZM1009.84,186.55l-2.96,6.84c-1.75-5.29-2.84-8.93-2.84-8.93l5.8,2.09ZM984.49,184.46s-.62,2.08-1.69,5.38c-.45-1.41-.88-2.85-1.29-4.31l2.98-1.07Z"/>
      </g>
    </g>
  </g>
</svg>