<?xml version="1.0" encoding="UTF-8"?><svg xmlns="http://www.w3.org/2000/svg" id="Layer_2" data-name="Layer 2" viewBox="0 0 136.01 131.01"><defs><style> .cls-1 { fill: #ffed00; } .cls-1, .cls-2, .cls-3, .cls-4, .cls-5, .cls-6, .cls-7, .cls-8 { fill-rule: evenodd; } .cls-2 { fill: #393185; } .cls-9, .cls-3 { fill: #e31e24; } .cls-10, .cls-6 { fill: #5b5b5b; } .cls-4 { fill: #fefefe; } .cls-5 { fill: #7e71b1; } .cls-7 { fill: #ef7f1a; } .cls-8 { fill: #a79ecd; } </style></defs><g id="Layer_2-2" data-name="Layer 2"><g id="Layer_1-2" data-name="Layer 1-2"><path class="cls-10" d="M135.39,27.9c.11-.84.22-1.68.32-2.52.13-1.02.29-2.04.29-3.01.02-.98-.08-1.86-.29-2.75-.22-.88-.55-1.74-.99-2.53-.89-1.58-2.21-2.87-3.72-3.69-1.41-.76-2.08-1.12-3.7-1.09.2.89-.07,1.69-.09,2.67,0,.97-.16,1.99-.29,3.01-.11.83-.22,1.67-.32,2.51-.58,4.8-1.2,9.73-1.82,14.49-1.45,10.65-3.56,21.66-4.59,31.96-.88,5.16-8.5,45.23-8.43,45.21-8.04,21.18-73.19,3.5-94.77.77-1.6-.21-3.21-.41-4.83-.62l-3.14-.41c-.47-.06-.94-.12-1.41-.19.13.57.32,1.14.57,1.69,1.04,2.41,3.18,4.3,5.57,5.07,1.22.45,2.66.62,4.06.81,13.41,1.77,26.11,5.24,39.32,7.17,14.8,3.99,56.82,10.47,63.42-6.91-.07.02,11.49-65.94,13.02-77.17.63-4.76,1.25-9.68,1.82-14.49"/><path class="cls-9" d="M40.52,91.23c3.03,1.27,6.05,2.54,9.23,3.19h0c17.35,3.83,22.62-1.84,31.02-10.89,2.08-2.24,4.35-4.69,7.05-7.25h0s.08-.04.13-.02c.06.02.09.1.06.15-1.2,2.92-2.69,5.66-4.34,8.21s-3.45,4.9-5.26,7.03c-1.88,2.21-3.86,3.94-5.94,5.32h0c-2.08,1.38-4.25,2.39-6.48,3.15-4.82,1.66-10.29,1.18-15.55-.66-5.87-2.06-11.47-5.82-15.56-10.21h0s-.04-.08-.03-.12c.02-.06.09-.1.15-.07,1.88.64,3.7,1.41,5.52,2.17M52.27,47.27c-2.81-3.12-4.75-7.51-5.44-11.57h0c-1.87-9.8-1.44-16.25.46-20.02,1.17-2.31,2.88-3.61,4.96-4.06,2.07-.44,4.49-.03,7.07,1.09,6.44,2.79,13.93,9.96,19.5,19.17,3.69,4.15,8.3,7.78,13.98,10.04,4.77,1.91,10.29,2.85,16.66,2.34.12-.02.22-.03.31-.03h.01c.07,0,.12.05.12.12,0,.06-.05.11-.11.12l-.33.03c-.57.08-1.48.34-2.58.65-1.92.54-4.43,1.25-6.86,1.51h-.01c-3.07.08-5.99-.39-8.77-1.31-2.66-.87-5.19-2.15-7.61-3.73,2.58,6.67,3.95,13.88,3.31,20.96-.57,6.29-2.74,12.49-7.05,18.15h0c-2.41,2.73-4.57,3.95-6.12,4.82-.8.45-1.43.81-1.83,1.22l-.2.23s-.12.06-.17.01c-.05-.04-.06-.11-.02-.16.06-.09.13-.17.21-.25,3.54-4.17,6.09-8.19,7.82-12.03,3.93-8.72,3.63-16.55,1.1-23.27-2.53-6.73-7.31-12.35-12.34-16.65-4.52-3.87-9.25-6.68-12.74-8.26-.22.31-.37.54-.5.79-.14.26-.25.54-.39.94-.87,5.68-.87,11.7.89,15.81.57,1.32,1.32,2.45,2.29,3.29.96.84,2.14,1.41,3.56,1.63,2.04.31,4.58-.09,7.72-1.44h0s.1,0,.13.03c.04.05.04.12,0,.17-2.43,2.19-4.78,3.36-6.98,3.73-1.96.34-3.81.05-5.49-.69-1.68-.74-3.21-1.93-4.54-3.41l-.02.03ZM48.5,101.33c1.86.54,3.67.96,4.92,1.02h0l8.51,1.55s.09.05.1.1c0,.07-.03.13-.1.14-3.1.56-6.22.78-9.25.77s-5.98-.26-8.76-.64c-2.88-.39-5.41-1.13-7.69-2.14s-4.3-2.29-6.15-3.76c-3.99-3.16-6.54-8.03-7.83-13.45-1.44-6.05-1.29-12.8.21-18.62,0-.04.04-.08.09-.09.06-.01.13.02.14.09.47,1.92.81,3.88,1.15,5.82.56,3.24,1.12,6.47,2.29,9.5,1.64,4.27,3.48,7.7,5.96,10.52,2.48,2.82,5.59,5.02,9.79,6.85,1.46.64,4.08,1.6,6.6,2.34h.01ZM123.01,19.72c.1-.81.21-1.62.31-2.43.13-.98.28-1.97.28-2.9.02-.95-.08-1.79-.28-2.65-.21-.85-.53-1.68-.96-2.44-.85-1.52-2.13-2.77-3.58-3.56C114.77,3.6,35.01-.1,23.79.02c-2.23-.16-4.5.47-6.27,1.92-3.82,3.08-4.99,13.3-6.02,17.78-2.2,10-3.49,27.23-4.91,37.7-.49,6.46-8.25,40.26-6.27,44.76,1,2.33,3.07,4.14,5.37,4.89,1.18.44,2.56.6,3.92.78l3.03.4c1.56.2,3.11.4,4.65.6,20.81,2.63,83.64,19.68,91.39-.75-.07.02,7.28-38.62,8.13-43.6.99-9.93,3.02-20.55,4.43-30.83.6-4.59,1.2-9.34,1.76-13.97v.02Z"/><path class="cls-6" d="M59.43,82.33c-.4.69-4.14,2.16-4.85,2.41-4.99,1.75-11.79,1.91-15.28-1.86-4.23-4.56-.33-9.82,6.27-11.23l1.77-.37-.6-2.76c-.44-2.18-.28-4.7.31-6.43.33-.96.79-1.7,1.34-2.39,1.36-1.7,3.83-2.47,5.95-2.01,1.08.23,2.11.67,2.83,1.17,4.9,3.45,5.49,10.25,4.51,15.8-.32,1.83-1.43,6.24-2.25,7.66"/><path class="cls-7" d="M59.36,82.32c-.32.56-3.37,1.76-3.95,1.96-4.06,1.43-9.59,1.55-12.44-1.51-3.45-3.71-.27-7.99,5.1-9.14l1.44-.3-.49-2.24c-.36-1.77-.23-3.83.25-5.23.27-.78.65-1.38,1.09-1.94,1.11-1.38,3.12-2.01,4.84-1.64.88.19,1.72.54,2.3.95,3.99,2.81,4.47,8.35,3.68,12.86-.26,1.49-1.17,5.08-1.83,6.23"/><path class="cls-3" d="M59.32,82.23c-.26.46-2.74,1.43-3.21,1.6-3.3,1.16-7.8,1.26-10.12-1.23-2.8-3.02-.22-6.5,4.15-7.43l1.17-.24-.4-1.83c-.29-1.44-.19-3.11.21-4.26.22-.64.52-1.12.89-1.58.9-1.13,2.54-1.63,3.94-1.33.72.15,1.4.44,1.87.77,3.24,2.29,3.64,6.79,2.99,10.46-.21,1.21-.95,4.14-1.49,5.07"/><path class="cls-5" d="M59.32,82.23c-.21.37-2.21,1.15-2.6,1.29-2.67.94-6.3,1.02-8.17-.99-2.26-2.44-.18-5.25,3.35-6.01l.95-.2-.32-1.47c-.24-1.16-.15-2.51.17-3.44.18-.51.42-.91.72-1.28.73-.91,2.05-1.32,3.18-1.08.58.12,1.13.36,1.51.63,2.62,1.85,2.94,5.48,2.41,8.45-.17.98-.77,3.34-1.2,4.1"/><path class="cls-8" d="M59.35,82.25c-.15.26-1.57.82-1.85.92-1.9.67-4.49.73-5.81-.71-1.61-1.74-.13-3.74,2.38-4.27l.67-.14-.23-1.05c-.17-.83-.11-1.79.12-2.45.13-.37.3-.65.51-.91.52-.65,1.46-.94,2.26-.77.41.09.8.25,1.08.45,1.86,1.31,2.09,3.9,1.72,6.01-.12.7-.55,2.38-.86,2.91"/><path class="cls-4" d="M68.07,74.93v.02c.47-.1,1.51-.63,1.96-.89,1.48-.85,2.34-1.86,3.21-3.44.49-.89.77-1.83,1.17-2.75,0,1.84-.91,4.37-2.51,5.75-.7.6-1.48,1.09-2.41,1.38-.9.27-1.9.48-2.83.44,0,0,1.41-.51,1.41-.51Z"/><path class="cls-4" d="M67.05,74.13v.02c.4-.24,1.15-1.06,1.46-1.44,1.02-1.26,1.39-2.47,1.54-4.21.08-.99-.06-1.95-.07-2.93.77,1.71,1,4.36.1,6.14-.4.78-.91,1.48-1.67,2.04-.73.54-1.57,1.04-2.45,1.3l1.1-.92h-.01Z"/><path class="cls-6" d="M59.43,82.33c-.4.69-4.14,2.16-4.85,2.41-4.99,1.75-11.79,1.91-15.28-1.86-4.23-4.56-.33-9.82,6.27-11.23l1.77-.37-.6-2.76c-.44-2.18-.28-4.7.31-6.43.33-.96.79-1.7,1.34-2.39,1.36-1.7,3.83-2.47,5.95-2.01,1.08.23,2.11.67,2.83,1.17,4.9,3.45,5.49,10.25,4.51,15.8-.32,1.83-1.43,6.24-2.25,7.66"/><path class="cls-1" d="M59.17,82.72c7.67-12.61,9.03-5.57,6.06-1.62-3.22,4.19-7.74,7.94-13.71,8.61,2.9-1.68,5.65-4.34,7.65-6.99"/><path class="cls-7" d="M59.36,82.32c-.32.56-3.37,1.76-3.95,1.96-4.06,1.43-9.59,1.55-12.44-1.51-3.45-3.71-.27-7.99,5.1-9.14l1.44-.3-.49-2.24c-.36-1.77-.23-3.83.25-5.23.27-.78.65-1.38,1.09-1.94,1.11-1.38,3.12-2.01,4.84-1.64.88.19,1.72.54,2.3.95,3.99,2.81,4.47,8.35,3.68,12.86-.26,1.49-1.17,5.08-1.83,6.23"/><path class="cls-3" d="M59.32,82.23c-.26.46-2.74,1.43-3.21,1.6-3.3,1.16-7.8,1.26-10.12-1.23-2.8-3.02-.22-6.5,4.15-7.43l1.17-.24-.4-1.83c-.29-1.44-.19-3.11.21-4.26.22-.64.52-1.12.89-1.58.9-1.13,2.54-1.63,3.94-1.33.72.15,1.4.44,1.87.77,3.24,2.29,3.64,6.79,2.99,10.46-.21,1.21-.95,4.14-1.49,5.07"/><path class="cls-5" d="M59.32,82.23c-.21.37-2.21,1.15-2.6,1.29-2.67.94-6.3,1.02-8.17-.99-2.26-2.44-.18-5.25,3.35-6.01l.95-.2-.32-1.47c-.24-1.16-.15-2.51.17-3.44.18-.51.42-.91.72-1.28.73-.91,2.05-1.32,3.18-1.08.58.12,1.13.36,1.51.63,2.62,1.85,2.94,5.48,2.41,8.45-.17.98-.77,3.34-1.2,4.1"/><path class="cls-2" d="M59.35,82.25c-.15.26-1.57.82-1.85.92-1.9.67-4.49.73-5.81-.71-1.61-1.74-.13-3.74,2.38-4.27l.67-.14-.23-1.05c-.17-.83-.11-1.79.12-2.45.13-.37.3-.65.51-.91.52-.65,1.46-.94,2.26-.77.41.09.8.25,1.08.45,1.86,1.31,2.09,3.9,1.72,6.01-.12.7-.55,2.38-.86,2.91"/></g></g></svg>