<?xml version="1.0" encoding="UTF-8"?><svg xmlns="http://www.w3.org/2000/svg" id="Layer_2" data-name="Layer 2" viewBox="0 0 495.4 179.85"><defs><style> .cls-1 { fill: #ffed00; } .cls-1, .cls-2, .cls-3, .cls-4, .cls-5, .cls-6, .cls-7 { fill-rule: evenodd; } .cls-2 { fill: #393185; } .cls-8, .cls-3 { fill: #e31e24; } .cls-4 { fill: #7e71b1; } .cls-5 { fill: #5b5b5b; } .cls-9 { fill: #fff; } .cls-6 { fill: #ef7f1a; } .cls-7 { fill: #a79ecd; } </style></defs><g id="Layer_2-2" data-name="Layer 2"><g id="Layer_1-2" data-name="Layer 1-2"><path class="cls-9" d="M283.22,84.55c-5.35.05-9.57-1.51-12.64-4.54-3.07-3.04-4.6-7.1-4.6-12.16.92-10.06,6.15-15.86,15.66-17.4,9.49-1.54,15.62-.44,18.34,3.33,0-10.34-3.26-15.51-9.81-15.51s-12.82,1.95-18.75,5.87c-.26-5.72,1.34-9.97,4.78-12.77,3.46-2.81,8.85-4.38,16.17-4.69,15.75,0,23.6,7.86,23.6,23.55v32.99c-7.43,1.43-12.23-1.14-14.39-7.71-.57-9.84-4.45-15.2-11.65-16.06-5.52,0-8.3,2.13-8.3,6.42,0,1.93.68,3.53,2.02,4.76,4.38,4.02,9.46,2.29,10.5-1.55,2.15-7.87,8.84,15.3-10.96,15.47"/><path class="cls-9" d="M265.61,28.02l-20.53,55.19h-19.41l-19.56-55.19c12.03-2.63,20.05,4.16,24.03,20.31,3.61,12.99,5.48,20.81,5.67,23.51h.22c.24-2.56,2.34-10.32,6.26-23.29,5.02-16.41,12.8-23.26,23.33-20.53"/><path class="cls-9" d="M174.75,18.15v19.14h12.68c8.78,0,12.97,4.71,12.62,14.11h-25.3v17.68h16.12c8.55,0,12.84,4.71,12.84,14.13h-46.36V18.06h0c.04-8.87,7.97-13.32,23.8-13.32,14.56,0,21.83,4.48,21.83,13.41h-28.23Z"/><path class="cls-9" d="M488.88,116.54v-1c0-.92-.2-1.64-.6-2.17s-1.16-.79-2.28-.79c-2.11,0-3.17.99-3.17,2.96v1h6.05ZM495.4,121.98h-12.58v.68c0,1.35.3,2.29.91,2.78.61.5,1.71.75,3.3.75,2.54,0,4.91-.35,7.11-1.04l1.02,5.36c-2.73,1.02-5.66,1.53-8.8,1.53-6.97,0-10.46-3.27-10.46-9.79v-5.64c0-6.43,3.34-9.65,10.04-9.67,1.86,0,3.44.26,4.74.8,1.3.53,2.27,1.29,2.93,2.28s1.12,2.04,1.38,3.14c.26,1.11.4,2.36.4,3.78v5.05h.01ZM456.23,131.54h-6.91v-15.93c0-1.16-.56-1.74-1.69-1.74-1.31,0-2.98.58-5.03,1.74v15.93h-6.91v-24.11h5.13l.73,1.82c3.11-1.54,6.21-2.31,9.29-2.31,1.98,0,3.42.77,4.29,2.31,3.09-1.54,6.21-2.31,9.37-2.31,3.58,0,5.37,2.57,5.37,7.73v16.88h-6.91v-15.93c0-1.16-.55-1.74-1.66-1.74-1.32,0-3,.58-5.05,1.74v15.93h-.02ZM415.19,122.54c0,2.43,1.22,3.66,3.65,3.66s3.65-1.22,3.65-3.66v-6.13c0-2.42-1.22-3.63-3.65-3.63s-3.65,1.21-3.65,3.63v6.13ZM426.97,129.29c-1.62,1.83-4.33,2.75-8.14,2.75s-6.52-.92-8.14-2.75c-1.62-1.82-2.42-4.16-2.42-7v-5.59c0-2.84.81-5.17,2.42-7.01,1.62-1.84,4.33-2.76,8.14-2.76s6.52.92,8.14,2.75c1.62,1.82,2.42,4.17,2.42,7.02v5.59c0,2.84-.81,5.18-2.42,7ZM402,131.54h-7.2v-13.27h-10.32v13.27h-7.2v-32.98h7.2v13.12h10.32v-13.12h7.2v32.98ZM352.47,141.29h-6.5l2.98-9.71-2.46-.04-7.2-24.11h6.99l4.79,17.2,5.26-17.2h6.5l-7.38,24.11-2.98,9.76h0ZM336.46,131.16c-1.66.6-3.32.89-4.99.87-4.7,0-7.05-2.07-7.05-6.22v-12.74h-3.17v-5.64h3.17v-5.8l6.91-.99v6.79h5.32l-.38,5.64h-4.94v11.79c0,.89.48,1.34,1.43,1.34,1.06,0,2.02-.16,2.88-.46l.82,5.43h0ZM316.14,131.54h-6.91v-24.11h6.91v24.11ZM316.14,104.41h-6.91v-7.72h6.91v7.72ZM301.97,131.54h-6.91v-15.93c0-1.16-.56-1.74-1.69-1.74-1.31,0-2.98.58-5.03,1.74v15.93h-6.91v-24.11h5.13l.73,1.82c3.11-1.54,6.21-2.31,9.3-2.31,3.58,0,5.38,2.57,5.39,7.73v16.88h-.01ZM276.71,113.67c-2.81,1.16-4.87,2.22-6.18,3.17v14.7h-6.91v-24.11h5.76l.47,2.32c.77-.53,1.78-1.09,3.05-1.67,1.26-.58,2.35-.97,3.26-1.16l.56,6.75h-.01ZM250.79,116.54v-1c0-.92-.2-1.64-.6-2.17-.4-.53-1.16-.79-2.28-.79-2.11,0-3.17.99-3.17,2.96v1h6.05ZM257.32,121.98h-12.57v.68c0,1.35.3,2.29.91,2.78.61.5,1.71.75,3.3.75,2.54,0,4.91-.35,7.11-1.04l1.02,5.36c-2.73,1.02-5.66,1.53-8.8,1.53-6.97,0-10.46-3.27-10.46-9.79v-5.64c0-6.43,3.34-9.65,10.04-9.67,1.86,0,3.44.26,4.74.8,1.3.53,2.27,1.29,2.93,2.28.65.99,1.12,2.04,1.38,3.14.26,1.11.4,2.36.4,3.78v5.05h0ZM233.31,131.16c-1.66.6-3.32.89-4.99.87-4.7,0-7.05-2.07-7.05-6.22v-12.74h-3.17v-5.64h3.17v-5.8l6.91-.99v6.79h5.32l-.38,5.64h-4.94v11.79c0,.89.48,1.34,1.43,1.34,1.06,0,2.02-.16,2.88-.46l.82,5.43h0ZM206.53,125.71v-2.84h-3.33c-.78,0-1.32.12-1.62.37-.31.25-.46.72-.46,1.39s.14,1.18.44,1.49c.29.3.78.46,1.46.46,1.15,0,2.33-.29,3.53-.88h-.02ZM213.44,131.54h-5.65l-.49-1.49c-2.37,1.34-4.58,2-6.65,1.99-2.04,0-3.56-.67-4.57-2.01-1-1.34-1.5-3.1-1.5-5.29,0-2.43.55-4.18,1.66-5.23,1.1-1.06,2.86-1.58,5.28-1.58h5.01v-1.84c0-1.32-.25-2.2-.74-2.64-.5-.45-1.64-.67-3.42-.67-1.9,0-3.99.22-6.26.68l-.9-5.34c2.51-.78,5.28-1.18,8.32-1.18,3.95,0,6.59.67,7.92,2.01,1.34,1.34,2,3.74,2,7.2v15.4h0ZM168.85,127.28l-5.58-14.07-.53,18.33h-6.91l1.33-32.98h7.21l8.11,20.99,7.26-20.99h7.16l1.33,32.98h-6.91l-.47-18.32-5.57,14.06h-6.43Z"/><path class="cls-9" d="M445.68,155.56c-.2-2.67-.12-5.36.12-8.03.05-.56.11-1.12.17-1.68.07-.88.1-2.23.48-2.36.34-.09.35.45.37.54.03.45.05.9.05,1.35.02,2.44-.3,4.86-.58,7.28-.11.98-.23,1.97-.34,2.95-.06.26-.18.4-.28-.04h0ZM445.84,156.39h0c0,.05-.02.11-.03.16h-.04v-.02s.04,0,.05-.03c.01-.06.03-.12.04-.19v.08h-.02ZM453.39,173.27c1.11-.85,1.35-1.07,2.06-2.11.57-.84.43-1.22.07-1.32-.24-.17-.5.16-.76.44-1.17,1.25-1.6,1.6-2.75,2.24-1.62.9-3.67.97-4.72-.78-1.09-1.8-1.05-4.22-.96-6.24.05-1.28.18-2.56.32-3.84.02-.07.03-.14.03-.23.13-1.17.28-2.33.42-3.5.28-2.49.57-4.97.85-7.46.27-2.43.48-4.9.2-7.34-.11-.9-.31-2.08-1.33-2.38-.75-.23-1.21.36-1.45.98-.51,1.28-.62,2.74-.77,4.1-.55,5.05-.67,10.22.56,15.17.04.4.07.8.07,1.21v.02c-.19,1.68-.34,3.36-.29,5.05.06,2,.32,4.25,1.65,5.84,1.49,1.77,3.95,1.72,5.88.73.33-.17.64-.37.94-.59h-.02ZM427.08,176.39s-.02.08-.03.12c-.05.17-.1.34-.15.51-.04.09-.08.18-.12.27-.12.24-.31.67-.64.49-.11-.06-.2-.17-.26-.3-.02-.07-.04-.14-.06-.21-.3-1.22-.27-2.72-.2-3.91.1-1.97.6-3.92,1.29-5.76.25-.67.53-1.32.85-1.95.08-.1.17-.17.27-.13.01,0,.03,0,.04.02.03.04.04.09.05.15v.57c-.13,3.37-.31,6.83-1.05,10.12h.01ZM424.93,158.66v.05c-.02.16-.06.31-.1.47-.04.09-.08.19-.11.29-.32.64-.65,1.29-.97,1.93-.19.4-.39.81-.58,1.22-.15.32-.31.82-.63,1.01-.53.32-.36-1.09-.35-1.31.06-.86.26-1.71.57-2.52.24-.63.66-1.73,1.4-1.92.43-.11.68.17.77.52v.25h0ZM435.32,157.81c-.08-.1-.17-.09-.3-.07-.31.05-1.94.58-3.95,1.82-.08.05-.16.1-.23.15-.04.03-.08.05-.11.07h0s-.02.02-.03.03c-.23.15-.52.43-.8.46h-.04c-.11-.03-.19-.08-.25-.19,0-.03-.02-.06-.03-.09,0-.02,0-.03-.01-.05,0-.02-.01-.04-.02-.07v-.03s-.01-.06-.02-.1c-.01-.32-.04-.63-.07-.95-.01-.37-.04-.74-.12-1.1v-.04c0-.07-.02-.14-.04-.2,0-.04,0-.07-.01-.11-.12-.51-.31-1.2-.69-1.64-.04-.07-.1-.12-.16-.17-.11-.12-.25-.19-.39-.21h-.01c-.38-.12-.74,0-1.03.24,0,0-.02,0-.03.02-.04.03-.08.06-.12.09-.2.15-.35.36-.5.53-.04.04-.08.09-.12.13-.24.23-.52.38-.86.36-.07,0-.14-.02-.21-.04-.58-.27-1.26-.25-1.84.07-.8.43-1.29,1.28-1.65,2.08-.42.94-.69,1.91-.82,2.94-.11.85-.23,1.92.27,2.68.56.84,1.72.79,2.42.16.34-.31.55-.71.74-1.11.26-.54.52-1.09.79-1.63.49-1,.99-1.99,1.51-2.98.16-.32.33-.63.5-.94.02-.03.04-.06.05-.09.09-.15.23-.35.44-.35.08,0,.14.04.2.09.05.07.08.15.12.23,0,.02.01.04.02.06.21.92.23,1.9.26,2.82v.46c0,.28-.03.57-.08.85-.04.22-.1.43-.18.64-.05.15-.13.28-.21.42-1.93,2.79-3.09,6.23-3.41,9.56-.17,1.82-.18,3.86.38,5.61.18.56.46,1.2,1.01,1.49.84.43,1.65-.24,2.04-.94.75-1.34.93-3.03,1.14-4.52.28-1.99.45-4,.57-6.01.08-1.41.14-2.82.15-4.24.01-.13.03-.27.06-.4,0-.05.02-.09.03-.13.02-.08.04-.15.07-.22.06-.15.12-.31.19-.45.33-.62.8-1.14,1.3-1.63.5-.5,1.04-.94,1.64-1.3,1.15-.69,2.03-1.09,2.03-1.1.54-.22.58-.75.43-.94l-.02-.02ZM420.36,158.21c-.27-.09-.44.08-.58.25-.66,1.26-2.05,4.17-3.47,5.49-.32.28-.55-.28-.52-.21-.19-.5-.19-.83-.21-1.37-.02-.63,0-1.26.03-1.89.04-1.18.17-2.45-.14-3.6-.28-1.01-1.22-1.85-2.3-1.33-.95.45-1.51,1.61-1.95,2.5-.64,1.27-1.16,2.59-1.74,3.88-.11.23-.21.47-.32.7-.12.14-.28.23-.43-.02-.07-.13-.07-.31-.05-.46h0c0-.37.03-.73.05-1.09.05-.69.12-1.38.2-2.07.02-.15.04-.29.05-.43,0-.05.01-.09.02-.14.01-.08.02-.17.04-.26.06-.37-.09-.74-.48-.85-.33-.09-.79.11-.85.48-.14.94-.25,1.88-.33,2.82-.1,1.19-.29,2.64.12,3.79.2.53.65,1.01,1.27.86.46-.11.78-.53,1.02-.9.71-1.08,1.16-2.35,1.67-3.53.3-.7.61-1.4.95-2.08.14-.28.29-.56.45-.83.08-.14.16-.27.24-.4.04-.06.19-.27.18-.26.08-.1.16-.19.24-.27l.1-.1c.11-.07.22-.1.32-.06,0,0,0,.02.02.03h0s.05.09.08.13v.02s0,.01,0,0c.02.06.04.12.06.19.14.49.14.94.14,1.55,0,.69-.03,1.38-.06,2.06-.04,1.17-.16,2.55.39,3.63.27.54.79.92,1.4.96.86.05,1.51-.59,1.99-1.22,1.21-1.59,1.82-3.25,2.57-5.08.09-.22.19-.66-.2-.9h.03ZM399.47,154.61c.1.15.24.28.41.32.12.03.26.04.38,0,.11-.04.22-.09.31-.18.02-.02.04-.04.06-.07.06-.07.1-.15.12-.24.02-.07.03-.13.03-.2,0-.19-.07-.36-.21-.5-.05-.04-.09-.08-.14-.11-.05-.02-.11-.04-.16-.07-.06,0-.12-.02-.19-.03-.06,0-.13,0-.19.03-.09.02-.17.06-.23.12-.08.05-.13.11-.18.2-.05.08-.08.16-.08.24v.03c-.01.05-.01.11,0,.17,0,.1.03.19.09.27l-.02.02ZM405.91,158.65c-.08-.04-.31-.05-.42.12-.04.04-.26.42-.28.46-.97,1.66-2.04,3.67-2.97,4.7-.15.17-.4.41-.79.41-.68-.05-1.15-2.53-1.2-3.45-.03-1.23.09-2.45.27-3.67h0v-.03c.03-.17-.04-.79-.65-.82-.34,0-.57.3-.73.76-.16.47-.35,2.84-.27,4.27,0,.09.02.18.03.26.17,2.31.83,3.15.87,3.22.49.88,1.56,1.25,2.42.66.83-.57,1.5-1.52,2-2.37.67-1.14,1.23-2.26,1.77-3.47.02-.04.03-.08.04-.11.3-.73-.09-.93-.1-.94h.01ZM386.01,153.3c-.19.03-.12-.58-.13-.74v-.23s0-.36.01-.46v-.03c.06-1.11.14-2.21.27-3.31.08-.69.17-1.38.3-2.07.2-1.29.51-1.88.57-2.02.03-.08.07-.16.12-.23.02-.03.04-.05.07-.08.06-.02.12,0,.14.09h0v.03c.02.09.03.19.04.28.02.25.03.51.04.76,0,.07-.01.14,0,.2-.04.55-.08,1.1-.15,1.64-.21,1.92-1,5.49-1.04,5.66-.04.18-.13.48-.25.48v.03ZM397.45,158.48c0-.08-.04-.15-.1-.2-.24-.2-.42-.05-.52.09-.13.16-1.93,3.98-3.78,4.49h-.01s-.29.08-.41,0c-.11-.04-.32-.16-.38-.64-.07-.43-.06-1.13-.09-1.65-.04-.8-.1-1.6-.23-2.4-.1-.59-.24-1.28-.68-1.71-.52-.51-1.24-.39-1.74.07-.65.58-.97,1.65-1.21,2.46-.3.96-.48,1.96-.64,2.95-.03.18-.33,1.86-.35,1.91-.07.2-.15.41-.32.5h-.1c-.07-.04-.13-.08-.19-.13-.14-.2-.2-.46-.25-.72-.02-.09-.04-.19-.05-.28-.03-.33-.06-.65-.08-.97-.06-.75-.08-1.49-.12-2.24,0-.16,0-.31.01-.47v-.17c.02-.12.03-.25.04-.38.02-.15.03-.3.04-.45l.09-.66c.05-.23.1-.46.15-.69.96-3.11,1.72-6.29,2.13-9.53.15-1.14.25-2.3.24-3.46,0-.64,0-1.34-.2-1.95-.08-.27-.22-.55-.47-.7-.89-.52-1.71.38-2.05,1.11-.59,1.25-.88,2.62-1.1,3.97-.52,3.24-.65,6.54-.6,9.82.03,1.83.12,3.66.32,5.48.23,2.5.64,5.14,1.29,6.46.19.42.61.71,1.13.62.76-.15.87-.82.97-1.47.13-.84.26-1.68.39-2.51h0c.02-.13.46-2.91.5-3.12.39-2.22.77-3.05.83-3.16.02-.04.04-.07.06-.11.11-.18.26-.36.43-.33.13.03.24.23.29.65.09.8.12,1.6.16,2.41.03.67.04,1.35.32,1.96.37.81,1.21,1.21,2.07.94,1-.32,1.8-1.24,2.39-2.05.71-1,1.37-2.1,1.81-3.24.02-.07.04-.12.04-.18.04-.12.03-.23,0-.32h-.03ZM382.9,158.38v-.02s-.05-.06-.07-.09h0s-.05-.04-.07-.06h-.04c-.25-.16-.49.2-.62.44,0,0,0,.02-.02.03-1.29,3.06-5.1,7.31-7.59,5.37-1.02-1.08-.96-2.92-.47-4.21.27-.7.9-1.42,1.64-1.73.94-.44,2.01.14,2.2.28h0s.32.26.62-.05c.08-.06.36-.59-.05-.93-1.45-1.28-3.6-.93-4.83.48-1.23,1.42-1.66,3.72-1.07,5.49.28.86.79,1.65,1.58,2.12.78.47,1.7.52,2.57.32,1.36-.33,2.53-1.14,3.5-2.14.01-.02.95-.89,1.73-2.3.11-.16.24-.38.33-.57.02-.03.04-.06.05-.09.28-.49.49-1.03.62-1.59.06-.25.1-.52-.02-.73v-.02ZM364.79,154.61c.1.15.24.28.41.32.12.03.26.04.38,0,.11-.04.22-.09.31-.18.02-.02.04-.04.06-.07.06-.07.1-.15.12-.24.02-.07.03-.13.03-.2,0-.19-.07-.36-.21-.5-.05-.04-.09-.08-.14-.11-.05-.02-.11-.04-.16-.07-.06,0-.12-.02-.19-.03-.06,0-.13,0-.19.03-.09.02-.17.06-.23.12-.08.05-.13.11-.18.2-.05.08-.08.16-.08.24v.03c-.01.05-.01.11,0,.17,0,.1.04.19.09.27l-.02.02ZM371.23,158.65c-.07-.04-.31-.05-.42.12-.04.04-.26.42-.28.46-.97,1.66-2.04,3.67-2.97,4.7-.15.17-.4.41-.79.41-.68-.05-1.15-2.53-1.2-3.45-.03-1.23.09-2.45.27-3.67h0v-.03c.03-.17-.05-.79-.65-.82-.34,0-.57.3-.73.76-.16.47-.35,2.84-.27,4.27,0,.09.02.18.03.26.17,2.31.83,3.15.87,3.22.49.88,1.56,1.25,2.42.66.83-.57,1.5-1.52,2-2.37.67-1.14,1.23-2.26,1.77-3.47.02-.04.03-.08.04-.11.3-.73-.09-.93-.1-.94h.01ZM362.74,158.56h0s0,0-.02,0c-.24-.21-.63.03-1.02.27-.09.05-.16.1-.2.12-.62.35-1.11.67-2.05.31-.51-.22-.82-.84-1.05-1.3-.29-.59-.54-1.25-1.03-1.72-.55-.52-1.26-.59-1.97-.45-1.31.26-2.32,1.33-3.04,2.39-.19.28-.36.57-.52.86-.02.02-.14.22-.18-.04-.05-.22-.15-1.32-.16-1.37,0-.16-.06-.62-.27-.72-.04-.02-.08-.04-.12-.04h-.06c-.34,0-.69.23-.72.67-.1,1.31-.17,2.62-.21,3.93-.03.83-.06,1.68,0,2.51.04.66.09,1.46.9,1.56.66,0,.68-1.24.76-1.64.07-.6.18-1.2.35-1.79.08-.3.18-.6.28-.9.05-.12.09-.23.13-.35.01-.03.02-.05.02-.06,0,0,.01-.02.04-.07.03-.07.06-.13.08-.2v-.02c.03-.06.05-.12.09-.19.18-.39.38-.76.61-1.12.55-.88,1.36-1.91,2.46-2.07.51-.08.69.17.93.62.33.59.56,1.24.96,1.79.57.77,1.4,1.29,2.39,1.19.23-.03.45-.08.67-.16.41-.19.79-.46,1.13-.76.12-.11.27-.24.42-.39.01,0,.03-.03.04-.04h.01c.09-.08.18-.18.25-.27.03-.04.07-.08.1-.12h0s0-.02.01-.03c.07-.11.08-.24,0-.36v-.03ZM348.63,158.21c-.27-.09-.44.08-.58.25-.66,1.26-2.05,4.17-3.47,5.49-.32.28-.55-.28-.52-.21-.19-.5-.19-.83-.21-1.37-.02-.63,0-1.26.03-1.89.05-1.18.17-2.45-.14-3.6-.27-1.01-1.22-1.85-2.3-1.33-.95.45-1.51,1.61-1.95,2.5-.64,1.27-1.16,2.59-1.74,3.88-.11.23-.21.47-.32.7-.12.14-.28.23-.43-.02-.07-.13-.07-.31-.05-.46h0c0-.37.03-.73.05-1.09.05-.69.12-1.38.2-2.07.02-.15.04-.29.05-.43,0-.05.01-.09.02-.14.01-.08.02-.17.04-.26.06-.37-.09-.74-.48-.85-.33-.09-.79.11-.85.48-.14.94-.25,1.88-.33,2.82-.1,1.19-.29,2.64.12,3.79.2.53.65,1.01,1.27.86.46-.11.78-.53,1.02-.9.71-1.08,1.16-2.35,1.67-3.53.3-.7.61-1.4.95-2.08.14-.28.29-.56.45-.83.08-.14.16-.27.24-.4.04-.06.19-.27.18-.26.08-.1.15-.19.24-.27l.1-.1c.11-.07.22-.1.32-.06,0,0,0,.02.02.03h0s.05.09.08.13v.02s0,.01,0,0c.02.06.04.12.06.19.14.49.14.94.14,1.55,0,.69-.04,1.38-.06,2.06-.04,1.17-.16,2.55.39,3.63.27.54.79.92,1.4.96.86.05,1.51-.59,1.99-1.22,1.21-1.59,1.82-3.25,2.57-5.08.09-.22.19-.66-.2-.9h.03ZM324.83,160.09h.09c-.29.18-.75.26-1,.31-.05,0-.1,0-.15.02.35-.17.71-.31,1.05-.32h.01ZM334.06,158.49c-.11.02-.23.09-.34.15-.17.16-.31.35-.43.55-2.73,4.43-5.42,6.73-5.57,6.86-1.23,1.08-2.7,1.97-4.36,1.9-.89-.04-1.85-.31-2.47-.98-.62-.68-.67-1.61-.44-2.47.13-.49.33-.96.58-1.4h0c.14-.23.29-.46.48-.65.14-.14.3-.27.49-.37.15-.08.32-.15.48-.19.09-.02.18-.03.27-.04.05,0,.1,0,.16-.02,1.26.07,3.13-.19,3.57-1.49.19-.56-.13-1.12-.62-1.4s-1.09-.25-1.62-.14c-.71.15-1.38.48-1.99.91-.12.07-.25.14-.37.22-.31.13-.63.17-.96.06h-.01c-1.06-.41-2.01-1.06-2.77-1.92-1.06-1.2-1.34-2.65-1.26-4.21.08-1.57.48-3.17,1.15-4.58.67-1.41,1.63-2.62,2.74-3.71,1.24-1.22,2.67-2.22,4.31-2.83,1.65-.61,3.56-.92,5.28-.43,1.59.45,2.82,1.68,2.92,3.38.01.29,0,.58-.02.87-.74,4.98-5.19,5.88-5.83,6.08,0,0-.92.08-.89.82-.01.05.13.5.68.45,3.32-.33,6.26-2.73,7.18-5.96.52-1.84.34-3.9-.97-5.36-1.28-1.43-3.27-1.96-5.14-1.9-3.83.13-7.23,2.25-9.64,5.12-2.21,2.62-3.52,6.31-3.07,9.76.31,2.44,2.04,4.36,4.19,5.4,0,0,.32.17.39.53.03.22-.01.47-.13.65h0c-.76,1.26-1.3,2.77-.94,4.23.65,2.65,3.97,3.43,6.28,2.7,2.41-.77,4.31-2.76,5.82-4.7,1.17-1.5,2.22-3.11,3.1-4.79.05-.09.1-.18.14-.27.15-.29.08-.57-.09-.77-.08-.02-.16-.04-.24-.06h-.04Z"/><path class="cls-9" d="M489.03,167.95h-.01s-.05,0-.06,0c-.05-.02-.04-.08-.02-.15.09-.17.21-.32.32-.48.1-.14.2-.27.3-.41.01,0,.03,0,.04.02,0,0,0,0,.01.02-.08.36-.27.7-.58.99h0ZM493.72,158.77c-.24.53-1.27,2.37-3.31,4.86-.03.03-.05.05-.08.07-.01,0-.03.02-.05.02-.08,0-.15-.02-.21-.07-.81-1.23-1.45-1.69-2.06-3-.43-.92-.31-2.28.56-2.93.14-.1.27-.17.41-.16.8-.12.84.97.65,1.73-.04.25.03.45.2.61.03,0,.06.02.08.03.38.08.67-.16.81-.49.4-.96.25-2.16-.59-2.84-.77-.63-1.75-.51-2.49.09-.81.65-1.2,1.66-1.26,2.66-.08,1.28.55,2.33,1.27,3.33.53.74.68.82,1.18,1.6.1.16.21.31.25.51.03.11.03.22,0,.33-.01.05-.03.1-.05.15,0,0-.01.03-.02.05-.23.3-.47.59-.69.9-.51.7-1.14,1.53-.88,2.46.33,1.14,1.64,1.02,2.37.4.78-.65,1.25-1.64,1.22-2.65,0-.07.01-.14.01-.2,0-.24-.02-.48-.01-.72,0-.29-.03-.47.21-.75,1.2-1.53,2.28-3.2,3.31-5.44.25-.82-.62-1.12-.86-.56h.03ZM476.28,159.42c.1-.34.29-.66.5-.88.24-.32.55-.57.91-.72.52-.16,1.13-.06,1.3.54.21.71-.3,1.26-.81,1.66-.32.26-1.41.97-1.85.5-.29-.28-.13-.94-.05-1.11h0ZM485.01,157.9s-.02,0-.04,0c-.2,0-.39,0-.59.34-.46.98-1.12,2.17-2.2,3.6-.43.47-2.76,2.93-4.77,1.69-.14-.1-.28-.2-.41-.33-.21-.2-.43-.43-.51-.7-.02-.08-.03-.16-.03-.24v-.07s.02-.04.03-.05h0s.01-.03.02-.05c.04-.05.09-.09.15-.12.03,0,.06,0,.09-.02.02,0,.04,0,.07,0,.5.04,1.02-.09,1.51-.36.79-.42,1.61-1.16,1.92-2.02.36-1.02.04-2.28-.92-2.86-.29-.17-.6-.27-.92-.31-.2-.04-.4-.05-.6-.02-.1,0-.21.03-.32.07-.19.03-.38.1-.56.19-.31.14-.61.33-.86.57h0c-.18.16-.35.35-.5.55-.12.15-.24.3-.34.47-.21.33-.38.69-.5,1.06-.42,1.12-.43,2.39.03,3.5.07.16.2.46.31.59.13.2.28.4.46.58.73.75,1.6,1.13,2.65,1.23,1,.1,2.02-.2,2.86-.74,2.05-1.3,3.32-3.64,4.15-5.86.22-.58-.19-.68-.21-.69l.03.02ZM473.55,158.94s-.02-.07-.03-.11c-.08-.15-.33-.4-.71-.22-.08.02-.59.34-1.65.58-.36.05-1.74.3-2.04-1.43-.22-.79-.47-1.66-1.41-1.34-.56.19-.79.78-1.01,1.28-.25.58-.46,1.18-.64,1.78-.36,1.17-.62,2.38-.96,3.56-.03.1-.06.2-.09.29,0,.02-.01.04-.02.06-.08.21-.2.46-.43.53-.27.09-.48-.06-.64-.25-.12-.2-.23-.41-.35-.63-.12-.21-.22-.43-.32-.65-1.72-3.99-2-5.85-2.21-6.54-.03-.07-.07-.14-.11-.2-.07-.1-.16-.14-.26-.15-.02,0-.05,0-.07,0t0,0c-.26.07-.47.29-.47.64,0,1.08.28,2.18.56,3.22.35,1.25.79,2.49,1.34,3.68.39.86.86,1.83,1.6,2.44.4.33.87.51,1.38.34.87-.29,1.11-1.31,1.35-2.08.2-.65.37-1.32.54-1.98,0-.02.01-.05.02-.07.09-.33.18-.66.28-.99s.21-.66.37-.97c.07-.14.14-.28.23-.4.1-.12.18-.19.3-.17.25.06.4.8,1.35,1.29.59.25,1.32.15,1.91-.04.58-.17,1.71-.76,1.71-.76,0,0,.57-.33.52-.69l-.04-.03ZM452.18,154.61c.1.15.24.28.41.32.12.03.26.04.38,0,.11-.04.22-.09.31-.18.02-.02.04-.04.06-.07.06-.07.1-.15.12-.24.02-.07.03-.13.03-.19,0-.19-.07-.36-.21-.5-.05-.04-.09-.08-.14-.11-.05-.02-.11-.04-.16-.07-.06,0-.12-.02-.19-.03-.06,0-.13,0-.19.03-.09.02-.17.06-.24.12-.08.05-.13.11-.18.2-.05.08-.08.15-.08.24v.03c-.01.05-.01.11,0,.17,0,.1.04.19.09.27h-.01ZM458.62,158.65c-.08-.04-.31-.05-.42.11-.04.04-.26.42-.28.47-.97,1.66-2.04,3.67-2.97,4.7-.16.17-.4.41-.79.41-.68-.04-1.15-2.53-1.2-3.45-.03-1.23.09-2.45.28-3.67h0v-.03c.03-.17-.04-.79-.65-.82-.34,0-.57.3-.73.76-.16.46-.36,2.84-.27,4.27,0,.09.02.18.03.27.17,2.31.83,3.15.87,3.21.49.88,1.56,1.25,2.42.66.83-.57,1.5-1.52,2-2.37.67-1.14,1.23-2.26,1.76-3.47.02-.04.03-.07.04-.11.3-.73-.09-.93-.1-.94h.01Z"/><path class="cls-9" d="M135.39,27.9c.11-.84.22-1.68.32-2.52.13-1.02.29-2.04.29-3.01.02-.98-.08-1.86-.29-2.75-.22-.88-.55-1.74-.99-2.53-.89-1.58-2.21-2.87-3.72-3.69-1.41-.76-2.08-1.12-3.7-1.09.2.89-.07,1.69-.09,2.67,0,.97-.16,1.99-.29,3.01-.11.83-.22,1.67-.32,2.51-.58,4.8-1.2,9.73-1.82,14.49-1.45,10.65-3.56,21.66-4.59,31.96-.88,5.16-8.5,45.23-8.43,45.21-8.04,21.18-73.19,3.5-94.77.77-1.6-.21-3.21-.41-4.83-.62l-3.14-.41c-.47-.06-.94-.12-1.41-.19.13.57.32,1.14.57,1.69,1.04,2.41,3.18,4.3,5.57,5.07,1.22.45,2.66.62,4.06.81,13.41,1.77,26.11,5.24,39.32,7.17,14.8,3.99,56.82,10.47,63.42-6.91-.07.02,11.49-65.94,13.02-77.17.63-4.76,1.25-9.68,1.82-14.49"/><polygon class="cls-8" points="20.53 45.03 47.61 7.72 102.54 14.63 112.99 45.99 100.77 102.27 64.27 110.47 24.07 104.91 13.94 64 20.53 45.03"/><path class="cls-9" d="M40.52,91.23c3.03,1.27,6.05,2.54,9.23,3.19h0c17.35,3.83,22.62-1.84,31.02-10.89,2.08-2.24,4.35-4.69,7.05-7.25h0s.08-.04.13-.02c.06.02.09.1.06.15-1.2,2.92-2.69,5.66-4.34,8.21s-3.45,4.9-5.26,7.03c-1.88,2.21-3.86,3.94-5.94,5.32h0c-2.08,1.38-4.25,2.39-6.48,3.15-4.82,1.66-10.29,1.18-15.55-.66-5.87-2.06-11.47-5.82-15.56-10.21h0s-.04-.08-.03-.12c.02-.06.09-.1.15-.07,1.88.64,3.7,1.41,5.52,2.17M52.27,47.27c-2.81-3.12-4.75-7.51-5.44-11.57h0c-1.87-9.8-1.44-16.25.46-20.02,1.17-2.31,2.88-3.61,4.96-4.06,2.07-.44,4.49-.03,7.07,1.09,6.44,2.79,13.93,9.96,19.5,19.17,3.69,4.15,8.3,7.78,13.98,10.04,4.77,1.91,10.29,2.85,16.66,2.34.12-.02.22-.03.31-.03h.01c.07,0,.12.05.12.12,0,.06-.05.11-.11.12l-.33.03c-.57.08-1.48.34-2.58.65-1.92.54-4.43,1.25-6.86,1.51h-.01c-3.07.08-5.99-.39-8.77-1.31-2.66-.87-5.19-2.15-7.61-3.73,2.58,6.67,3.95,13.88,3.31,20.96-.57,6.29-2.74,12.49-7.05,18.15h0c-2.41,2.73-4.57,3.95-6.12,4.82-.8.45-1.43.81-1.83,1.22l-.2.23s-.12.06-.17.01c-.05-.04-.06-.11-.02-.16.06-.09.13-.17.21-.25,3.54-4.17,6.09-8.19,7.82-12.03,3.93-8.72,3.63-16.55,1.1-23.27-2.53-6.73-7.31-12.35-12.34-16.65-4.52-3.87-9.25-6.68-12.74-8.26-.22.31-.37.54-.5.79-.14.26-.25.54-.39.94-.87,5.68-.87,11.7.89,15.81.57,1.32,1.32,2.45,2.29,3.29.96.84,2.14,1.41,3.56,1.63,2.04.31,4.58-.09,7.72-1.44h0s.1,0,.13.03c.04.05.04.12,0,.17-2.43,2.19-4.78,3.36-6.98,3.73-1.96.34-3.81.05-5.49-.69-1.68-.74-3.21-1.93-4.54-3.41l-.02.03ZM48.5,101.33c1.86.54,3.67.96,4.92,1.02h0l8.51,1.55s.09.05.1.1c0,.07-.03.13-.1.14-3.1.56-6.22.78-9.25.77s-5.98-.26-8.76-.64c-2.88-.39-5.41-1.13-7.69-2.14s-4.3-2.29-6.15-3.76c-3.99-3.16-6.54-8.03-7.83-13.45-1.44-6.05-1.29-12.8.21-18.62,0-.04.04-.08.09-.09.06-.01.13.02.14.09.47,1.92.81,3.88,1.15,5.82.56,3.24,1.12,6.47,2.29,9.5,1.64,4.27,3.48,7.7,5.96,10.52,2.48,2.82,5.59,5.02,9.79,6.85,1.46.64,4.08,1.6,6.6,2.34h.01ZM123.01,19.72c.1-.81.21-1.62.31-2.43.13-.98.28-1.97.28-2.9.02-.95-.08-1.79-.28-2.65-.21-.85-.53-1.68-.96-2.44-.85-1.52-2.13-2.77-3.58-3.56C114.77,3.6,35.01-.1,23.79.02c-2.23-.16-4.5.47-6.27,1.92-3.82,3.08-4.99,13.3-6.02,17.78-2.2,10-3.49,27.23-4.91,37.7-.49,6.46-8.25,40.26-6.27,44.76,1,2.33,3.07,4.14,5.37,4.89,1.18.44,2.56.6,3.92.78l3.03.4c1.56.2,3.11.4,4.65.6,20.81,2.63,83.64,19.68,91.39-.75-.07.02,7.28-38.62,8.13-43.6.99-9.93,3.02-20.55,4.43-30.83.6-4.59,1.2-9.34,1.76-13.97v.02Z"/><path class="cls-5" d="M59.43,82.33c-.4.69-4.14,2.16-4.85,2.41-4.99,1.75-11.79,1.91-15.28-1.86-4.23-4.56-.33-9.82,6.27-11.23l1.77-.37-.6-2.76c-.44-2.18-.28-4.7.31-6.43.33-.96.79-1.7,1.34-2.39,1.36-1.7,3.83-2.47,5.95-2.01,1.08.23,2.11.67,2.83,1.17,4.9,3.45,5.49,10.25,4.51,15.8-.32,1.83-1.43,6.24-2.25,7.66"/><path class="cls-6" d="M59.36,82.32c-.32.56-3.37,1.76-3.95,1.96-4.06,1.43-9.59,1.55-12.44-1.51-3.45-3.71-.27-7.99,5.1-9.14l1.44-.3-.49-2.24c-.36-1.77-.23-3.83.25-5.23.27-.78.65-1.38,1.09-1.94,1.11-1.38,3.12-2.01,4.84-1.64.88.19,1.72.54,2.3.95,3.99,2.81,4.47,8.35,3.68,12.86-.26,1.49-1.17,5.08-1.83,6.23"/><path class="cls-3" d="M59.32,82.23c-.26.46-2.74,1.43-3.21,1.6-3.3,1.16-7.8,1.26-10.12-1.23-2.8-3.02-.22-6.5,4.15-7.43l1.17-.24-.4-1.83c-.29-1.44-.19-3.11.21-4.26.22-.64.52-1.12.89-1.58.9-1.13,2.54-1.63,3.94-1.33.72.15,1.4.44,1.87.77,3.24,2.29,3.64,6.79,2.99,10.46-.21,1.21-.95,4.14-1.49,5.07"/><path class="cls-4" d="M59.32,82.23c-.21.37-2.21,1.15-2.6,1.29-2.67.94-6.3,1.02-8.17-.99-2.26-2.44-.18-5.25,3.35-6.01l.95-.2-.32-1.47c-.24-1.16-.15-2.51.17-3.44.18-.51.42-.91.72-1.28.73-.91,2.05-1.32,3.18-1.08.58.12,1.13.36,1.51.63,2.62,1.85,2.94,5.48,2.41,8.45-.17.98-.77,3.34-1.2,4.1"/><path class="cls-7" d="M59.35,82.25c-.15.26-1.57.82-1.85.92-1.9.67-4.49.73-5.81-.71-1.61-1.74-.13-3.74,2.38-4.27l.67-.14-.23-1.05c-.17-.83-.11-1.79.12-2.45.13-.37.3-.65.51-.91.52-.65,1.46-.94,2.26-.77.41.09.8.25,1.08.45,1.86,1.31,2.09,3.9,1.72,6.01-.12.7-.55,2.38-.86,2.91"/><path class="cls-3" d="M68.07,74.93v.02c.47-.1,1.51-.63,1.96-.89,1.48-.85,2.34-1.86,3.21-3.44.49-.89.77-1.83,1.17-2.75,0,1.84-.91,4.37-2.51,5.75-.7.6-1.48,1.09-2.41,1.38-.9.27-1.9.48-2.83.44,0,0,1.41-.51,1.41-.51Z"/><path class="cls-3" d="M67.05,74.13v.02c.4-.24,1.15-1.06,1.46-1.44,1.02-1.26,1.39-2.47,1.54-4.21.08-.99-.06-1.95-.07-2.93.77,1.71,1,4.36.1,6.14-.4.78-.91,1.48-1.67,2.04-.73.54-1.57,1.04-2.45,1.3l1.1-.92h-.01Z"/><path class="cls-5" d="M59.43,82.33c-.4.69-4.14,2.16-4.85,2.41-4.99,1.75-11.79,1.91-15.28-1.86-4.23-4.56-.33-9.82,6.27-11.23l1.77-.37-.6-2.76c-.44-2.18-.28-4.7.31-6.43.33-.96.79-1.7,1.34-2.39,1.36-1.7,3.83-2.47,5.95-2.01,1.08.23,2.11.67,2.83,1.17,4.9,3.45,5.49,10.25,4.51,15.8-.32,1.83-1.43,6.24-2.25,7.66"/><path class="cls-1" d="M59.17,82.72c7.67-12.61,9.03-5.57,6.06-1.62-3.22,4.19-7.74,7.94-13.71,8.61,2.9-1.68,5.65-4.34,7.65-6.99"/><path class="cls-6" d="M59.36,82.32c-.32.56-3.37,1.76-3.95,1.96-4.06,1.43-9.59,1.55-12.44-1.51-3.45-3.71-.27-7.99,5.1-9.14l1.44-.3-.49-2.24c-.36-1.77-.23-3.83.25-5.23.27-.78.65-1.38,1.09-1.94,1.11-1.38,3.12-2.01,4.84-1.64.88.19,1.72.54,2.3.95,3.99,2.81,4.47,8.35,3.68,12.86-.26,1.49-1.17,5.08-1.83,6.23"/><path class="cls-3" d="M59.32,82.23c-.26.46-2.74,1.43-3.21,1.6-3.3,1.16-7.8,1.26-10.12-1.23-2.8-3.02-.22-6.5,4.15-7.43l1.17-.24-.4-1.83c-.29-1.44-.19-3.11.21-4.26.22-.64.52-1.12.89-1.58.9-1.13,2.54-1.63,3.94-1.33.72.15,1.4.44,1.87.77,3.24,2.29,3.64,6.79,2.99,10.46-.21,1.21-.95,4.14-1.49,5.07"/><path class="cls-4" d="M59.32,82.23c-.21.37-2.21,1.15-2.6,1.29-2.67.94-6.3,1.02-8.17-.99-2.26-2.44-.18-5.25,3.35-6.01l.95-.2-.32-1.47c-.24-1.16-.15-2.51.17-3.44.18-.51.42-.91.72-1.28.73-.91,2.05-1.32,3.18-1.08.58.12,1.13.36,1.51.63,2.62,1.85,2.94,5.48,2.41,8.45-.17.98-.77,3.34-1.2,4.1"/><path class="cls-2" d="M59.35,82.25c-.15.26-1.57.82-1.85.92-1.9.67-4.49.73-5.81-.71-1.61-1.74-.13-3.74,2.38-4.27l.67-.14-.23-1.05c-.17-.83-.11-1.79.12-2.45.13-.37.3-.65.51-.91.52-.65,1.46-.94,2.26-.77.41.09.8.25,1.08.45,1.86,1.31,2.09,3.9,1.72,6.01-.12.7-.55,2.38-.86,2.91"/></g></g></svg>