<?xml version="1.0" encoding="UTF-8"?>
<svg id="Layer_2" xmlns="http://www.w3.org/2000/svg" xmlns:xlink="http://www.w3.org/1999/xlink" viewBox="0 0 571 537.09">
  <defs>
    <style>
      .cls-1 {
        fill: #ec7080;
      }

      .cls-2 {
        fill: #d82859;
      }

      .cls-3 {
        fill: #343876;
      }

      .cls-4 {
        fill: #465088;
      }

      .cls-5 {
        fill: #f67243;
      }

      .cls-6 {
        fill: url(#linear-gradient-8);
      }

      .cls-7 {
        fill: url(#linear-gradient-7);
      }

      .cls-8 {
        fill: url(#linear-gradient-5);
      }

      .cls-9 {
        fill: url(#linear-gradient-6);
      }

      .cls-10 {
        fill: url(#linear-gradient-9);
      }

      .cls-11 {
        fill: url(#linear-gradient-4);
      }

      .cls-12 {
        fill: url(#linear-gradient-3);
      }

      .cls-13 {
        fill: url(#linear-gradient-2);
      }

      .cls-14 {
        fill: #084167;
      }

      .cls-15 {
        fill: #a37eac;
      }

      .cls-16 {
        fill: #fae0c3;
      }

      .cls-17 {
        fill: #2e2b5a;
      }

      .cls-18 {
        fill: #b62e4c;
      }

      .cls-19 {
        fill: url(#linear-gradient);
      }

      .cls-20 {
        fill: #8f2744;
      }

      .cls-21 {
        fill: #1b5c8c;
      }

      .cls-22 {
        fill: #e94764;
      }

      .cls-23 {
        fill: #fabd72;
      }

      .cls-24 {
        fill: #7073b0;
      }

      .cls-25 {
        fill: #fac4a8;
      }

      .cls-26 {
        fill: #e2e186;
      }

      .cls-27 {
        fill: #9dcc8b;
      }

      .cls-28 {
        fill: #59b19f;
      }

      .cls-29 {
        fill: #111034;
      }

      .cls-30 {
        fill: #058369;
      }

      .cls-31 {
        fill: #ec8d85;
      }

      .cls-32 {
        fill: #0a4e5a;
      }

      .cls-33 {
        fill: #84ce94;
      }

      .cls-34 {
        fill: #f19e85;
      }

      .cls-35 {
        fill: url(#linear-gradient-10);
      }

      .cls-36 {
        fill: url(#linear-gradient-11);
      }

      .cls-37 {
        fill: #0a5557;
      }

      .cls-38 {
        fill: #69c5b9;
      }

      .cls-39 {
        fill: #257e7a;
      }

      .cls-40 {
        fill: #010318;
      }

      .cls-41 {
        fill: #0b7278;
      }

      .cls-42 {
        fill: #1b1c43;
      }

      .cls-43 {
        fill: #fefcfc;
      }

      .cls-44 {
        fill: #1875aa;
      }

      .cls-45 {
        fill: #340931;
      }

      .cls-46 {
        fill: #54a182;
      }

      .cls-47 {
        fill: #facc6f;
      }
    </style>
    <linearGradient id="linear-gradient" x1="530.86" y1="165.82" x2="535.56" y2="163.57" gradientTransform="translate(-15.8 519.13) scale(.98 -.98)" gradientUnits="userSpaceOnUse">
      <stop offset="0" stop-color="#16213b"/>
      <stop offset="1" stop-color="#07276c"/>
    </linearGradient>
    <linearGradient id="linear-gradient-2" x1="540.46" y1="206.72" x2="557.91" y2="214.69" gradientTransform="translate(-15.8 519.13) scale(.98 -.98)" gradientUnits="userSpaceOnUse">
      <stop offset="0" stop-color="#454891"/>
      <stop offset="1" stop-color="#686eb3"/>
    </linearGradient>
    <linearGradient id="linear-gradient-3" x1="575.94" y1="188.59" x2="571.42" y2="207.01" gradientTransform="translate(-15.8 519.13) scale(.98 -.98)" gradientUnits="userSpaceOnUse">
      <stop offset="0" stop-color="#424288"/>
      <stop offset="1" stop-color="#6b73b5"/>
    </linearGradient>
    <linearGradient id="linear-gradient-4" x1="92.62" y1="144.86" x2="58.99" y2="122.24" gradientTransform="translate(-15.8 519.13) scale(.98 -.98)" gradientUnits="userSpaceOnUse">
      <stop offset="0" stop-color="#4f4e8c"/>
      <stop offset="1" stop-color="#6d72b6"/>
    </linearGradient>
    <linearGradient id="linear-gradient-5" x1="126.95" y1="99.26" x2="81.35" y2="115.69" gradientTransform="translate(-15.8 519.13) scale(.98 -.98)" gradientUnits="userSpaceOnUse">
      <stop offset="0" stop-color="#45487b"/>
      <stop offset="1" stop-color="#696aab"/>
    </linearGradient>
    <linearGradient id="linear-gradient-6" x1="116.12" y1="98.77" x2="80.2" y2="127.29" gradientTransform="translate(-15.8 519.13) scale(.98 -.98)" gradientUnits="userSpaceOnUse">
      <stop offset="0" stop-color="#f99d5b"/>
      <stop offset="1" stop-color="#ea8c6b"/>
    </linearGradient>
    <linearGradient id="linear-gradient-7" x1="174.9" y1="67.47" x2="179.52" y2="78.44" gradientTransform="translate(-15.8 519.13) scale(.98 -.98)" gradientUnits="userSpaceOnUse">
      <stop offset="0" stop-color="#29857b"/>
      <stop offset="1" stop-color="#00ffdb"/>
    </linearGradient>
    <linearGradient id="linear-gradient-8" x1="499.7" y1="71.93" x2="508.3" y2="57.72" gradientTransform="translate(-15.8 519.13) scale(.98 -.98)" gradientUnits="userSpaceOnUse">
      <stop offset="0" stop-color="#368579"/>
      <stop offset="1" stop-color="#3f9c8a"/>
    </linearGradient>
    <linearGradient id="linear-gradient-9" x1="211.76" y1="137.33" x2="191.4" y2="152.5" gradientTransform="translate(-15.8 519.13) scale(.98 -.98)" gradientUnits="userSpaceOnUse">
      <stop offset="0" stop-color="#eb9386"/>
      <stop offset="1" stop-color="#ffb49d"/>
    </linearGradient>
    <linearGradient id="linear-gradient-10" x1="373.07" y1="460.79" x2="254.11" y2="396.4" gradientTransform="translate(-15.8 519.13) scale(.98 -.98)" gradientUnits="userSpaceOnUse">
      <stop offset="0" stop-color="#463a6c"/>
      <stop offset="1" stop-color="#67588b"/>
    </linearGradient>
    <linearGradient id="linear-gradient-11" x1="374.12" y1="228.14" x2="389.24" y2="399.44" gradientTransform="translate(-15.8 519.13) scale(.98 -.98)" gradientUnits="userSpaceOnUse">
      <stop offset="0" stop-color="#000120"/>
      <stop offset="1" stop-color="#38345b"/>
    </linearGradient>
  </defs>
  <g id="Layer_1-2" data-name="Layer_1">
    <g>
      <path class="cls-3" d="M524.81,322.04l.52,1.09c.15.41.29.77.36,1.21-2,1.67-2.34,4.34-3.85,6.32-.2.38-1.27,2.73-1.48,2.83-.46-.28-.91-.43-1.42-.61.45-.84,1.03-1.69,1.13-2.66l.89-1.36,2.86-6.37,1-.45Z"/>
      <path class="cls-41" d="M488.15,154.43c.61-.06,1.18-.2,1.77.02l.2.33-.29,20.65-.28,6.25c-.09,1.04-.46,2.95.09,3.88l-.57.67c-.06-1.32.14-1.79-.78-2.79l-.17-.15.44-17.86c.05-3.64.17-7.39-.4-10.99Z"/>
      <path class="cls-23" d="M537.06,422.59c.69-.14,1.61-.24,2.3-.11.97.19,2.1,1.1,2.6,1.94.51.85.64,1.92.42,2.87l-.08.32-.08.31c-.41,1.49-1.59,2.21-2.85,2.95-.67.09-1.4.23-2.06.06-1.25-.33-2.22-1.28-2.79-2.41-.51-1-.73-2.29-.3-3.36.54-1.33,1.59-2,2.85-2.56Z"/>
      <path class="cls-19" d="M518.94,332.87c.5.18.96.33,1.42.61l-.71,1.48c-.73.9-1.52,2.45-1.82,3.58-2.15,5.77-5.36,11.51-8.5,16.79-.91,1.26-1.9,3.05-2.53,4.49l-10.84,17.45-3.81,5.51-1.02,1.13-1.33-1.02,1.1-1.75,2.42-3.61,12.16-18.78,4.72-8.62,8.58-17.17.17-.1Z"/>
      <path class="cls-42" d="M488.86,383.97l.93-1.07,1.33,1.02-.76,1.1-22.11,28.42c-.32.32-.62.57-.83.98l-2.16,2.66c-.97.99-1.91,2.09-3.05,2.89l-4.55,4.77-.26-.54c1.13-2.64,3.18-5.02,4.75-7.43l26.71-32.79Z"/>
      <path class="cls-4" d="M37.66,302.63c2.39-2.27,3.27-5.62,2.82-8.82-.21-1.54-.71-2.88-.09-4.34,2.34,6.38,4.22,13.02,5.21,19.76l1.53,12.73-1.05-.13c-.4-2.6-2.31-5.52-3.43-7.89l-4.99-11.32Z"/>
      <path class="cls-23" d="M67.01,469.74c1.25.11,2.34.27,3.47.84,1.63.82,2.86,2.23,3.37,4,.4,1.37.23,2.96-.47,4.2-1.09,1.93-2.77,2.74-4.8,3.37-1.49.02-2.7-.05-4.03-.79-1.53-.85-2.59-2.23-3.03-3.92-.39-1.51-.26-3.51.6-4.84,1.14-1.76,2.93-2.46,4.89-2.86Z"/>
      <path class="cls-23" d="M28.8,200.11c1.39-.09,2.77-.25,4.07.38,1.43.69,2.55,2.32,3.06,3.79.63,1.81.33,3.53-.52,5.21-.9,1.77-2.34,2.65-4.15,3.28-.79.02-1.59.06-2.37-.12-1.79-.41-3.4-1.52-4.32-3.12-.91-1.59-1.05-3.59-.45-5.31.76-2.15,2.73-3.22,4.67-4.12Z"/>
      <path class="cls-23" d="M402.68,10.81c1.38-.07,2.86-.21,4.18.29,1.69.64,3.11,2.32,3.77,3.97.7,1.76.66,3.72-.15,5.43-1.06,2.24-2.84,3.27-5.05,4.11-1.29.12-2.62.18-3.85-.26-1.73-.62-3.09-1.91-3.81-3.61-.85-2.02-.95-3.92,0-5.94,1.04-2.23,2.68-3.21,4.92-4Z"/>
      <path class="cls-23" d="M522.48,117.44c.98-.04,2.07-.14,3.03.09,2.25.52,3.77,1.74,4.86,3.75.73,1.34.97,3.46.49,4.93l-.11.31-.46,1.21c-1.03,2.15-2.85,3.01-4.99,3.76-1.26.12-2.78.24-3.98-.2-1.71-.63-3.06-1.85-3.8-3.52-.76-1.69-1.01-3.92-.26-5.67l.15-.31c1.06-2.36,2.76-3.4,5.06-4.36Z"/>
      <path class="cls-4" d="M531.45,285.99c.71,2.85.97,6.33,3.73,8.04.57.36,1.32.57,1.96.76l-12.34,27.24-1,.45c1.3-12.65,3.48-24.44,7.64-36.49Z"/>
      <path class="cls-31" d="M73.34,80.53c2.08-.31,3.96-.23,5.87.73,1.88.95,3.44,2.93,4.11,4.9l.13.4c.39,1.15.74,1.97.35,3.16-.25.74-.41,1.47-.73,2.19-1.12,2.48-2.93,3.64-5.42,4.56-1.62.33-3.45.35-5.02-.22-2.2-.8-3.9-2.14-4.86-4.33-.91-2.07-.88-4.65.03-6.72,1.16-2.63,3.02-3.64,5.54-4.68Z"/>
      <path class="cls-42" d="M47.13,321.96v.51c0,.5-.01.74-.19,1.18l4.09,8.78,1.18,2.87.48.55,11.05,20.8,2.95,5.31c.58,1.3,1.27,2.43,2.38,3.34l12.35,18.52,3.15,4.93c.33.33.47.48.92.66,9.1,11.89,18.66,24.34,30.49,33.65l.17.31c.35.62.1.19.51.74.48.63.65,1.37.87,2.12-2.66-1.5-5.12-3.48-7.45-5.45-.92-1.19-2.3-2.2-3.43-3.19l-20.7-23.99-3.34-4.67-16.09-23.66c-.71-1.65-2.08-4.76-3.42-5.9l-8.4-15.15-1.06-2.45c-1.06-3.14-3.1-5.95-4.42-9-.35-.25-.67-1.12-.87-1.51l-2.13-4.31-.56-2.76c.62-.8.43-1.36.43-2.35l1.05.13Z"/>
      <path class="cls-24" d="M548.28,256.88c.3,2.21-.11,4.2-.47,6.37-1.05,6.37-3.05,12.92-5.43,18.91-1.09,2.75-3.01,6.18-3.49,9.07l-1.74,3.56c-.65-.19-1.39-.4-1.96-.76-2.76-1.71-3.02-5.19-3.73-8.04.21-1.42,1.23-3.35,1.78-4.7,3.73-9.09,8.64-16.99,15.05-24.42Z"/>
      <path class="cls-4" d="M509.32,355.33l.38.23,4.02-3.08.33-.22c-.18.59-.22.79-.05,1.36l.19.74c2.12.96,5.21.9,7.54,1.02,8.02.42,15.9.35,23.82-1.1,1.56-.29,4.49-1.93,5.75-1.46-9.95,7.81-20.52,11.63-33.23,10.11l-2.11-.35c-3.15-.59-6.32-1.24-9.19-2.75.62-1.43,1.61-3.23,2.53-4.49Z"/>
      <path class="cls-4" d="M492.15,382.78l10.27,2.07c8.25,1.64,16.71,3.02,25.14,3.08,1.73.01,3.52.09,5.24-.06l6.86-.83c1.17-.2,2.44-.67,3.55-.21-5.06,3.63-11.67,5.88-17.81,6.74-12.05,1.7-25.31-1.22-35.02-8.57l.76-1.1,1.02-1.13Z"/>
      <path class="cls-24" d="M514.06,352.26c1.79-1.41,4.06-2.39,6.18-3.2,6.93-2.63,14.47-3.34,21.82-2.49,3.56.41,7.06.99,10.54,1.87.94.24,2.25.43,3.03.98l-4.3,3.39c-1.27-.47-4.2,1.18-5.75,1.46-7.93,1.46-15.8,1.52-23.82,1.1-2.33-.12-5.42-.06-7.54-1.02l-.19-.74c-.17-.58-.13-.78.05-1.36Z"/>
      <path class="cls-24" d="M20.83,257.67c7.5,7.56,13.77,17.37,17.8,27.2.59,1.45,1.45,3.08,1.76,4.6-.62,1.45-.12,2.8.09,4.34.45,3.2-.43,6.55-2.82,8.82-.42-1.13-.96-2.11-1.73-3.03l-.07-.03c-1.33-1.29-2.26-4.22-3.09-5.94-5.54-11.53-10.4-23.17-11.94-35.96Z"/>
      <path class="cls-25" d="M116.1,44.2c2.22.16,4.54.65,6.36,2.02,2.28,1.73,4.09,4.51,4.45,7.38.31,2.42-.79,5.47-2.23,7.36-2.02,2.65-4.53,3.6-7.7,4.02l-1.9-.15c-2.89-.35-5.43-1.97-7.13-4.31-1.47-2.02-2.16-4.97-1.73-7.43l.08-.41c.27-1.51.7-2.89,1.62-4.14,2-2.73,4.98-3.83,8.2-4.35Z"/>
      <path class="cls-4" d="M54.79,290.48l.46-.72.31.08.5.88,2.79,7.07c.32.9.93,2.34.97,3.29,1.61,6.46.36,13.84-1.19,20.2-1.05,4.32-2.39,8.71-4.7,12.54l-1.25,2.04-.48-.55-1.18-2.87c.11-1.68-.4-3.26-.77-4.88-2.89-12.8-2.67-25.67,4.53-37.08Z"/>
      <path class="cls-24" d="M54.79,290.48l.46-.72.31.08.5.88,2.79,7.07c.32.9.93,2.34.97,3.29-.32.26-.6.46-.77.85-.58,1.33-.61,3.16-.84,4.6-.56,3.53-1.12,7.28-2.18,10.7-.47,1.53-1.32,2.92-2.14,4.29-.28-6.28-.65-12.65-.37-18.93l.64-6.79c.23-1.64,1.1-3.76.63-5.31Z"/>
      <path class="cls-4" d="M548.28,256.88l1.7-2.03c.48,1.97.93,3.88,1.18,5.9,1.48,12.44-1.66,23.93-6.32,35.37-3.02,7.39-6.85,14.89-11.72,21.25-2.09,2.72-4.39,5.28-7.42,6.96-.07-.43-.21-.8-.36-1.21l-.52-1.09,12.34-27.24,1.74-3.56c.49-2.89,2.41-6.32,3.49-9.07,2.37-6,4.38-12.54,5.43-18.91.36-2.18.76-4.16.47-6.37Z"/>
      <path class="cls-17" d="M538.89,291.23c.11,2.07-1.32,4.75-2.08,6.69l-5.96,14.26-5.52,10.94-.52-1.09,12.34-27.24,1.74-3.56Z"/>
      <path class="cls-4" d="M46.21,326.94l-2-1.69c-2-1.83-3.74-4.22-5.37-6.37-6.79-8.91-11.96-19.19-15.85-29.67-2.29-6.17-4.35-13-4.55-19.63-.11-3.55.14-6.93.77-10.42.16-.91.15-1.84.79-2.52l.84,1.04c1.54,12.79,6.4,24.43,11.94,35.96.83,1.73,1.76,4.65,3.09,5.94l.07.03c.77.93,1.31,1.9,1.73,3.03l4.99,11.32c1.13,2.37,3.03,5.29,3.43,7.89,0,.99.19,1.56-.43,2.35l.56,2.76Z"/>
      <path class="cls-17" d="M35.93,299.59c.77.93,1.31,1.9,1.73,3.03l4.99,11.32c1.13,2.37,3.03,5.29,3.43,7.89,0,.99.19,1.56-.43,2.35l-4.19-8.87-3.1-8.01c-.91-2.26-2.54-5.27-2.44-7.71Z"/>
      <path class="cls-37" d="M489.63,185.55c-.03-.46-.03-.84.06-1.29,1.73-8.88,2.19-17.53,6.86-25.56,1.17-2.01,2.68-4.27,4.52-5.71,1.77-1.38,4.01-2.14,6.27-1.79l.38.07c1.51.26,3.07.9,4.17,2,1.68,1.66,2.11,3.38,2.05,5.66-.04,1.61-.39,3.04-.86,4.57-2.54,5.08-6.94,8.81-10.95,12.73l-12.91,12.85c-.38-.93-.23-1.87-.17-2.85l.57-.67Z"/>
      <path class="cls-24" d="M495.96,377.28c3.6-.71,7.04-1.58,10.71-1.98,9.47-1.03,19.37.67,28.18,4.17,3.88,1.54,7.61,3.55,11.34,5.43-.96.69-1.91,1.44-2.99,1.95-1.11-.47-2.38.01-3.55.21l-6.86.83c-1.72.15-3.52.07-5.24.06-8.43-.06-16.89-1.45-25.14-3.08l-10.27-2.07,3.81-5.51Z"/>
      <path class="cls-46" d="M488.15,154.43l-.08-.24c-.92-2.74-2.89-5.47-4.19-8.1-3.11-6.32-5.39-13.23-5.44-20.32-.02-2.51.11-5.12,1.19-7.44.96-2.05,2.42-3.38,4.55-4.13,1.8-.63,3.98-.51,5.7.33,2.42,1.18,3.97,3.44,4.82,5.94.88,2.59.94,5.12.92,7.82-.09,9.44-3.85,17.44-5.52,26.48l-.2-.33c-.59-.21-1.15-.08-1.77-.02Z"/>
      <path class="cls-13" d="M511.28,303.4c.58-7.14,2.21-13.81,5.31-20.31l.44.09c6.81,9.58,7.58,22.25,5.61,33.48-.76,4.36-2.59,9.16-2.56,13.55-.1.97-.68,1.82-1.13,2.66l-.17.1-8.58,17.17c-.11-1.55.54-2.96.93-4.44l1.15-5.5c1.36-9.24-2.45-21.11-7.38-28.93l6.39-7.87Z"/>
      <path class="cls-16" d="M504.89,311.27l6.39-7.87c.19,4.18.32,8.35,1.17,12.46,1.25,6.07,3.76,11.52,6.33,17.11l-8.58,17.17c-.11-1.55.54-2.96.93-4.44l1.15-5.5c1.36-9.24-2.45-21.11-7.38-28.93Z"/>
      <path class="cls-4" d="M19,355.15l-4.57-3.71c12.1-2.73,23.59-4.03,35.54.24,2.69,1.1,5.55,2.11,7.95,3.77,1.48,1.03,3.57,3.44,5.18,3.92,1.34,1.14,2.7,4.26,3.42,5.9-3.71.95-7.41,2.08-11.24,2.43-13.61,1.26-25.96-3.85-36.27-12.55Z"/>
      <path class="cls-24" d="M19,355.15l-4.57-3.71c12.1-2.73,23.59-4.03,35.54.24l.04.3c.23,1.49.96,2.26,1.63,3.54l1.89,4.06c-.53.35-2.03.22-2.71.24-6.48.19-12.6-.48-18.96-1.78l-7.15-1.76c-1.73-.49-3.94-1.46-5.72-1.13Z"/>
      <path class="cls-12" d="M519.65,334.96l.45.2c3.14-3.15,5.77-6.66,9.08-9.69,9.39-8.61,22.41-12.35,34.94-12.35l6.88.05c-5.77,6.13-11.65,12.58-18.62,17.36-4.62,3.17-9.56,5.41-14.86,7.15-3.73,1.23-7.45,2.25-11.41,2.35-2.62.07-4.69-.23-7.17-1.11l-1.12-.39c.3-1.13,1.09-2.68,1.82-3.58Z"/>
      <path class="cls-24" d="M68.33,309.6c1.14,1.58,1.32,3.92,2.2,5.72l.19.41c.91,1.88,2.22,3.56,3.41,5.27.44.53,1.82,2.56,2.32,2.76,4.33,3.49,9.35,6.66,13.21,10.66l-.38,1.53-1.38,2.71c-1.13-1.05-2.81-2.96-4.41-2.99-1.49-.03-2.9.98-3.84,2.04-1.49,1.69-2.02,3.78-4.18,4.71-1.28,6.81-2.62,15.07-5.81,21.24l-.61,1.65c-1.1-.92-1.79-2.04-2.38-3.34l-2.95-5.31c.19-1.32-.55-3.14-.88-4.44-.47-1.9-.75-3.77-1.02-5.7-1.28-9.09-.19-19.87,2.73-28.56.95-2.85,2.3-5.51,3.42-8.29l.34-.05Z"/>
      <path class="cls-3" d="M66.68,361.96c.41-2.59,0-5.63.02-8.28l.28-11.57.4,1.18c.49,1.35.71,2.73.97,4.13.85,3.83.48,8.56.74,12.54.07,1.07-.06,2.83.57,3.69l-.61,1.65c-1.1-.92-1.79-2.04-2.38-3.34Z"/>
      <path class="cls-4" d="M74.13,321c.44.53,1.82,2.56,2.32,2.76,4.33,3.49,9.35,6.66,13.21,10.66l-.38,1.53-1.38,2.71c-1.13-1.05-2.81-2.96-4.41-2.99-1.49-.03-2.9.98-3.84,2.04-1.49,1.69-2.02,3.78-4.18,4.71-1.28,6.81-2.62,15.07-5.81,21.24-.62-.86-.5-2.62-.57-3.69-.26-3.97.12-8.71-.74-12.54.65-1.06.8-3.1,1.11-4.34,1.83-7.33,3.48-14.61,4.66-22.09Z"/>
      <path class="cls-47" d="M76.46,323.76c4.33,3.49,9.35,6.66,13.21,10.66l-.38,1.53-1.38,2.71c-1.13-1.05-2.81-2.96-4.41-2.99-1.49-.03-2.9.98-3.84,2.04-1.49,1.69-2.02,3.78-4.18,4.71.82-6,2.08-12.64.97-18.66Z"/>
      <path class="cls-4" d="M.94,316.42c2.65-.29,5.35-.16,8.02-.06,7.62.27,14.7,1.4,21.56,4.88,1.49.76,3.33,1.6,4.64,2.63l.35.31c3.76,2.46,7.5,5.71,10.57,9.01,1.45,1.56,2.82,3.2,4.1,4.9.9,1.19,1.92,3.06,3.22,3.81l.24-.13,1.06,2.45c-3.09.5-6.37.14-9.46-.25-18.1-2.24-34.2-13.25-45.23-27.39l.94-.16Z"/>
      <path class="cls-24" d="M.94,316.42c2.65-.29,5.35-.16,8.02-.06,7.62.27,14.7,1.4,21.56,4.88,1.49.76,3.33,1.6,4.64,2.63l.35.31c-.49.28-.62.44-.86.95.37,1.61,1.63,3.23,2.55,4.59l4.38,6.63c-10.7-2.81-21.06-9.04-30.72-14.3-2.68-1.46-5.42-3.25-8.2-4.48-.75-.33-1.13-.6-1.72-1.15Z"/>
      <path class="cls-11" d="M31.1,385.31l-.99-1.11c.53-.99,6.05-2.36,7.34-2.76,3.74-1.15,7.43-2,11.31-2.51,7.76-1.02,17.22,1.13,24.19,4.61,1.52.76,3.39,1.63,4.72,2.69l.4.35c1.37.59,3.14,2.28,4.53,2.37l3.34,4.67c-8.49,3.51-18.02,5.07-27.16,4.84-10.77-1.06-19.88-5.62-27.68-13.13Z"/>
      <path class="cls-24" d="M31.1,385.31l-.99-1.11c.53-.99,6.05-2.36,7.34-2.76,3.74-1.15,7.43-2,11.31-2.51,7.76-1.02,17.22,1.13,24.19,4.61,1.52.76,3.39,1.63,4.72,2.69l.4.35-.12.31.66.41c.72.57,1.5.94,2.21,1.56-1.02.13-2.15.22-3.18.12-1.47-.14-3.02-.04-4.5-.04-.87-.58-2.76-.3-3.84-.3l-.44-.3c-.54.01-1.13.08-1.65-.09-.39-.13-.75-.21-1.16-.28-1.73.76-4.59.57-6.47.58-4.47.04-8.89.06-13.32-.59l-8.34-1.59c-2.17-.5-4.64-1.63-6.83-1.05Z"/>
      <path class="cls-4" d="M486.79,405.06c7.21-1.37,14.85-1.72,21.84.85,4.41,1.62,8.57,4.26,12.61,6.63l.02.38-.63.43c-2.91,2.07-5.81,4.29-8.94,6.03-9.86,5.48-20.33,6.48-31.29,4.62l-12.05-2.43c-1.78-.37-3.94-.49-5.56-1.33l-.58-.29c1.14-.8,2.08-1.89,3.05-2.89l2.16-2.66c.2-.41.51-.66.83-.98,1.88-.09,4.91-2.76,6.63-3.77,3.61-2.13,7.9-3.41,11.9-4.59Z"/>
      <path class="cls-3" d="M490.36,413.92l1.26-.08c-1.46,1.11-5.5,1.14-7.38,1.4l-13.11,2.02c-2.52.7-4.65,1.15-6.99,2.38l-1.34.62-.58-.29c1.14-.8,2.08-1.89,3.05-2.89l2.16-2.66-.08.43c-.11.52-.26.81-.54,1.25.8-.12,1.06-.44,1.74-.77,1.11-.55,7.7.13,9.5.09l12.31-1.49Z"/>
      <path class="cls-4" d="M468.26,413.43c1.88-.09,4.91-2.76,6.63-3.77,3.61-2.13,7.9-3.41,11.9-4.59l3.57,8.85-12.31,1.49c-1.8.04-8.39-.64-9.5-.09-.67.33-.94.65-1.74.77.27-.44.42-.73.54-1.25l.08-.43c.2-.41.51-.66.83-.98Z"/>
      <path class="cls-24" d="M486.79,405.06c7.21-1.37,14.85-1.72,21.84.85,4.41,1.62,8.57,4.26,12.61,6.63l.02.38-.63.43c-1.69-.68-3.83-.37-5.63-.47-7.9-.41-15.35-.58-23.2.81l-.17.14-1.26.08-3.57-8.85Z"/>
      <path class="cls-4" d="M75.48,342.41c2.15-.93,2.69-3.03,4.18-4.71.94-1.07,2.34-2.07,3.84-2.04,1.6.03,3.27,1.94,4.41,2.99l1.38-2.71c.56,3.84.29,8.09.32,11.99.23,3.19.08,6.4.72,9.54l4.29,18.56c-2.16,3.96-4.33,7.61-7.23,11.09l-1.91,2.29c-.44-.18-.59-.33-.92-.66l-3.15-4.93-12.35-18.52.61-1.65c3.19-6.17,4.53-14.43,5.81-21.24Z"/>
      <path class="cls-17" d="M84.56,388.75l2.3-23.01c1.65,4.72.77,11.22.57,16.2-.06,1.54-.33,3.3-.12,4.81l.06.38-1.91,2.29c-.44-.18-.59-.33-.92-.66Z"/>
      <path class="cls-24" d="M89.28,335.94c.56,3.84.29,8.09.32,11.99,0,2.92.35,5.83-.75,8.57l-.5.37c-2.03-2.18-3.26-4.83-5.03-7.17l4.57-11.05,1.38-2.71Z"/>
      <path class="cls-34" d="M75.48,342.41c2.15-.93,2.69-3.03,4.18-4.71.94-1.07,2.34-2.07,3.84-2.04,1.6.03,3.27,1.94,4.41,2.99l-4.57,11.05c-2.48,8.49-2.64,17.47-2.34,26.26.08,2.33.86,5.67.42,7.87l-12.35-18.52.61-1.65c3.19-6.17,4.53-14.43,5.81-21.24Z"/>
      <path class="cls-4" d="M380.58,496.94c5.53,1.12,10.86,2.38,16.51,2.92,10.57,1,22.9-.81,33.06-3.77l8.18-2.7c1.75-.63,3.46-1.75,5.34-1.79-7.52,5.78-16.08,10.53-24.53,14.82-9.48,4.81-19.11,9.29-29.06,13.05l-19.9,6.57c1.4-5.56,1.94-11.39,2.58-17.09l.27-9.43,6.31.27c.18-.93.83-1.98,1.23-2.85Z"/>
      <path class="cls-21" d="M373.03,499.52l6.31.27c.03,1.23-4.64,7.24-5.63,8.33-.29.32-.6.58-.96.83l.27-9.43Z"/>
      <path class="cls-8" d="M58.78,398.44c9.14.24,18.68-1.33,27.16-4.84l20.7,23.99c1.13,1,2.51,2,3.43,3.19-12.02,7.36-27.63,10.86-41.48,7.46l-6.75-2.16-1.55-.88c-4.41-1.68-9.16-5.52-12.72-8.61,3.98-1.26,8.2-2.78,12.32-3.48l.35-.26c-1.28-4.83-1.71-9.41-1.48-14.41Z"/>
      <path class="cls-24" d="M60.3,425.2c-4.41-1.68-9.16-5.52-12.72-8.61,3.98-1.26,8.2-2.78,12.32-3.48l.54.62c5.82-.2,11.33.32,17.08,1.02,5.67.7,11.85,1.66,17.2,3.77-8.21,1.85-16.35,4.13-24.69,5.35l-6.33.67c-1.09.09-2.48.03-3.4.67Z"/>
      <path class="cls-9" d="M58.78,398.44c9.14.24,18.68-1.33,27.16-4.84l20.7,23.99c-1.09.01-2.06-.7-2.98-1.22-2.02-1.13-4.04-2.33-6.15-3.3-10.88-4.96-26.02-2.74-37.26-.23-1.28-4.83-1.71-9.41-1.48-14.41Z"/>
      <path class="cls-24" d="M499.61,308.09l.84-2.52.19-.09,4.25,5.8c4.93,7.81,8.75,19.69,7.38,28.93l-1.15,5.5c-.38,1.48-1.03,2.89-.93,4.44l-4.72,8.62-12.16,18.78-2.42,3.61-1.1,1.75-.93,1.07c-3.22-3.46-5.48-7.18-7.57-11.39-1.06-2.06-1.94-4.3-2.66-6.49-.41-1.24-.62-2.47-1.27-3.62l.84-29.18c1.79-2.39,2.79-5.48,4.55-7.98,1.16-1.05,2.58-1.83,3.82-2.79,3.15-2.44,5.49-6.09,7.25-9.61,1.06,1.97,1.49,2.81,3.61,3.5l2.18-8.32Z"/>
      <path class="cls-4" d="M481.29,372.58l5.86-1.07-4.51-31.3-.2-1.2.31.17c-.02.53-.05.88.17,1.38.88,1.98,1.1,5.25,1.55,7.45l4.46,22.08c1.64-1.59,3.77-2.82,5.56-4.27l.63.14c-.16,2.21-.43,4.38-.85,6.56-.3,1.51-1.17,3.56-.96,5.04l-2.42,3.61-1.1,1.75-.93,1.07c-3.22-3.46-5.48-7.18-7.57-11.39Z"/>
      <path class="cls-25" d="M482.75,325.3c1.16-1.05,2.58-1.83,3.82-2.79,3.15-2.44,5.49-6.09,7.25-9.61,1.06,1.97,1.49,2.81,3.61,3.5-3.05,14.62,1.13,29.51,8.05,42.36l-12.16,18.78c-.21-1.48.66-3.53.96-5.04.43-2.17.69-4.35.85-6.56.36-1.98.22-4.17.2-6.19-.14-13.04-5.55-23.82-12.58-34.46Z"/>
      <path class="cls-4" d="M499.61,308.09l.84-2.52.19-.09,4.25,5.8c4.93,7.81,8.75,19.69,7.38,28.93l-1.15,5.5c-.38,1.48-1.03,2.89-.93,4.44l-4.72,8.62c-6.91-12.84-11.1-27.74-8.05-42.36l2.18-8.32Z"/>
      <path class="cls-24" d="M499.61,308.09l.84-2.52.19-.09,4.25,5.8c4.93,7.81,8.75,19.69,7.38,28.93-1.88.59-3.82,2.67-5.51,3.8-.51-3.19-1.57-6.41-2.39-9.54-1.23-4.71-2.27-9.56-3.01-14.37l-1.07-8.33c-.15-1.27-.02-2.54-.68-3.68Z"/>
      <path class="cls-23" d="M463.33,35.97c1.85.07,3.7.08,5.49.58l3.79,1.22c6.39,2.74,10.68,7.08,13.22,13.55,2.32,5.91,2.23,13.36-.33,19.18l-.23.5c-1.02,2.33-2.45,4.36-4.14,6.25-4.72,5.29-11.05,7.23-17.95,7.61-5.44-.42-10.2-1.71-14.49-5.22-5.33-4.36-9.17-9.98-9.75-17.06-.53-6.46,1.48-13.2,5.77-18.09,4.94-5.64,11.3-8.05,18.61-8.52Z"/>
      <path class="cls-24" d="M61.85,426.08l6.75,2.16c13.85,3.4,29.45-.11,41.48-7.46,2.33,1.96,4.79,3.95,7.45,5.45l5.42,3.74c1.94.51,3.89.93,5.88,1.23,1.36.21,2.82.04,4.05.7l-8.75,1.48c-.91.15-2.13.19-2.75.88l.66.9c.37,1.03.96,1.64,1.71,2.43,2.91,3.82,6.37,7.22,9.48,10.87,4.21,4.93,8.09,10.24,12.88,14.64,2.78,2.56,5.95,4.43,8.83,6.81-1.33.32-3.61-.92-4.92-1.38-4.09-1.43-8.92-3.51-13.18-4.18l-1.38.79-1.71-2.26c-1.7-.17-3.69-.95-5.35-1.44l-16.6-5.63-31.33-10.73c-4.3-1.48-9.72-3.92-14.2-4.22l.95,1.45c-1.64,1.22-3.32,2.45-5.35,2.92-2.59.59-5.56,0-7.77-1.46-2.35-1.55-3.72-3.76-4.18-6.53-.39-2.29.2-4.99,1.58-6.86,2.43-3.28,6.64-3.78,10.38-4.3Z"/>
      <path class="cls-17" d="M133.72,462.87c-6.95-8-15.94-15.72-25.03-21.15-1.84-1.1-3.77-2.12-5.72-3.02-1.19-.56-2.43-.94-3.54-1.66l.2-.57c2.03-.62,6.75,2.2,8.69,3.23,7.86,4.16,15.3,10.5,21.6,16.74,2.22,2.2,4.57,4.41,6.27,7.05l.62.85-1.38.79-1.71-2.26Z"/>
      <path class="cls-23" d="M61.85,426.08l6.75,2.16c13.85,3.4,29.45-.11,41.48-7.46,2.33,1.96,4.79,3.95,7.45,5.45l5.42,3.74-.31.04c-2.05.25-4.23-.15-6.3-.26-3.05-.16-6.02-.13-9.07.05-11.91.71-24.51,3.67-35.79,7.5-1.49.51-4.45,1.28-5.44,2.47l-.15.24c.06.15.28.72.37.85l.95,1.45c-1.64,1.22-3.32,2.45-5.35,2.92-2.59.59-5.56,0-7.77-1.46-2.35-1.55-3.72-3.76-4.18-6.53-.39-2.29.2-4.99,1.58-6.86,2.43-3.28,6.64-3.78,10.38-4.3Z"/>
      <path class="cls-38" d="M132.87,431.89l23.39-.03,7,.64,7.35,8.81c3.34,3.68,6.92,6.91,10.79,10.02,2.39,1.92,4.74,3.81,7.43,5.29.53.29.31.15.8.57l.35,7.17.1.9-.05,1.26c.47,1.95.44,4.07.63,6.07l1.06,12.45-12.9-3.39-1.68-.66-13.12-6.1-9.08-5c-2.88-2.37-6.05-4.25-8.83-6.81-4.78-4.4-8.67-9.72-12.88-14.64-3.12-3.65-6.57-7.05-9.48-10.87-.74-.79-1.34-1.39-1.71-2.43l-.66-.9c.63-.69,1.85-.73,2.75-.88l8.75-1.48Z"/>
      <path class="cls-7" d="M122.02,435.16l31.44,16.02-8.03-10.58.22-.19c3.6,3.24,5.92,7.34,9.09,10.91,1.84,2.08,6.24,3.27,8.76,4.3l8.38,3.44-10.72-16.11c2.14,1.77,3.59,4.08,5.14,6.36l4.98,7.38c.53.8,1.27,2.35,1.99,2.92.58.47,1.92.78,2.64,1.04,1.96.69,3.96,1.3,5.87,2.12l8.28,2.5-.05,1.26c-1.67.38-5.68-1.54-7.35-2.31-6.09-1.8-12.03-4.31-17.85-6.81l-12.07-5.13-19.85-10.21-4.81-2.44c-1.37-.73-2.74-2.12-4.35-2.06-.74-.79-1.34-1.39-1.71-2.43Z"/>
      <path class="cls-28" d="M123.73,437.58c1.61-.07,2.98,1.32,4.35,2.06l4.81,2.44,19.85,10.21,12.07,5.13c5.83,2.5,11.77,5,17.85,6.81,1.67.77,5.68,2.69,7.35,2.31.47,1.95.44,4.07.63,6.07l1.06,12.45-12.9-3.39-1.68-.66-13.12-6.1-9.08-5c-2.88-2.37-6.05-4.25-8.83-6.81-4.78-4.4-8.67-9.72-12.88-14.64-3.12-3.65-6.57-7.05-9.48-10.87Z"/>
      <path class="cls-4" d="M66.24,440.86c4.48.3,9.9,2.74,14.2,4.22l31.33,10.73,16.6,5.63c1.66.49,3.65,1.28,5.35,1.44l1.71,2.26,1.38-.79c4.26.67,9.09,2.75,13.18,4.18,1.31.46,3.59,1.7,4.92,1.38l9.08,5,13.12,6.1,1.68.66,12.9,3.39,2.15,24.06.2,1.52,1.97,14.72-27.84-9.16c-20.68-7.82-40.41-18.07-58.42-30.91-9.46-6.75-18.54-14.12-26.52-22.59-5.92-6.29-11.1-13.31-16.06-20.37l-.95-1.45Z"/>
      <path class="cls-42" d="M194.05,510.63l-8.25,1.78c-2.24.38-9.28,1.79-11.03.55l-.15-.89c.13-.14.24-.32.4-.43.57-.37,3.84-.3,4.74-.39,4.77-.47,9.38-1.28,14.08-2.14l.2,1.52Z"/>
      <path class="cls-42" d="M177.12,481l1.68.66c-1.22,1.9-4.31,3.65-6.31,4.78-6.55,3.7-13.4,5.62-20.8,6.65-4.49.63-9.03.97-13.45-.27,2.77-.67,5.94-.43,8.79-.71,10.34-1.03,21.87-3.9,29.85-10.91l.22-.2Z"/>
      <path class="cls-42" d="M136.81,464.34c4.26.67,9.09,2.75,13.18,4.18,1.31.46,3.59,1.7,4.92,1.38l9.08,5c-2.18.08-5.08-1.35-7.18-2.09l-15.85-5.65c-.96-.32-2.73-1.17-3.69-1.17-.72,0-1.57,1.04-2.18,1.48-1.01.73-2.13,1.36-3.23,1.95-4.35,2.34-10.28,4.77-15.21,5.22-.87.08-1.5.25-2.18-.32.07-.14.11-.3.22-.42.37-.39,4.1-.94,4.89-1.18,4.39-1.32,8.92-3.13,12.9-5.41.87-.49,2.07-1.03,2.67-1.83l.25-.36,1.38-.79Z"/>
      <path class="cls-38" d="M453.7,429.85c1.41.49,3.15.35,4.65.39l8.92.39c3.35.31,6.61,1.04,9.89,1.7,2.66.37,6.1,1.1,8.58,2.09l1.23.31c5.55,1.01,11.08,3.14,16.4,4.98-.14.55-.17.59-.59,1.03l-1.34,1.79c-4.39,6.62-10.12,13.31-15.67,19.01l-1.02,1.13-10.67,9.8-1.18.87c-5.61,5.13-12.75,9.25-19.41,12.86-3.27,1.77-6.69,3.36-9.81,5.38-1.89.05-3.6,1.16-5.34,1.79l-8.18,2.7c-10.17,2.97-22.49,4.77-33.06,3.77-5.65-.53-10.98-1.79-16.51-2.92-.41.87-1.06,1.91-1.23,2.85l-6.31-.27.08-5.14-.05-3.95-.07-6.07-.31-.86c.29-2.85-.3-5.87-.15-8.78,1.47-1.93,2.65-4.38,3.93-6.47,16.59-18.85,37.2-32.11,62.09-36.78,2.77-.52,5.58-.98,8.39-1.21,2.05-.17,4.15-.08,6.19-.34l.56-.08Z"/>
      <path class="cls-39" d="M372.68,483.5c4.51-.95,9.02-2.46,13.51-3.59l10.93-2.83c.8-.22,2.47-.47,3.13-.88.32-.2.83-1.38,1.02-1.75.89-1.69,1.86-3.31,2.91-4.9,8.65-13.03,20.34-26.83,35.02-33.25l.33.18c-10.49,5.82-18.83,14.1-26.17,23.49l-11.45,15.84,28.76-8.74c1.25-.42,4.56-1.12,5.5-1.87.37-.3.93-1.6,1.2-2.05.96-1.6,1.98-3.1,3.12-4.58,7.29-9.48,16.85-17.35,27.54-22.64,2.01-1,4.47-2.37,6.7-2.66-4.46,2.38-8.81,4.58-13.01,7.44-4.99,3.4-9.59,7.59-13.86,11.85-3.59,3.58-6.96,7.21-9.36,11.72,2.06-.32,4.19-1.47,6.23-2.09l.98.76-8.96,3.24c4.76,4.38,9.68,6.37,16.02,7.49,2.27.4,5.13.36,7.42.13,1.63-.16,3.06-.53,4.7-.34,1.2.14,2.8.16,3.99-.08,1-.2,3.56-1.54,4.43-1.35.29.06.51.3.76.45l-1.18.87c-2.43-.19-5.18,1.14-7.52,1.8-5.65,1.61-12.8,1.22-18.37-.52-3.13-.98-6.22-2.61-8.82-4.62-.57-.44-2.58-2.88-2.89-2.96-.09-.02-1.5.54-1.7.61l-6.24,2.05-18.19,5.53-5.89,1.51c-.97.22-2.27.34-3.08.96l-.27.25c0,2.15,2.08,4.56,3.55,6.05,5.44,5.52,11.64,7.19,18.87,8.93-.42.64-.93.57-1.65.73-4.88-.78-10.4-2.05-14.52-4.91l-.33-.24c-3.51-2.46-6.22-5.7-7.49-9.85l-.1-.34-17.42,4c-2.58.63-5.35,1.09-7.84,2.02l-.31-.86Z"/>
      <path class="cls-28" d="M445.72,462.93l14.06-5.09c1.06-.35,3.28-1.39,4.33-1.2l.36.37c4.84,4.96,13.71,5.38,20.27,5.66l-10.67,9.8c-.25-.15-.48-.38-.76-.45-.86-.19-3.42,1.15-4.43,1.35-1.18.24-2.79.21-3.99.08-1.64-.19-3.07.18-4.7.34-2.3.22-5.16.27-7.42-.13-6.34-1.13-11.26-3.12-16.02-7.49l8.96-3.24Z"/>
      <path class="cls-38" d="M485.74,434.43l1.23.31c5.55,1.01,11.08,3.14,16.4,4.98-.14.55-.17.59-.59,1.03l-1.34,1.79c-4.39,6.62-10.12,13.31-15.67,19.01l-1.02,1.13c-6.55-.27-15.43-.7-20.27-5.66l-.36-.37c-1.05-.18-3.27.85-4.33,1.2l-14.06,5.09-.98-.76,14.01-5.3c1.2-.43,4.11-1.07,4.99-1.8.46-.39,1.03-1.7,1.38-2.24.84-1.34,1.8-2.55,2.82-3.75,5.08-5.96,11.24-10.51,17.81-14.65Z"/>
      <path class="cls-6" d="M485.74,434.43l1.23.31c-7.01,3.87-13.08,8.75-18.07,15.02-1.04,1.31-2.42,2.88-3.04,4.43l32.66-12.27c.94-.34,2.69-1.44,3.58-1.44.24,0,.45.18.67.27l-1.34,1.79c-4.99,1.27-9.92,3.71-14.76,5.5-7.01,2.58-14.52,4.79-21.24,8.06,3.31,2.34,7.61,3.78,11.67,4.14,1.68.15,3.45.1,5.06.65.5.17,1.02.17,1.53.31.57.15,1.14.07,1.72.03l.34.33-1.02,1.13c-6.55-.27-15.43-.7-20.27-5.66l-.36-.37c-1.05-.18-3.27.85-4.33,1.2l-14.06,5.09-.98-.76,14.01-5.3c1.2-.43,4.11-1.07,4.99-1.8.46-.39,1.03-1.7,1.38-2.24.84-1.34,1.8-2.55,2.82-3.75,5.08-5.96,11.24-10.51,17.81-14.65Z"/>
      <path class="cls-28" d="M485.76,461.54l-.34-.33c-.58.05-1.15.13-1.72-.03-.52-.14-1.03-.14-1.53-.31-1.61-.55-3.38-.5-5.06-.65-4.06-.35-8.36-1.79-11.67-4.14,6.71-3.27,14.22-5.48,21.24-8.06,4.85-1.78,9.78-4.23,14.76-5.5-4.39,6.62-10.12,13.31-15.67,19.01Z"/>
      <path class="cls-28" d="M420.7,493.67c.72-.16,1.23-.09,1.65-.73-7.24-1.74-13.43-3.41-18.87-8.93-1.47-1.49-3.54-3.9-3.55-6.05l.27-.25c.81-.61,2.11-.73,3.08-.96l5.89-1.51,18.19-5.53,6.24-2.05c.2-.07,1.6-.63,1.7-.61.31.08,2.32,2.52,2.89,2.96,2.6,2.01,5.69,3.64,8.82,4.62,5.58,1.74,12.72,2.13,18.37.52,2.34-.67,5.09-2,7.52-1.8-5.61,5.13-12.75,9.25-19.41,12.86-3.27,1.77-6.69,3.36-9.81,5.38-1.89.05-3.6,1.16-5.34,1.79l-8.18,2.7c-10.17,2.97-22.49,4.77-33.06,3.77-5.65-.53-10.98-1.79-16.51-2.92-.41.87-1.06,1.91-1.23,2.85l-6.31-.27.08-5.14-.05-3.95-.07-6.07c2.48-.94,5.26-1.4,7.84-2.02l17.42-4,.1.34c1.27,4.15,3.98,7.39,7.49,9.85l.33.24c4.12,2.86,9.64,4.14,14.52,4.91Z"/>
      <path class="cls-14" d="M373.11,494.38l7.47,2.57c-.41.87-1.06,1.91-1.23,2.85l-6.31-.27.08-5.14Z"/>
      <path class="cls-21" d="M158.62,326.64l.49-2.25c.89.79,1.6,1.71,2.34,2.64l10.23,11.11,10.18,12.73,2.65,4.11c-3.41,6.29-6.86,12.49-9.37,19.21l-.73,1.88c-5.78,14.37-9.3,28.91-12.05,44.1-.75,4.12-.93,8.47.9,12.35l-7-.64-23.39.03c-1.23-.66-2.69-.49-4.05-.7-1.98-.3-3.94-.72-5.88-1.23l-5.42-3.74c-.22-.75-.39-1.49-.87-2.12-.41-.55-.16-.12-.51-.74l-.17-.31c-11.83-9.32-21.39-21.76-30.49-33.65l1.91-2.29c2.89-3.48,5.07-7.13,7.23-11.09l-4.29-18.56c-.64-3.15-.49-6.35-.72-9.54-.04-3.9.24-8.14-.32-11.99l.38-1.53,1.18-6.46,3.47.85c5.96.01,12.37,1.91,17.97,3.86,2.12.74,4.6,1.51,6.49,2.72l1.55.79c9.66,4.4,18.23,10.33,27.02,16.2.84.65,1.59,1.19,2.56,1.62l2.37,2.21c1.18-3.09,1.38-6.95,1.97-10.21,1.18-6.51,2.49-13,4.37-19.36Z"/>
      <path class="cls-42" d="M153.37,416.45l-.3-.02c-1.76-.24-3.99-1.46-5.63-2.16l-16.39-7.8c-3.34-1.69-6.99-3.35-10.09-5.44-.64-.43-1.12-1.04-1.57-1.65,2.71.65,5.04,1.98,7.51,3.21l10.43,5.25,15.94,7.11.11,1.49Z"/>
      <path class="cls-42" d="M94.32,328.81c1.19,1.58,2.75,2.87,4.17,4.23l6.27,6.02,13.98,14.66c2.17,2.44,4.46,4.83,6.42,7.43l-3.46-13.72c-1.02-3.84-2.57-8.08-2.92-12.04l1.55.79c.49,3.56,1.72,7.14,2.63,10.62l4.12,15.79c.14.46.29.83.58,1.22,2.01,2.82,5.04,5.45,7.38,8.05l10.28,11.41c1.89,2.09,3.86,4.63,6.05,6.39l.26,2.9c-.24.07-.07.03-.52.06l-18.61-21.28c-1.99-2.2-4.2-5.36-6.65-7.02-2.22-1.5-5.19-2.31-7.68-3.3l-12.24-5.01c-1.45-.59-4.5-1.5-5.41-2.69l.51-.48c2.79.24,5.68,1.82,8.27,2.86l13.4,5.12-16.93-18.61-10.91-10.87c-.66-.71-1.27-1.41-1.52-2.36l.95-.17Z"/>
      <path class="cls-21" d="M94.32,328.81c5.96.01,12.37,1.91,17.97,3.86,2.12.74,4.6,1.51,6.49,2.72.36,3.96,1.9,8.2,2.92,12.04l3.46,13.72c-1.96-2.61-4.26-5-6.42-7.43l-13.98-14.66-6.27-6.02c-1.43-1.36-2.99-2.65-4.17-4.23Z"/>
      <path class="cls-23" d="M94.62,376.03c3.04,11.09,7.32,21.46,12.77,31.56l5.78,10.2c.98,1.68,2.28,3.39,2.81,5.27-11.83-9.32-21.39-21.76-30.49-33.65l1.91-2.29c2.89-3.48,5.07-7.13,7.23-11.09Z"/>
      <path class="cls-21" d="M120.33,336.18c9.66,4.4,18.23,10.33,27.02,16.2.84.65,1.59,1.19,2.56,1.62l2.37,2.21c-.74,3.11-.85,6.39-1.05,9.57-.49,7.93-.33,15.96.14,23.89-2.19-1.76-4.17-4.3-6.05-6.39l-10.28-11.41c-2.34-2.6-5.36-5.23-7.38-8.05-.28-.4-.44-.76-.58-1.22l-4.12-15.79c-.91-3.48-2.14-7.06-2.63-10.62Z"/>
      <path class="cls-44" d="M158.62,326.64l.49-2.25c.89.79,1.6,1.71,2.34,2.64l10.23,11.11,10.18,12.73,2.65,4.11c-3.41,6.29-6.86,12.49-9.37,19.21l-.73,1.88c-5.78,14.37-9.3,28.91-12.05,44.1-.75,4.12-.93,8.47.9,12.35l-7-.64-2.89-15.41-.11-1.49-1.63-22.39-.26-2.9c-.47-7.93-.63-15.95-.14-23.89.2-3.18.3-6.47,1.05-9.57,1.18-3.09,1.38-6.95,1.97-10.21,1.18-6.51,2.49-13,4.37-19.36Z"/>
      <path class="cls-21" d="M158.62,326.64l.49-2.25c.89.79,1.6,1.71,2.34,2.64-.61,2.02-.08,3.59.38,5.56.79,3.34,1.91,6.64,2.6,9.99l6.02,20.06c.97,3.24,1.71,6.98,3.15,10.04.31.65.97,1.1,1.54,1.51l-.73,1.88c-.34-.22-.21-.12-.53-.41-1.5-1.35-1.56-3.26-2.09-5.13-.04-.13-.26-1.09-.35-1.17-.49-.48-1.74-.98-2.36-1.33-2.54-1.43-5.72-2.88-7.51-5.25,2.73.02,6.99,3.34,9.5,4.57l-7.68-24.36-2.39-8.39c-.6-2.44-.92-5.95-2.38-7.94Z"/>
      <path class="cls-44" d="M161.45,327.03l10.23,11.11,10.18,12.73,2.65,4.11c-3.41,6.29-6.86,12.49-9.37,19.21-.57-.41-1.23-.85-1.54-1.51-1.44-3.06-2.18-6.8-3.15-10.04l-6.02-20.06c-.69-3.35-1.81-6.65-2.6-9.99-.47-1.97-.99-3.54-.38-5.56Z"/>
      <path class="cls-46" d="M41.89,140.68c.93,1.41.74,3.17,1.14,4.76.47,1.93,1.35,3.7,2.45,5.34l.3.46c2.81,4.18,7.57,7.72,11.47,10.87,10.29,8.31,17.95,18.53,20.01,31.87,1.05,6.82.14,15.49-1.8,22.12-1.98-.1-4.02-.31-5.99-.08l-.14.41c1.78.63,3.99.51,5.88.77,7.9,1.22,15.05,2.78,22.43,5.92,1.2,2,1.62,4.51,2.85,6.38l2.52,6.98,30.71,82.32,13.65,33.59c-8.79-5.87-17.36-11.8-27.02-16.2l-1.55-.79c-1.9-1.2-4.37-1.98-6.49-2.72-5.6-1.95-12.01-3.85-17.97-3.86l-3.47-.85-1.18,6.46c-3.86-3.99-8.88-7.16-13.21-10.66-.51-.2-1.88-2.23-2.32-2.76-1.19-1.7-2.5-3.39-3.41-5.27l-.19-.41c-.88-1.8-1.06-4.14-2.2-5.72l-.34.05c-1.73-1.16-2.67-3.02-3.73-4.75-2.9-4.74-5.11-9.92-8.05-14.61-1.52-5.52-4.02-10.82-5.62-16.37-3.87-13.38-5.54-26.62-6.85-40.44-.45-1.93-.24-4.44-.27-6.45-.2-13.63,1.17-27.87,3.89-41.23.82-4.02,1.63-8.22,3.12-12.05-4.04-3.72-7.5-6.36-9.65-11.62-3.04-7.41-1.96-14.3,1.06-21.46Z"/>
      <path class="cls-47" d="M50.48,173.76c5.71,5.6,12.14,13.08,12.28,21.55.09,5.48-1.84,9.24-5.66,13.07-6.23,6.25-12.9,10.44-13.02,20.23l.03,2.14-.36,2.74c-.45-1.93-.24-4.44-.27-6.45-.2-13.63,1.17-27.87,3.89-41.23.82-4.02,1.63-8.22,3.12-12.05Z"/>
      <path class="cls-23" d="M44.1,230.74c.94,8.35,3.8,15.15,10.54,20.48,9.19,7.27,24.18,7.68,31.3,17.47,1.31,1.8,2.38,3.98,2.63,6.23.27,2.43-1.2,4.94-2.75,6.68-3.8,4.27-8.87,7.31-13.13,11.09-1.86,1.64-3.81,3.42-4.87,5.7-.76,1.62-.87,3.26-.78,5.02.12,2.12.58,4.18,1.29,6.18l-.34.05c-1.73-1.16-2.67-3.02-3.73-4.75-2.9-4.74-5.11-9.92-8.05-14.61-1.52-5.52-4.02-10.82-5.62-16.37-3.87-13.38-5.54-26.62-6.85-40.44l.36-2.74Z"/>
      <path class="cls-28" d="M75.19,217.2c7.9,1.22,15.05,2.78,22.43,5.92,1.2,2,1.62,4.51,2.85,6.38l2.52,6.98,30.71,82.32c-1.01-.12-1.88-1.08-2.7-1.68-1.53-1.11-3.16-2.12-4.85-2.98-5.71-2.91-12-4.43-17.73-7.27-4.91-2.43-9.63-5.43-11.42-10.93l-.15-.49c-.79-2.45-.55-4.97-.22-7.48.4-3.07,1.15-6.13,1.4-9.2.44-5.43-.87-10.29-3.43-15.04-1.91-3.56-4.38-6.91-7.09-9.9-5.13-5.65-11.84-10.51-13.65-18.35l-.11-.49c-.64-2.65-.68-5.39-.3-8.08l1.73-9.7Z"/>
      <path class="cls-21" d="M418.15,303.41l.15-.24,3.1-5.67c-1.24,5.89-3.53,11.58-4.96,17.44-2.3,9.41-3.26,19.32-6.87,28.35.52.07.28.08.71,0l.35.45.81-.51c4.11-3.06,7.77-6.54,11.19-10.35,7.04,1.43,14.86-.58,21.65-2.42l23.05-6.96c2.89-.86,5.91-2.03,8.9-2.46l1.81-.1c.34.39.42.32.39.86l-.17,1.86-.05,9.61-.84,29.18c.65,1.15.86,2.38,1.27,3.62.72,2.2,1.6,4.44,2.66,6.49,2.09,4.21,4.36,7.94,7.57,11.39l-26.71,32.79c-1.57,2.41-3.62,4.78-4.75,7.43l.26.54-3.97,5.12-.56.08c-2.04.26-4.14.17-6.19.34-2.81.23-5.62.69-8.39,1.21-24.89,4.67-45.5,17.92-62.09,36.78-1.28,2.09-2.46,4.54-3.93,6.47l-1.48-10.27-1.23-5.22-8.02-21.84-4.81-9.31-5.09-8.27,6.46-3.49,4.81-2.71,10.58-5.76,12.43-7.6c4.43-2.9,8.34-6.51,12.75-9.41l.34-.22c3.4-2.82,8.14-4.82,10.57-8.63,1.24-1.93,1.36-4.24,1.39-6.46.07-5.81-.68-11.84-1.74-17.55l-.47-2.57-1.55-8.62-.12-.84-3.91-17.37-.68-3.1-2.11-7.63.95-.82.43,1.91c.89.5,1.47-1.09,1.89-1.78,1.04-1.7,2.2-3.76,3.51-5.25,1.48-1.68,3.5-3.09,5.22-4.53,1.64-1.37,3.43-3.41,5.51-3.96Z"/>
      <path class="cls-16" d="M477.36,362.46c.65,1.15.86,2.38,1.27,3.62.72,2.2,1.6,4.44,2.66,6.49,2.09,4.21,4.36,7.94,7.57,11.39l-26.71,32.79c.48-1.91,1.48-3.56,2.3-5.33l3.02-7.33c2.28-6.05,4.56-12.13,6.2-18.39,2.01-7.63,3.09-15.39,3.69-23.25Z"/>
      <path class="cls-4" d="M402.66,418.5l.4-.07c1.27-.27,3.01-1.67,4.2-2.31l9.55-4.81c10.17-4.6,20.37-7.76,30.96-11.17,5.55-1.79,11.34-4.14,17.12-4.99l-45.48,24.5-14.24,8.37c-4.06,2.53-8.11,5.64-12.57,7.38.84-2.04,2.15-4,3.24-5.94,2.07-3.7,4.18-7.64,6.83-10.96Z"/>
      <path class="cls-21" d="M418.15,303.41l.15-.24,3.1-5.67c-1.24,5.89-3.53,11.58-4.96,17.44-2.3,9.41-3.26,19.32-6.87,28.35.52.07.28.08.71,0l.35.45.81-.51c4.11-3.06,7.77-6.54,11.19-10.35,7.04,1.43,14.86-.58,21.65-2.42l23.05-6.96c2.89-.86,5.91-2.03,8.9-2.46l1.81-.1c.34.39.42.32.39.86l-.17,1.86-50.9,60.74c-8.86,10.99-16.84,22.36-24.68,34.08-2.65,3.32-4.75,7.25-6.83,10.96-1.09,1.94-2.4,3.9-3.24,5.94-5.6,8.59-10.28,17.77-14.11,27.28-.74,1.84-1.72,3.61-2.03,5.57-1.28,2.09-2.46,4.54-3.93,6.47l-1.48-10.27-1.23-5.22-8.02-21.84-4.81-9.31-5.09-8.27,6.46-3.49,4.81-2.71,10.58-5.76,12.43-7.6c4.43-2.9,8.34-6.51,12.75-9.41l.34-.22c3.4-2.82,8.14-4.82,10.57-8.63,1.24-1.93,1.36-4.24,1.39-6.46.07-5.81-.68-11.84-1.74-17.55l-.47-2.57-1.55-8.62-.12-.84-3.91-17.37-.68-3.1-2.11-7.63.95-.82.43,1.91c.89.5,1.47-1.09,1.89-1.78,1.04-1.7,2.2-3.76,3.51-5.25,1.48-1.68,3.5-3.09,5.22-4.53,1.64-1.37,3.43-3.41,5.51-3.96Z"/>
      <path class="cls-33" d="M409.01,355.4c3.1,0,6.6-.33,9.64.13l-9.18,2.45-.47-2.57Z"/>
      <path class="cls-33" d="M418.15,303.41l.15-.24,3.1-5.67c-1.24,5.89-3.53,11.58-4.96,17.44-2.3,9.41-3.26,19.32-6.87,28.35.52.07.28.08.71,0l.35.45.81-.51c5.61.06,11.25-.55,16.85-.98,8.19-.63,16.13-.95,24.18-2.83-2.84,1.57-6.11,2.36-9.19,3.31-11.17,3.47-24.2,6.83-35.82,4.04l-.12-.84-3.91-17.37-.68-3.1-2.11-7.63.95-.82.43,1.91c.89.5,1.47-1.09,1.89-1.78,1.04-1.7,2.2-3.76,3.51-5.25,1.48-1.68,3.5-3.09,5.22-4.53,1.64-1.37,3.43-3.41,5.51-3.96Z"/>
      <path class="cls-14" d="M401.59,317.01l.43,1.91c.89.5,1.47-1.09,1.89-1.78,1.04-1.7,2.2-3.76,3.51-5.25,1.48-1.68,3.5-3.09,5.22-4.53,1.64-1.37,3.43-3.41,5.51-3.96-5.67,11.68-10.24,26.15-9.98,39.27-.15,1.14-.18,2.28-.83,3.26l-3.91-17.37-.68-3.1-2.11-7.63.95-.82Z"/>
      <path class="cls-28" d="M402.74,325.46c1.82-2.77,4.04-5.39,5.3-8.47l.37-.13c.22,2.08-.8,3.56-1.71,5.35l-3.29,6.35-.68-3.1Z"/>
      <path class="cls-44" d="M363.16,413.6l10.58-5.76,12.43-7.6c4.43-2.9,8.34-6.51,12.75-9.41l.34-.22c-1.68,4.42-4.17,8.75-6.18,13.05l-11.98,27.6-6.91,18.43c-1.14,2.95-2.23,6.78-4.16,9.27l-.21.27-8.02-21.84-4.81-9.31-5.09-8.27,6.46-3.49,4.81-2.71Z"/>
      <path class="cls-14" d="M358.35,416.32l4.81-2.71-1.37,23.79-4.81-9.31-5.09-8.27,6.46-3.49Z"/>
      <path class="cls-21" d="M351.9,419.81l6.46-3.49-1.37,11.76-5.09-8.27Z"/>
      <path class="cls-14" d="M476.23,321.06l1.81-.1c.34.39.42.32.39.86l-.17,1.86-50.9,60.74c-8.86,10.99-16.84,22.36-24.68,34.08-2.65,3.32-4.75,7.25-6.83,10.96-1.09,1.94-2.4,3.9-3.24,5.94-5.6,8.59-10.28,17.77-14.11,27.28-.74,1.84-1.72,3.61-2.03,5.57-1.28,2.09-2.46,4.54-3.93,6.47l-1.48-10.27c1.82-1.9,2.8-5.76,4-8.18l8.91-17.47,10.9-19.01c3.36-5.78,6.54-11.67,10.26-17.23,7.57-11.3,16.28-21.65,25.06-32l32.07-35.85,9.74-9.76c1.24-1.19,2.68-2.24,3.85-3.49l.36-.4Z"/>
      <path class="cls-38" d="M54.46,122.75l5.6-3.79c7.42-4.08,14.55-5.39,22.74-3.02,6.89,3.08,12.13,7.88,14.84,15.04,1.06,2.79,1.69,5.78,1.59,8.78-.07,2.18-.32,4.43-.73,6.58-1.12,5.78-4.61,17,2.61,20.2,4.84,2.14,11.98.87,17.07.07l2.99-.22,3.02,1.23c5.2,1.73,7.37,6.98,10.93,10.68l1.48,1.34c.17,2.21.82,4.48.75,6.69l-1.98,8.48-2.22,3.54-6.46,7.99-.16.55c2.96,2.14,5.51,4.86,8.3,7.22,7.96,6.73,16.85,13.63,26.14,18.39-.72,2.01-1,3.87-1.21,5.99.26,3.4.49,6.79,1.11,10.15.74,4.05,1.94,8,3.03,11.96,1.16,4.19,2.29,8.39,3.83,12.46.46,1.04,1.3,2.41,1.49,3.5l8.14,11.17c6.42,7.83,14.5,15.67,24.44,18.51l-.24,9.15-.18,5.39c-.1,2.52-.28,4.96-.8,7.43l-2.11,5.88-1.03.35c-4.03,4.48-7.17,10.02-10.24,15.18-1.81.34-3.57.67-5.33,1.24l-10.18-12.73-10.23-11.11c-.74-.92-1.45-1.85-2.34-2.64l-.49,2.25c-1.88,6.35-3.19,12.84-4.37,19.36-.59,3.27-.8,7.13-1.97,10.21l-2.37-2.21c-.97-.44-1.72-.98-2.56-1.62l-13.65-33.59-30.71-82.32-2.52-6.98c-1.23-1.87-1.66-4.39-2.85-6.38-7.38-3.14-14.53-4.7-22.43-5.92-1.89-.27-4.1-.14-5.88-.77l.14-.41c1.97-.23,4.02-.02,5.99.08,1.95-6.63,2.85-15.29,1.8-22.12-2.05-13.34-9.72-23.56-20.01-31.87-3.89-3.15-8.65-6.69-11.47-10.87l-.3-.46c-1.1-1.64-1.98-3.41-2.45-5.34-.39-1.6-.21-3.36-1.14-4.76,2.68-6.52,6.59-11.97,11.58-16.94l1-.99Z"/>
      <path class="cls-37" d="M100.48,229.5l.14-.18c.38.52.5,1.16.93,1.59.08-.52.03-.7-.17-1.22l-.2-.48.29-.25,3.16,8.37-.16.2c-.45-.39-.51-.78-.71-1.35l-.34-.99-.29-.49c-.16-.44-.16-.76-.37-1.21l-.22.52c.29.66.54,1.22.5,1.95l-.04.5-2.52-6.98Z"/>
      <path class="cls-41" d="M54.46,122.75l4.86,9.2-1.41.06-4.45-8.27,1-.99Z"/>
      <path class="cls-28" d="M135.12,178.3l1.48,1.34c.17,2.21.82,4.48.75,6.69l-1.98,8.48-2.22,3.54-6.46,7.99-.16.55c-2.7,3.18-4.51,8.14-4.2,12.31.11,1.39.58,2.78,1.04,4.09-.35.22-.52.11-.91.06-2.09-2.32-2.96-5.16-3.25-8.22-.72-7.7,7.77-14.12,12.24-19.58.73.27,1.3.67,1.93,1.11l.45-.15c.27-.41.48-.8.67-1.25l.21-.52.29-.74c.07-.38.02-.66.22-1.03.27-.49.47-.92.59-1.48l.07-.44c.22-.94.56-1.99.59-2.95v-.37c.14-.79.15-1.2.15-1.99,0-.69.2-1.53,0-2.21-.19-.68-.33-1.42-.59-2.07l-.2-.49c-.23-.77-.1-1.14-.7-1.81l-.28-.29.25-.56Z"/>
      <path class="cls-39" d="M59.32,131.95l14.11,27.58.99-11.08.51-7.19c.09-1.06.04-2.24.58-3.18l.52.2c.28,1.38-.1,3.07-.21,4.47l-.97,11.46c-.21,2.04-.8,4.55-.64,6.56.06.73.35,1.4.62,2.07l9.81,22.83,11.76,29.96c1.61,4.35,3.9,8.88,5.07,13.33l-.29.25.2.48c.2.52.24.69.17,1.22-.43-.43-.55-1.07-.93-1.59l-.14.18c-1.23-1.87-1.66-4.39-2.85-6.38-7.38-3.14-14.53-4.7-22.43-5.92-1.89-.27-4.1-.14-5.88-.77l.14-.41c1.97-.23,4.02-.02,5.99.08,7.45,1.13,15.2,2.1,21.92,5.73l-21.51-53c-1.01-2.32-2.21-6.56-3.9-8.33-1.19-1.24-3.19-2.04-4.71-2.85-2.83-1.51-5.8-3.03-8.43-4.84l.16-.55c4.18,1.24,8.61,4.29,12.29,6.63-.1-.83-.97-2.15-1.34-2.98l-12.01-23.89,1.41-.06Z"/>
      <path class="cls-41" d="M103,236.48l.04-.5c.04-.73-.21-1.29-.5-1.95l.22-.52c.21.45.21.77.37,1.21l.29.49.34.99c.19.56.25.96.71,1.35l.16-.2,19.03,50.63c1.03-8.28,3.84-15.39,7.83-22.67.55-1.01,1.32-2.86,2.15-3.63,1.68-2.96,3.78-7,6.39-9.2l.46.02c.2,1.53-2.42,4.61-3.29,5.94-.78,1.18-1.45,2.47-2.27,3.61l-.06.06c-4.28,8.07-8.59,16.25-9.31,25.52-.13,1.74-.35,3.49.19,5.18l24.17,61.2c-.97-.44-1.72-.98-2.56-1.62l-13.65-33.59-30.71-82.32Z"/>
      <path class="cls-47" d="M126.54,206.9c2.96,2.14,5.51,4.86,8.3,7.22,7.96,6.73,16.85,13.63,26.14,18.39-.72,2.01-1,3.87-1.21,5.99-3.49-5.42-8.01-9.36-14.71-10.01-2.92-.28-5.92.04-8.84.19-2.16.11-4.8.39-6.91-.17-2.97-.79-4.4-2.74-5.93-5.22-.46-1.3-.93-2.7-1.04-4.09-.32-4.17,1.5-9.13,4.2-12.31Z"/>
      <path class="cls-28" d="M41.89,140.68c2.68-6.52,6.59-11.97,11.58-16.94l4.45,8.27,12.01,23.89c.37.83,1.24,2.14,1.34,2.98-3.68-2.33-8.12-5.38-12.29-6.63l-.16.55c2.63,1.81,5.61,3.33,8.43,4.84,1.52.81,3.53,1.61,4.71,2.85,1.69,1.77,2.89,6.01,3.9,8.33l21.51,53c-6.72-3.64-14.47-4.6-21.92-5.73,1.95-6.63,2.85-15.29,1.8-22.12-2.05-13.34-9.72-23.56-20.01-31.87-3.89-3.15-8.65-6.69-11.47-10.87l-.3-.46c-1.1-1.64-1.98-3.41-2.45-5.34-.39-1.6-.21-3.36-1.14-4.76Z"/>
      <path class="cls-46" d="M167.74,273.06c.46,1.04,1.3,2.41,1.49,3.5l8.14,11.17c6.42,7.83,14.5,15.67,24.44,18.51l-.24,9.15-.18,5.39c-.1,2.52-.28,4.96-.8,7.43l-2.11,5.88-1.03.35c-4.03,4.48-7.17,10.02-10.24,15.18-1.81.34-3.57.67-5.33,1.24l-10.18-12.73c2.96-3.71,5.81-8.87,7.54-13.3,1.05-2.68,1.76-5.17,2.37-7.98.42-1.95.49-4.29.08-6.26l-.09-.38c-.14-.66-.26-1.25-.51-1.88l-.23-.52c-.12-.29-.14-.46-.28-.71-1.1-1.86-2.75-2.37-4.64-2.97-1.47-.47-4.61-.55-6.14-.17-1,.25-1.98.06-2.98.31-1.49.37-3.68.27-5.2.02l-1.18-.18-1.47-.22-.3-.08c-1.68-.43-3.71-1.23-4.77-2.66-1.92-2.57-2.36-6.29-1.85-9.4.37-2.25.87-4.36,1.77-6.46,2.82-6.61,7.5-9.62,13.96-12.24Z"/>
      <path class="cls-47" d="M201.39,320.79c-.1,2.52-.28,4.96-.8,7.43l-2.11,5.88-1.03.35c-1.63-1.12-3.75-1.81-4.99-3.4.01-.3,0-.44.06-.72.18-.9.92-1.81,1.45-2.53,2.1-2.86,4.49-5.03,7.42-7.01Z"/>
      <path class="cls-23" d="M169.23,276.56l8.14,11.17c6.42,7.83,14.5,15.67,24.44,18.51l-.24,9.15c-7.01-2.86-10.41-7.94-15.69-13-1.95-1.87-4.81-3.57-7.53-3.96-4.46-.63-9.17,1.12-13.67,1.19-2.02.03-4.75.06-6.25-1.54-1.19-1.26-1.33-2.94-1.31-4.59.07-6.2,8.01-12.92,12.12-16.94Z"/>
      <path class="cls-22" d="M287.02,450.06l64.88-30.25,5.09,8.27,4.81,9.31,8.02,21.84,1.23,5.22,1.48,10.27c-.16,2.91.44,5.92.15,8.78l.31.86.07,6.07.05,3.95-.08,5.14-.27,9.43c-.65,5.69-1.18,11.52-2.58,17.09-12.94,3.48-25.97,6.21-39.26,7.96-5.15.68-10.58,1.46-15.78,1.58-39.75,3.79-80.63.47-119.11-10.23l-1.97-14.72-.2-1.52-2.15-24.06-1.06-12.45c-.19-2-.16-4.12-.63-6.07l.05-1.26-.1-.9-.35-7.17c.87-.12,1.76.53,2.52.9,1.79.88,3.62,1.74,5.5,2.41,3.53,1.25,6.89,1.32,10.45,2.06l-.47.25c-1.73.87-5.05.85-6.11,2.59.04,1.19.19,2.29,1.12,3.14,1.91,1.74,4.73,1.68,7.07,2.42l-.29.28c-.59.6-1.36,1.23-1.42,2.13-.05.82.25,1.66.83,2.24,1.14,1.14,2.78,1.12,4.28,1.22,3.61.24,7.14.07,10.75-.15.6-.04.68.03,1.19-.31,2.01.15,3.63.1,5.62-.35,9.83-2.99,19.61-6.3,29.1-10.26,9.62-4.01,19.34-8.84,27.25-15.71Z"/>
      <path class="cls-20" d="M267.79,497.57c.54-.28,2.32-.15,3.01-.18-9.61,4.05-19.6,7.91-29.89,9.77-6.14,1.11-12.19,1.38-18.4,1.4l-4.03-.03c3.66-1.43,7.86-2.17,11.67-3.19,12.49-3.33,24.75-6.35,37.64-7.77Z"/>
      <path class="cls-20" d="M301.04,476.34l.83-.08-.14.24c-7.05,3.72-14.3,7.49-21.69,10.48-16.12,6.51-33.7,10.16-51.13,8.87-7.53-.56-14.88-2.1-22.2-3.88l-5.08-1.41c8.84.42,17.62,1.42,26.49.95,14.67-.78,29.13-4.69,43.34-8.16l29.58-7Z"/>
      <path class="cls-18" d="M287.02,450.06l64.88-30.25,5.09,8.27,4.81,9.31,8.02,21.84,1.23,5.22,1.48,10.27c-.16,2.91.44,5.92.15,8.78l.31.86.07,6.07.05,3.95-.08,5.14-.27,9.43c-.65,5.69-1.18,11.52-2.58,17.09-12.94,3.48-25.97,6.21-39.26,7.96-5.15.68-10.58,1.46-15.78,1.58l7.31-13.35c8.73-17.59,14.45-38.65,13.09-58.38-.56-8.17-2.63-17.11-5.24-24.87-2.55,1.39-4.88,3.09-7.34,4.62l-15.45,9.17c-19.09,10.82-39.18,19.36-60.22,25.55-4.3,1.26-8.61,2.39-13.05,2.99-1.28.17-2.87.5-4.13.26-.91-.18-1.16-.55-1.69-1.27-.23-1.82,1.27-2.81,2.25-4.27,9.83-2.99,19.61-6.3,29.1-10.26,9.62-4.01,19.34-8.84,27.25-15.71Z"/>
      <path class="cls-25" d="M370.37,278.24l14.75-3.83c.99-.24,2.47-.77,3.35-.24l7.75,27.53,4.42,16.14,2.11,7.63.68,3.1,3.91,17.37.12.84,1.55,8.62.47,2.57c1.06,5.7,1.81,11.74,1.74,17.55-.03,2.23-.15,4.53-1.39,6.46-2.44,3.81-7.17,5.81-10.57,8.63l-.34.22c-4.41,2.9-8.31,6.51-12.75,9.41l-12.43,7.6-10.58,5.76-4.81,2.71-6.46,3.49-64.88,30.25c-7.91,6.87-17.63,11.7-27.25,15.71-9.49,3.95-19.27,7.27-29.1,10.26-1.99.45-3.61.5-5.62.35-.5.35-.59.27-1.19.31-3.61.23-7.13.4-10.75.15-1.5-.1-3.14-.08-4.28-1.22-.58-.58-.88-1.42-.83-2.24.06-.9.83-1.53,1.42-2.13l.29-.28c-2.34-.74-5.16-.68-7.07-2.42-.93-.85-1.08-1.94-1.12-3.14,1.06-1.74,4.37-1.72,6.11-2.59l.47-.25c-3.56-.74-6.92-.81-10.45-2.06-1.89-.67-3.71-1.53-5.5-2.41-.76-.37-1.65-1.02-2.52-.9-.49-.42-.27-.28-.8-.57-2.69-1.48-5.04-3.38-7.43-5.29-3.87-3.11-7.45-6.34-10.79-10.02l-7.35-8.81c-1.83-3.88-1.65-8.23-.9-12.35,2.76-15.18,6.27-29.73,12.05-44.1l.73-1.88c2.52-6.72,5.97-12.92,9.37-19.21l-2.65-4.11c1.76-.58,3.52-.91,5.33-1.24,3.07-5.16,6.22-10.7,10.24-15.18l1.03-.35,2.11-5.88,6.74,1.93c1.52.37,3.18.5,4.5,1.39l3.85-2.34c5.78-3.65,11.43-5.82,18.22-6.71,14.25-1.87,30.04,5.37,40.99,13.93,15.11,11.81,27.19,29.93,29.43,49.3.72,6.18.64,12.52-.87,18.58-1.05,4.23-2.56,8.49-4.54,12.37-.7,1.37-2.47,3.55-2.33,5.09l46.87-35.45c-1.63-1.7-2.98-3.67-4.16-5.7-.55-.71-.81-1.51-1.12-2.34l-.38-.53,9.27-4.43c1.09-4.19,2.96-8.24,4.62-12.24l4.63-8.82,5.14-2.36,5.61-3.88-19.87-54.38-1.74-5.29,24.94-8.13Z"/>
      <path class="cls-45" d="M192.59,426.15c-1.67-.84-3.45-1.89-4.86-3.12-1.22-1.06-2.41-2.15-2.55-3.84.37-.74,1.22-1.03,1.92-1.39,1.61,3.35,2.98,5.38,5.72,7.89l-.24.46Z"/>
      <path class="cls-20" d="M229,422.79c6.76,6.28,14.43,8.66,23.27,10.48l-5.37,3.03c-1.22-.85-2.76-1.22-4.1-1.87-2.78-1.34-5.41-2.91-7.97-4.62-2.62-1.76-4.89-3.96-5.83-7.02Z"/>
      <path class="cls-31" d="M203.18,457.76c-2.31-.58-3.29-1.79-5.28-2.81-1.15-.59-2.49-.88-3.69-1.43-2.97-1.36-5.84-3.11-8.37-5.16l.12-.38c5.39,3.64,11.72,4.99,17.59,7.58,8.42,2.26,16.27,3.66,25.04,3.74,3.65.03,7.63-.53,11.21-.18-7.03,1.88-14.26,3.95-21.54,4.52-2.15-1.43-5.46-.27-7.98-1.13,2.7-.59,5.26-1,7.8-2.17-4.96-.31-10.15-1.14-14.91-2.6Z"/>
      <path class="cls-31" d="M188.99,441.49c.85-.06,1.84.82,2.6,1.24,1.43.81,3,1.56,4.52,2.18,4.13,1.68,9.32,2.97,13.72,3.78,2.67.49,5.59.4,8.3.48l20.09.18c-2.6,1.2-6.47,1.64-9.3,2.27-5.57,1.22-11.43,1.69-17.12,2-3.78.2-8.34.56-11.94-.78l-.15-.56c1.39-1.28,4.32-.29,6.05-1.16-.17-.96-9.17-4.21-10.47-4.92-2.38-1.3-4.36-2.8-6.29-4.7Z"/>
      <path class="cls-18" d="M208.09,462.57l2.2-.04c2.52.86,5.83-.3,7.98,1.13-4.42.68-8.37,1.52-12.53,3.22l-.26.46c1.21,1.44,3.36,1.88,5.18,2.02,3.02.24,6.12-.48,9.11-.87l25.62-4.28c-3.64,1.76-19.13,7.81-20.13,10.71-.15.44-.07.58-.13,1.02l-.1.43c-.5.35-.59.27-1.19.31-3.61.23-7.13.4-10.75.15-1.5-.1-3.14-.08-4.28-1.22-.58-.58-.88-1.42-.83-2.24.06-.9.83-1.53,1.42-2.13l.29-.28c-2.34-.74-5.16-.68-7.07-2.42-.93-.85-1.08-1.94-1.12-3.14,1.06-1.74,4.37-1.72,6.11-2.59l.47-.25Z"/>
      <path class="cls-32" d="M367.05,346.03l1.71,5.97,1.62,5.32-.31.42.04.33c.11.89.24,1.55.6,2.36l.13.31.58,1.17c-.51.61-.58.84-1.34,1.03-.18.74-.2,1.12-.83,1.59l-7.36,5.74-1.05.99-9.04,8.18c-.65.54-1.6,1.53-2.38,1.81l-1.81,1.7-4.18,3.38c-1.63-1.7-2.98-3.67-4.16-5.7-.55-.71-.81-1.51-1.12-2.34l-.38-.53,9.27-4.43c1.09-4.19,2.96-8.24,4.62-12.24l4.63-8.82,5.14-2.36,5.61-3.88Z"/>
      <path class="cls-21" d="M367.05,346.03l1.71,5.97c-3.54.66-6.76,2.29-10.14,3.44l2.82-5.53,5.61-3.88Z"/>
      <path class="cls-26" d="M366.39,363.83l3.68-6.1.04.33c.11.89.24,1.55.6,2.36l.13.31.58,1.17c-.51.61-.58.84-1.34,1.03-.18.74-.2,1.12-.83,1.59l-7.36,5.74c-1.79-.22-3.62.15-5.44.08-1.22.45-2.23,1.06-3.33,1.74l-14.55,6.4-.41-.2-.38-.53,9.27-4.43c.67-.27,1.27-.63,1.89-.99l10.63-4.91c2.31-1.11,4.73-2.12,6.83-3.59Z"/>
      <path class="cls-14" d="M356.46,370.34c2.33-.93,10.88-6.24,12.8-5.82l-7.36,5.74c-1.79-.22-3.62.15-5.44.08Z"/>
      <path class="cls-27" d="M361.44,349.91l-2.82,5.53c-2.9,5.66-5.65,11.7-9.67,16.66v.24c-.63.36-1.23.72-1.9.99,1.09-4.19,2.96-8.24,4.62-12.24l4.63-8.82,5.14-2.36Z"/>
      <path class="cls-32" d="M353.12,372.08c1.1-.68,2.11-1.28,3.33-1.74,1.82.07,3.65-.3,5.44-.08l-1.05.99-9.04,8.18c-.65.54-1.6,1.53-2.38,1.81l-1.81,1.7-4.18,3.38c-1.63-1.7-2.98-3.67-4.16-5.7-.55-.71-.81-1.51-1.12-2.34l.41.2,14.55-6.4Z"/>
      <path class="cls-27" d="M353.12,372.08c1.1-.68,2.11-1.28,3.33-1.74,1.82.07,3.65-.3,5.44-.08l-1.05.99c-1.68.78-5.13,2.31-6.9,1.41l-.82-.59Z"/>
      <path class="cls-27" d="M338.15,378.28l.41.2c.75.79,1.96.93,2.98,1.2,2.68.71,5.15,1.17,7.89,1.56l-1.81,1.7c-2.45-1.09-5.7-1.7-8.34-2.32-.55-.71-.81-1.51-1.12-2.34Z"/>
      <path class="cls-14" d="M339.28,380.62c2.64.62,5.89,1.23,8.34,2.32l-4.18,3.38c-1.63-1.7-2.98-3.67-4.16-5.7Z"/>
      <path class="cls-34" d="M370.37,278.24l14.75-3.83c.99-.24,2.47-.77,3.35-.24l7.75,27.53,4.42,16.14,2.11,7.63.68,3.1,3.91,17.37.12.84,1.55,8.62.47,2.57c1.06,5.7,1.81,11.74,1.74,17.55-.03,2.23-.15,4.53-1.39,6.46-2.44,3.81-7.17,5.81-10.57,8.63l-.34.22c-4.41,2.9-8.31,6.51-12.75,9.41l-12.43,7.6-10.58,5.76-4.81,2.71-6.46,3.49-64.88,30.25c-2.8-1.53-6.16-2.33-9.19-3.32l5.99-2.05c6.78-2.63,13.35-6.29,19.84-9.56l45.27-25.07c8.06-4.99,16.06-10.03,23.25-16.26,7.67-6.65,15.17-14.87,19.19-24.28,3.05-7.15,3.73-14.57,3.2-22.27-.83-12.04-4.76-24.56-8.48-35.97l-10.98-30.44-19.66,7.29c-2.7,1.03-5.86,1.94-8.26,3.53l-1.74-5.29,24.94-8.13Z"/>
      <path class="cls-22" d="M215.68,329.2c5.78-3.65,11.43-5.82,18.22-6.71,14.25-1.87,30.04,5.37,40.99,13.93,15.11,11.81,27.19,29.93,29.43,49.3.72,6.18.64,12.52-.87,18.58-1.05,4.23-2.56,8.49-4.54,12.37-.7,1.37-2.47,3.55-2.33,5.09l-14.45,10.46c-3.2-1.9-6.17-3.48-9.74-4.58-9.44-2.89-19.83-3.98-29.58-5.54l-9.39-1.39c-1.48-.18-3-.48-4.48-.19l-.45.59c.15.57.28,1.13.5,1.68.95,3.07,3.21,5.27,5.83,7.02,2.56,1.72,5.19,3.28,7.97,4.62,1.34.65,2.88,1.02,4.1,1.87l-6.62,2.34c-6.78,2.1-13.72,3.87-20.73,5-1.46.24-3,.79-4.49.68-2.87-.22-6.07-1.6-8.82-2.47-3.13-1-6.53-1.82-9.51-3.19-.65-.3-1.66-.61-1.92-1.29,1.68.7,3.56,1.39,5.32,1.84,4.41,1.12,9.24,1.34,13.78,1.68,4.22.31,8.76,1.04,12.84-.35.88-.3,1.85-.56,2.28-1.41-2.06-2.09-6-2.75-8.74-3.51l-14-3.87c-4.39-1.23-10.11-2.76-13.71-5.59l.24-.46c-2.74-2.51-4.11-4.54-5.72-7.89,4.66-.57,11.6-.43,15.38-3.48,1.03-.83,1.83-2.04,1.92-3.39.06-.9-.27-1.57-.88-2.22-.33-.17-.65-.34-1.03-.39-1.99-.25-4.5.37-6.56.37-4.91,0-10.04-.98-14.93-.26-3.02.45-5.43,1.13-8.22,2.39-2.18,1.72-4.3,3.28-6.32,5.21-1.39,1.33-2.61,2.94-4.11,4.13,2.76-15.18,6.27-29.73,12.05-44.1l.73-1.88c2.52-6.72,5.97-12.92,9.37-19.21l-2.65-4.11c1.76-.58,3.52-.91,5.33-1.24,3.07-5.16,6.22-10.7,10.24-15.18l1.03-.35,2.11-5.88,6.74,1.93c1.52.37,3.18.5,4.5,1.39l3.85-2.34Z"/>
      <path class="cls-34" d="M200.58,328.22l6.74,1.93c1.52.37,3.18.5,4.5,1.39-4.53,3.73-9.61,7.75-13.26,12.38-.52-3.07-.13-6.69-.09-9.83l2.11-5.88Z"/>
      <path class="cls-10" d="M197.44,334.44l1.03-.35c-.04,3.14-.43,6.76.09,9.83-13.43,16.23-24.21,37.41-25.65,58.71-.16,2.36-.56,5.21-.33,7.54.03.29.09.41.2.65-2.18,1.72-4.3,3.28-6.32,5.21-1.39,1.33-2.61,2.94-4.11,4.13,2.76-15.18,6.27-29.73,12.05-44.1l.73-1.88c2.52-6.72,5.97-12.92,9.37-19.21l-2.65-4.11c1.76-.58,3.52-.91,5.33-1.24,3.07-5.16,6.22-10.7,10.24-15.18Z"/>
      <path class="cls-28" d="M181.86,350.87c1.76-.58,3.52-.91,5.33-1.24l-2.68,5.35-2.65-4.11Z"/>
      <path class="cls-47" d="M176.29,34.06c.25-.14,1.29-2.66,1.48-3.05,1.55-3.27,3.22-6.41,5.14-9.47,5.57-8.86,12.2-15.54,20.7-21.54l-19.53,29.71c2.31-.57,4.34-1.3,6.51-2.29.6-.03,3.46-2.76,4.1-3.3,3.16-2.65,6.48-4.91,9.93-7.16,10.79-7.06,22.09-12.25,34.4-16.08-1.54,1.48-3.47,2.61-5.22,3.82l-8.37,5.8c4.56-.17,9.09-1.36,13.6-2.06,8.88-1.37,17.78-2.52,26.76-2.92,15.59-.69,31.57-.31,47.03,1.88,42.34,5.98,81.53,24.3,112.89,53.43,17.81,16.55,33.23,36.67,44.44,58.24,2.83,5.45,5.13,11.09,7.57,16.71,3.96,9.11,7.95,18.83,9.49,28.69l1.33.95-.44,17.86.17.15c.92,1,.72,1.46.78,2.79-.06.98-.21,1.92.17,2.85l12.91-12.85c4.01-3.92,8.41-7.65,10.95-12.73,1.59,2.35,2.27,6.05,3.05,8.76,5.19,18.02,8.72,37.49,8.76,56.28,3.29-.54,6.01-.77,8.85,1.36,1.72,1.29,3.13,3.63,3.49,5.75.39,2.33-.2,5.24-1.6,7.16-1.46,2-3.68,3.38-6.14,3.68-1.65.2-3.2-.25-4.82-.51-1.22,10.74-2.42,21.28-5.43,31.7-.54,1.89-.73,4.18-2.21,5.5l-.44-.09c-3.1,6.5-4.72,13.17-5.31,20.31l-6.39,7.87-4.25-5.8-.19.09-.84,2.52-2.18,8.32c-2.12-.69-2.55-1.53-3.61-3.5-1.76,3.52-4.1,7.17-7.25,9.61-1.24.96-2.65,1.73-3.82,2.79-1.76,2.51-2.76,5.6-4.55,7.98l.05-9.61.17-1.86c.04-.55-.05-.47-.39-.86l-1.81.1c-2.98.42-6,1.6-8.9,2.46l-23.05,6.96c-6.79,1.84-14.61,3.84-21.65,2.42-3.42,3.81-7.08,7.29-11.19,10.35l-.81.51-.35-.45c-.43.08-.19.06-.71,0,3.61-9.04,4.56-18.94,6.87-28.35,1.43-5.86,3.72-11.55,4.96-17.44l-3.1,5.67-.15.24c-2.08.56-3.87,2.6-5.51,3.96-1.72,1.44-3.74,2.85-5.22,4.53-1.31,1.49-2.47,3.55-3.51,5.25-.42.69-1.01,2.29-1.89,1.78l-.43-1.91-.95.82-4.42-16.14-7.75-27.53c-.87-.53-2.35,0-3.35.24l-14.75,3.83-24.94,8.13,1.74,5.29,19.87,54.38-5.61,3.88-5.14,2.36-4.63,8.82c-1.66,4-3.53,8.04-4.62,12.24l-9.27,4.43.38.53c.31.83.57,1.63,1.12,2.34,1.18,2.02,2.53,4,4.16,5.7l-46.87,35.45c-.14-1.54,1.63-3.72,2.33-5.09,1.98-3.88,3.49-8.14,4.54-12.37,1.51-6.07,1.59-12.4.87-18.58-2.25-19.37-14.32-37.49-29.43-49.3-10.95-8.56-26.75-15.79-40.99-13.93-6.79.89-12.43,3.06-18.22,6.71l-3.85,2.34c-1.32-.89-2.98-1.02-4.5-1.39l-6.74-1.93c.52-2.48.7-4.91.8-7.43l.18-5.39.24-9.15c-9.94-2.84-18.02-10.68-24.44-18.51l-8.14-11.17c-.19-1.1-1.03-2.46-1.49-3.5-1.55-4.07-2.68-8.26-3.83-12.46-1.09-3.96-2.29-7.91-3.03-11.96-.62-3.36-.85-6.75-1.11-10.15.21-2.12.49-3.98,1.21-5.99-9.29-4.77-18.18-11.66-26.14-18.39-2.79-2.36-5.34-5.08-8.3-7.22l.16-.55,6.46-7.99,2.22-3.54,1.98-8.48c.07-2.22-.58-4.48-.75-6.69l-1.48-1.34c-3.56-3.69-5.73-8.94-10.93-10.68l-3.02-1.23-2.99.22c-5.08.8-12.22,2.07-17.07-.07-7.22-3.2-3.73-14.42-2.61-20.2.42-2.14.67-4.39.73-6.58.09-3-.54-5.99-1.59-8.78-2.71-7.16-7.96-11.97-14.84-15.04l10.09-15.69c5.3-7.57,11.31-14.42,17.73-21.06,4.47-4.63,9.13-9.27,14.14-13.33l14.1-11.67.48-4.03,1.21,3.4,12.06-7.17c.9-2.92,1.55-5.87,2.62-8.74,1.14-3.09,2.68-5.91,4.31-8.77.13,1.6-.34,3.54-.53,5.16l-1.01,9.72,7.66-4.1c3.06-10.37,4.91-19.83,11.42-28.83l-5.58,25.38,4.81-2.16Z"/>
      <path class="cls-3" d="M207.31,85.43l.95,1.67c.56.84.08.06.42.79.34.72.95,1.29,1.49,1.88-.72.42-1.95,1.36-2.76,1.5l-.09-5.84Z"/>
      <path class="cls-33" d="M181.78,213.88l2.74-9.75c.39,2.82.22,5.58.09,8.4l-2.84,1.35Z"/>
      <path class="cls-39" d="M421.41,138.49l3.9.57.16.7c-2.36,1.01-4.97,1.11-7.5,1.38l-1.38-1c.48-.84,1.54-1.09,2.39-1.44l2.42-.2Z"/>
      <path class="cls-14" d="M480.31,225.19l.83.41.19-.24.24.12-7,20.56-1.21-.12,6.95-20.73Z"/>
      <path class="cls-30" d="M407.13,131.97l.2.18c.74.67,1.36,1.38,1.97,2.16l.51-.1c.23-.57.19-.73.72-1.09.4.39,1.64,1.36,1.85,1.82.35.72-.36.7.56,1.3l1.84.61c3.31-.06,6.04-1.88,9.31-1.95l-5.11,3.78c-.86.35-1.91.59-2.39,1.44l-2.21.55c-2.85-2.35-5.59-5.36-7.24-8.7Z"/>
      <path class="cls-42" d="M414.37,140.68l2.21-.55,1.38,1c-1.78,1.64-2.99,3.96-4.24,6.01-4.46,7.27-7.73,14.23-10.15,22.43l-1.04-.27c.28-1.71.94-3.47,1.45-5.13,1.61-5.28,3.79-10.28,6.29-15.2,1.39-2.74,3.07-5.39,4.1-8.29Z"/>
      <path class="cls-29" d="M209.13,166.74l1.34.18.58,1.49.38-.66.52.27c0,.42.07.62-.16.99l.64-.05c0,4.49-1.84,9.49-3.19,13.73-1.64,5.11-3.3,10.9-6.2,15.43,2.84-10.21,6.13-20.69,6.1-31.37Z"/>
      <path class="cls-46" d="M169.46,220.24c1.14-6.45,2.6-12.53,4.81-18.71.98-2.73,1.95-5.55,3.42-8.06-.16,5.59-1.29,11.44-2.35,16.93-.38,1.99-1.21,4.24-1.26,6.24v.48s-4.62,3.11-4.62,3.11Z"/>
      <path class="cls-5" d="M407.13,131.97c-7.03-8.89-8.79-22.46-9.17-33.47-.06-1.79-.44-4.3-.13-6.02l.13-.28c5.31,2.98,7.83,8.55,9.41,14.21,1.81,6.51,1.85,13.34,2.61,20.01.17,1.49,1.2,5.24.68,6.49l-.13.22c-.53.36-.49.52-.72,1.09l-.51.1c-.62-.78-1.23-1.49-1.97-2.16l-.2-.18Z"/>
      <path class="cls-5" d="M421.41,138.49l-.43-.36,1.1-.51c2.96-1.29,5.83-4.74,8.2-6.92,6.91-6.38,15.7-12.69,24.73-15.65,2.11-.69,4.36-.98,6.54-1.32-6.27,10.48-15.25,21-27.63,24.12-2.86.72-5.67,1.05-8.61,1.22l-3.9-.57Z"/>
      <path class="cls-17" d="M364.02,133.31c.05-.19-4.68-7.19-5.18-8.42-.32-.79-.14-.95.15-1.72,4.6,5.47,9.59,10.2,14.97,14.91l15.65,13.67c5.46,5.11,9.97,9.74,12.46,16.92.13.38.11.27.46.64l1.04.27c-1.57,6.74-1.72,13.89-4.71,20.26-1.37,2.92-3.28,5.35-5.34,7.81-2.07,2.48-4.3,5.15-7.07,6.88l-.96.56c-.43-.42-.52-.57-.75-1.1,2.56-2.52,4.67-5.98,6.49-9.06,4.33-7.35,8.24-16.54,5.9-25.22l-.14-.51c-2.78-10.26-13.9-18.16-21.51-25.01l-11.48-10.88Z"/>
      <path class="cls-37" d="M443.25,246.93c3.4.08,5.56.81,7.96,3.33,5.37,5.64,6.6,15.4,7.24,22.84.08.99-.13,3.16.81,3.47.27.64.23.31.12.98-.55.54-.92.96-1.36,1.59l-.28.37-.13.39c-.23.58-.52.66-.86,1.11l-.14.32-.39-.09c-2.33-.4-3.71-2.03-5.4-3.55l-6.2-5.64c0-.14-1.63-1.78-1.84-2-2.24-2.64-4.18-5.27-5.84-8.31l-.52-1.66c-.83-2.73-.71-4.9.51-7.5,1.3-2.79,3.47-4.57,6.31-5.62Z"/>
      <path class="cls-30" d="M487.51,190.49c-5.91-4.41-11.36-9.55-16.38-14.92-2.83-3.03-5.74-6.17-8-9.65-1.95-2.99-3.77-7.13-2.8-10.77.46-1.74,1.81-3.11,3.32-4,1.85-1.08,4.23-1.2,6.26-.59,7.84,2.37,13.43,17.51,15.63,24.69.68,2.2,1.17,5.93,2.39,7.8l.18.23.17.15c-.48,2.3-.49,4.72-.77,7.06Z"/>
      <path class="cls-5" d="M413.02,135.61l-.5-2.57-.23-1.1c-.67-3.48-.19-7.55.22-11.03.75-6.28,1.68-13.3,5.42-18.6,1.23-1.75,3.08-3.46,5.27-3.75,1.63-.21,3.44.47,4.7,1.5,3.16,2.57,4.94,6.97,5.32,10.96.55,5.77-1.38,11.03-3.88,16.14-1.06,2.17-2.22,4.46-3.8,6.3l-1.45,1.44c-3.27.07-6.01,1.89-9.31,1.95l-1.84-.61.08-.63Z"/>
      <path class="cls-37" d="M413.02,135.61l4.65-15.21c-.16,3.49-.94,6.72-1.5,10.15-.32,1.98-.37,4.56-1.4,6.3l-1.84-.61.08-.63Z"/>
      <path class="cls-23" d="M420.36,101.27c.86-.06,1.86.04,2.63.46,1.28.7,1.91,1.99,2.33,3.33,2.06,6.5,2.35,17.59-.86,23.67l-.4.67-.36-.08c1.56-5.16,2.12-11.52,1.42-16.89-.31-2.4-.56-4.95-1.46-7.22-.51-1.29-1.64-2.69-2.99-3.17l-.52-.16.21-.62Z"/>
      <path class="cls-47" d="M364.02,133.31l11.48,10.88c7.61,6.85,18.73,14.76,21.51,25.01l.14.51c2.34,8.68-1.57,17.87-5.9,25.22-1.82,3.08-3.93,6.54-6.49,9.06.23.53.32.68.75,1.1l-.64.88c1.17,2.66,2.92,5.09,4.57,7.47l.23.22-1.54,2.3-.84,1.61-1.07,2.28-5.57-5.5c-.88-1.57-1.58-3.22-1.55-5.06.05-3.99,2.53-7.97,3.85-11.68,1.1-3.1,1.91-6.43,2.48-9.66,1.84-10.36.43-23.63-5.68-32.46-2.78-6.17-8.39-11.52-12.43-16.92-1.22-1.63-2.7-3.3-3.3-5.27Z"/>
      <path class="cls-42" d="M384.75,203.98c.23.53.32.68.75,1.1l-.64.88c1.17,2.66,2.92,5.09,4.57,7.47l.23.22-1.54,2.3c-2.52-2.83-4.59-6.15-6.65-9.32l3.29-2.66Z"/>
      <path class="cls-28" d="M374.57,59.24c3.12-.32,6.15-.01,8.96,1.44,3.54,1.83,6.12,5.03,7.31,8.82,1.22,3.91.72,8.26-1.28,11.82-2.23,3.97-5.97,5.84-10.19,6.99-3.43.36-6.81-.17-9.83-1.89-3.39-1.93-5.97-5.4-6.86-9.19-.92-3.92-.4-7.83,1.81-11.25,2.41-3.73,5.77-5.81,10.08-6.74Z"/>
      <path class="cls-17" d="M210.16,89.77c6.03-3.03,10.84-8.13,17.09-11.02,6.07-2.81,12.4-4.45,18.77-6.4,11.13-3.39,22.9-7.91,31.78-15.65,3.35-2.92,6.75-6.27,9.13-10.04,1.38-2.18,2.42-4.54,3.55-6.85.47-.97.93-2.26,1.73-2.98.49.51.51,1,.59,1.68l.05.44c.28,2.48-.46,3.96-1.24,6.27l.29.57c-1.58,3.71-3.29,8.05-2.9,12.14l-.4.29c-1.46,1.08-2.7,2.54-4.05,3.76-3.08,2.8-6.54,4.98-10.24,6.86-5.94,3.01-12.26,5.35-18.5,7.67l-13.66,4.71c-1.29.47-2.59.63-3.64,1.55-4.28.33-6.7,1.96-9.56,5.1l-.51-.46c-.6-.75-.83-.98-1.68-1.44l-.36-1.63c-2.3.8-4.31,2.24-6.27,3.64-4.58,3.29-8.54,6.84-11.73,11.53-5.37,6.57-7.01,16.67-6.19,24.92.77,7.77,4.65,14.82,9.44,20.87,3.18,4.02,6.82,7.64,9.7,11.9,3.97,5.87,6.45,12.01,7.61,18.99.37,2.2.23,5.3-.21,7.45l-.11,1.15c-.27,2.01-1.24,4.1-2.14,5.9-2.67,5.29-6.22,9.99-11.15,13.36-6.9,4.72-14.29,6.64-22.45,8.01-2.01.34-4.34.98-6.38.66l-1.11-.24-.33-.04,11.8-5.89c7.42-4.04,15.23-9.98,20.15-16.9,2.71-3.81,4.13-7.97,3.23-12.66-.82-4.31-3.96-7.22-7.4-9.61-.39.6-.3.33-.4,1.05l-.05.51-.64.05c.23-.36.16-.56.16-.99l-.52-.27-.38.66-.58-1.49-1.34-.18c-.12-.44-.24-1.16-.43-1.54-.32-.64-2.34-1.77-2.98-2.42-1.68-1.73-3.18-3.8-4.56-5.78-3.04-4.35-5.84-9.24-7.64-14.24-3.59-9.94-1.46-21.51,2.66-31,1.33-3.07,3.11-5.89,4.51-8.92-2.21,2.23-4.04,4.96-5.83,7.54-3.71,5.37-7.62,11.38-9.06,17.84-2.41,10.84,1.14,19,7.83,27.38,1.7,2.13,3.88,4.1,5.32,6.39l-.3.28c-3.64-1.49-7.26-5.99-9.6-9.11-5.18-6.91-7.12-14.37-5.95-22.94,1.03-7.6,5.25-14.26,9.44-20.53,4.38-6.55,9.26-12.86,14.85-18.42.81-.14,2.04-1.08,2.76-1.5Z"/>
      <path class="cls-31" d="M291.62,45.23l.29.57c-1.58,3.71-3.29,8.05-2.9,12.14l-.4.29c-1.46,1.08-2.7,2.54-4.05,3.76-3.08,2.8-6.54,4.98-10.24,6.86-5.94,3.01-12.26,5.35-18.5,7.67l-13.66,4.71c-1.29.47-2.59.63-3.64,1.55-4.28.33-6.7,1.96-9.56,5.1l-.51-.46c-.6-.75-.83-.98-1.68-1.44l-.36-1.63,32.89-12.89c13.38-5.77,26.58-11.78,32.32-26.24Z"/>
      <path class="cls-21" d="M430.62,174.08l2.23-1.72.53.09.77,1.66c8.34,23.67,14.55,47.75,9.1,72.82-2.84,1.06-5.01,2.84-6.31,5.62-1.21,2.6-1.34,4.77-.51,7.5l.52,1.66c1.66,3.04,3.61,5.67,5.84,8.31.21.22,1.83,1.86,1.84,2l6.2,5.64c1.7,1.53,3.07,3.15,5.4,3.55l.39.09-5.91,10.88c-.91,1.7-2.33,3.78-2.89,5.61,0,.46-.07.91.09,1.34.42-.21.54-.45.81-.82l.35.13-.89,2.04c-1.47,2-2.76,4.13-4.01,6.27-.7,1.2-1.24,2.51-2.14,3.57-.42.5-.34.48-1.01.64l-.69.45.17.62c-.72,1.08-1.42,2.42-2.37,3.3-1.31.86-2.51,2.23-3.52,3.42-.46,1.17-8.26,8.94-9.7,10.27-1.04.98-2.06,2.12-3.3,2.83-.66,1.46-2.31,2.81-3.47,3.92l-7.87,7.52c-.43.08-.19.06-.71,0,3.61-9.04,4.56-18.94,6.87-28.35,1.43-5.86,3.72-11.55,4.96-17.44l-3.1,5.67-.15.24c-2.08.56-3.87,2.6-5.51,3.96-1.72,1.44-3.74,2.85-5.22,4.53-1.31,1.49-2.47,3.55-3.51,5.25-.42.69-1.01,2.29-1.89,1.78l-.43-1.91-.95.82-4.42-16.14c.89-.51,1.29-1.2,1.84-2.03l1.12-1.4c3.31-4.71,9.58-15.19,9.39-21-.08-2.27-1.28-4.9-2.29-6.92-1.79-3.56-4.06-6.74-5.26-10.6-1.18-3.79-1.69-7.7-2.56-11.56-.89-3.92-2.09-7.82-3.54-11.57l-3.4-7.65c-.96-1.95-2.04-3.5-2.38-5.7l-.06-.43-2.86-2.99,1.07-2.28.84-1.61,1.54-2.3-.23-.22c1.28-1.12,2.26-3.48,3.29-4.95,2.13-3.04,4.41-6.04,6.9-8.79,9.09-10.08,20.15-17.63,31.01-25.62Z"/>
      <path class="cls-33" d="M432.38,285.56c-.43-1.83-.52-3.89-.83-5.76l-2.04-9.8-2.69-10.28c-.63-2.17-1.48-4.3-1.9-6.52,3.26,5.5,5.22,12.72,6.71,18.91.97,4.03,1.98,7.95,1.96,12.11l-.09.74-1.12.6Z"/>
      <path class="cls-27" d="M433.58,284.22c.25-.77.62-1.47.98-2.19l.53.18c-.97,2.1-1.29,4.64-1.67,6.92l-1.95,11.86-6.55,28.04c-1.04.98-2.06,2.12-3.3,2.83.17-5.41,1.17-10.94,2.08-16.27.96-5.56,1.82-10.94,3.57-16.32.81-2.5,1.72-5.01,2.76-7.43.9-2.1,2.13-3.94,2.34-6.27l1.12-.6.09-.74Z"/>
      <path class="cls-32" d="M435.1,282.21l.21.06.46,11.85c.19,3.18.64,6.27.45,9.46l-.99,9.2c-.24,1.73-.99,4.32-.61,5.98-.46,1.17-8.26,8.94-9.7,10.27l6.55-28.04,1.95-11.86c.38-2.28.7-4.81,1.67-6.92Z"/>
      <path class="cls-14" d="M389.66,213.66c.55.32,1.07,1.14,1.52,1.62l3.49,3.53c4.93,4.64,11.03,9.06,17.13,11.96,1-6.64,2.49-13.5,4.64-19.87,2.47-7.33,5.79-14.34,8.87-21.42,1.44-3.33,2.85-7.67,4.97-10.56l.14-.18c.15.96-.58,2.12-.97,3l-2.48,6.1-6.49,19.75c-2.43,8.63-4.1,17.46-4.95,26.39-.91,9.6-1.02,18.9-3.37,28.34-.13.54-.46,1.05-.74,1.53-.38-1.7-.45-3.45-.77-5.17-.55-2.97-1.36-5.81-2.28-8.68-4.51-9.91-11.38-19.65-19.28-27.17l-2.86-2.99,1.07-2.28.84-1.61,1.54-2.3Z"/>
      <path class="cls-21" d="M386.21,219.85l1.07-2.28,8.73,8.04c4.13,4.18,8.2,9.64,10.83,14.91,1.04,2.09,1.91,4.19,1.94,6.57.01,1.06.12,2.01-.43,2.93-4.51-9.91-11.38-19.65-19.28-27.17l-2.86-2.99Z"/>
      <path class="cls-17" d="M389.08,222.84c7.89,7.51,14.76,17.26,19.28,27.17.92,2.87,1.74,5.72,2.28,8.68.32,1.72.39,3.46.77,5.17.04,2.18.09,4.32-.15,6.49-.28,2.52-1.09,5.22-1.09,7.73,0,4.55.82,8.94.16,13.53-.5,3.47-1.31,6.72-2.57,10l-3.87,8.85c-.89,1.91-2.26,4.42-2.31,6.56l-.95.82-4.42-16.14c.89-.51,1.29-1.2,1.84-2.03l1.12-1.4c3.31-4.71,9.58-15.19,9.39-21-.08-2.27-1.28-4.9-2.29-6.92-1.79-3.56-4.06-6.74-5.26-10.6-1.18-3.79-1.69-7.7-2.56-11.56-.89-3.92-2.09-7.82-3.54-11.57l-3.4-7.65c-.96-1.95-2.04-3.5-2.38-5.7l-.06-.43Z"/>
      <path class="cls-47" d="M436.95,261.72c1.66,3.04,3.61,5.67,5.84,8.31.21.22,1.83,1.86,1.84,2l6.2,5.64c1.7,1.53,3.07,3.15,5.4,3.55l.39.09-5.91,10.88c-.91,1.7-2.33,3.78-2.89,5.61,0,.46-.07.91.09,1.34.42-.21.54-.45.81-.82l.35.13-.89,2.04c-1.47,2-2.76,4.13-4.01,6.27-.7,1.2-1.24,2.51-2.14,3.57-.42.5-.34.48-1.01.64l-.69.45.17.62c-.72,1.08-1.42,2.42-2.37,3.3-1.31.86-2.51,2.23-3.52,3.42-.38-1.66.37-4.26.61-5.98l.99-9.2c.18-3.19-.26-6.28-.45-9.46l-.46-11.85,1.64-20.55Z"/>
      <path class="cls-28" d="M442.79,270.02c.21.22,1.83,1.86,1.84,2-.53,1.76-.68,3.28-.7,5.1,0,.67.17,1.98-.03,2.59l-.72.24-1,5.81-.06-1.22c-.05-1.99.27-3.62.18-5.67l-1.04,4.33-.05.33-.38-.4c.85-4.44,1.61-8.57,1.95-13.11Z"/>
      <path class="cls-27" d="M440.84,283.13l.38.4.05-.33,1.04-4.33c.09,2.05-.22,3.68-.18,5.67l.06,1.22-2.12,22.42-.23-1.66c-.37-.37-.66-.68-.88-1.16-1.93-4.17.32-17.88,1.88-22.24Z"/>
      <path class="cls-39" d="M442.19,285.76l1-5.81.72-.24c.33,6.43,1,13.28.15,19.68-.29,2.17-.85,4.37-1.5,6.46-.46,1.46-1.61,3.53-1.51,5l-.02.12-.69.45c-.29-.99-.22-2.2-.26-3.24l2.12-22.42Z"/>
      <path class="cls-47" d="M444.63,272.02l6.2,5.64c1.7,1.53,3.07,3.15,5.4,3.55l.39.09-5.91,10.88c-.91,1.7-2.33,3.78-2.89,5.61,0,.46-.07.91.09,1.34.42-.21.54-.45.81-.82l.35.13-.89,2.04c-1.47,2-2.76,4.13-4.01,6.27-.7,1.2-1.24,2.51-2.14,3.57-.42.5-.34.48-1.01.64l.02-.12c-.11-1.47,1.05-3.54,1.51-5,.66-2.09,1.21-4.29,1.5-6.46.86-6.4.19-13.25-.15-19.68.2-.61.02-1.92.03-2.59.02-1.83.17-3.34.7-5.1Z"/>
      <path class="cls-37" d="M447.82,297.8c0,.46-.07.91.09,1.34.42-.21.54-.45.81-.82l.35.13-.89,2.04c-1.47,2-2.76,4.13-4.01,6.27-.7,1.2-1.24,2.51-2.14,3.57-.42.5-.34.48-1.01.64l.02-.12c1.41-1.26,2.42-4.06,3.2-5.8l3.58-7.24Z"/>
      <path class="cls-35" d="M207.31,85.43c.47-19.63,9.05-39.01,23.31-52.53,13.06-12.38,29.9-20.63,48.17-20.05,9.02.29,17.58,2.99,23.84,9.73l.34.37.51-.06c6.79-.81,13.93,1.47,19.25,5.7,5.45,4.34,9.61,9.94,13.09,15.92,7.21,12.38,10.8,25.33,12.27,39.51.81,7.77,1.77,15.36,3.62,22.96.83,3.42,1.8,7.26,3.41,10.41,1.05,2.06,2.49,3.92,3.89,5.75h-.01c-.29.78-.47.94-.15,1.73.5,1.23,5.23,8.23,5.18,8.42.6,1.97,2.08,3.64,3.3,5.27,4.04,5.39,9.65,10.75,12.43,16.92-1.67-.56-2.17-2.2-3.51-3.24-1.92-1.49-4.59-2.66-6.79-3.73-10.37-5.02-22.37-6.12-32.1-12.58-1.51-1-2.79-2.33-4.21-3.45.09,1.61.17,3.16.54,4.73,1.25,5.34,3.18,12.07,8.16,15.12l.79.46c1.73,1.01,3.68,1.9,5.28,3.08-5.35-1.56-9.14-2.76-12.24-7.66l-.21-.33c-1.16-1.85-2.07-4.34-2.77-6.39-.24-.71-.78-3.04-1.21-3.45l-.44.32.42,1.14c.12.54.09.72.34,1.26.41.88.69,1.82,1.04,2.73.19.49.31.89.56,1.36l.23.41h-.3c-1.73-1.72-3.78-3.48-5.25-5.43-3.19-4.24-6.56-8.99-7.94-14.19-.11-.42-.06-.77-.24-1.19-.59-1.33-.58-2-.14-3.4,2.35-.93,4.33-2.36,5.83-4.4l-.15-.62c2.22-3.84,3.84-7.11,3.84-11.67,0-2.69-.61-5.67-2.62-7.61-1.25-1.21-2.45-1.05-4.07-1.01l-1.21.5c-3.74,1.87-5.41,6.59-6.67,10.34-1.1-6.92-2.71-14.23-6.45-20.26-1.86-3.01-4.32-5.45-6.75-7.99-5.83-6.13-10.68-11.93-12.49-20.4-.39-4.09,1.32-8.43,2.9-12.14l-.29-.57c.78-2.31,1.52-3.79,1.24-6.27l-.05-.44c-.08-.68-.09-1.16-.59-1.68-.8.72-1.26,2.01-1.73,2.98-1.13,2.31-2.17,4.67-3.55,6.85-2.38,3.77-5.78,7.12-9.13,10.04-8.88,7.74-20.65,12.25-31.78,15.65-6.37,1.94-12.7,3.59-18.77,6.4-6.24,2.88-11.06,7.98-17.09,11.02-.54-.58-1.15-1.15-1.49-1.88-.34-.73.13.05-.42-.79l-.95-1.67Z"/>
      <path class="cls-42" d="M258.97,51.07l.79-.05.22.35c-.85.91-2.15,1.44-3.26,2l-5.71,2.84c-9.07,4.63-17.73,9.88-25.86,16.01-4.54,3.42-8.92,7.36-13.2,11.1-.54.35-.27.32-.75.25,3.72-3.88,7.47-7.85,11.55-11.37,7.73-6.67,16.47-12.25,25.63-16.73,3.4-1.66,6.91-3.46,10.59-4.38Z"/>
      <path class="cls-42" d="M331.48,138.06l-.19-.94c-.87-3.9-.81-7.85-.77-11.82l.28-15.21c.02-2.45.17-5.04-.18-7.47-1.43-10.03-3.69-19.46-8.2-28.59l-4.7-8.57c.24.13.32.16.56.35,3.33,2.6,5.84,7.32,7.6,11.11,5.38,11.62,7.25,23.98,7.04,36.69-.1,6.14-.49,12.39.19,18.51l.04.38c.09,1.61.17,3.16.54,4.73,1.25,5.34,3.18,12.07,8.16,15.12l.79.46c1.73,1.01,3.68,1.9,5.28,3.08-5.35-1.56-9.14-2.76-12.24-7.66l-.21-.33c-1.16-1.85-2.07-4.34-2.77-6.39-.24-.71-.78-3.04-1.21-3.45Z"/>
      <path class="cls-42" d="M288.26,20.06l.53.16c-.35.71-.76,1.28-1.24,1.9-1.6,2.05-3.46,3.91-5.61,5.38-7.88,5.42-16.47,8-25.24,11.5-16.48,6.57-32.35,18.79-42.1,33.65-.16.09-.34.14-.51.2,1.73-3.52,4.21-6.78,6.63-9.84,8.59-10.86,19.63-19.56,32.23-25.33,10.24-4.69,20.92-7.42,30.46-13.73,1.73-1.14,3.18-2.64,4.84-3.88Z"/>
      <path class="cls-42" d="M291.91,45.8l.25-.46c.69-1.31,1.11-2.77,1.71-4.13,1.76-3.95,3.6-7.99,6.13-11.52.97-1.35,2.07-2.86,3.64-3.52l.44.35c-.82,2.23-2.75,4.31-3.95,6.39-3.76,6.54-5.51,15.37-3.7,22.79.81,3.3,1.92,6.1,3.47,9.1,3.93,7.61,10.75,12.35,16,18.83,2.98,3.68,4.91,7.77,6.67,12.13l-1.21.5c-3.74,1.87-5.41,6.59-6.67,10.34-1.1-6.92-2.71-14.23-6.45-20.26-1.86-3.01-4.32-5.45-6.75-7.99-5.83-6.13-10.68-11.93-12.49-20.4-.39-4.09,1.32-8.43,2.9-12.14Z"/>
      <path class="cls-23" d="M513.08,163.49c1.59,2.35,2.27,6.05,3.05,8.76,5.19,18.02,8.72,37.49,8.76,56.28,3.29-.54,6.01-.77,8.85,1.36,1.72,1.29,3.13,3.63,3.49,5.75.39,2.33-.2,5.24-1.6,7.16-1.46,2-3.68,3.38-6.14,3.68-1.65.2-3.2-.25-4.82-.51-1.22,10.74-2.42,21.28-5.43,31.7-.54,1.89-.73,4.18-2.21,5.5l-.44-.09c-3.1,6.5-4.72,13.17-5.31,20.31l-6.39,7.87-4.25-5.8-.19.09-.84,2.52-2.18,8.32c-2.12-.69-2.55-1.53-3.61-3.5-1.76,3.52-4.1,7.17-7.25,9.61-1.24.96-2.65,1.73-3.82,2.79-1.76,2.51-2.76,5.6-4.55,7.98l.05-9.61.17-1.86c.04-.55-.05-.47-.39-.86l-1.81.1c-2.98.42-6,1.6-8.9,2.46l-23.05,6.96c-6.79,1.84-14.61,3.84-21.65,2.42-3.42,3.81-7.08,7.29-11.19,10.35l-.81.51-.35-.45,7.87-7.52c1.15-1.11,2.81-2.46,3.47-3.92,1.24-.71,2.27-1.85,3.3-2.83,1.44-1.33,9.24-9.1,9.7-10.27,1.01-1.19,2.21-2.56,3.52-3.42.95-.89,1.65-2.22,2.37-3.3l-.17-.62.69-.45c.68-.16.59-.14,1.01-.64.9-1.06,1.44-2.37,2.14-3.57,1.25-2.14,2.54-4.27,4.01-6.27l.89-2.04-.35-.13c-.27.37-.39.61-.81.82-.16-.43-.09-.88-.09-1.34.56-1.83,1.98-3.91,2.89-5.61l5.91-10.88.14-.32c.33-.45.63-.53.86-1.11l.13-.39.28-.37c.43-.63.81-1.05,1.36-1.59.11-.66.14-.34-.12-.98.51-1.79,1.57-3.63,2.34-5.33,1.62-3.59,3.19-7.45,5.43-10.7.27-.57,1.81-3.22,1.76-3.63-.07-.55-1.48-2.18-1.87-2.73l-8.84-12.85c-3.51-5.46-6.89-11.41-6.99-18.08-.04-2.85.72-5.64,2.81-7.68,1.69-1.65,3.52-2.14,5.84-2.03,2.76.12,5.01,1.59,6.79,3.61,6.04,6.86,5.11,25.52,4.6,34.45,1.03-1.53,1.61-3.92,2.24-5.67l1.21.12,7-20.56-.24-.12-.19.24-.83-.41c-.95-1.9-3.35-3.99-4.75-5.68-4.84-5.88-9.68-11.97-13.17-18.76-1.39-2.7-2.76-5.69-2.84-8.77-.07-2.63.5-5.32,2.45-7.24,1.58-1.56,3.68-2.15,5.86-2.04,2.38.12,4.34,1.05,5.93,2.82,2.72,3.02,4.08,7.35,5.02,11.23,2.09,8.71,2.48,17.19,2.09,26.1l1.82-6.21c1.9-8.59,4.62-17.31,4.81-26.16.27-2.34.28-4.75.77-7.06.92,1,.72,1.46.78,2.79-.06.98-.21,1.92.17,2.85l12.91-12.85c4.01-3.92,8.41-7.65,10.95-12.73Z"/>
      <path class="cls-32" d="M467.03,260.53l.7-.19.76-1.6.25-.06c-.18.49-.29.77-.22,1.31l.07.37c-.81,2.41-2.12,4.73-3.22,7.03l-5.51,11.02-.46-.86c.11-.66.14-.34-.12-.98.51-1.79,1.57-3.63,2.34-5.33,1.62-3.59,3.19-7.45,5.43-10.7Z"/>
      <path class="cls-14" d="M488.28,183.43c.92,1,.72,1.46.78,2.79-.06.98-.21,1.92.17,2.85.18,1.9-.34,4.05-.6,5.94-.81,5.82-1.94,11.68-3.44,17.36-.23.88-.53,2.84-1.03,3.53l-.7.71.04.43-.8-.39c1.9-8.59,4.62-17.31,4.81-26.16.27-2.34.28-4.75.77-7.06Z"/>
      <path class="cls-32" d="M444.92,310.05l8.34-3.85c3.41-1.68,7-3.61,10.76-4.34-3.38,2.91-7.52,5.18-11.5,7.16-1.78.89-3.68,1.92-5.58,2.53-2.74,1.52-5.89,2.63-8.79,3.8.95-.89,1.65-2.22,2.37-3.3l2.48-1.32,1.93-.67Z"/>
      <path class="cls-28" d="M464.93,281.58l.88,2.71c-1.39,1.7-2.54,3.58-3.95,5.27-3.96,4.73-8.19,8.09-13.67,10.93l.89-2.04c.67-1,1.11-2.09,1.83-3.08l.26.17,13.11-13.85.66-.11Z"/>
      <path class="cls-14" d="M433.35,322.61c1.63.17,3.5-.31,5.11-.59,4.63-.8,9.1-1.85,13.61-3.17,2.59-.76,5.12-1.84,7.87-1.78-10.66,5.55-21.15,8.42-32.82,10.95,1.29-1.22,4.7-5.22,6.23-5.41Z"/>
      <path class="cls-28" d="M442.99,310.72c.32-.82.57-1.33,1.34-1.83,3.21-2.13,6.31-4.6,9.63-6.53l13.71-7.17c3.4-1.91,6.79-4.39,10.37-5.92-4.34,4.35-8.79,9.31-14.02,12.59-3.76.73-7.35,2.66-10.76,4.34l-8.34,3.85-1.93.67Z"/>
      <path class="cls-28" d="M433.35,322.61c.46-.12.84-.21,1.23-.49,2.1-1.48,4.8-2.04,7.23-2.82l11.67-3.97,22.23-9.14c-4.55,4.4-10.32,7.77-15.78,10.88-2.74-.06-5.28,1.02-7.87,1.78-4.51,1.32-8.98,2.38-13.61,3.17-1.61.28-3.48.77-5.11.59Z"/>
      <path class="cls-14" d="M471.59,270.14c-1.14,2.54-2.72,4.88-4.14,7.27-.82,1.37-1.5,2.94-2.52,4.17l-.66.11-13.11,13.85-.26-.17c-.72.99-1.16,2.08-1.83,3.08l-.35-.13c-.27.37-.39.61-.81.82-.16-.43-.09-.88-.09-1.34.56-1.83,1.98-3.91,2.89-5.61l5.91-10.88.14-.32c.33-.45.63-.53.86-1.11l.13-.39.28-.37c.43-.63.81-1.05,1.36-1.59l.46.86c-.34.75-.82,1.38-.71,2.21,3.6-4.09,8.04-7.31,12.45-10.47Z"/>
      <path class="cls-47" d="M450.9,295.37l5.33-9.66c.61-1.09,1.29-2.87,2.31-3.53l.45.23c1.01.48,1.75.43,2.78.04.83-.32,1.63-.56,2.49-.76l-13.11,13.85-.26-.17Z"/>
      <path class="cls-32" d="M473.31,269.25c2.73-2.69,7.1-5.49,10.74-6.78,3.16-1.12,7.14-1.71,10.23-.06,2.19,1.17,4.09,3.35,4.67,5.79.59,2.48,0,4.88-1.33,7.02-2.4,3.86-8.32,5.47-12.57,6.29-4.16.8-8.31,1.24-12.52,1.65-2.04.2-4.12.17-6.12.63l-.6.51-.88-2.71c1.02-1.23,1.7-2.8,2.52-4.17,1.42-2.39,3-4.73,4.14-7.27.47-.38,1.17-.62,1.72-.89Z"/>
      <path class="cls-27" d="M471.59,270.14c.47-.38,1.17-.62,1.72-.89-1.79,5.13-3.84,10.03-6.9,14.54l-.6.51-.88-2.71c1.02-1.23,1.7-2.8,2.52-4.17,1.42-2.39,3-4.73,4.14-7.27Z"/>
      <path class="cls-37" d="M480.31,225.19c-.95-1.9-3.35-3.99-4.75-5.68-4.84-5.88-9.68-11.97-13.17-18.76-1.39-2.7-2.76-5.69-2.84-8.77-.07-2.63.5-5.32,2.45-7.24,1.58-1.56,3.68-2.15,5.86-2.04,2.38.12,4.34,1.05,5.93,2.82,2.72,3.02,4.08,7.35,5.02,11.23,2.09,8.71,2.48,17.19,2.09,26.1l1.82-6.21.8.39-.04-.43.7-.71-1.38,5.27c1.98-2.79,3.14-6.38,4.53-9.51,3.19-7.16,6.66-14.42,11.92-20.31,2.41-2.69,5.32-5.03,8.97-5.66,1.76-.31,3.86-.14,5.36.9,1.33.92,2.2,2.24,2.76,3.73l.16.43c.88,2.47.51,5.51-.61,7.82-2.16,4.43-6.61,7.96-10.51,10.78-4.9,3.56-10.03,6.7-15.26,9.74-2.17,1.27-5.1,2.49-6.99,4.11-.73.62-1.13,1.45-1.54,2.29l-.24-.12-.19.24-.83-.41Z"/>
      <path class="cls-37" d="M467.03,260.53c.27-.57,1.81-3.22,1.76-3.63-.07-.55-1.48-2.18-1.87-2.73l-8.84-12.85c-3.51-5.46-6.89-11.41-6.99-18.08-.04-2.85.72-5.64,2.81-7.68,1.69-1.65,3.52-2.14,5.84-2.03,2.76.12,5.01,1.59,6.79,3.61,6.04,6.86,5.11,25.52,4.6,34.45,1.03-1.53,1.61-3.92,2.24-5.67l1.21.12-2.63,7.4c1.85-2.64,3.27-5.45,4.92-8.2,4.36-7.25,9.17-14.3,15.51-19.95,2.37-2.11,5.19-4.32,8.38-4.92,2.39-.45,5.14-.06,7.13,1.4,2.05,1.51,3.39,4.26,3.56,6.79.21,3.09-1.65,6.28-3.72,8.43-2.43,2.54-5.31,4.46-8.23,6.37-6.96,4.55-14.46,8.04-21.99,11.53l-5.53,2.58c-.56.26-1.77.64-2.21,1.03-.44.38-.91,1.37-1.18,1.87l-.07-.37c-.07-.54.04-.82.22-1.31l-.25.06-.76,1.6-.7.19Z"/>
      <path class="cls-46" d="M176.29,34.06c.25-.14,1.29-2.66,1.48-3.05,1.55-3.27,3.22-6.41,5.14-9.47,5.57-8.86,12.2-15.54,20.7-21.54l-19.53,29.71c2.31-.57,4.34-1.3,6.51-2.29.6-.03,3.46-2.76,4.1-3.3,3.16-2.65,6.48-4.91,9.93-7.16,10.79-7.06,22.09-12.25,34.4-16.08-1.54,1.48-3.47,2.61-5.22,3.82l-8.37,5.8c-13.81,8.99-27.89,16.97-40.19,28.09,6.86-3.23,13.43-5.6,20.75-7.59,4.56-1.24,9.31-2.4,14.07-2.44-10.44,5.75-22.34,9.19-33.29,13.89-3.06,1.31-6.91,2.64-9.55,4.66-2.54,1.94-4.72,5.19-6.73,7.7,6.81-3.15,13.59-6.36,20.76-8.6,5.38-1.68,10.84-2.65,16.39-3.52-1.79,1.27-3.92,2.02-5.89,2.98l-20.17,8.95c-3.41,1.5-6.64,3.39-9.94,5.14-1.7.9-4.38,1.81-5.84,2.96-.41.33-.96,1.44-1.27,1.91-1.85,2.82-3.5,5.72-4.95,8.76,9.78-6.8,19.58-12.7,30.79-16.92,2.58-.97,5.82-2.26,8.54-2.53-2.37,2.3-5.85,4.14-8.66,5.86l-14.92,8.9-14.83,9.47c-1.28.83-4.33,2.19-5.21,3.33-.55.71-1.02,2.18-1.37,3.03-1.2,2.98-2.39,6.25-3.18,9.35,10.8-9.3,21.64-17.84,34.73-23.73l-9.69,8.86-20.26,16.67c-1.96,1.64-5.69,4.19-6.93,6.36-.67,1.17-.89,3.01-1.17,4.33l-2.03,9.47c8.71-11.09,18.76-20.54,30.49-28.38-8.15,11.59-19.18,20.98-27.92,32.12-1.12,1.43-2.91,3.13-3.73,4.66-.23.44-.29,1.79-.34,2.32-.22,2.29-.16,4.63-.57,6.9,3.34-4.72,6.63-9.49,10.39-13.9,4.73-5.54,10.12-10.54,15.82-15.06-2.51,4.48-5.85,8.49-8.88,12.63l-13.54,18.86c-1.08,1.54-3.43,4.14-3.94,5.84-.19.65.06,2.24.08,2.96l.3,10.38c6.01-11.54,12.21-22.9,21.88-31.86l-11.61,22.45-7.84,14.76c-.46.88-1.73,2.62-1.85,3.49-.09.68.34,2.09.46,2.81.56,3.24,1.34,6.54,2.22,9.7,2.94-9.8,6.59-18.67,12.25-27.26,1.64-2.49,3.58-5.43,5.73-7.51l-8.76,22.12-5.66,15.6c-.48,1.33-1.96,3.8-2.08,5.15-.07.86.6,2.71.82,3.6l2.88,11.47c1.44-10.23,3.58-19.38,7.42-29.02,1.63-4.09,3.5-8.42,6.11-11.97l-9.38,42.55c-.21,1.21-1.06,3.29-.99,4.42.07,1.21.81,2.88,1.23,4.03.93,2.58,1.84,5.28,3.06,7.73.56-8.38,2.04-16.49,4.29-24.58,1.7-6.12,3.72-12.19,7.32-17.48l-6.15,34.14c-.77,4.68-2.05,9.64-2.4,14.35-.05.69,0,1.37.34,1.98l.71,1.06-2.56,5.63c-9.29-4.77-18.18-11.66-26.14-18.39-2.79-2.36-5.34-5.08-8.3-7.22l.16-.55,6.46-7.99,2.22-3.54,1.98-8.48c.07-2.22-.58-4.48-.75-6.69l-1.48-1.34c-3.56-3.69-5.73-8.94-10.93-10.68l-3.02-1.23-2.99.22c-5.08.8-12.22,2.07-17.07-.07-7.22-3.2-3.73-14.42-2.61-20.2.42-2.14.67-4.39.73-6.58.09-3-.54-5.99-1.59-8.78-2.71-7.16-7.96-11.97-14.84-15.04l10.09-15.69c5.3-7.57,11.31-14.42,17.73-21.06,4.47-4.63,9.13-9.27,14.14-13.33l14.1-11.67.48-4.03,1.21,3.4,12.06-7.17c.9-2.92,1.55-5.87,2.62-8.74,1.14-3.09,2.68-5.91,4.31-8.77.13,1.6-.34,3.54-.53,5.16l-1.01,9.72,7.66-4.1c3.06-10.37,4.91-19.83,11.42-28.83l-5.58,25.38,4.81-2.16Z"/>
      <path class="cls-47" d="M184.09,29.71c2.31-.57,4.34-1.3,6.51-2.29l-13.1,13,6.6-10.71Z"/>
      <path class="cls-47" d="M171.48,36.22l4.81-2.16-2.87,7.55c-.51,1.54-.73,3.38-1.5,4.8-.93,1.71-2.5,3.41-3.7,4.97.07-1.37.48-2.74.74-4.09l2.53-11.07Z"/>
      <path class="cls-47" d="M137.35,186.33c1.82,2.64,4.28,5.9,7.11,7.5l1.05.6,5.12,13.49-15.26-13.12,1.98-8.48Z"/>
      <path class="cls-47" d="M157.98,43.77l7.66-4.1-1.88,13.66c-.17,1.59.05,3.6-.36,5.12-.41,1.51-2.33,3.62-3.21,4.99-1.67,2.61-3.02,5.43-4.78,7.97-.09-9.47,1.45-18.3,2.56-27.64Z"/>
      <path class="cls-47" d="M133.16,198.35c4.51,4.58,9.18,8.74,14.26,12.69,1.02.79,2.04,1.61,3.16,2.24.47.27,1.9.71,2.18,1.03.86.99,1.56,3.42,2.1,4.68l2.91,6.04-.3-.25c-5.54-4.41-24.3-17.38-30.77-18.45l6.46-7.99Z"/>
      <path class="cls-47" d="M140.54,53.58l12.06-7.17c-.8,6.16-1.81,12.31-1.93,18.54l-.03,10.04c.03,1.89.31,4.14.04,6-.15,1.04-.79,2.25-1.17,3.24l-1.86,5.2-7.11-35.85Z"/>
      <path class="cls-47" d="M124.75,65.87l14.1-11.67c-.56,11.1.88,21.64,3.14,32.49l1.7,7.42c.24.92.89,2.33.95,3.21.06.95-.71,2.89-.94,3.88-.71,3-1.42,6.06-1.84,9.12-1.96-8.26-4.82-16.28-7.34-24.38l-4.3-13.74c-.87-2.57-1.78-5.46-3.12-7.82l.37,3.91c1.45,11.5,3.68,22.69,7.15,33.77l3.61,10.57c.53,1.49,1.42,3.25,1.72,4.77.34,1.74-.39,4.41-.63,6.16-.21,1.58-.21,3.51-.68,5.02-2.42-3.86-4.13-8.39-6.03-12.53-4.54-9.88-9.53-20.88-16.35-29.38,3.69,11.02,7.52,21.89,12.49,32.41l5.57,11.37c1.16,2.18,3.14,4.76,3.86,7.05.43,1.36.14,3.64.2,5.12l.55,7.71c-2.32-3.43-4.18-7.23-6.24-10.82-3.71-6.47-7.59-12.83-12-18.85-1.62-2.21-3.45-4.87-5.47-6.7,1.31,3.89,3.16,7.58,4.88,11.3,3.4,7.32,6.99,14.4,11.19,21.3l4.6,7.14c.82,1.2,1.89,2.47,2.52,3.76.39.8.36,1.93.51,2.82l1.13,8.31-6.5-8.37-12.72-14.43c-2.77-3.13-5.39-6.57-8.56-9.3,2.74,5.85,6.52,11.41,10.26,16.67l11.82,15.65c1.17,1.45,2.37,2.82,3.72,4.1.74.7,2.22,1.75,2.73,2.56.37.6.56,1.86.75,2.59l1.64,6.37c.24.9.84,2.36.79,3.26-2.25-2.73-4.7-5.76-7.37-8.07l-1.48-1.34c-3.56-3.69-5.73-8.94-10.93-10.68l-3.02-1.23-2.99.22c-5.08.8-12.22,2.07-17.07-.07-7.22-3.2-3.73-14.42-2.61-20.2.42-2.14.67-4.39.73-6.58.09-3-.54-5.99-1.59-8.78-2.71-7.16-7.96-11.97-14.84-15.04l10.09-15.69c5.3-7.57,11.31-14.42,17.73-21.06,4.47-4.63,9.13-9.27,14.14-13.33Z"/>
      <path class="cls-28" d="M118.18,166.62c-2.04-2.47-4.06-4.94-5.66-7.73l8.65,7.51-2.99.22Z"/>
      <path class="cls-42" d="M289.01,57.94c1.81,8.47,6.67,14.27,12.49,20.4,2.42,2.55,4.88,4.99,6.75,7.99,3.74,6.03,5.35,13.34,6.45,20.26,1.26-3.74,2.93-8.46,6.67-10.34l1.21-.5c1.62-.04,2.82-.2,4.07,1.01,2.01,1.93,2.62,4.91,2.62,7.61,0,4.56-1.62,7.83-3.84,11.67-2,2.12-3.64,3.5-6.31,4.72l-.49.15c-1.63.5-2.82.73-4.51.26-1.07.91-1.96,4.09-2.72,5.47-1.6,2.89-3.74,5.62-5.03,8.66-7.31,8.63-16.82,16.42-26.97,21.47-1.69.84-3.99,2.06-5.84,2.32.62,2.53.14,5.85.06,8.47-.29,5.88-.86,10.94-2.68,16.58-.69.58-1.37,1.17-2.13,1.65-4.06,3.26-9.23,4.81-13.58,7.58l-6.8,3.19c-8.35,3.33-14.98,7.86-21.44,14.07-.13.12-1.29,1.28-1.34,1.27-9.68,11.27-16.65,24.65-20.28,39.09-.66,2.64-1.5,5.53-1.67,8.25l-.11.23c-1,2.05-2.43,3.86-3.54,5.85-1.26,2.28-2.04,4.61-2.63,7.13-.4,2.52-.79,5.06-.66,7.62.52,10.03,5.36,18.17,9.43,27l-4.4-.85c-9.94-2.84-18.02-10.68-24.44-18.51l-8.14-11.17c-.19-1.1-1.03-2.46-1.49-3.5-1.55-4.07-2.68-8.26-3.83-12.46-1.09-3.96-2.29-7.91-3.03-11.96-.62-3.36-.85-6.75-1.11-10.15.21-2.12.49-3.98,1.21-5.99l2.56-5.63c1.76-2.43,3.83-4.5,5.93-6.63l4.62-3.11,7.69-3.25,2.84-1.35.47-.07.33.04,1.11.24c2.03.32,4.36-.32,6.38-.66,8.16-1.36,15.55-3.29,22.45-8.01,4.93-3.38,8.48-8.08,11.15-13.36.91-1.8,1.87-3.89,2.14-5.9l.11-1.15c.44-2.15.57-5.25.21-7.45-1.17-6.98-3.64-13.13-7.61-18.99-2.88-4.26-6.52-7.88-9.7-11.9-4.78-6.05-8.67-13.09-9.44-20.87-.82-8.25.82-18.36,6.19-24.92,3.19-4.69,7.15-8.24,11.73-11.53,1.96-1.41,3.98-2.85,6.27-3.64l.36,1.63c.85.46,1.08.7,1.68,1.44l.51.46c2.85-3.14,5.28-4.77,9.56-5.1,1.06-.93,2.35-1.09,3.64-1.55l13.66-4.71c6.24-2.32,12.56-4.66,18.5-7.67,3.71-1.88,7.16-4.06,10.24-6.86,1.35-1.22,2.59-2.69,4.05-3.76l.4-.29Z"/>
      <path class="cls-29" d="M208.41,99.53c3.19-4.69,7.15-8.24,11.73-11.53,1.96-1.41,3.98-2.85,6.27-3.64l.36,1.63,1.71,32.94-.29.8c-.24-.95-.55-1.96-.52-2.95.02-.61.14-.73-.11-1.33-.23-.54-.2-.31-.2-.88,0-.51-.04-.93-.14-1.43-.21-1.06.18-2.4-.18-3.33-.25-.63-.26-1.33-.26-2.01l.04-3.63.04-.39-.35-.49.05-6.45c.49-2.21-.19-4.14-.04-6.3.06-.9-.06-1.7-.35-2.56l-.37-1.09-.78-.07c-.78,1.11-1.8,1.86-3.14,2.19-.47.11-.86.23-1.3.43-.72.32-.77.17-1.51-.01-2.81,1.73-5.89,4.47-7.91,7.09-.82,1.07-1.55,2.46-2.77,3.02Z"/>
      <path class="cls-47" d="M192.29,216.15l.57.02c-5,3.64-10.02,5.81-14.11,10.71-4.53,5.44-5.72,12.02-4.53,18.92.4,2.34,1.2,4.62,1.39,6.99l.04.57-.11-.25c-3.02-7.29-5.14-15.77-1.95-23.31,3.15-7.46,11.74-10.8,18.68-13.64Z"/>
      <path class="cls-47" d="M207.06,212.61h.34c-.12.63-2.56,2.11-3.18,2.54-4.49,3.12-8.86,6.52-12.86,10.26-6.05,5.65-12.13,12.15-14.5,20.28l-.27-.19c-.6-4.07.7-8.48,2.49-12.11,5.72-11.61,16.35-16.74,27.98-20.77Z"/>
      <path class="cls-40" d="M273.56,159.1c.62,2.53.14,5.85.06,8.47-.29,5.88-.86,10.94-2.68,16.58-.69.58-1.37,1.17-2.13,1.65-.43-.89-.11-2.28-.05-3.25.11-1.74.22-3.84-.16-5.56-.81-3.71-1.8-7.14-3.29-10.64-.76-1.8-1.8-3.47-2.61-5.25,3.9-.12,7.15-.76,10.84-2.01Z"/>
      <path class="cls-29" d="M177.37,287.73c1.43-1.9,2.35-4.51,3.19-6.74,1.75-4.62,3.1-9.49,5.42-13.87,4.55-8.61,11.21-16.32,16.63-24.4,5.68-8.47,10.31-17.35,16.85-25.24,1.25-1.51,2.55-3,3.96-4.37.25-.24.9-.98,1.18-1.1.32-.14.7-.07,1.05-.1-9.68,11.27-16.65,24.65-20.28,39.09-.66,2.64-1.5,5.53-1.67,8.25l-.11.23c-1,2.05-2.43,3.86-3.54,5.85-1.26,2.28-2.04,4.61-2.63,7.13-.4,2.52-.79,5.06-.66,7.62.52,10.03,5.36,18.17,9.43,27l-4.4-.85c-9.94-2.84-18.02-10.68-24.44-18.51Z"/>
      <path class="cls-25" d="M289.01,57.94c1.81,8.47,6.67,14.27,12.49,20.4,2.42,2.55,4.88,4.99,6.75,7.99,3.74,6.03,5.35,13.34,6.45,20.26,1.26-3.74,2.93-8.46,6.67-10.34l1.21-.5c1.62-.04,2.82-.2,4.07,1.01,2.01,1.93,2.62,4.91,2.62,7.61,0,4.56-1.62,7.83-3.84,11.67-2,2.12-3.64,3.5-6.31,4.72l-.49.15c-1.63.5-2.82.73-4.51.26-1.07.91-1.96,4.09-2.72,5.47-1.6,2.89-3.74,5.62-5.03,8.66-7.31,8.63-16.82,16.42-26.97,21.47-1.69.84-3.99,2.06-5.84,2.32-3.69,1.25-6.94,1.89-10.84,2.01-2.93-.2-5.75-1.92-8.16-3.48-9.73-6.32-18.64-16.85-22.99-27.61-1.46-3.62-2.29-7.28-3.08-11.08l-1.71-32.94c.85.46,1.08.7,1.68,1.44l.51.46c2.85-3.14,5.28-4.77,9.56-5.1,1.06-.93,2.35-1.09,3.64-1.55l13.66-4.71c6.24-2.32,12.56-4.66,18.5-7.67,3.71-1.88,7.16-4.06,10.24-6.86,1.35-1.22,2.59-2.69,4.05-3.76l.4-.29Z"/>
      <path class="cls-1" d="M320.31,101.96c1.13-1.14,1.94-1.98,3.68-1.9,1.48.07,2.39,1.14,3.18,2.24-2.39-.75-4.42-.39-6.86-.34Z"/>
      <path class="cls-15" d="M232.51,116.04c.98-.45,2.34-.27,3.4-.25,1.39.02,3.86-.07,4.86.98l-.47.67c-1.34.41-3.77.8-5.11.37-1.12-.36-2.11-.76-2.68-1.78Z"/>
      <path class="cls-29" d="M290.4,95.43c.88.06,1.43.06,2.29-.22l.37,1.04c-.46.04-.81.05-1.27,0,.27.53.06.33.62.57,1.24.55,2.06,1.02,2.96,2.09-.4.51-.5.39-1.11.49l.24.47,1.41.22c.2,1.02-.13,1.78-.58,2.72-2.08-2.56-4.49-4.43-7.48-5.81h1.32c.77-.48.89-.77,1.22-1.57Z"/>
      <path class="cls-43" d="M276.49,100.01c.57-.52.71-.75,1.48-.93-.67,3.1-.58,4.87,1.06,7.66.77.73,1.45,1.31,2.38,1.83-.34.12-.62.17-.98.15-2.31-.14-4.8-1.26-6.29-3.01-.14-2.56,1.03-3.69,2.35-5.69Z"/>
      <path class="cls-2" d="M320.31,101.96c2.44-.05,4.47-.41,6.86.34.37,1.38.42,2.51.34,3.93-1.06-.7-.76-.82-1.41-1.71-.76-1.03-2.28-1.1-3.4-.87-1.09.76-1.77,1.38-2.5,2.49l-.56.86-.54-.2c-.92,1.84-1.02,4.25-2.6,5.63.33-3.98,1.79-7.11,3.82-10.47Z"/>
      <path class="cls-31" d="M276.49,100.01c-.22-.11-.3-.38-.41-.59-.47.11-.25.14-.67-.06,1.2-2.73,5.03-5.43,7.72-6.46,1.78-.68,4.83-.69,6.61.1.95.42,2,.72,2.84,1.34l.12.89c-.86.28-1.4.28-2.29.22-3.27-1-6.3-1.38-9.44.27-1.29.68-2.36,1.66-3.44,2.62l.44.1.14.33-.13.32c-.77.18-.91.41-1.48.93Z"/>
      <path class="cls-1" d="M252.7,123.68c-.29-.43-1.13-1.38-1.01-1.86.4-1.56,1.68-3.3,2.41-4.77.69-1.39,1.13-2.9,1.86-4.26.71,2.77-1.44,6.08-2.5,8.57,2.25-.41,7.44-1.29,9.39.22.38.29.38.33.65.66l-.22.59-2.79,1.01c-.93.11-1.89.56-2.88.69l-.47.06c-1.93.24-2.78.16-4.44-.9Z"/>
      <path class="cls-31" d="M252.7,123.68l.26-.46c.22-.39.37-.74.49-1.17,1.27.25,1.97.52,2.95,1.37.86,0,1.95-.18,2.66.3l1.44.12c-.93.11-1.89.56-2.88.69l-.47.06c-1.93.24-2.78.16-4.44-.9Z"/>
      <path class="cls-22" d="M268.63,135.92c-.13.4-.32,1.36-.57,1.66-.22.68-.57,1.36-.99,1.94-1.55,2.13-4.35,4.16-7.01,4.53-2.14.3-4.34-.47-5.99-1.81-1.63-1.32-2.31-2.73-2.49-4.78l-.1-.92c3.34,2.55,6.14,2.85,10.23,2.29l1.58-.29c1.89-.62,3.65-1.6,5.35-2.63Z"/>
      <path class="cls-1" d="M268.63,135.92c-.13.4-.32,1.36-.57,1.66l-.4.09c-.94.24-1.67,1.05-2.5,1.53-1.01.58-2.05.93-3.15,1.28l-.47.15c-1.54.48-3.09.57-4.7.67l-1.68-1.07c-1.11-1.08-2.25-1.97-3.57-2.77l-.1-.92c3.34,2.55,6.14,2.85,10.23,2.29l1.58-.29c1.89-.62,3.65-1.6,5.35-2.63Z"/>
      <path class="cls-40" d="M238.52,82.79c3.72.24,7.47.59,10.64,2.76.4.88.43.99.3,1.95-2.03,1.1-10.51-.64-13.42-.5-2.25.11-4.26.7-6.37,1.42-.29-.17-.49-.27-.7-.53,2.85-3.14,5.28-4.77,9.56-5.1Z"/>
      <path class="cls-43" d="M286.76,102.87c.28-.77.32-1.52.4-2.33l.17.15.37.42.53-.13.05-.34c.05-1.25-.68-2.38-1.44-3.31l-.21-.25,1.21-.09c2.99,1.38,5.4,3.25,7.48,5.81-.34,1.62-1.38,2.87-2.76,3.78-2.28,1.51-7.49,2.81-10.27,2.21l-.67-.23h-.23c-.92-.52-1.61-1.1-2.38-1.83l2.4-.28c2.23-.39,4.08-1.76,5.33-3.59Z"/>
      <path class="cls-17" d="M279.03,106.74l2.4-.28c2.23-.39,4.08-1.76,5.33-3.59l1.09.57c-.11,1.06-1.13,2.97-1.98,3.63-1.12.88-2.87,1.17-4.24,1.5h-.23c-.92-.52-1.61-1.1-2.38-1.83Z"/>
      <path class="cls-2" d="M250.73,133.97c1.42.09,2.21-.5,3.49-.97,1.24-.45,2.47-.66,3.78-.78,3.42-.31,7.14.6,10.57.87,1.01-.24,2.66-.89,3.66-.75l-3.6,3.57c-1.69,1.03-3.46,2.01-5.35,2.63l-1.58.29c-4.08.56-6.89.26-10.23-2.29-.22-.63-.42-1.07-.82-1.6-.26-.34-.43-.58-.64-.97h.72Z"/>
      <path class="cls-22" d="M250.73,133.97c1.42.09,2.21-.5,3.49-.97,1.24-.45,2.47-.66,3.78-.78,3.42-.31,7.14.6,10.57.87-3.01.48-5.84,1.56-8.91,1.91-2.98.35-5.8-.17-8.65-.86l-.29-.17Z"/>
      <path class="cls-40" d="M277.97,99.08l.13-.32-.14-.33-.44-.1c1.08-.96,2.15-1.94,3.44-2.62,3.14-1.65,6.17-1.26,9.44-.27-.33.8-.45,1.09-1.22,1.56h-1.32s-1.21.09-1.21.09l.21.25c.76.93,1.48,2.05,1.44,3.31l-.05.34-.53.13-.37-.42-.17-.15c-.08.81-.12,1.56-.4,2.33-1.25,1.84-3.11,3.2-5.33,3.59l-2.4.28c-1.65-2.79-1.74-4.56-1.06-7.66Z"/>
      <path class="cls-31" d="M319.63,107l.56-.86c.73-1.11,1.41-1.73,2.5-2.49,1.11-.23,2.64-.16,3.4.87.65.89.35,1.01,1.41,1.71-.56,3.54-2.57,6.2-4.83,8.9-.93,1.12-2.01,1.79-3.21,2.57-1.81.05-3.91.42-5.45-.66.17-.59.34-.57.82-.91l.03.03c.71-1.18,1.14-2.45,1.62-3.73,1.58-1.38,1.68-3.79,2.6-5.63l.54.2Z"/>
      <path class="cls-1" d="M320.01,107.23l.67-.69c.27.51.43.88.54,1.45.12.6.27.83.58,1.35.74,1.25,1.23,2.16.88,3.64l-.64.63-2.04-6.38Z"/>
      <path class="cls-18" d="M316.49,112.43c1.58-1.38,1.68-3.79,2.6-5.63l.54.2.02.46c-.7,2.1-1.28,7.47-3.18,8.42-.61.31-.91.39-1.61.27.71-1.18,1.14-2.45,1.62-3.73Z"/>
      <path class="cls-40" d="M280.59,81.74c2.2-.24,4.69-.29,6.87.04,5.74.87,9.1,3.45,12.48,8.01-2.85-1.63-5.19-2.36-8.38-3.06-3.06-.5-6.03-.79-9.14-.53l-8.28,1.08c-.84.11-1.96.42-2.72-.01-.38-.69-.35-1.02-.25-1.79.94-1.21,2.19-1.9,3.62-2.41,1.88-.67,3.82-1.03,5.78-1.32Z"/>
      <path class="cls-40" d="M233.19,100.05c-1.12-.13-2.36-.17-3.12-1.12l-.21-.31.39-.44c.94.1,1.78.46,2.54-.15-.66-.66-2.19-.59-2.34-1.24l.5.04c.73.04,1.16-.23,1.78-.57l.18-1.23.39.04.3.89c.84-.22.5-.97,1.32-.97.85,0,1.42-.1,2.14-.52,1.46-.84,4.05-.73,5.59-.26,3.07.92,4.69,4.15,6.06,6.81.28.55.19.35.37.98-.06.4.37,1.09.56,1.48.63,1.29.94,1.96.79,3.42-.36.46-.62.76-1.18.98-3.51,1.39-8.07,2.25-11.64.75-2.1-.88-4.06-2.96-4.77-5.15-.41-1.25-.21-2.26.33-3.42Z"/>
      <path class="cls-43" d="M233.19,100.05c2.31-2.89,3.94-3.32,7.47-3.95-1.7,1.57-4.26,3.63-4.25,6.18,0,1.09.48,2.36.79,3.4,1.21,1.03,2.5,1.99,4.16,1.85,1.49-.13,2.78-.63,3.77-1.78,1.48-1.71,1.56-4.37,1.68-6.53l2.28,2.76c-.06.4.37,1.09.56,1.48.63,1.29.94,1.96.79,3.42-.36.46-.62.76-1.18.98-3.51,1.39-8.07,2.25-11.64.75-2.1-.88-4.06-2.96-4.77-5.15-.41-1.25-.21-2.26.33-3.42Z"/>
      <path class="cls-22" d="M325.44,116.04l.15.62c-1.51,2.04-3.48,3.48-5.83,4.4-.43,1.39-.45,2.06.14,3.4.19.42.13.77.24,1.19,1.38,5.2,4.75,9.95,7.94,14.19,1.47,1.95,3.51,3.71,5.25,5.43h.3s-.23-.42-.23-.42c-.25-.47-.38-.87-.56-1.36-.35-.91-.63-1.85-1.04-2.73-.25-.54-.22-.72-.34-1.26l-.42-1.14.44-.32c.43.41.97,2.74,1.21,3.45.7,2.05,1.61,4.54,2.77,6.39l.21.33c3.1,4.91,6.89,6.11,12.24,7.66-1.6-1.18-3.55-2.07-5.28-3.08l-.79-.46c-4.99-3.05-6.91-9.78-8.16-15.12-.37-1.57-.45-3.12-.54-4.73,1.42,1.12,2.7,2.45,4.21,3.45,9.73,6.46,21.74,7.56,32.1,12.58,2.2,1.07,4.87,2.24,6.79,3.73,1.34,1.04,1.84,2.69,3.51,3.24,6.1,8.84,7.51,22.1,5.68,32.46-.57,3.24-1.38,6.57-2.48,9.66-1.32,3.71-3.79,7.68-3.85,11.68-.02,1.83.67,3.49,1.55,5.06l5.57,5.5,2.86,2.99.06.43c.34,2.2,1.42,3.75,2.38,5.7l3.4,7.65c1.45,3.75,2.65,7.65,3.54,11.57.88,3.85,1.39,7.77,2.56,11.56,1.2,3.86,3.46,7.04,5.26,10.6,1.01,2.01,2.22,4.65,2.29,6.92.19,5.8-6.07,16.29-9.39,21l-1.12,1.4c-.55.83-.95,1.51-1.84,2.03l-7.75-27.53c-.87-.53-2.35,0-3.35.24l-14.75,3.83-24.94,8.13,1.74,5.29,19.87,54.38-5.61,3.88-5.14,2.36-4.63,8.82c-1.66,4-3.53,8.04-4.62,12.24l-9.27,4.43.38.53c.31.83.57,1.63,1.12,2.34,1.18,2.02,2.53,4,4.16,5.7l-46.87,35.45c-.14-1.54,1.63-3.72,2.33-5.09,1.98-3.88,3.49-8.14,4.54-12.37,1.51-6.07,1.59-12.4.87-18.58-2.25-19.37-14.32-37.49-29.43-49.3-10.95-8.56-26.75-15.79-40.99-13.93-6.79.89-12.43,3.06-18.22,6.71l-3.85,2.34c-1.32-.89-2.98-1.02-4.5-1.39l-6.74-1.93c.52-2.48.7-4.91.8-7.43l.18-5.39.24-9.15,4.4.85c-4.07-8.83-8.91-16.98-9.43-27-.13-2.56.25-5.1.66-7.62.59-2.52,1.37-4.86,2.63-7.13,1.1-1.99,2.53-3.8,3.54-5.85l.11-.23c.17-2.72,1.01-5.61,1.67-8.25,3.63-14.44,10.6-27.82,20.28-39.09.05,0,1.21-1.15,1.34-1.27,6.46-6.22,13.09-10.74,21.44-14.07l6.8-3.19c4.35-2.77,9.52-4.32,13.58-7.58.77-.48,1.44-1.07,2.13-1.65,1.82-5.65,2.39-10.7,2.68-16.58.07-2.62.56-5.94-.06-8.47,1.85-.26,4.16-1.48,5.84-2.32,10.15-5.05,19.66-12.84,26.97-21.47,1.29-3.04,3.43-5.77,5.03-8.66.77-1.38,1.66-4.56,2.72-5.47,1.69.47,2.88.24,4.51-.26l.49-.15c2.67-1.22,4.31-2.59,6.31-4.72Z"/>
      <path class="cls-18" d="M225.66,211.92s1.21-1.15,1.34-1.27c6.46-6.22,13.09-10.74,21.44-14.07-1,2.16-2.37,4.11-3.49,6.2l-5.69,11.9c-4.83,11.47-8.45,25.5-18.6,33.59-3.49,2.78-7.43,4.76-11.28,6.98-1.98,1.14-3.7,3.04-5.66,4.01.17-2.72,1.01-5.61,1.67-8.25,3.63-14.44,10.6-27.82,20.28-39.09Z"/>
      <path class="cls-25" d="M273.56,159.1c1.85-.26,4.16-1.48,5.84-2.32,10.15-5.05,19.66-12.84,26.97-21.47-1.21,15.87,2.98,35.01,13.45,47.38l3.02,3.07,6.54,3.01-11.11,13.43-9.83,13c-9.32,11.46-20.94,21.08-34.33,27.41-5.26,2.48-10.98,4.78-16.8,5.41-3.82.41-7.7.28-10.82-2.24-2.85-2.3-4.46-6.03-4.84-9.61-.37-3.55.17-7.21.83-10.69,1.05-5.59,2.71-11.68,5.01-16.89,2.31-5.25,5.08-10.12,7.75-15.18,4.35-2.77,9.52-4.32,13.58-7.58.77-.48,1.44-1.07,2.13-1.65,1.82-5.65,2.39-10.7,2.68-16.58.07-2.62.56-5.94-.06-8.47Z"/>
      <path class="cls-31" d="M273.56,159.1c1.85-.26,4.16-1.48,5.84-2.32,10.15-5.05,19.66-12.84,26.97-21.47-1.21,15.87,2.98,35.01,13.45,47.38l3.02,3.07c-2.82-.28-6.47-2.12-9.13-3.17l-31.33-13.17-5.62-2.18c-.91-.34-1.82-.82-2.81-.87l-.34,1.21c.07-2.62.56-5.94-.06-8.47Z"/>
      <path class="cls-36" d="M325.44,116.04l.15.62c-1.51,2.04-3.48,3.48-5.83,4.4-.43,1.39-.45,2.06.14,3.4.19.42.13.77.24,1.19,1.38,5.2,4.75,9.95,7.94,14.19,1.47,1.95,3.51,3.71,5.25,5.43h.3s-.23-.42-.23-.42c-.25-.47-.38-.87-.56-1.36-.35-.91-.63-1.85-1.04-2.73-.25-.54-.22-.72-.34-1.26l-.42-1.14.44-.32c.43.41.97,2.74,1.21,3.45.7,2.05,1.61,4.54,2.77,6.39l.21.33c3.1,4.91,6.89,6.11,12.24,7.66-1.6-1.18-3.55-2.07-5.28-3.08l-.79-.46c-4.99-3.05-6.91-9.78-8.16-15.12-.37-1.57-.45-3.12-.54-4.73,1.42,1.12,2.7,2.45,4.21,3.45,9.73,6.46,21.74,7.56,32.1,12.58,2.2,1.07,4.87,2.24,6.79,3.73,1.34,1.04,1.84,2.69,3.51,3.24,6.1,8.84,7.51,22.1,5.68,32.46-.57,3.24-1.38,6.57-2.48,9.66-1.32,3.71-3.79,7.68-3.85,11.68-.02,1.83.67,3.49,1.55,5.06l5.57,5.5,2.86,2.99.06.43c.34,2.2,1.42,3.75,2.38,5.7l3.4,7.65c1.45,3.75,2.65,7.65,3.54,11.57.88,3.85,1.39,7.77,2.56,11.56,1.2,3.86,3.46,7.04,5.26,10.6,1.01,2.01,2.22,4.65,2.29,6.92.19,5.8-6.07,16.29-9.39,21l-1.12,1.4c-.55.83-.95,1.51-1.84,2.03l-7.75-27.53c-.87-.53-2.35,0-3.35.24l-14.75,3.83c-.41-1.28.62-4.86.84-6.42l.78-7.81c.82-13.66-.27-26.75-2.23-40.25-.6-4.11-1.01-8.92-2.88-12.69-.34-.68-.45-1.07-.46-1.83-.27-.67-.96-1.44-1.41-2.02-1.74-2.25-3.85-4.41-5.93-6.34-2.01-1.42-3.92-2.97-6.11-4.13-3.5-1.86-7.2-2.9-10.95-4.09l-12.65-3.91-6.54-3.01-3.02-3.07c-10.48-12.37-14.66-31.5-13.45-47.38,1.29-3.04,3.43-5.77,5.03-8.66.77-1.38,1.66-4.56,2.72-5.47,1.69.47,2.88.24,4.51-.26l.49-.15c2.67-1.22,4.31-2.59,6.31-4.72Z"/>
      <path class="cls-17" d="M369.68,169.17c-.48-.62-.66-1.03-.92-1.75-.33-.91-.86-1.7-1.18-2.65l.29-.29.27.35c.68.85-.08-.07.77.74l.61.75.25.09c1.25.51,1.88,3.04,2.34,4.27l.49,1.35-1.22-1.59-.78.03c-.28-.77-.22-.89-.92-1.28Z"/>
      <path class="cls-15" d="M369.68,169.17c.7.39.65.51.92,1.28,1.87,4.42,3.17,9.17,2.93,14.01-.05,1.1-.03,2.58-.42,3.61l-.7,1.39c-.35-.21-.67-.49-.79-.91-.31-1.1.2-3.76.27-4.97.26-5.12-.32-9.64-2.21-14.41Z"/>
      <path class="cls-3" d="M370.6,170.45l.78-.03,1.22,1.59c1.59,4.86,3.62,12.12,1.12,16.96l-.33.61c-.65.19-.32.21-.98-.12l.7-1.39c.4-1.03.37-2.52.42-3.61.24-4.84-1.06-9.58-2.93-14.01Z"/>
      <path class="cls-42" d="M380.65,214.35l5.57,5.5,2.86,2.99.06.43c.34,2.2,1.42,3.75,2.38,5.7l3.4,7.65c1.45,3.75,2.65,7.65,3.54,11.57.88,3.85,1.39,7.77,2.56,11.56,1.2,3.86,3.46,7.04,5.26,10.6,1.01,2.01,2.22,4.65,2.29,6.92.19,5.8-6.07,16.29-9.39,21l-1.12,1.4c.09-11.39,1.09-23.77-1.4-34.93-2.84-12.71-8.14-25.07-12.23-37.42-1.33-4.02-3.38-8.74-3.78-12.96Z"/>
      <path class="cls-18" d="M366.43,209.25c3.65,3.74,6.41,9.37,8.79,14.01,6.25,12.2,11.43,24.39,15.02,37.63,1.14,4.2,2.35,8.45,3.08,12.75-1.16.03-4.11-.21-4.85.53-.87-.53-2.35,0-3.35.24l-14.75,3.83c-.41-1.28.62-4.86.84-6.42l.78-7.81c.82-13.66-.27-26.75-2.23-40.25-.6-4.11-1.01-8.92-2.88-12.69-.34-.68-.45-1.07-.46-1.83Z"/>
      <path class="cls-29" d="M306.37,135.3c1.29-3.04,3.43-5.77,5.03-8.66.77-1.38,1.66-4.56,2.72-5.47,1.69.47,2.88.24,4.51-.26l.49-.15c-1,9.53-1.5,18.51,1.91,27.67.7,1.88,1.71,3.57,2.48,5.41,2.34,5.59,7.15,10.81,11.88,14.49,2.29,1.78,4.85,3.22,7.22,4.89,5.16,3.65,10.24,8.31,13.13,14.01,1.27,2.52,1.91,5.25,2.56,7.97.38,1.58,1.02,3.1,1.21,4.7l-.42.98c-2.01-1.42-3.92-2.97-6.11-4.13-3.5-1.86-7.2-2.9-10.95-4.09l-12.65-3.91-6.54-3.01-3.02-3.07c-10.48-12.37-14.66-31.5-13.45-47.38Z"/>
      <path class="cls-18" d="M326.4,259.04l-4.01-16.41c1.95,3.66,3.24,7.78,4.75,11.65l9.71,25.36c.79,2.04,1.82,6.13,3.14,7.82l5.44-1.1,1.74,5.29,19.87,54.38-5.61,3.88-5.14,2.36-4.63,8.82c-1.66,4-3.53,8.04-4.62,12.24l-9.27,4.43.38.53c.31.83.57,1.63,1.12,2.34,1.18,2.02,2.53,4,4.16,5.7l-46.87,35.45c-.14-1.54,1.63-3.72,2.33-5.09,1.98-3.88,3.49-8.14,4.54-12.37,1.51-6.07,1.59-12.4.87-18.58-2.25-19.37-14.32-37.49-29.43-49.3-10.95-8.56-26.75-15.79-40.99-13.93-6.79.89-12.43,3.06-18.22,6.71l-3.85,2.34c-1.32-.89-2.98-1.02-4.5-1.39l-6.74-1.93c.52-2.48.7-4.91.8-7.43l.18-5.39.24-9.15,4.4.85c-4.07-8.83-8.91-16.98-9.43-27-.13-2.56.25-5.1.66-7.62.72,1.03,1.08,2.83,1.55,4.03,1.62,4.13,4.65,7.34,8.19,9.93,5.29,3.87,11.51,6.32,17.7,8.35,8.54,2.81,17.22,4.78,26.06,6.38,14.98,2.7,30.45,5.11,45.63,2.55,8.92-1.5,19.3-5.72,24.65-13.35,4.54-6.47,6.22-14.6,5.86-22.44-.14-3.01-.65-5.85-.66-8.89Z"/>
      <path class="cls-31" d="M201.81,306.24l4.4.85c4.13,6.88,7.8,14.24,9.46,22.11l-3.85,2.34c-1.32-.89-2.98-1.02-4.5-1.39l-6.74-1.93c.52-2.48.7-4.91.8-7.43l.18-5.39.24-9.15Z"/>
      <path class="cls-29" d="M326.4,259.04l-4.01-16.41c1.95,3.66,3.24,7.78,4.75,11.65l9.71,25.36c.79,2.04,1.82,6.13,3.14,7.82l5.44-1.1,1.74,5.29,19.87,54.38-5.61,3.88-5.14,2.36-4.63,8.82c-1.66,4-3.53,8.04-4.62,12.24l-9.27,4.43-.25-.93c-.48-2.39-.58-4.76-.69-7.19-.91-2.43-1.11-5.08-1.38-7.65-.66-5.6-.43-11.24-.18-16.86l2.16-24.83,1.11-8.55c.27-1.89.77-4.04.68-5.94-.17-3.7-2.09-8.24-3.08-11.88l-9.73-34.87Z"/>
      <path class="cls-21" d="M344.36,356.27c3.91-1.55,8.05-2.24,11.94-4l-4.63,8.82-.28.04c-.68.11-1.27.25-1.91.5-2.06.77-4.77.72-6.96.88l1.85-6.23Z"/>
      <path class="cls-27" d="M344.36,356.27l-1.85,6.23c-1.46,4.73-2.87,9.85-4.99,14.32-.48-2.39-.58-4.76-.69-7.19-.91-2.43-1.11-5.08-1.38-7.65,0-1.1-.04-2.2.14-3.3,1.46-.85,3.49-1.16,5.14-1.58l3.64-.84Z"/>
      <path class="cls-21" d="M335.45,361.98c0-1.1-.04-2.2.14-3.3,1.46-.85,3.49-1.16,5.14-1.58l-3.9,12.52c-.91-2.43-1.11-5.08-1.38-7.65Z"/>
      <path class="cls-32" d="M342.51,362.51c2.19-.16,4.9-.11,6.96-.88.65-.24,1.23-.38,1.91-.5l.28-.04c-1.66,4-3.53,8.04-4.62,12.24l-9.27,4.43-.25-.93c2.12-4.46,3.53-9.59,4.99-14.32Z"/>
    </g>
  </g>
</svg>